<svg width="708" height="964" viewBox="0 0 708 964" fill="none" xmlns="http://www.w3.org/2000/svg">
<g clip-path="url(#clip0_514_16720)">
<rect width="708" height="964" fill="#18338C"/>
<path fill-rule="evenodd" clip-rule="evenodd" d="M115.187 424C110.615 424 106.066 426.691 96.966 432.072L96.9658 432.072C94.9315 433.276 92.6698 434.613 90.1297 436.085C87.6222 437.54 85.3632 438.825 83.3283 439.982C74.1067 445.227 69.4872 447.854 67.1957 451.825C64.8955 455.811 64.9406 461.15 65.031 471.848C65.0507 474.189 65.0727 476.786 65.0727 479.683C65.0727 482.579 65.0507 485.177 65.031 487.518C64.9406 498.216 64.8955 503.555 67.1957 507.54C69.4872 511.511 74.1067 514.138 83.3284 519.383C85.3632 520.541 87.6222 521.825 90.1297 523.28C92.6256 524.728 94.8533 526.046 96.861 527.234C106.024 532.655 110.605 535.365 115.187 535.365C119.768 535.365 124.35 532.655 133.512 527.234C135.52 526.046 137.748 524.728 140.244 523.28C142.751 521.825 145.01 520.541 147.045 519.383C156.267 514.138 160.886 511.511 163.178 507.54C165.478 503.555 165.433 498.216 165.342 487.518C165.323 485.177 165.301 482.579 165.301 479.683C165.301 476.786 165.323 474.189 165.342 471.848C165.363 469.377 165.382 467.192 165.369 465.243C162.624 468.475 158.54 470.524 153.98 470.524C152.796 470.524 151.644 470.385 150.54 470.124C150.543 471.374 150.531 472.756 150.519 474.296C150.505 475.945 150.489 477.774 150.489 479.812C150.492 481.851 150.51 483.68 150.526 485.329C150.601 492.886 150.638 496.656 149.016 499.47C147.401 502.272 144.142 504.126 137.639 507.825C136.202 508.643 134.607 509.55 132.836 510.578C131.069 511.603 129.492 512.536 128.072 513.377C121.619 517.196 118.393 519.105 115.167 519.105C111.941 519.105 108.715 517.196 102.262 513.377C100.842 512.536 99.2652 511.603 97.4978 510.578C95.7259 509.549 94.1299 508.641 92.6924 507.824C86.1904 504.125 82.9316 502.271 81.314 499.47C79.6885 496.655 79.7201 492.883 79.7834 485.321C79.7971 483.674 79.8124 481.848 79.8124 479.812C79.8124 477.777 79.7971 475.95 79.7834 474.303C79.7201 466.742 79.6885 462.97 81.314 460.155C82.9316 457.354 86.1904 455.5 92.6924 451.801C94.1299 450.983 95.726 450.075 97.4978 449.047C99.2133 448.052 100.749 447.144 102.137 446.323L102.138 446.323C108.676 442.459 111.93 440.536 115.183 440.536C118.419 440.536 121.633 442.437 128.091 446.259C129.506 447.096 131.076 448.026 132.836 449.047C134.604 450.075 136.196 450.982 137.631 451.799C138.198 452.123 138.741 452.432 139.26 452.729C140.255 447.325 144.125 442.934 149.216 441.218C148.522 440.822 147.799 440.411 147.045 439.982C145.01 438.825 142.751 437.54 140.244 436.085C137.776 434.652 135.57 433.345 133.579 432.167C124.383 426.722 119.785 424 115.187 424Z" fill="white"/>
<path d="M153.979 466.756C160.175 466.756 165.198 461.708 165.198 455.483C165.198 449.257 160.175 444.21 153.979 444.21C147.783 444.21 142.76 449.257 142.76 455.483C142.76 461.708 147.783 466.756 153.979 466.756Z" fill="white"/>
<path d="M226.12 492.255C231.293 491.378 235.496 488.714 238.374 484.199C238.406 484.134 238.503 484.101 238.6 484.004C238.633 484.199 238.697 484.296 238.697 484.394C238.924 486.635 239.182 488.844 239.408 491.086C239.473 491.671 239.602 491.931 240.249 491.898C241.995 491.833 243.773 491.866 245.519 491.866C246.198 491.866 246.877 491.866 247.588 491.866C247.588 481.437 247.588 471.074 247.588 460.711C239.893 460.711 232.231 460.711 224.601 460.711C224.601 463.505 224.601 466.233 224.601 469.06C228.965 469.06 233.265 469.06 237.598 469.06C237.598 469.255 237.598 469.352 237.598 469.482C236.822 474.193 234.656 478.091 230.647 480.788C227.09 483.159 223.146 483.776 218.975 483.289C213.349 482.607 209.049 479.878 206.592 474.713C203.326 467.825 203.165 460.678 205.525 453.499C206.98 449.08 209.76 445.669 214.125 443.752C217.358 442.323 220.753 442.063 224.213 442.518C229.289 443.168 233.233 445.637 235.82 450.087C236.466 451.192 236.951 452.426 237.533 453.628C240.508 452.394 243.515 451.127 246.618 449.827C246.23 449.015 245.875 448.268 245.487 447.521C242.448 441.803 238.083 437.547 232.037 435.143C226.799 433.097 221.4 432.772 215.936 433.681C207.012 435.143 200.481 439.919 196.795 448.203C193.142 456.39 192.851 464.901 195.211 473.478C196.763 479.196 199.77 484.036 204.587 487.577C211.054 492.288 218.393 493.522 226.12 492.255Z" fill="white"/>
<path d="M376.435 482.442C377.922 480.493 379.086 478.414 380.056 476.075C376.855 474.775 373.719 473.476 370.518 472.176C370.13 473.021 369.775 473.801 369.387 474.548C367.479 478.251 364.666 480.948 360.625 482.15C357.909 482.93 355.128 483.06 352.348 482.735C346.431 482.085 341.937 479.259 339.512 473.736C336.602 467.043 336.473 460.124 338.963 453.301C340.676 448.558 344.071 445.375 348.921 443.913C352.251 442.938 355.646 442.873 359.041 443.49C364.634 444.497 368.417 447.649 370.195 453.139C370.26 453.301 370.324 453.464 370.389 453.626C373.622 452.327 376.791 451.092 379.959 449.793C379.862 449.598 379.83 449.468 379.797 449.371C379.506 448.786 379.248 448.201 378.957 447.649C375.724 441.444 370.939 436.993 364.311 434.719C359.396 433.03 354.32 432.802 349.212 433.647C340.418 435.109 333.887 439.787 330.201 447.941C325.965 457.362 325.901 467.043 329.619 476.627C332.205 483.287 336.893 488.063 343.586 490.661C348.403 492.546 353.415 493.001 358.556 492.416C365.895 491.636 371.909 488.355 376.435 482.442Z" fill="white"/>
<path d="M420.273 463.893C419.4 458.305 416.49 454.244 411.252 451.97C407.954 450.54 404.462 450.216 400.906 450.443C396.38 450.768 392.37 452.36 389.04 455.511C387.876 456.616 386.842 457.882 385.742 459.085C388.394 461.001 390.883 462.821 393.373 464.607C393.437 464.542 393.502 464.542 393.502 464.51C393.567 464.445 393.599 464.347 393.664 464.282C395.992 460.774 399.16 458.987 403.428 459.085C407.728 459.182 410.67 461.911 410.961 466.232C410.993 466.654 411.026 467.076 411.058 467.531C410.67 467.531 410.411 467.531 410.185 467.531C406.79 467.531 403.428 467.531 400.033 467.531C396.897 467.564 393.793 467.888 390.819 469.058C386.874 470.617 384.288 473.379 383.867 477.732C383.35 483.027 385.128 487.348 389.719 490.24C392.209 491.799 394.957 492.481 397.834 492.644C403.331 493.001 407.89 491.214 411.22 486.666C411.317 486.504 411.478 486.374 411.672 486.114C411.899 488.095 412.125 489.947 412.319 491.799C415.067 491.799 417.751 491.799 420.531 491.799C420.531 491.507 420.531 491.214 420.531 490.954C420.531 483.287 420.531 475.62 420.531 467.953C420.531 466.654 420.467 465.257 420.273 463.893ZM408.989 480.169C406.305 483.645 401.359 485.172 397.35 483.807C395.798 483.255 394.537 482.345 394.084 480.656C393.631 478.999 394.31 477.31 395.895 476.173L410.67 474.711C410.767 474.711 410.832 474.743 411.026 474.743C410.961 476.855 410.185 478.609 408.989 480.169Z" fill="white"/>
<path d="M460.496 480.167C462.63 486.015 466.8 489.848 472.814 491.505C477.761 492.87 482.707 492.707 487.59 491.115C490.984 490.011 493.765 487.997 496.222 485.365C493.927 483.351 491.663 481.369 489.4 479.355C488.01 480.752 486.49 481.857 484.68 482.441C482.707 483.091 480.638 483.189 478.569 483.124C473.978 482.994 470.809 480.46 469.71 476.139C469.613 475.717 469.548 475.262 469.451 474.742C478.828 474.742 488.075 474.742 497.515 474.742C497.58 473.345 497.677 472.013 497.677 470.681C497.677 468.05 497.321 465.483 496.545 462.949C494.864 457.491 491.566 453.528 486.038 451.676C482.643 450.539 479.151 450.344 475.595 450.767C469.581 451.514 464.893 454.47 461.951 459.798C458.394 466.295 457.941 473.215 460.496 480.167ZM478.472 458.921C484.13 458.888 488.107 462.494 487.913 467.497C481.802 467.497 475.692 467.497 469.581 467.497C469.387 463.079 473.655 458.953 478.472 458.921Z" fill="white"/>
<path d="M307.693 452.068C307.693 458.468 307.725 464.868 307.66 471.268C307.66 472.697 307.531 474.094 307.305 475.491C306.949 477.668 306.173 479.715 304.492 481.241C302.39 483.158 299.804 483.515 297.12 483.288C293.725 482.996 291.85 481.339 291.236 477.993C290.977 476.661 290.913 475.264 290.913 473.899C290.88 466.59 290.913 459.313 290.88 452.003C290.88 451.711 290.848 451.418 290.848 451.126C287.485 451.126 284.22 451.126 280.857 451.126C280.857 451.418 280.857 451.711 280.857 451.971C280.857 459.638 280.825 467.304 280.89 474.971C280.89 476.758 281.116 478.61 281.439 480.364C282.118 483.84 283.573 486.959 286.225 489.363C289.231 492.125 292.885 493.067 296.862 492.807C301 492.547 304.492 490.89 307.208 487.706C307.305 487.576 307.434 487.479 307.693 487.251C307.693 488.908 307.693 490.37 307.693 491.865C311.088 491.865 314.385 491.865 317.716 491.865C317.716 478.253 317.716 464.706 317.716 451.126C314.385 451.126 311.088 451.126 307.693 451.126C307.693 451.451 307.693 451.776 307.693 452.068Z" fill="white"/>
<path d="M274.358 483.577C273.517 483.642 272.774 483.772 271.998 483.772C269.314 483.772 268.409 482.83 268.409 480.296C268.441 465.19 268.441 450.083 268.441 435.009C268.441 434.359 268.247 434.197 267.633 434.197C265.24 434.23 262.88 434.197 260.488 434.197C259.841 434.197 259.227 434.197 258.483 434.197C258.483 434.619 258.483 434.912 258.483 435.204C258.483 451.383 258.483 467.561 258.483 483.74C258.483 484.747 258.58 485.754 258.742 486.761C259.291 490.042 261.263 491.926 264.529 492.511C266.76 492.901 268.991 492.706 271.222 492.414C272.289 492.284 273.323 492.089 274.358 491.926C274.358 489.068 274.358 486.339 274.358 483.577Z" fill="white"/>
<path d="M440.704 490.984C440.704 484.909 440.704 478.867 440.704 472.792C440.704 470.81 441.028 468.861 441.674 466.976C442.321 465.092 443.356 463.435 444.81 462.038C447.074 459.862 451.632 459.017 454.672 461.291C456.159 458.595 457.646 455.898 459.166 453.169C458.875 452.975 458.681 452.812 458.454 452.65C456.579 451.448 454.478 450.863 452.279 450.571C447.753 449.953 443.614 452.097 441.545 456.223C441.319 456.646 441.125 457.1 440.898 457.523C440.834 457.523 440.801 457.49 440.737 457.49C440.737 455.379 440.737 453.267 440.737 451.123C437.503 451.123 434.335 451.123 431.166 451.123C431.166 464.735 431.166 478.282 431.166 491.861C434.367 491.861 437.471 491.861 440.704 491.861C440.704 491.504 440.704 491.244 440.704 490.984Z" fill="white"/>
<path d="M325.832 503.526C323.666 503.201 321.467 503.364 319.269 503.266C318.622 503.234 318.46 503.429 318.46 504.079C318.493 509.374 318.46 514.669 318.46 519.965C318.46 520.192 318.46 520.42 318.46 520.809C320.95 520.744 323.342 520.809 325.67 520.55C328.612 520.225 330.843 518.698 331.943 515.806C332.525 514.28 332.622 512.688 332.492 511.063C332.298 506.84 329.97 504.111 325.832 503.526ZM329.259 513.76C329 515.774 327.739 517.106 325.767 517.528C324.442 517.821 323.051 517.821 321.629 517.951C321.629 513.89 321.629 510.089 321.629 506.19C323.569 506.158 325.541 505.963 327.319 506.97C328.451 507.587 329.097 508.659 329.259 509.894C329.388 511.161 329.453 512.493 329.259 513.76Z" fill="white"/>
<path d="M249.822 509.209C249.272 508.527 248.755 507.942 248.238 507.325C247.688 507.812 247.203 508.267 246.686 508.624C246.492 508.754 246.136 508.819 245.942 508.754C244.778 508.267 243.582 508.137 242.321 508.364C239.573 508.852 237.891 511.256 238.603 513.822C238.764 514.439 239.088 514.992 239.346 515.576C237.891 517.298 237.924 518.695 239.411 520.579C239.185 520.774 238.958 521.034 238.7 521.197C238.182 521.554 238.085 522.074 238.182 522.659C238.376 523.991 238.991 525.095 240.187 525.68C241.157 526.135 242.256 526.427 243.323 526.557C244.972 526.719 246.621 526.525 248.011 525.42C249.143 524.51 249.498 523.308 249.304 521.911C249.143 520.547 248.27 519.767 247.009 519.377C246.492 519.215 245.942 519.085 245.425 518.988C244.261 518.793 243.064 518.663 241.901 518.435C241.577 518.37 241.222 518.143 240.995 517.883C240.866 517.753 240.898 517.363 240.995 517.136C241.06 517.038 241.416 517.006 241.61 517.038C242.192 517.103 242.773 517.298 243.355 517.331C247.235 517.461 249.466 514.212 248.173 511.028C248.108 510.866 248.205 510.541 248.367 510.411C248.852 509.989 249.337 509.599 249.822 509.209ZM241.157 521.554C241.254 521.392 241.513 521.262 241.707 521.294C242.935 521.457 244.164 521.619 245.36 521.814C245.91 521.911 246.492 522.074 246.524 522.756C246.556 523.471 246.039 523.796 245.425 523.991C244.94 524.12 244.455 524.153 243.937 524.25C243 524.218 242.159 524.055 241.416 523.503C240.704 522.918 240.607 522.301 241.157 521.554ZM243.614 514.829C242.386 514.829 241.577 514.017 241.545 512.75C241.545 511.451 242.386 510.573 243.582 510.573C244.778 510.573 245.586 511.451 245.586 512.718C245.619 513.985 244.843 514.829 243.614 514.829Z" fill="white"/>
<path d="M435.013 515.544C433.978 517.493 432.264 518.11 430.195 517.98C428.32 517.85 426.865 517.038 426.057 515.284C425.41 513.952 425.281 512.555 425.378 511.126C425.669 507.325 428.546 505.246 432.232 506.155C433.816 506.545 434.883 507.552 435.368 509.176C436.37 508.787 437.276 508.429 438.246 508.039C436.985 505.051 434.754 503.361 431.359 503.069C427.609 502.744 424.214 504.368 422.856 508.397C422.533 509.339 422.371 510.346 422.306 511.353C422.145 513.757 422.597 516.031 424.084 517.98C426.283 520.774 429.29 521.392 432.588 520.774C435.336 520.255 437.146 518.533 438.278 515.966C437.308 515.576 436.37 515.187 435.433 514.797C435.271 515.057 435.142 515.284 435.013 515.544Z" fill="white"/>
<path d="M361.107 508.172C359.975 508.237 359.005 508.692 358.1 509.602C358.1 507.425 358.1 505.443 358.1 503.397C357.065 503.397 356.095 503.397 355.061 503.397C355.061 509.212 355.061 514.962 355.061 520.712C356.095 520.712 357.065 520.712 358.067 520.712C358.1 520.355 358.132 520.03 358.164 519.673C360.654 521.947 365.277 521.492 366.538 517.041C367.056 515.189 367.023 513.37 366.344 511.583C365.439 509.212 363.564 508.01 361.107 508.172ZM363.467 516.521C362.982 517.658 362.077 518.211 360.88 518.211C359.684 518.211 358.714 517.756 358.261 516.619C358.003 515.969 357.906 515.254 357.744 514.702C357.873 514.052 357.906 513.565 358.035 513.078C358.455 511.648 359.522 510.836 360.88 510.869C362.271 510.901 363.241 511.681 363.629 513.11C363.984 514.247 363.952 515.384 363.467 516.521Z" fill="white"/>
<path d="M304.589 509.507C301.485 507.103 297.8 508.012 296.409 511.456C295.601 513.503 295.601 515.614 296.409 517.693C297.412 520.195 299.707 521.429 302.326 520.812C303.167 520.617 303.943 520.065 304.719 519.675C304.751 519.935 304.816 520.292 304.88 520.65C305.818 520.65 306.691 520.65 307.531 520.65C307.531 514.835 307.531 509.084 307.531 503.302C306.529 503.302 305.559 503.302 304.557 503.302C304.589 505.381 304.589 507.363 304.589 509.507ZM304.719 515.679C304.492 517.336 303.361 518.246 301.809 518.213C300.224 518.181 299.158 517.141 298.931 515.452C298.899 515.159 298.899 514.867 298.867 514.575C298.834 514.575 298.834 514.575 298.802 514.575C298.899 514.022 298.964 513.438 299.125 512.885C299.513 511.618 300.548 510.871 301.841 510.871C303.134 510.871 304.201 511.553 304.525 512.885C304.783 513.762 304.848 514.77 304.719 515.679Z" fill="white"/>
<path d="M347.425 508.268C346.876 508.203 346.326 508.171 345.776 508.236C343.901 508.398 342.414 509.275 341.314 510.867C342.09 511.419 342.834 511.972 343.545 512.492C344.903 510.965 346.261 510.477 347.587 511.03C348.46 511.419 348.945 512.264 348.848 513.401C347.813 513.401 346.746 513.369 345.712 513.401C344.871 513.434 343.998 513.499 343.222 513.726C340.959 514.343 340.054 516.487 341.023 518.599C342.187 521.166 346.358 521.815 348.427 519.769C348.621 519.574 348.815 519.346 349.074 519.021C349.171 519.704 349.236 520.191 349.3 520.678C350.141 520.678 350.917 520.678 351.758 520.678C351.758 518.209 351.758 515.773 351.758 513.336C351.758 510.477 350.238 508.658 347.425 508.268ZM344.903 518.339C344.257 518.144 343.739 517.787 343.739 517.072C343.739 516.39 344.16 515.968 344.774 515.773C345.162 515.643 345.582 515.578 345.97 515.545C346.908 515.513 347.878 515.545 348.88 515.545C348.654 517.559 346.714 518.859 344.903 518.339Z" fill="white"/>
<path d="M267.405 508.336C266.694 508.206 265.95 508.141 265.239 508.206C263.364 508.369 261.876 509.246 260.809 510.838C261.585 511.39 262.297 511.91 263.04 512.462C264.398 510.903 265.853 510.415 267.179 511.065C268.019 511.487 268.472 512.397 268.278 513.372C267.243 513.372 266.209 513.339 265.142 513.372C264.334 513.404 263.493 513.502 262.717 513.697C261.456 514.021 260.518 514.736 260.26 516.101C259.969 517.563 260.324 518.83 261.424 519.837C262.911 521.201 266.467 521.656 268.246 519.414C268.343 519.317 268.472 519.219 268.601 519.122C268.698 519.674 268.763 520.161 268.828 520.649C269.668 520.649 270.412 520.649 271.22 520.649C271.253 520.519 271.253 520.421 271.253 520.356C271.253 517.822 271.285 515.321 271.253 512.787C271.188 510.545 269.636 508.759 267.405 508.336ZM266.758 518.017C265.821 518.537 264.851 518.635 263.881 518.082C263.008 517.595 262.976 516.555 263.784 516.003C264.075 515.808 264.431 515.613 264.786 515.613C265.95 515.581 267.114 515.581 268.375 515.581C268.278 516.75 267.664 517.498 266.758 518.017Z" fill="white"/>
<path d="M291.986 509.145C288.785 507 284.226 508.495 283.062 512.166C282.739 513.173 282.642 514.278 282.674 515.35C282.771 517.949 284.42 519.963 286.845 520.612C288.397 521.035 289.917 520.97 291.436 520.418C292.406 520.093 293.214 519.508 293.893 518.728C293.214 518.111 292.535 517.559 291.856 516.974C290.304 518.111 288.591 518.403 287.298 517.786C286.392 517.364 285.94 516.617 285.81 515.512C288.656 515.512 291.436 515.512 294.281 515.512C294.281 514.7 294.346 514.018 294.281 513.335C294.055 511.646 293.473 510.152 291.986 509.145ZM285.907 513.335C285.875 511.906 287.007 510.769 288.526 510.769C290.207 510.736 291.274 511.711 291.307 513.335C289.496 513.335 287.718 513.335 285.907 513.335Z" fill="white"/>
<path d="M447.788 508.63C445.428 507.883 443.165 508.045 441.29 509.897C439.091 512.073 438.897 516.297 440.837 518.701C442.454 520.715 444.652 521.072 447.012 520.78C448.5 520.585 449.728 519.903 450.795 518.766C450.116 518.148 449.437 517.564 448.758 516.979C447.368 518.181 445.816 518.441 444.2 517.759C443.294 517.401 442.874 516.622 442.745 515.517C443.1 515.517 443.327 515.517 443.585 515.517C445.461 515.517 447.336 515.517 449.211 515.517C451.41 515.517 451.442 515.517 451.183 513.275C450.892 511.099 449.987 509.344 447.788 508.63ZM442.777 513.34C443.003 511.651 444.038 510.741 445.59 510.774C447.206 510.839 448.144 511.716 448.241 513.34C446.43 513.34 444.62 513.34 442.777 513.34Z" fill="white"/>
<path d="M233.01 508.63C230.65 507.883 228.387 508.045 226.512 509.897C224.313 512.073 224.119 516.297 226.059 518.701C227.676 520.715 229.874 521.072 232.235 520.78C233.722 520.585 234.95 519.903 236.017 518.766C235.306 518.148 234.659 517.564 233.98 516.979C232.59 518.181 231.038 518.441 229.389 517.759C228.484 517.401 228.064 516.622 227.934 515.517C228.29 515.517 228.516 515.517 228.775 515.517C230.65 515.517 232.526 515.517 234.401 515.517C236.599 515.517 236.632 515.517 236.373 513.275C236.114 511.099 235.209 509.344 233.01 508.63ZM228.031 513.34C228.031 511.878 229.098 510.806 230.586 510.774C232.299 510.741 233.366 511.651 233.431 513.34C231.62 513.34 229.81 513.34 228.031 513.34Z" fill="white"/>
<path d="M393.114 509.34C390.398 511.386 389.881 516.194 392.177 518.858C393.761 520.743 395.895 521.067 398.158 520.775C399.678 520.58 400.971 519.898 402.005 518.728C401.294 518.111 400.648 517.526 399.969 516.974C398.611 518.176 397.091 518.404 395.507 517.819C394.569 517.461 394.084 516.649 393.955 515.545C394.246 515.545 394.505 515.545 394.731 515.545C397.091 515.545 399.451 515.545 401.779 515.545C402.07 515.545 402.426 515.642 402.426 515.155C402.523 513.206 402.296 511.321 400.906 509.827C399.096 507.878 395.345 507.683 393.114 509.34ZM393.987 513.303C394.246 511.549 395.281 510.672 396.994 510.769C398.481 510.867 399.419 511.776 399.451 513.303C397.608 513.303 395.83 513.303 393.987 513.303Z" fill="white"/>
<path d="M484.736 508.69C483.41 508.17 482.02 508.105 480.63 508.43C475.844 509.535 475.101 516.195 477.881 519.086C479.692 520.97 483.054 521.49 485.576 520.223C486.288 519.866 486.902 519.346 487.613 518.826C486.805 518.111 486.158 517.559 485.512 516.974C484.057 518.176 482.505 518.436 480.823 517.689C479.983 517.299 479.595 516.52 479.466 515.512C480.92 515.512 482.278 515.512 483.636 515.512C485.027 515.512 486.417 515.512 487.904 515.512C487.904 514.7 487.969 513.986 487.904 513.271C487.645 511.224 486.805 509.502 484.736 508.69ZM479.53 513.336C479.724 511.679 480.791 510.737 482.343 510.769C483.96 510.802 484.865 511.679 484.994 513.336C483.184 513.336 481.373 513.336 479.53 513.336Z" fill="white"/>
<path d="M379.925 513.044C379.602 510.933 378.664 509.243 376.498 508.594C374.17 507.879 371.939 508.074 370.129 509.861C367.898 512.037 367.704 516.423 369.708 518.794C371.551 521.004 374.009 521.199 376.595 520.614C377.791 520.354 378.761 519.704 379.602 518.762C378.891 518.145 378.244 517.56 377.565 516.975C376.11 518.177 374.558 518.437 372.877 517.69C372.004 517.3 371.648 516.52 371.519 515.513C371.842 515.513 372.069 515.513 372.327 515.513C374.655 515.513 376.983 515.513 379.311 515.513C379.861 515.513 380.087 515.318 380.022 514.799C380.022 514.246 380.022 513.629 379.925 513.044ZM371.616 513.337C371.681 511.777 372.78 510.738 374.332 510.77C375.981 510.803 377.015 511.745 377.015 513.337C375.205 513.337 373.394 513.337 371.616 513.337Z" fill="white"/>
<path d="M210.7 508.563C208.89 507.848 207.144 508.108 205.656 509.44C205.559 509.505 205.462 509.57 205.301 509.667C205.268 509.213 205.236 508.888 205.236 508.498C204.234 508.498 203.264 508.498 202.294 508.498C202.294 512.624 202.294 516.685 202.294 520.713C203.296 520.713 204.234 520.713 205.268 520.713C205.268 520.421 205.268 520.193 205.268 519.933C205.268 518.049 205.268 516.165 205.268 514.281C205.268 513.079 205.753 512.136 206.756 511.519C207.564 510.999 208.469 510.804 209.342 511.259C210.183 511.714 210.312 512.559 210.312 513.403C210.344 515.483 210.312 517.529 210.312 519.608C210.312 519.966 210.312 520.323 210.312 520.713C211.347 520.713 212.317 520.713 213.319 520.713C213.319 517.952 213.384 515.255 213.287 512.559C213.222 510.739 212.414 509.245 210.7 508.563Z" fill="white"/>
<path d="M464.824 512.495C464.727 510.74 463.951 509.214 462.205 508.531C460.394 507.817 458.648 508.077 457.161 509.409C457.064 509.473 456.967 509.538 456.805 509.636C456.773 509.214 456.773 508.856 456.741 508.466C455.738 508.466 454.801 508.466 453.798 508.466C453.798 512.592 453.798 516.621 453.798 520.681C454.801 520.681 455.738 520.681 456.773 520.681C456.773 520.389 456.773 520.162 456.773 519.902C456.773 518.018 456.773 516.133 456.773 514.249C456.773 513.339 457.064 512.527 457.743 511.91C458.584 511.13 459.553 510.708 460.685 511.163C461.752 511.585 461.849 512.625 461.849 513.599C461.881 515.711 461.849 517.823 461.849 519.934C461.849 520.194 461.849 520.422 461.849 520.681C462.916 520.681 463.854 520.681 464.888 520.681C464.888 520.389 464.888 520.129 464.888 519.869C464.888 517.4 464.953 514.964 464.824 512.495Z" fill="white"/>
<path d="M409.058 510.607C409.091 510.607 409.091 510.607 409.123 510.607C410.158 510.64 410.837 511.257 411.386 512.069C412.162 511.615 412.906 511.225 413.617 510.835C413.552 510.672 413.552 510.607 413.52 510.575C411.968 508.106 407.991 507.391 405.728 509.276C405.179 509.73 404.758 510.445 404.564 511.16C404.079 513.076 404.855 514.408 406.731 515.091C407.636 515.416 408.606 515.643 409.543 515.968C410.093 516.163 410.643 516.39 410.61 517.137C410.578 517.852 410.061 518.209 409.446 518.404C408.185 518.794 406.957 518.274 406.31 517.105C406.213 516.91 406.084 516.715 405.987 516.52C405.243 516.845 404.564 517.17 403.885 517.462C403.821 517.495 403.788 517.527 403.659 517.625C403.788 517.917 403.918 518.242 404.112 518.534C405.534 520.873 408.961 521.718 411.516 520.386C412.971 519.606 413.649 518.372 413.617 516.747C413.585 515.188 412.744 514.181 411.354 513.629C410.481 513.271 409.543 513.011 408.638 512.719C407.668 512.394 407.312 512.004 407.409 511.485C407.474 510.867 408.185 510.51 409.058 510.607Z" fill="white"/>
<path d="M388.04 518.242C386.618 518.501 385.971 517.982 385.971 516.52C385.971 515.35 385.971 514.181 385.971 513.011C385.971 512.329 385.971 511.647 385.971 510.899C387.07 510.899 388.105 510.899 389.107 510.899C389.107 510.055 389.107 509.275 389.107 508.398C388.04 508.398 387.038 508.398 385.971 508.398C385.971 506.644 385.971 504.987 385.971 503.2C385.292 503.72 384.742 504.207 384.128 504.565C383.352 505.019 383.029 505.604 383.158 506.514C383.223 507.099 383.158 507.716 383.158 508.43C382.415 508.43 381.8 508.43 381.154 508.43C381.154 509.308 381.154 510.087 381.154 510.932C381.833 510.932 382.414 510.932 383.126 510.932C383.126 511.224 383.126 511.484 383.126 511.744C383.126 513.661 383.126 515.545 383.126 517.462C383.158 519.184 384.063 520.386 385.648 520.808C386.682 521.068 387.749 521.003 388.752 520.711C388.913 520.678 389.139 520.451 389.139 520.288C389.172 519.541 389.172 518.794 389.172 517.949C388.687 518.079 388.364 518.177 388.04 518.242Z" fill="white"/>
<path d="M473.883 518.177C472.267 518.632 471.491 518.047 471.491 516.358C471.491 514.799 471.491 513.239 471.491 511.68C471.491 511.452 471.523 511.193 471.523 510.9C472.623 510.9 473.657 510.9 474.692 510.9C474.692 510.056 474.692 509.276 474.692 508.431C473.819 508.431 473.01 508.399 472.17 508.431C471.62 508.464 471.459 508.269 471.459 507.717C471.491 506.255 471.459 504.793 471.459 503.168C470.521 503.883 469.745 504.468 468.969 505.085C468.807 505.215 468.678 505.54 468.678 505.767C468.646 506.482 468.646 507.197 468.678 507.911C468.678 508.269 468.549 508.399 468.193 508.399C467.708 508.399 467.191 508.399 466.706 508.399C466.706 509.276 466.706 510.088 466.706 510.933C467.352 510.933 467.967 510.933 468.581 510.933C468.581 511.258 468.581 511.517 468.581 511.777C468.581 513.597 468.549 515.416 468.581 517.203C468.613 519.087 469.422 520.289 471.038 520.744C472.138 521.069 473.204 520.971 474.271 520.679C474.433 520.646 474.659 520.451 474.659 520.321C474.692 519.542 474.692 518.762 474.692 517.885C474.368 518.047 474.142 518.112 473.883 518.177Z" fill="white"/>
<path d="M221.655 518.307C220.653 518.436 220.006 517.982 219.974 516.975C219.909 514.993 219.974 513.044 219.974 511.062C219.974 511.029 220.038 510.997 220.135 510.899C221.073 510.899 222.108 510.899 223.11 510.899C223.11 510.055 223.11 509.275 223.11 508.43C222.269 508.43 221.461 508.398 220.685 508.43C220.135 508.463 219.909 508.301 219.941 507.716C219.974 506.936 219.941 506.156 219.941 505.377C219.941 504.694 219.941 504.045 219.941 503.2C219.068 503.882 218.292 504.402 217.581 505.019C217.355 505.214 217.193 505.572 217.193 505.864C217.129 506.676 217.161 507.521 217.161 508.43C216.45 508.43 215.803 508.43 215.189 508.43C215.189 509.34 215.189 510.12 215.189 510.964C215.835 510.964 216.417 510.964 217.096 510.964C217.096 511.257 217.096 511.517 217.096 511.744C217.096 513.563 217.096 515.383 217.096 517.169C217.096 518.989 217.84 520.191 219.295 520.711C220.459 521.133 221.623 521.035 222.787 520.711C222.948 520.678 223.142 520.451 223.142 520.321C223.175 519.541 223.175 518.794 223.175 517.982C222.593 518.112 222.14 518.242 221.655 518.307Z" fill="white"/>
<path d="M279.441 518.307C278.503 518.404 277.856 517.884 277.824 516.942C277.792 514.96 277.824 513.011 277.824 510.899C278.923 510.899 279.926 510.899 280.928 510.899C280.928 510.022 280.928 509.243 280.928 508.398C279.861 508.398 278.859 508.398 277.792 508.398C277.792 506.676 277.792 505.019 277.792 503.2C276.951 503.817 276.24 504.402 275.496 504.922C275.108 505.182 274.914 505.507 274.947 505.994C274.979 506.774 274.947 507.553 274.947 508.43C274.268 508.43 273.621 508.43 273.007 508.43C273.007 509.308 273.007 510.12 273.007 510.964C273.686 510.964 274.268 510.964 274.914 510.964C274.914 513.174 274.914 515.285 274.914 517.429C274.914 519.086 275.787 520.288 277.274 520.743C278.374 521.1 279.473 521.003 280.572 520.711C280.734 520.678 280.928 520.451 280.928 520.321C280.96 519.541 280.96 518.794 280.96 517.982C280.443 518.112 279.958 518.242 279.441 518.307Z" fill="white"/>
<path d="M195.121 520.714C196.155 520.714 197.125 520.714 198.16 520.714C198.16 514.866 198.16 509.116 198.16 503.334C197.125 503.334 196.123 503.334 195.121 503.334C195.121 509.149 195.121 514.899 195.121 520.714Z" fill="white"/>
<path d="M257.288 508.239C256.189 508.402 255.445 509.116 254.831 510.189C254.799 509.474 254.766 508.954 254.766 508.434C253.796 508.434 252.891 508.434 251.953 508.434C251.953 512.56 251.953 516.621 251.953 520.649C252.923 520.649 253.829 520.649 254.799 520.649C254.799 518.798 254.766 517.011 254.799 515.192C254.799 514.607 254.896 513.989 255.025 513.437C255.251 512.528 255.736 511.748 256.609 511.293C257.417 510.871 258.226 510.968 259.034 511.423C259.487 510.578 259.939 509.799 260.36 508.987C259.357 508.369 258.355 508.109 257.288 508.239Z" fill="white"/>
<path d="M495.928 508.237C494.797 508.4 494.086 509.147 493.439 510.024C493.439 509.504 493.439 508.984 493.439 508.432C492.469 508.432 491.564 508.432 490.626 508.432C490.626 512.558 490.626 516.586 490.626 520.647C491.596 520.647 492.469 520.647 493.439 520.647C493.439 520.355 493.439 520.095 493.439 519.867C493.439 518.146 493.407 516.424 493.439 514.702C493.471 513.468 493.827 512.298 494.894 511.518C495.767 510.869 496.704 510.901 497.674 511.421C498.127 510.576 498.547 509.797 499 508.984C497.998 508.4 496.995 508.107 495.928 508.237Z" fill="white"/>
<path d="M335.396 520.682C336.366 520.682 337.304 520.682 338.274 520.682C338.274 516.556 338.274 512.495 338.274 508.466C337.272 508.466 336.366 508.466 335.396 508.466C335.396 512.56 335.396 516.621 335.396 520.682Z" fill="white"/>
<path d="M335.371 506.03C336.438 506.03 337.441 506.03 338.411 506.03C338.411 505.088 338.411 504.211 338.411 503.334C337.376 503.334 336.374 503.334 335.371 503.334C335.371 504.243 335.371 505.12 335.371 506.03Z" fill="white"/>
<path d="M162.5 803C155.423 803 148.387 808.064 130.796 818.193C95.6556 838.449 99.092 832.487 99.092 873C99.092 913.513 95.6556 907.551 130.796 927.807C165.936 948.064 159.064 948.064 194.204 927.807C229.344 907.551 225.908 913.513 225.908 873C225.908 832.487 229.344 838.449 194.204 818.193C176.654 808.064 169.577 803 162.5 803Z" fill="#5369B9"/>
<path d="M53.5 233C46.4228 233 39.3866 238.064 21.796 248.193C-13.3444 268.449 -9.90805 262.487 -9.90805 303C-9.90805 343.513 -13.3444 337.551 21.796 357.807C56.9363 378.064 50.0637 378.064 85.204 357.807C120.344 337.551 116.908 343.513 116.908 303C116.908 262.487 120.344 268.449 85.204 248.193C67.6543 238.064 60.5772 233 53.5 233Z" fill="#2B47A4"/>
<path d="M254.5 116C247.423 116 240.387 121.064 222.796 131.193C187.656 151.449 191.092 145.487 191.092 186C191.092 226.513 187.656 220.551 222.796 240.807C257.936 261.064 251.064 261.064 286.204 240.807C321.344 220.551 317.908 226.513 317.908 186C317.908 145.487 321.344 151.449 286.204 131.193C268.654 121.064 261.577 116 254.5 116Z" fill="#2B47A4"/>
<path d="M95.5 920C88.4228 920 81.3866 925.064 63.796 935.193C28.6556 955.449 32.092 949.487 32.092 990C32.092 1030.51 28.6556 1024.55 63.796 1044.81C98.9363 1065.06 92.0637 1065.06 127.204 1044.81C162.344 1024.55 158.908 1030.51 158.908 990C158.908 949.487 162.344 955.449 127.204 935.193C109.654 925.064 102.577 920 95.5 920Z" fill="#2B47A4"/>
<path d="M95.5 686C88.4228 686 81.3866 691.064 63.796 701.193C28.6556 721.449 32.092 715.487 32.092 756C32.092 796.513 28.6556 790.551 63.796 810.807C98.9363 831.064 92.0637 831.064 127.204 810.807C162.344 790.551 158.908 796.513 158.908 756C158.908 715.487 162.344 721.449 127.204 701.193C109.654 691.064 102.577 686 95.5 686Z" fill="#5369B9"/>
<path d="M562.5 565C555.423 565 548.387 570.064 530.796 580.193C495.656 600.449 499.092 594.487 499.092 635C499.092 675.513 495.656 669.551 530.796 689.807C565.936 710.064 559.064 710.064 594.204 689.807C629.344 669.551 625.908 675.513 625.908 635C625.908 594.487 629.344 600.449 594.204 580.193C576.654 570.064 569.577 565 562.5 565Z" fill="#2B47A4"/>
<path d="M29.5 570C22.4228 570 15.3866 575.064 -2.20402 585.193C-37.3444 605.449 -33.908 599.487 -33.908 640C-33.908 680.513 -37.3444 674.551 -2.20402 694.807C32.9363 715.064 26.0637 715.064 61.204 694.807C96.3444 674.551 92.9081 680.513 92.9081 640C92.9081 599.487 96.3444 605.449 61.204 585.193C43.6543 575.064 36.5772 570 29.5 570Z" fill="#2B47A4"/>
<path d="M428.5 803C421.423 803 414.387 808.064 396.796 818.193C361.656 838.449 365.092 832.487 365.092 873C365.092 913.513 361.656 907.551 396.796 927.807C431.936 948.064 425.064 948.064 460.204 927.807C495.344 907.551 491.908 913.513 491.908 873C491.908 832.487 495.344 838.449 460.204 818.193C442.654 808.064 435.577 803 428.5 803Z" fill="#2B47A4"/>
<path d="M561.5 803C554.423 803 547.387 808.064 529.796 818.193C494.656 838.449 498.092 832.487 498.092 873C498.092 913.513 494.656 907.551 529.796 927.807C564.936 948.064 558.064 948.064 593.204 927.807C628.344 907.551 624.908 913.513 624.908 873C624.908 832.487 628.344 838.449 593.204 818.193C575.654 808.064 568.577 803 561.5 803Z" fill="#2B47A4"/>
<path d="M625.5 685C618.423 685 611.387 690.064 593.796 700.193C558.656 720.449 562.092 714.487 562.092 755C562.092 795.513 558.656 789.551 593.796 809.807C628.936 830.064 622.064 830.064 657.204 809.807C692.344 789.551 688.908 795.513 688.908 755C688.908 714.487 692.344 720.449 657.204 700.193C639.654 690.064 632.577 685 625.5 685Z" fill="#5369B9"/>
<path d="M186.5 233C179.423 233 172.387 238.064 154.796 248.193C119.656 268.449 123.092 262.487 123.092 303C123.092 343.513 119.656 337.551 154.796 357.807C189.936 378.064 183.064 378.064 218.204 357.807C253.344 337.551 249.908 343.513 249.908 303C249.908 262.487 253.344 268.449 218.204 248.193C200.654 238.064 193.577 233 186.5 233Z" fill="#2B47A4"/>
<path d="M457.5 230C450.423 230 443.387 235.064 425.796 245.193C390.656 265.449 394.092 259.487 394.092 300C394.092 340.513 390.656 334.551 425.796 354.807C460.936 375.064 454.064 375.064 489.204 354.807C524.344 334.551 520.908 340.513 520.908 300C520.908 259.487 524.344 265.449 489.204 245.193C471.654 235.064 464.577 230 457.5 230Z" fill="#5369B9"/>
<path d="M590.5 3C583.423 3 576.387 8.06418 558.796 18.1925C523.656 38.4492 527.092 32.4866 527.092 73C527.092 113.513 523.656 107.551 558.796 127.807C593.936 148.064 587.064 148.064 622.204 127.807C657.344 107.551 653.908 113.513 653.908 73C653.908 32.4866 657.344 38.4492 622.204 18.1925C604.654 8.06418 597.577 3 590.5 3Z" fill="#2B47A4"/>
<path d="M660.5 116C653.423 116 646.387 121.064 628.796 131.193C593.656 151.449 597.092 145.487 597.092 186C597.092 226.513 593.656 220.551 628.796 240.807C663.936 261.064 657.064 261.064 692.204 240.807C727.344 220.551 723.908 226.513 723.908 186C723.908 145.487 727.344 151.449 692.204 131.193C674.654 121.064 667.577 116 660.5 116Z" fill="#2B47A4"/>
<path d="M457.5 3C450.423 3 443.387 8.06418 425.796 18.1925C390.656 38.4492 394.092 32.4866 394.092 73C394.092 113.513 390.656 107.551 425.796 127.807C460.936 148.064 454.064 148.064 489.204 127.807C524.344 107.551 520.908 113.513 520.908 73C520.908 32.4866 524.344 38.4492 489.204 18.1925C471.654 8.06418 464.577 3 457.5 3Z" fill="#5369B9"/>
<path d="M654.5 -111C647.423 -111 640.387 -105.936 622.796 -95.8075C587.656 -75.5508 591.092 -81.5134 591.092 -41C591.092 -0.486588 587.656 -6.44925 622.796 13.8075C657.936 34.0642 651.064 34.0642 686.204 13.8075C721.344 -6.44925 717.908 -0.486588 717.908 -41C717.908 -81.5134 721.344 -75.5508 686.204 -95.8075C668.654 -105.936 661.577 -111 654.5 -111Z" fill="#2B47A4"/>
<path d="M228.5 920C221.423 920 214.387 925.064 196.796 935.193C161.656 955.449 165.092 949.487 165.092 990C165.092 1030.51 161.656 1024.55 196.796 1044.81C231.936 1065.06 225.064 1065.06 260.204 1044.81C295.344 1024.55 291.908 1030.51 291.908 990C291.908 949.487 295.344 955.449 260.204 935.193C242.654 925.064 235.577 920 228.5 920Z" fill="#2B47A4"/>
<path d="M361.5 920C354.423 920 347.387 925.064 329.796 935.193C294.656 955.449 298.092 949.487 298.092 990C298.092 1030.51 294.656 1024.55 329.796 1044.81C364.936 1065.06 358.064 1065.06 393.204 1044.81C428.344 1024.55 424.908 1030.51 424.908 990C424.908 949.487 428.344 955.449 393.204 935.193C375.654 925.064 368.577 920 361.5 920Z" fill="#2B47A4"/>
<path d="M228.5 686C221.423 686 214.387 691.064 196.796 701.193C161.656 721.449 165.092 715.487 165.092 756C165.092 796.513 161.656 790.551 196.796 810.807C231.936 831.064 225.064 831.064 260.204 810.807C295.344 790.551 291.908 796.513 291.908 756C291.908 715.487 295.344 721.449 260.204 701.193C242.654 691.064 235.577 686 228.5 686Z" fill="#2B47A4"/>
<path d="M696.5 565C689.423 565 682.387 570.064 664.796 580.193C629.656 600.449 633.092 594.487 633.092 635C633.092 675.513 629.656 669.551 664.796 689.807C699.936 710.064 693.064 710.064 728.204 689.807C763.344 669.551 759.908 675.513 759.908 635C759.908 594.487 763.344 600.449 728.204 580.193C710.654 570.064 703.577 565 696.5 565Z" fill="#2B47A4"/>
<path d="M119.5 116C112.423 116 105.387 121.064 87.796 131.193C52.6556 151.449 56.092 145.487 56.092 186C56.092 226.513 52.6556 220.551 87.796 240.807C122.936 261.064 116.064 261.064 151.204 240.807C186.344 220.551 182.908 226.513 182.908 186C182.908 145.487 186.344 151.449 151.204 131.193C133.654 121.064 126.577 116 119.5 116Z" fill="#5369B9"/>
<path d="M162.5 570C155.423 570 148.387 575.064 130.796 585.193C95.6556 605.449 99.092 599.487 99.092 640C99.092 680.513 95.6556 674.551 130.796 694.807C165.936 715.064 159.064 715.064 194.204 694.807C229.344 674.551 225.908 680.513 225.908 640C225.908 599.487 229.344 605.449 194.204 585.193C176.654 575.064 169.577 570 162.5 570Z" fill="#2B47A4"/>
<path d="M629.5 449C622.423 449 615.387 454.064 597.796 464.193C562.656 484.449 566.092 478.487 566.092 519C566.092 559.513 562.656 553.551 597.796 573.807C632.936 594.064 626.064 594.064 661.204 573.807C696.344 553.551 692.908 559.513 692.908 519C692.908 478.487 696.344 484.449 661.204 464.193C643.654 454.064 636.577 449 629.5 449Z" fill="#5369B9"/>
<path d="M53.5 0C46.4228 0 39.3866 5.06418 21.796 15.1925C-13.3444 35.4492 -9.90805 29.4866 -9.90805 70C-9.90805 110.513 -13.3444 104.551 21.796 124.807C56.9363 145.064 50.0637 145.064 85.204 124.807C120.344 104.551 116.908 110.513 116.908 70C116.908 29.4866 120.344 35.4492 85.204 15.1925C67.6543 5.06418 60.5772 0 53.5 0Z" fill="#2B47A4"/>
</g>
<defs>
<clipPath id="clip0_514_16720">
<rect width="708" height="964" fill="white"/>
</clipPath>
</defs>
</svg>
