<svg width="708" height="964" viewBox="0 0 708 964" fill="none" xmlns="http://www.w3.org/2000/svg">
<g clip-path="url(#clip0_517_46144)">
<rect width="708" height="964" fill="#18338C"/>
<path fill-rule="evenodd" clip-rule="evenodd" d="M115.902 434C111.994 434 108.104 436.3 100.326 440.901L100.326 440.901C98.5866 441.929 96.6532 443.072 94.4818 444.331C92.3383 445.575 90.4073 446.673 88.6678 447.662C80.7847 452.146 76.8359 454.392 74.8769 457.786C72.9107 461.193 72.9493 465.757 73.0265 474.902C73.0434 476.903 73.0621 479.124 73.0621 481.6C73.0621 484.076 73.0434 486.296 73.0265 488.297C72.9493 497.442 72.9107 502.006 74.8769 505.413C76.8359 508.808 80.7847 511.054 88.6678 515.537C90.4073 516.527 92.3383 517.625 94.4818 518.869C96.6154 520.106 98.5198 521.233 100.236 522.248C108.069 526.882 111.985 529.199 115.902 529.199C119.818 529.199 123.734 526.882 131.567 522.248C133.283 521.233 135.188 520.106 137.321 518.869C139.465 517.625 141.396 516.527 143.135 515.537C151.018 511.054 154.967 508.808 156.926 505.413C158.892 502.006 158.854 497.442 158.777 488.297C158.76 486.296 158.741 484.076 158.741 481.6C158.741 479.124 158.76 476.903 158.777 474.902C158.794 472.79 158.81 470.922 158.8 469.256C156.453 472.019 152.961 473.77 149.063 473.77C148.051 473.77 147.067 473.652 146.123 473.429C146.125 474.497 146.116 475.679 146.105 476.995C146.093 478.404 146.08 479.968 146.08 481.711C146.082 483.453 146.097 485.017 146.111 486.426C146.175 492.886 146.206 496.109 144.82 498.515C143.44 500.91 140.654 502.495 135.094 505.657C133.866 506.356 132.503 507.131 130.989 508.01C129.478 508.887 128.13 509.684 126.916 510.403C121.4 513.667 118.643 515.3 115.885 515.3C113.127 515.3 110.369 513.667 104.853 510.403C103.639 509.684 102.291 508.887 100.78 508.01C99.2657 507.131 97.9014 506.355 96.6725 505.656C91.1144 502.494 88.3286 500.909 86.9458 498.514C85.5563 496.108 85.5833 492.884 85.6374 486.42C85.6491 485.012 85.6622 483.451 85.6622 481.711C85.6622 479.97 85.6491 478.409 85.6374 477.001C85.5833 470.537 85.5563 467.313 86.9458 464.907C88.3286 462.512 91.1144 460.927 96.6725 457.765C97.9014 457.066 99.2657 456.29 100.78 455.411C102.247 454.56 103.56 453.784 104.747 453.083C110.336 449.779 113.117 448.135 115.899 448.135C118.665 448.135 121.412 449.761 126.933 453.028C128.142 453.744 129.484 454.538 130.989 455.411C132.5 456.29 133.861 457.065 135.087 457.764C135.573 458.04 136.037 458.305 136.481 458.559C137.331 453.939 140.639 450.186 144.991 448.719C144.398 448.38 143.78 448.029 143.135 447.662C141.396 446.673 139.465 445.574 137.321 444.331C135.211 443.105 133.326 441.989 131.624 440.981C123.763 436.327 119.832 434 115.902 434Z" fill="white"/>
<path d="M149.063 470.549C154.359 470.549 158.653 466.234 158.653 460.912C158.653 455.59 154.359 451.276 149.063 451.276C143.766 451.276 139.472 455.59 139.472 460.912C139.472 466.234 143.766 470.549 149.063 470.549Z" fill="white"/>
<path d="M210.732 492.347C215.154 491.597 218.747 489.32 221.207 485.46C221.234 485.404 221.317 485.377 221.4 485.293C221.428 485.46 221.483 485.543 221.483 485.627C221.677 487.543 221.898 489.431 222.091 491.347C222.146 491.847 222.257 492.069 222.81 492.042C224.302 491.986 225.822 492.014 227.315 492.014C227.895 492.014 228.476 492.014 229.084 492.014C229.084 483.099 229.084 474.24 229.084 465.381C222.506 465.381 215.955 465.381 209.433 465.381C209.433 467.77 209.433 470.103 209.433 472.519C213.164 472.519 216.84 472.519 220.543 472.519C220.543 472.685 220.543 472.769 220.543 472.88C219.88 476.906 218.028 480.239 214.601 482.544C211.561 484.571 208.189 485.099 204.624 484.682C199.815 484.099 196.139 481.766 194.038 477.351C191.247 471.463 191.109 465.354 193.126 459.216C194.37 455.439 196.747 452.523 200.478 450.885C203.242 449.663 206.144 449.441 209.101 449.83C213.44 450.385 216.812 452.496 219.023 456.3C219.576 457.245 219.991 458.3 220.488 459.327C223.031 458.272 225.601 457.189 228.254 456.078C227.923 455.384 227.619 454.745 227.287 454.106C224.689 449.219 220.958 445.581 215.79 443.526C211.312 441.776 206.697 441.498 202.026 442.276C194.398 443.526 188.815 447.608 185.664 454.69C182.541 461.688 182.292 468.964 184.31 476.295C185.636 481.183 188.207 485.321 192.325 488.348C197.852 492.375 204.126 493.43 210.732 492.347Z" fill="white"/>
<path d="M339.227 483.958C340.498 482.292 341.493 480.515 342.322 478.515C339.586 477.404 336.905 476.293 334.169 475.183C333.837 475.905 333.533 476.571 333.202 477.21C331.571 480.376 329.166 482.681 325.712 483.708C323.39 484.375 321.013 484.486 318.636 484.208C313.578 483.653 309.737 481.237 307.664 476.516C305.176 470.795 305.066 464.88 307.194 459.048C308.659 454.993 311.561 452.271 315.706 451.022C318.553 450.189 321.455 450.133 324.357 450.661C329.139 451.522 332.372 454.215 333.892 458.909C333.948 459.048 334.003 459.186 334.058 459.325C336.822 458.214 339.531 457.159 342.239 456.048C342.156 455.882 342.129 455.771 342.101 455.687C341.852 455.187 341.631 454.688 341.382 454.215C338.619 448.911 334.528 445.107 328.862 443.163C324.661 441.718 320.322 441.524 315.955 442.246C308.438 443.496 302.855 447.495 299.704 454.465C296.083 462.519 296.028 470.795 299.206 478.987C301.417 484.68 305.425 488.763 311.146 490.984C315.264 492.595 319.548 492.984 323.943 492.484C330.217 491.818 335.357 489.013 339.227 483.958Z" fill="white"/>
<path d="M376.701 468.102C375.955 463.325 373.467 459.854 368.99 457.91C366.171 456.688 363.186 456.41 360.145 456.604C356.276 456.882 352.849 458.243 350.002 460.937C349.007 461.881 348.123 462.964 347.183 463.991C349.449 465.63 351.578 467.185 353.706 468.713C353.761 468.657 353.816 468.657 353.816 468.629C353.872 468.574 353.899 468.49 353.954 468.435C355.944 465.436 358.653 463.908 362.301 463.991C365.977 464.075 368.492 466.408 368.741 470.101C368.769 470.462 368.796 470.823 368.824 471.212C368.492 471.212 368.271 471.212 368.078 471.212C365.176 471.212 362.301 471.212 359.399 471.212C356.718 471.24 354.065 471.517 351.522 472.517C348.15 473.85 345.939 476.211 345.58 479.932C345.138 484.459 346.658 488.152 350.583 490.624C352.711 491.957 355.06 492.54 357.52 492.679C362.218 492.984 366.115 491.457 368.962 487.569C369.045 487.43 369.183 487.319 369.349 487.097C369.542 488.791 369.736 490.374 369.902 491.957C372.251 491.957 374.545 491.957 376.922 491.957C376.922 491.707 376.922 491.457 376.922 491.235C376.922 484.681 376.922 478.127 376.922 471.573C376.922 470.462 376.867 469.268 376.701 468.102ZM367.055 482.015C364.761 484.986 360.532 486.292 357.105 485.125C355.779 484.653 354.701 483.876 354.314 482.431C353.927 481.015 354.507 479.571 355.862 478.599L368.492 477.349C368.575 477.349 368.63 477.377 368.796 477.377C368.741 479.182 368.078 480.682 367.055 482.015Z" fill="white"/>
<path d="M411.085 482.014C412.909 487.012 416.474 490.289 421.615 491.706C425.844 492.872 430.073 492.733 434.246 491.372C437.148 490.428 439.525 488.706 441.625 486.457C439.663 484.735 437.728 483.041 435.794 481.319C434.605 482.513 433.306 483.458 431.758 483.958C430.073 484.513 428.304 484.596 426.535 484.541C422.61 484.43 419.902 482.264 418.962 478.57C418.879 478.209 418.824 477.82 418.741 477.376C426.756 477.376 434.66 477.376 442.731 477.376C442.786 476.182 442.869 475.043 442.869 473.904C442.869 471.655 442.565 469.461 441.902 467.295C440.465 462.629 437.645 459.241 432.919 457.658C430.017 456.686 427.032 456.52 423.992 456.881C418.851 457.519 414.844 460.047 412.329 464.601C409.288 470.155 408.902 476.071 411.085 482.014ZM426.452 463.851C431.289 463.824 434.688 466.906 434.522 471.183C429.299 471.183 424.075 471.183 418.851 471.183C418.686 467.406 422.334 463.879 426.452 463.851Z" fill="white"/>
<path d="M280.463 457.993C280.463 463.464 280.491 468.935 280.436 474.406C280.436 475.628 280.325 476.822 280.131 478.016C279.827 479.877 279.164 481.627 277.727 482.932C275.93 484.57 273.719 484.876 271.425 484.681C268.523 484.431 266.92 483.015 266.395 480.155C266.174 479.016 266.119 477.822 266.119 476.656C266.091 470.407 266.119 464.186 266.091 457.938C266.091 457.688 266.064 457.438 266.064 457.188C263.189 457.188 260.398 457.188 257.523 457.188C257.523 457.438 257.523 457.688 257.523 457.91C257.523 464.464 257.496 471.018 257.551 477.572C257.551 479.099 257.744 480.682 258.021 482.182C258.601 485.154 259.845 487.82 262.111 489.875C264.682 492.235 267.805 493.041 271.204 492.818C274.742 492.596 277.727 491.18 280.049 488.458C280.131 488.347 280.242 488.264 280.463 488.069C280.463 489.486 280.463 490.736 280.463 492.013C283.365 492.013 286.184 492.013 289.031 492.013C289.031 480.377 289.031 468.796 289.031 457.188C286.184 457.188 283.365 457.188 280.463 457.188C280.463 457.466 280.463 457.743 280.463 457.993Z" fill="white"/>
<path d="M251.967 484.929C251.249 484.984 250.613 485.095 249.95 485.095C247.656 485.095 246.882 484.29 246.882 482.124C246.909 469.21 246.909 456.297 246.909 443.411C246.909 442.855 246.743 442.717 246.218 442.717C244.173 442.744 242.156 442.717 240.11 442.717C239.558 442.717 239.032 442.717 238.397 442.717C238.397 443.078 238.397 443.328 238.397 443.577C238.397 457.407 238.397 471.237 238.397 485.068C238.397 485.928 238.48 486.789 238.618 487.65C239.088 490.455 240.774 492.066 243.565 492.566C245.472 492.899 247.379 492.732 249.286 492.482C250.198 492.371 251.083 492.205 251.967 492.066C251.967 489.622 251.967 487.289 251.967 484.929Z" fill="white"/>
<path d="M394.167 491.26C394.167 486.067 394.167 480.902 394.167 475.709C394.167 474.015 394.443 472.348 394.996 470.738C395.549 469.127 396.433 467.711 397.677 466.516C399.611 464.656 403.508 463.934 406.106 465.878C407.378 463.573 408.649 461.268 409.948 458.935C409.699 458.768 409.534 458.629 409.34 458.491C407.737 457.463 405.941 456.963 404.061 456.713C400.192 456.186 396.654 458.018 394.885 461.545C394.692 461.906 394.526 462.295 394.332 462.656C394.277 462.656 394.25 462.628 394.194 462.628C394.194 460.823 394.194 459.018 394.194 457.185C391.43 457.185 388.722 457.185 386.013 457.185C386.013 468.821 386.013 480.402 386.013 492.01C388.749 492.01 391.403 492.01 394.167 492.01C394.167 491.705 394.167 491.483 394.167 491.26Z" fill="white"/>
<path d="M295.969 501.982C294.117 501.704 292.238 501.843 290.359 501.76C289.806 501.732 289.668 501.899 289.668 502.454C289.695 506.981 289.668 511.507 289.668 516.034C289.668 516.228 289.668 516.423 289.668 516.756C291.796 516.701 293.841 516.756 295.831 516.534C298.346 516.256 300.253 514.951 301.193 512.479C301.69 511.174 301.773 509.813 301.663 508.425C301.497 504.815 299.507 502.482 295.969 501.982ZM298.899 510.73C298.678 512.452 297.6 513.59 295.914 513.951C294.781 514.201 293.592 514.201 292.376 514.312C292.376 510.841 292.376 507.592 292.376 504.259C294.035 504.231 295.72 504.065 297.241 504.926C298.208 505.453 298.761 506.37 298.899 507.425C299.009 508.508 299.065 509.647 298.899 510.73Z" fill="white"/>
<path d="M230.993 506.839C230.523 506.256 230.081 505.756 229.639 505.229C229.169 505.645 228.754 506.034 228.312 506.34C228.146 506.451 227.842 506.506 227.676 506.451C226.681 506.034 225.659 505.923 224.581 506.117C222.231 506.534 220.794 508.589 221.402 510.783C221.541 511.311 221.817 511.783 222.038 512.283C220.794 513.754 220.822 514.949 222.093 516.559C221.9 516.726 221.706 516.948 221.485 517.087C221.043 517.393 220.96 517.837 221.043 518.337C221.209 519.475 221.734 520.42 222.757 520.919C223.586 521.308 224.525 521.558 225.438 521.669C226.847 521.808 228.257 521.641 229.445 520.697C230.412 519.92 230.716 518.892 230.551 517.698C230.412 516.532 229.666 515.865 228.588 515.532C228.146 515.393 227.676 515.282 227.234 515.199C226.239 515.032 225.216 514.921 224.221 514.726C223.945 514.671 223.641 514.477 223.448 514.254C223.337 514.143 223.365 513.81 223.448 513.616C223.503 513.532 223.807 513.505 223.973 513.532C224.47 513.588 224.968 513.754 225.465 513.782C228.782 513.893 230.689 511.116 229.583 508.395C229.528 508.256 229.611 507.978 229.749 507.867C230.164 507.506 230.578 507.173 230.993 506.839ZM223.586 517.393C223.669 517.254 223.89 517.143 224.056 517.17C225.106 517.309 226.156 517.448 227.179 517.615C227.649 517.698 228.146 517.837 228.174 518.42C228.201 519.031 227.759 519.309 227.234 519.475C226.819 519.586 226.405 519.614 225.963 519.698C225.161 519.67 224.443 519.531 223.807 519.059C223.199 518.559 223.116 518.031 223.586 517.393ZM225.686 511.644C224.636 511.644 223.945 510.95 223.917 509.867C223.917 508.756 224.636 508.006 225.659 508.006C226.681 508.006 227.372 508.756 227.372 509.839C227.4 510.922 226.737 511.644 225.686 511.644Z" fill="white"/>
<path d="M389.301 512.255C388.417 513.921 386.952 514.449 385.183 514.338C383.58 514.226 382.336 513.532 381.645 512.033C381.092 510.894 380.982 509.7 381.065 508.478C381.314 505.229 383.773 503.451 386.924 504.229C388.278 504.562 389.19 505.423 389.605 506.812C390.462 506.478 391.236 506.173 392.065 505.84C390.987 503.285 389.08 501.841 386.178 501.591C382.972 501.313 380.07 502.701 378.909 506.145C378.633 506.95 378.494 507.811 378.439 508.672C378.301 510.727 378.688 512.671 379.959 514.338C381.839 516.726 384.409 517.254 387.228 516.726C389.577 516.282 391.125 514.81 392.093 512.616C391.263 512.283 390.462 511.949 389.66 511.616C389.522 511.838 389.412 512.033 389.301 512.255Z" fill="white"/>
<path d="M326.123 505.953C325.156 506.009 324.327 506.398 323.553 507.175C323.553 505.314 323.553 503.62 323.553 501.871C322.669 501.871 321.84 501.871 320.955 501.871C320.955 506.842 320.955 511.757 320.955 516.673C321.84 516.673 322.669 516.673 323.525 516.673C323.553 516.367 323.581 516.09 323.608 515.784C325.736 517.728 329.689 517.339 330.767 513.535C331.209 511.952 331.181 510.397 330.601 508.869C329.827 506.842 328.224 505.814 326.123 505.953ZM328.141 513.09C327.726 514.062 326.953 514.534 325.93 514.534C324.907 514.534 324.078 514.146 323.691 513.174C323.47 512.618 323.387 512.007 323.249 511.535C323.36 510.98 323.387 510.563 323.498 510.147C323.857 508.925 324.769 508.23 325.93 508.258C327.118 508.286 327.948 508.952 328.279 510.174C328.583 511.146 328.556 512.118 328.141 513.09Z" fill="white"/>
<path d="M277.81 507.094C275.157 505.039 272.006 505.817 270.818 508.76C270.127 510.51 270.127 512.315 270.818 514.092C271.674 516.231 273.637 517.286 275.875 516.758C276.594 516.592 277.257 516.12 277.921 515.786C277.948 516.009 278.004 516.314 278.059 516.62C278.86 516.62 279.607 516.62 280.325 516.62C280.325 511.649 280.325 506.733 280.325 501.79C279.468 501.79 278.639 501.79 277.782 501.79C277.81 503.567 277.81 505.261 277.81 507.094ZM277.921 512.371C277.727 513.787 276.76 514.565 275.433 514.537C274.079 514.509 273.167 513.62 272.973 512.176C272.946 511.926 272.946 511.676 272.918 511.426C272.891 511.426 272.891 511.426 272.863 511.426C272.946 510.954 273.001 510.454 273.139 509.982C273.471 508.899 274.355 508.26 275.461 508.26C276.566 508.26 277.478 508.844 277.755 509.982C277.976 510.732 278.031 511.593 277.921 512.371Z" fill="white"/>
<path d="M314.428 506.035C313.958 505.98 313.488 505.952 313.018 506.008C311.415 506.146 310.144 506.896 309.204 508.257C309.868 508.729 310.503 509.201 311.111 509.646C312.272 508.34 313.433 507.924 314.566 508.396C315.312 508.729 315.727 509.451 315.644 510.423C314.76 510.423 313.848 510.395 312.963 510.423C312.245 510.451 311.498 510.506 310.835 510.701C308.9 511.229 308.126 513.061 308.956 514.867C309.951 517.06 313.516 517.616 315.285 515.866C315.451 515.7 315.616 515.505 315.838 515.228C315.92 515.811 315.976 516.227 316.031 516.644C316.75 516.644 317.413 516.644 318.132 516.644C318.132 514.533 318.132 512.45 318.132 510.368C318.132 507.924 316.833 506.369 314.428 506.035ZM312.272 514.644C311.719 514.478 311.277 514.172 311.277 513.561C311.277 512.978 311.636 512.617 312.162 512.45C312.493 512.339 312.853 512.284 313.184 512.256C313.986 512.228 314.815 512.256 315.672 512.256C315.478 513.978 313.82 515.089 312.272 514.644Z" fill="white"/>
<path d="M246.024 506.094C245.416 505.982 244.78 505.927 244.172 505.982C242.569 506.121 241.298 506.871 240.385 508.232C241.049 508.704 241.657 509.148 242.293 509.62C243.453 508.287 244.697 507.871 245.83 508.426C246.549 508.787 246.936 509.565 246.77 510.398C245.885 510.398 245.001 510.37 244.089 510.398C243.398 510.426 242.679 510.509 242.016 510.676C240.938 510.954 240.137 511.564 239.916 512.731C239.667 513.981 239.971 515.064 240.911 515.925C242.182 517.091 245.222 517.48 246.742 515.564C246.825 515.48 246.936 515.397 247.046 515.314C247.129 515.786 247.184 516.202 247.24 516.619C247.958 516.619 248.594 516.619 249.285 516.619C249.313 516.508 249.313 516.424 249.313 516.369C249.313 514.203 249.34 512.064 249.313 509.898C249.257 507.982 247.931 506.455 246.024 506.094ZM245.471 514.369C244.669 514.814 243.84 514.897 243.011 514.425C242.265 514.008 242.237 513.12 242.928 512.648C243.177 512.481 243.481 512.314 243.785 512.314C244.78 512.287 245.775 512.287 246.853 512.287C246.77 513.286 246.245 513.925 245.471 514.369Z" fill="white"/>
<path d="M267.036 506.784C264.3 504.952 260.403 506.229 259.408 509.367C259.132 510.228 259.049 511.172 259.076 512.089C259.159 514.31 260.569 516.032 262.642 516.588C263.968 516.949 265.267 516.893 266.566 516.421C267.395 516.143 268.086 515.643 268.667 514.977C268.086 514.449 267.506 513.977 266.926 513.477C265.599 514.449 264.134 514.699 263.029 514.172C262.255 513.811 261.868 513.172 261.757 512.228C264.189 512.228 266.566 512.228 268.999 512.228C268.999 511.533 269.054 510.95 268.999 510.367C268.805 508.923 268.308 507.645 267.036 506.784ZM261.84 510.367C261.813 509.145 262.78 508.173 264.079 508.173C265.516 508.145 266.428 508.978 266.456 510.367C264.908 510.367 263.388 510.367 261.84 510.367Z" fill="white"/>
<path d="M400.222 506.344C398.205 505.706 396.27 505.845 394.667 507.428C392.788 509.288 392.622 512.898 394.28 514.954C395.662 516.675 397.541 516.981 399.559 516.731C400.83 516.564 401.881 515.981 402.793 515.009C402.212 514.481 401.632 513.982 401.051 513.482C399.863 514.509 398.536 514.731 397.154 514.148C396.381 513.843 396.021 513.176 395.911 512.232C396.215 512.232 396.408 512.232 396.629 512.232C398.232 512.232 399.835 512.232 401.438 512.232C403.318 512.232 403.345 512.232 403.124 510.316C402.876 508.455 402.102 506.955 400.222 506.344ZM395.938 510.371C396.132 508.927 397.016 508.15 398.343 508.177C399.725 508.233 400.526 508.983 400.609 510.371C399.062 510.371 397.514 510.371 395.938 510.371Z" fill="white"/>
<path d="M216.622 506.344C214.604 505.706 212.67 505.845 211.067 507.428C209.187 509.288 209.021 512.898 210.68 514.954C212.062 516.675 213.941 516.981 215.959 516.731C217.23 516.564 218.28 515.981 219.192 515.009C218.584 514.481 218.031 513.982 217.451 513.482C216.263 514.509 214.936 514.731 213.526 514.148C212.752 513.843 212.393 513.176 212.283 512.232C212.587 512.232 212.78 512.232 213.001 512.232C214.604 512.232 216.207 512.232 217.81 512.232C219.69 512.232 219.717 512.232 219.496 510.316C219.275 508.455 218.501 506.955 216.622 506.344ZM212.366 510.371C212.366 509.122 213.278 508.205 214.549 508.177C216.014 508.15 216.926 508.927 216.981 510.371C215.433 510.371 213.886 510.371 212.366 510.371Z" fill="white"/>
<path d="M353.485 506.951C351.163 508.701 350.721 512.811 352.683 515.088C354.038 516.699 355.862 516.977 357.796 516.727C359.095 516.56 360.201 515.977 361.085 514.977C360.477 514.45 359.925 513.95 359.344 513.478C358.183 514.505 356.884 514.7 355.53 514.2C354.729 513.894 354.314 513.2 354.203 512.256C354.452 512.256 354.673 512.256 354.867 512.256C356.884 512.256 358.902 512.256 360.892 512.256C361.141 512.256 361.445 512.339 361.445 511.922C361.528 510.256 361.334 508.645 360.146 507.368C358.598 505.702 355.392 505.535 353.485 506.951ZM354.231 510.34C354.452 508.84 355.337 508.09 356.801 508.173C358.073 508.257 358.874 509.034 358.902 510.34C357.327 510.34 355.806 510.34 354.231 510.34Z" fill="white"/>
<path d="M431.806 506.396C430.673 505.952 429.485 505.896 428.296 506.174C424.206 507.118 423.57 512.811 425.947 515.283C427.495 516.894 430.369 517.338 432.525 516.255C433.133 515.949 433.658 515.505 434.266 515.061C433.575 514.45 433.022 513.978 432.47 513.478C431.226 514.505 429.899 514.727 428.462 514.089C427.743 513.755 427.412 513.089 427.301 512.228C428.545 512.228 429.706 512.228 430.867 512.228C432.055 512.228 433.243 512.228 434.515 512.228C434.515 511.534 434.57 510.923 434.515 510.312C434.294 508.562 433.575 507.09 431.806 506.396ZM427.356 510.367C427.522 508.951 428.434 508.146 429.761 508.173C431.143 508.201 431.917 508.951 432.027 510.367C430.48 510.367 428.932 510.367 427.356 510.367Z" fill="white"/>
<path d="M342.21 510.118C341.934 508.313 341.132 506.869 339.281 506.313C337.291 505.702 335.384 505.869 333.836 507.396C331.929 509.257 331.763 513.006 333.477 515.034C335.052 516.922 337.152 517.089 339.363 516.589C340.386 516.367 341.215 515.811 341.934 515.006C341.326 514.478 340.773 513.978 340.193 513.478C338.949 514.506 337.622 514.728 336.185 514.089C335.439 513.756 335.135 513.09 335.024 512.229C335.301 512.229 335.494 512.229 335.715 512.229C337.705 512.229 339.695 512.229 341.685 512.229C342.155 512.229 342.348 512.062 342.293 511.618C342.293 511.146 342.293 510.618 342.21 510.118ZM335.107 510.368C335.162 509.035 336.102 508.146 337.429 508.174C338.838 508.202 339.723 509.007 339.723 510.368C338.175 510.368 336.627 510.368 335.107 510.368Z" fill="white"/>
<path d="M197.55 506.287C196.002 505.676 194.51 505.899 193.238 507.037C193.156 507.093 193.073 507.148 192.934 507.232C192.907 506.843 192.879 506.565 192.879 506.232C192.022 506.232 191.193 506.232 190.364 506.232C190.364 509.759 190.364 513.23 190.364 516.674C191.221 516.674 192.022 516.674 192.907 516.674C192.907 516.424 192.907 516.229 192.907 516.007C192.907 514.397 192.907 512.786 192.907 511.175C192.907 510.148 193.321 509.342 194.178 508.815C194.869 508.37 195.643 508.204 196.389 508.592C197.108 508.981 197.218 509.703 197.218 510.425C197.246 512.203 197.218 513.952 197.218 515.73C197.218 516.035 197.218 516.341 197.218 516.674C198.103 516.674 198.932 516.674 199.789 516.674C199.789 514.313 199.844 512.008 199.761 509.703C199.706 508.148 199.015 506.871 197.55 506.287Z" fill="white"/>
<path d="M414.785 509.648C414.702 508.149 414.038 506.843 412.546 506.26C410.998 505.649 409.506 505.871 408.234 507.01C408.151 507.066 408.069 507.121 407.93 507.204C407.903 506.843 407.903 506.538 407.875 506.205C407.018 506.205 406.217 506.205 405.36 506.205C405.36 509.732 405.36 513.175 405.36 516.647C406.217 516.647 407.018 516.647 407.903 516.647C407.903 516.397 407.903 516.202 407.903 515.98C407.903 514.369 407.903 512.759 407.903 511.148C407.903 510.37 408.151 509.676 408.732 509.148C409.45 508.482 410.28 508.121 411.247 508.51C412.159 508.871 412.242 509.759 412.242 510.593C412.27 512.398 412.242 514.203 412.242 516.008C412.242 516.23 412.242 516.424 412.242 516.647C413.154 516.647 413.955 516.647 414.84 516.647C414.84 516.397 414.84 516.175 414.84 515.952C414.84 513.842 414.895 511.759 414.785 509.648Z" fill="white"/>
<path d="M367.114 508.035C367.142 508.035 367.142 508.035 367.17 508.035C368.054 508.063 368.635 508.59 369.104 509.285C369.768 508.896 370.403 508.563 371.011 508.229C370.956 508.091 370.956 508.035 370.929 508.007C369.602 505.897 366.202 505.286 364.268 506.896C363.798 507.285 363.439 507.896 363.273 508.507C362.858 510.146 363.521 511.284 365.124 511.867C365.898 512.145 366.727 512.339 367.529 512.617C367.999 512.784 368.469 512.978 368.441 513.617C368.413 514.228 367.971 514.533 367.446 514.7C366.368 515.033 365.318 514.589 364.765 513.589C364.682 513.423 364.572 513.256 364.489 513.089C363.853 513.367 363.273 513.645 362.692 513.895C362.637 513.922 362.609 513.95 362.499 514.034C362.609 514.283 362.72 514.561 362.886 514.811C364.102 516.811 367.032 517.533 369.215 516.394C370.459 515.728 371.039 514.672 371.011 513.284C370.984 511.951 370.265 511.09 369.077 510.618C368.331 510.312 367.529 510.09 366.755 509.84C365.926 509.562 365.622 509.229 365.705 508.785C365.76 508.257 366.368 507.952 367.114 508.035Z" fill="white"/>
<path d="M349.147 514.561C347.931 514.783 347.378 514.339 347.378 513.089C347.378 512.089 347.378 511.09 347.378 510.09C347.378 509.507 347.378 508.923 347.378 508.285C348.318 508.285 349.203 508.285 350.059 508.285C350.059 507.563 350.059 506.896 350.059 506.146C349.147 506.146 348.291 506.146 347.378 506.146C347.378 504.647 347.378 503.23 347.378 501.703C346.798 502.147 346.328 502.564 345.803 502.869C345.14 503.258 344.863 503.758 344.974 504.536C345.029 505.035 344.974 505.563 344.974 506.174C344.338 506.174 343.813 506.174 343.26 506.174C343.26 506.924 343.26 507.59 343.26 508.312C343.841 508.312 344.338 508.312 344.946 508.312C344.946 508.562 344.946 508.785 344.946 509.007C344.946 510.645 344.946 512.256 344.946 513.894C344.974 515.366 345.748 516.394 347.102 516.755C347.986 516.977 348.899 516.921 349.755 516.672C349.894 516.644 350.087 516.449 350.087 516.31C350.115 515.672 350.115 515.033 350.115 514.311C349.7 514.422 349.424 514.505 349.147 514.561Z" fill="white"/>
<path d="M422.529 514.506C421.147 514.895 420.484 514.395 420.484 512.951C420.484 511.618 420.484 510.285 420.484 508.952C420.484 508.757 420.512 508.535 420.512 508.285C421.452 508.285 422.336 508.285 423.22 508.285C423.22 507.563 423.22 506.897 423.22 506.175C422.474 506.175 421.783 506.147 421.065 506.175C420.595 506.202 420.457 506.036 420.457 505.564C420.484 504.314 420.457 503.064 420.457 501.676C419.655 502.287 418.992 502.787 418.328 503.314C418.19 503.425 418.08 503.703 418.08 503.897C418.052 504.508 418.052 505.119 418.08 505.73C418.08 506.036 417.969 506.147 417.665 506.147C417.25 506.147 416.808 506.147 416.394 506.147C416.394 506.897 416.394 507.591 416.394 508.313C416.946 508.313 417.472 508.313 417.997 508.313C417.997 508.591 417.997 508.813 417.997 509.035C417.997 510.59 417.969 512.145 417.997 513.673C418.024 515.284 418.715 516.311 420.097 516.7C421.037 516.978 421.949 516.894 422.861 516.644C422.999 516.617 423.193 516.45 423.193 516.339C423.22 515.672 423.22 515.006 423.22 514.256C422.944 514.395 422.751 514.45 422.529 514.506Z" fill="white"/>
<path d="M206.915 514.616C206.058 514.728 205.505 514.339 205.478 513.478C205.422 511.784 205.478 510.118 205.478 508.423C205.478 508.396 205.533 508.368 205.616 508.285C206.417 508.285 207.302 508.285 208.158 508.285C208.158 507.563 208.158 506.896 208.158 506.174C207.44 506.174 206.749 506.146 206.086 506.174C205.616 506.202 205.422 506.063 205.45 505.563C205.478 504.897 205.45 504.23 205.45 503.564C205.45 502.98 205.45 502.425 205.45 501.703C204.704 502.286 204.04 502.73 203.432 503.258C203.239 503.425 203.101 503.73 203.101 503.98C203.045 504.674 203.073 505.396 203.073 506.174C202.465 506.174 201.912 506.174 201.387 506.174C201.387 506.952 201.387 507.618 201.387 508.34C201.94 508.34 202.437 508.34 203.018 508.34C203.018 508.59 203.018 508.812 203.018 509.007C203.018 510.562 203.018 512.117 203.018 513.644C203.018 515.2 203.653 516.227 204.897 516.672C205.892 517.033 206.887 516.949 207.882 516.672C208.02 516.644 208.186 516.449 208.186 516.338C208.214 515.672 208.214 515.033 208.214 514.339C207.716 514.45 207.329 514.561 206.915 514.616Z" fill="white"/>
<path d="M256.312 514.616C255.511 514.7 254.958 514.255 254.93 513.45C254.903 511.756 254.93 510.09 254.93 508.285C255.87 508.285 256.727 508.285 257.584 508.285C257.584 507.535 257.584 506.868 257.584 506.146C256.671 506.146 255.815 506.146 254.903 506.146C254.903 504.674 254.903 503.258 254.903 501.703C254.184 502.231 253.576 502.73 252.94 503.175C252.609 503.397 252.443 503.675 252.47 504.091C252.498 504.758 252.47 505.424 252.47 506.174C251.89 506.174 251.337 506.174 250.812 506.174C250.812 506.924 250.812 507.618 250.812 508.34C251.393 508.34 251.89 508.34 252.443 508.34C252.443 510.229 252.443 512.034 252.443 513.867C252.443 515.283 253.189 516.31 254.46 516.699C255.4 517.005 256.34 516.921 257.28 516.672C257.418 516.644 257.584 516.449 257.584 516.338C257.611 515.672 257.611 515.033 257.611 514.339C257.169 514.45 256.754 514.561 256.312 514.616Z" fill="white"/>
<path d="M184.232 516.674C185.117 516.674 185.946 516.674 186.83 516.674C186.83 511.676 186.83 506.76 186.83 501.817C185.946 501.817 185.089 501.817 184.232 501.817C184.232 506.788 184.232 511.703 184.232 516.674Z" fill="white"/>
<path d="M237.375 506.011C236.436 506.149 235.8 506.76 235.275 507.677C235.247 507.066 235.22 506.622 235.22 506.177C234.39 506.177 233.617 506.177 232.815 506.177C232.815 509.704 232.815 513.176 232.815 516.619C233.644 516.619 234.418 516.619 235.247 516.619C235.247 515.036 235.22 513.509 235.247 511.954C235.247 511.454 235.33 510.926 235.441 510.454C235.634 509.676 236.049 509.01 236.795 508.621C237.486 508.26 238.177 508.343 238.868 508.732C239.255 508.01 239.642 507.344 240.001 506.649C239.144 506.122 238.287 505.899 237.375 506.011Z" fill="white"/>
<path d="M441.374 506.009C440.407 506.148 439.799 506.786 439.246 507.536C439.246 507.092 439.246 506.647 439.246 506.175C438.417 506.175 437.643 506.175 436.842 506.175C436.842 509.702 436.842 513.146 436.842 516.617C437.671 516.617 438.417 516.617 439.246 516.617C439.246 516.367 439.246 516.145 439.246 515.951C439.246 514.479 439.219 513.007 439.246 511.535C439.274 510.48 439.578 509.48 440.49 508.814C441.236 508.258 442.038 508.286 442.867 508.73C443.254 508.008 443.613 507.342 444 506.647C443.143 506.148 442.286 505.898 441.374 506.009Z" fill="white"/>
<path d="M304.145 516.647C304.974 516.647 305.776 516.647 306.605 516.647C306.605 513.12 306.605 509.648 306.605 506.205C305.748 506.205 304.974 506.205 304.145 506.205C304.145 509.704 304.145 513.175 304.145 516.647Z" fill="white"/>
<path d="M304.124 504.122C305.036 504.122 305.893 504.122 306.722 504.122C306.722 503.317 306.722 502.567 306.722 501.817C305.837 501.817 304.981 501.817 304.124 501.817C304.124 502.594 304.124 503.344 304.124 504.122Z" fill="white"/>
<g clip-path="url(#clip1_517_46144)">
<rect width="1360" height="972" transform="translate(-146)" fill="#18338C"/>
<path d="M1602.57 936.23C1462.46 936.23 1361.83 1185.84 1135.11 1185.84C908.38 1185.84 824.313 749.023 585.486 749.023C445.374 749.023 344.748 998.633 118.021 998.633C-108.706 998.633 -192.773 561.816 -431.6 561.816" stroke="url(#paint0_linear_517_46144)" stroke-width="2.5" stroke-linecap="round" stroke-linejoin="round" stroke-dasharray="2 8 8 8"/>
<path d="M1604.51 955.671C1464.4 955.671 1363.78 1205.28 1137.05 1205.28C910.323 1205.28 826.256 768.464 587.428 768.464C447.316 768.464 346.691 1018.07 119.964 1018.07C-106.763 1018.07 -190.83 581.256 -429.657 581.256" stroke="url(#paint1_linear_517_46144)" stroke-width="2.5" stroke-linecap="round" stroke-linejoin="round" stroke-dasharray="2 8 8 8"/>
<path d="M1604.51 975.111C1464.4 975.111 1363.78 1224.72 1137.05 1224.72C910.323 1224.72 826.256 787.903 587.428 787.903C447.316 787.903 346.691 1037.51 119.964 1037.51C-106.763 1037.51 -190.83 600.696 -429.657 600.696" stroke="url(#paint2_linear_517_46144)" stroke-width="2.5" stroke-linecap="round" stroke-linejoin="round" stroke-dasharray="2 8 8 8"/>
<path d="M1606.46 994.55C1466.35 994.55 1365.72 1244.16 1138.99 1244.16C912.266 1244.16 828.199 807.343 589.371 807.343C449.259 807.343 348.633 1056.95 121.907 1056.95C-104.82 1056.95 -188.887 620.136 -427.714 620.136" stroke="url(#paint3_linear_517_46144)" stroke-width="2.5" stroke-linecap="round" stroke-linejoin="round" stroke-dasharray="2 8 8 8"/>
<path d="M1610.34 1013.99C1470.23 1013.99 1369.6 1263.6 1142.88 1263.6C916.152 1263.6 832.084 826.783 593.257 826.783C453.145 826.783 352.519 1076.39 125.793 1076.39C-100.934 1076.39 -185.001 639.576 -423.829 639.576" stroke="url(#paint4_linear_517_46144)" stroke-width="2.5" stroke-linecap="round" stroke-linejoin="round" stroke-dasharray="2 8 8 8"/>
<path d="M1612.29 1033.43C1472.17 1033.43 1371.55 1283.04 1144.82 1283.04C918.094 1283.04 834.027 846.223 595.2 846.223C455.088 846.223 354.462 1095.83 127.735 1095.83C-98.9913 1095.83 -183.058 659.016 -421.886 659.016" stroke="url(#paint5_linear_517_46144)" stroke-width="2.5" stroke-linecap="round" stroke-linejoin="round" stroke-dasharray="2 8 8 8"/>
<path d="M1618.11 1052.87C1478 1052.87 1377.38 1302.48 1150.65 1302.48C923.923 1302.48 839.856 865.663 601.029 865.663C460.917 865.663 360.291 1115.27 133.564 1115.27C-93.1627 1115.27 -177.23 678.456 -416.057 678.456" stroke="url(#paint6_linear_517_46144)" stroke-width="2.5" stroke-linecap="round" stroke-linejoin="round" stroke-dasharray="2 8 8 8"/>
<path d="M1622 1072.31C1481.89 1072.31 1381.26 1321.92 1154.54 1321.92C927.809 1321.92 843.742 885.103 604.914 885.103C464.802 885.103 364.176 1134.71 137.45 1134.71C-89.2769 1134.71 -173.344 697.896 -412.171 697.896" stroke="url(#paint7_linear_517_46144)" stroke-width="2.5" stroke-linecap="round" stroke-linejoin="round" stroke-dasharray="2 8 8 8"/>
<path d="M1627.83 1091.75C1487.72 1091.75 1387.09 1341.36 1160.36 1341.36C933.637 1341.36 849.57 904.543 610.743 904.543C470.631 904.543 370.005 1154.15 143.278 1154.15C-83.4484 1154.15 -167.516 717.336 -406.343 717.336" stroke="url(#paint8_linear_517_46144)" stroke-width="2.5" stroke-linecap="round" stroke-linejoin="round" stroke-dasharray="2 8 8 8"/>
<path d="M1633.66 1111.19C1493.55 1111.19 1392.92 1360.8 1166.19 1360.8C939.466 1360.8 855.399 923.983 616.571 923.983C476.459 923.983 375.834 1173.59 149.107 1173.59C-77.6198 1173.59 -161.687 736.776 -400.514 736.776" stroke="url(#paint9_linear_517_46144)" stroke-width="2.5" stroke-linecap="round" stroke-linejoin="round" stroke-dasharray="2 8 8 8"/>
<path d="M1639.49 1130.63C1499.37 1130.63 1398.75 1380.24 1172.02 1380.24C945.294 1380.24 861.227 943.423 622.4 943.423C482.288 943.423 381.662 1193.03 154.935 1193.03C-71.7913 1193.03 -155.858 756.216 -394.686 756.216" stroke="url(#paint10_linear_517_46144)" stroke-width="2.5" stroke-linecap="round" stroke-linejoin="round" stroke-dasharray="2 8 8 8"/>
<path d="M1647.26 1150.07C1507.15 1150.07 1406.52 1399.68 1179.79 1399.68C953.066 1399.68 868.999 962.864 630.171 962.864C490.059 962.864 389.434 1212.47 162.707 1212.47C-64.0198 1212.47 -148.087 775.656 -386.914 775.656" stroke="url(#paint11_linear_517_46144)" stroke-width="2.5" stroke-linecap="round" stroke-linejoin="round" stroke-dasharray="2 8 8 8"/>
<path d="M1655.03 1169.51C1514.92 1169.51 1414.29 1419.12 1187.56 1419.12C960.837 1419.12 876.77 982.303 637.943 982.303C497.831 982.303 397.205 1231.91 170.478 1231.91C-56.2484 1231.91 -140.316 795.096 -379.143 795.096" stroke="url(#paint12_linear_517_46144)" stroke-width="2.5" stroke-linecap="round" stroke-linejoin="round" stroke-dasharray="2 8 8 8"/>
<path d="M1662.8 1188.95C1522.69 1188.95 1422.06 1438.56 1195.34 1438.56C968.609 1438.56 884.542 1001.74 645.714 1001.74C505.602 1001.74 404.976 1251.35 178.25 1251.35C-48.4769 1251.35 -132.544 814.536 -371.371 814.536" stroke="url(#paint13_linear_517_46144)" stroke-width="2.5" stroke-linecap="round" stroke-linejoin="round" stroke-dasharray="2 8 8 8"/>
<path d="M1672.51 1208.39C1532.4 1208.39 1431.78 1458 1205.05 1458C978.323 1458 894.256 1021.18 655.429 1021.18C515.317 1021.18 414.691 1270.79 187.964 1270.79C-38.7626 1270.79 -122.83 833.976 -361.657 833.976" stroke="url(#paint14_linear_517_46144)" stroke-width="2.5" stroke-linecap="round" stroke-linejoin="round" stroke-dasharray="2 8 8 8"/>
<path d="M1682.23 1227.83C1542.12 1227.83 1441.49 1477.44 1214.76 1477.44C988.037 1477.44 903.97 1040.62 665.143 1040.62C525.031 1040.62 424.405 1290.23 197.678 1290.23C-29.0484 1290.23 -113.116 853.416 -351.943 853.416" stroke="url(#paint15_linear_517_46144)" stroke-width="2.5" stroke-linecap="round" stroke-linejoin="round" stroke-dasharray="2 8 8 8"/>
<path d="M1691.94 1247.27C1551.83 1247.27 1451.21 1496.88 1224.48 1496.88C997.752 1496.88 913.685 1060.06 674.857 1060.06C534.745 1060.06 434.119 1309.67 207.393 1309.67C-19.3341 1309.67 -103.401 872.856 -342.229 872.856" stroke="url(#paint16_linear_517_46144)" stroke-width="2.5" stroke-linecap="round" stroke-linejoin="round" stroke-dasharray="2 8 8 8"/>
<path d="M1703.6 1266.71C1563.49 1266.71 1462.86 1516.32 1236.14 1516.32C1009.41 1516.32 925.342 1079.5 686.514 1079.5C546.402 1079.5 445.776 1329.11 219.05 1329.11C-7.67695 1329.11 -91.7441 892.296 -330.571 892.296" stroke="url(#paint17_linear_517_46144)" stroke-width="2.5" stroke-linecap="round" stroke-linejoin="round" stroke-dasharray="2 8 8 8"/>
<path d="M1713.31 1286.15C1573.2 1286.15 1472.58 1535.76 1245.85 1535.76C1019.12 1535.76 935.056 1098.94 696.229 1098.94C556.117 1098.94 455.491 1348.55 228.764 1348.55C2.03729 1348.55 -82.0299 911.736 -320.857 911.736" stroke="url(#paint18_linear_517_46144)" stroke-width="2.5" stroke-linecap="round" stroke-linejoin="round" stroke-dasharray="2 8 8 8"/>
<path d="M1726.91 1305.59C1586.8 1305.59 1486.18 1555.2 1259.45 1555.2C1032.72 1555.2 948.656 1118.38 709.829 1118.38C569.717 1118.38 469.091 1367.99 242.364 1367.99C15.6373 1367.99 -68.4299 931.176 -307.257 931.176" stroke="url(#paint19_linear_517_46144)" stroke-width="2.5" stroke-linecap="round" stroke-linejoin="round" stroke-dasharray="2 8 8 8"/>
<path d="M1738.57 1325.03C1598.46 1325.03 1497.83 1574.64 1271.11 1574.64C1044.38 1574.64 960.313 1137.82 721.486 1137.82C581.374 1137.82 480.748 1387.43 254.021 1387.43C27.2945 1387.43 -56.7727 950.616 -295.6 950.616" stroke="url(#paint20_linear_517_46144)" stroke-width="2.5" stroke-linecap="round" stroke-linejoin="round" stroke-dasharray="2 8 8 8"/>
<path d="M1602.57 -249.609C1462.46 -249.609 1361.83 0.000125647 1135.11 0.000125647C908.38 0.000125647 824.313 -436.817 585.486 -436.817C445.374 -436.817 344.748 -187.207 118.021 -187.207C-108.706 -187.207 -192.773 -624.024 -431.6 -624.024" stroke="url(#paint21_linear_517_46144)" stroke-width="2.5" stroke-linecap="round" stroke-linejoin="round" stroke-dasharray="2 8 8 8"/>
<path d="M1614.23 -230.17C1474.12 -230.17 1373.49 19.44 1146.76 19.44C920.037 19.44 835.97 -417.377 597.143 -417.377C457.031 -417.377 356.405 -167.767 129.678 -167.767C-97.0484 -167.767 -181.116 -604.584 -419.943 -604.584" stroke="url(#paint22_linear_517_46144)" stroke-width="2.5" stroke-linecap="round" stroke-linejoin="round" stroke-dasharray="2 8 8 8"/>
<path d="M1625.89 -210.73C1485.77 -210.73 1385.15 38.8801 1158.42 38.8801C931.694 38.8801 847.627 -397.937 608.8 -397.937C468.688 -397.937 368.062 -148.327 141.335 -148.327C-85.3912 -148.327 -169.458 -585.144 -408.286 -585.144" stroke="url(#paint23_linear_517_46144)" stroke-width="2.5" stroke-linecap="round" stroke-linejoin="round" stroke-dasharray="2 8 8 8"/>
<path d="M1637.54 -191.29C1497.43 -191.29 1396.81 58.3201 1170.08 58.3201C943.352 58.3201 859.284 -378.497 620.457 -378.497C480.345 -378.497 379.719 -128.887 152.993 -128.887C-73.7341 -128.887 -157.801 -565.704 -396.629 -565.704" stroke="url(#paint24_linear_517_46144)" stroke-width="2.5" stroke-linecap="round" stroke-linejoin="round" stroke-dasharray="2 8 8 8"/>
<path d="M1649.2 -171.85C1509.09 -171.85 1408.46 77.76 1181.74 77.76C955.009 77.76 870.942 -359.057 632.114 -359.057C492.002 -359.057 391.376 -109.447 164.65 -109.447C-62.077 -109.447 -146.144 -546.264 -384.971 -546.264" stroke="url(#paint25_linear_517_46144)" stroke-width="2.5" stroke-linecap="round" stroke-linejoin="round" stroke-dasharray="2 8 8 8"/>
<path d="M1658.91 -152.41C1518.8 -152.41 1418.18 97.2 1191.45 97.2C964.723 97.2 880.656 -339.617 641.829 -339.617C501.717 -339.617 401.091 -90.0072 174.364 -90.0072C-52.3627 -90.0072 -136.43 -526.824 -375.257 -526.824" stroke="url(#paint26_linear_517_46144)" stroke-width="2.5" stroke-linecap="round" stroke-linejoin="round" stroke-dasharray="2 8 8 8"/>
<path d="M1670.57 -132.97C1530.46 -132.97 1429.83 116.64 1203.11 116.64C976.38 116.64 892.313 -320.177 653.486 -320.177C513.374 -320.177 412.748 -70.5671 186.021 -70.5671C-40.7055 -70.5671 -124.773 -507.384 -363.6 -507.384" stroke="url(#paint27_linear_517_46144)" stroke-width="2.5" stroke-linecap="round" stroke-linejoin="round" stroke-dasharray="2 8 8 8"/>
<path d="M1682.23 -113.529C1542.12 -113.529 1441.49 136.08 1214.76 136.08C988.037 136.08 903.97 -300.737 665.143 -300.737C525.031 -300.737 424.405 -51.127 197.678 -51.127C-29.0484 -51.127 -113.116 -487.944 -351.943 -487.944" stroke="url(#paint28_linear_517_46144)" stroke-width="2.5" stroke-linecap="round" stroke-linejoin="round" stroke-dasharray="2 8 8 8"/>
<path d="M1693.89 -94.0895C1553.77 -94.0895 1453.15 155.52 1226.42 155.52C999.694 155.52 915.627 -281.297 676.8 -281.297C536.688 -281.297 436.062 -31.6871 209.335 -31.6871C-17.3912 -31.6871 -101.458 -468.504 -340.286 -468.504" stroke="url(#paint29_linear_517_46144)" stroke-width="2.5" stroke-linecap="round" stroke-linejoin="round" stroke-dasharray="2 8 8 8"/>
<path d="M1701.66 -74.6495C1561.55 -74.6495 1460.92 174.96 1234.19 174.96C1007.47 174.96 923.399 -261.857 684.571 -261.857C544.459 -261.857 443.834 -12.2471 217.107 -12.2471C-9.61982 -12.2471 -93.687 -449.064 -332.514 -449.064" stroke="url(#paint30_linear_517_46144)" stroke-width="2.5" stroke-linecap="round" stroke-linejoin="round" stroke-dasharray="2 8 8 8"/>
<path d="M1711.37 -55.2095C1571.26 -55.2095 1470.63 194.4 1243.91 194.4C1017.18 194.4 933.113 -242.417 694.286 -242.417C554.174 -242.417 453.548 7.1929 226.821 7.1929C0.0945058 7.1929 -83.9727 -429.624 -322.8 -429.624" stroke="url(#paint31_linear_517_46144)" stroke-width="2.5" stroke-linecap="round" stroke-linejoin="round" stroke-dasharray="2 8 8 8"/>
<path d="M1719.14 -35.7695C1579.03 -35.7695 1478.4 213.84 1251.68 213.84C1024.95 213.84 940.884 -222.977 702.057 -222.977C561.945 -222.977 461.319 26.6329 234.593 26.6329C7.8659 26.6329 -76.2013 -410.184 -315.029 -410.184" stroke="url(#paint32_linear_517_46144)" stroke-width="2.5" stroke-linecap="round" stroke-linejoin="round" stroke-dasharray="2 8 8 8"/>
<path d="M1728.86 -16.3295C1588.75 -16.3295 1488.12 233.28 1261.39 233.28C1034.67 233.28 950.599 -203.537 711.771 -203.537C571.659 -203.537 471.034 46.0729 244.307 46.0729C17.5802 46.0729 -66.487 -390.744 -305.314 -390.744" stroke="url(#paint33_linear_517_46144)" stroke-width="2.5" stroke-linecap="round" stroke-linejoin="round" stroke-dasharray="2 8 8 8"/>
<path d="M1736.63 3.11045C1596.52 3.11045 1495.89 252.72 1269.16 252.72C1042.44 252.72 958.37 -184.097 719.543 -184.097C579.431 -184.097 478.805 65.5128 252.078 65.5128C25.3516 65.5128 -58.7156 -371.304 -297.543 -371.304" stroke="url(#paint34_linear_517_46144)" stroke-width="2.5" stroke-linecap="round" stroke-linejoin="round" stroke-dasharray="2 8 8 8"/>
<path d="M1742.46 22.5504C1602.35 22.5504 1501.72 272.16 1274.99 272.16C1048.27 272.16 964.199 -164.657 725.372 -164.657C585.26 -164.657 484.634 84.9528 257.907 84.9528C31.1802 84.9528 -52.887 -351.864 -291.714 -351.864" stroke="url(#paint35_linear_517_46144)" stroke-width="2.5" stroke-linecap="round" stroke-linejoin="round" stroke-dasharray="2 8 8 8"/>
<path d="M1748.29 41.9906C1608.17 41.9906 1507.55 291.6 1280.82 291.6C1054.09 291.6 970.027 -145.217 731.2 -145.217C591.088 -145.217 490.462 104.393 263.735 104.393C37.0088 104.393 -47.0585 -332.424 -285.886 -332.424" stroke="url(#paint36_linear_517_46144)" stroke-width="2.5" stroke-linecap="round" stroke-linejoin="round" stroke-dasharray="2 8 8 8"/>
<path d="M1754.11 61.4305C1614 61.4305 1513.38 311.04 1286.65 311.04C1059.92 311.04 975.856 -125.777 737.029 -125.777C596.917 -125.777 496.291 123.833 269.564 123.833C42.8373 123.833 -41.2299 -312.984 -280.057 -312.984" stroke="url(#paint37_linear_517_46144)" stroke-width="2.5" stroke-linecap="round" stroke-linejoin="round" stroke-dasharray="2 8 8 8"/>
<path d="M1759.94 80.8705C1619.83 80.8705 1519.2 330.48 1292.48 330.48C1065.75 330.48 981.684 -106.337 742.857 -106.337C602.745 -106.337 502.119 143.273 275.393 143.273C48.6659 143.273 -35.4013 -293.544 -274.229 -293.544" stroke="url(#paint38_linear_517_46144)" stroke-width="2.5" stroke-linecap="round" stroke-linejoin="round" stroke-dasharray="2 8 8 8"/>
<path d="M1763.83 100.31C1623.72 100.31 1523.09 349.92 1296.36 349.92C1069.64 349.92 985.57 -86.8968 746.743 -86.8968C606.631 -86.8968 506.005 162.713 279.278 162.713C52.5516 162.713 -31.5156 -274.104 -270.343 -274.104" stroke="url(#paint39_linear_517_46144)" stroke-width="2.5" stroke-linecap="round" stroke-linejoin="round" stroke-dasharray="2 8 8 8"/>
<path d="M1767.71 119.75C1627.6 119.75 1526.98 369.36 1300.25 369.36C1073.52 369.36 989.456 -67.4569 750.629 -67.4569C610.517 -67.4569 509.891 182.153 283.164 182.153C56.4373 182.153 -27.6299 -254.664 -266.457 -254.664" stroke="url(#paint40_linear_517_46144)" stroke-width="2.5" stroke-linecap="round" stroke-linejoin="round" stroke-dasharray="2 8 8 8"/>
<path d="M1767.71 139.19C1627.6 139.19 1526.98 388.8 1300.25 388.8C1073.52 388.8 989.456 -48.0169 750.629 -48.0169C610.517 -48.0169 509.891 201.593 283.164 201.593C56.4373 201.593 -27.6299 -235.224 -266.457 -235.224" stroke="url(#paint41_linear_517_46144)" stroke-width="2.5" stroke-linecap="round" stroke-linejoin="round" stroke-dasharray="2 8 8 8"/>
<path d="M1771.6 158.63C1631.49 158.63 1530.86 408.24 1304.14 408.24C1077.41 408.24 993.342 -28.5767 754.514 -28.5767C614.402 -28.5767 513.776 221.033 287.05 221.033C60.3231 221.033 -23.7441 -215.784 -262.571 -215.784" stroke="url(#paint42_linear_517_46144)" stroke-width="2.5" stroke-linecap="round" stroke-linejoin="round" stroke-dasharray="2 8 8 8"/>
<path d="M1771.6 178.07C1631.49 178.07 1530.86 427.68 1304.14 427.68C1077.41 427.68 993.342 -9.13678 754.514 -9.13678C614.402 -9.13678 513.776 240.473 287.05 240.473C60.3231 240.473 -23.7441 -196.344 -262.571 -196.344" stroke="url(#paint43_linear_517_46144)" stroke-width="2.5" stroke-linecap="round" stroke-linejoin="round" stroke-dasharray="2 8 8 8"/>
<path d="M1771.6 197.511C1631.49 197.511 1530.86 447.12 1304.14 447.12C1077.41 447.12 993.342 10.3034 754.514 10.3034C614.402 10.3034 513.776 259.913 287.05 259.913C60.3231 259.913 -23.7441 -176.904 -262.571 -176.904" stroke="url(#paint44_linear_517_46144)" stroke-width="2.5" stroke-linecap="round" stroke-linejoin="round" stroke-dasharray="2 8 8 8"/>
<path d="M1771.6 216.951C1631.49 216.951 1530.86 466.56 1304.14 466.56C1077.41 466.56 993.342 29.7433 754.514 29.7433C614.402 29.7433 513.776 279.353 287.05 279.353C60.3231 279.353 -23.7441 -157.464 -262.571 -157.464" stroke="url(#paint45_linear_517_46144)" stroke-width="2.5" stroke-linecap="round" stroke-linejoin="round" stroke-dasharray="2 8 8 8"/>
<path d="M1771.6 236.391C1631.49 236.391 1530.86 486 1304.14 486C1077.41 486 993.342 49.1833 754.514 49.1833C614.402 49.1833 513.776 298.793 287.05 298.793C60.3231 298.793 -23.7441 -138.024 -262.571 -138.024" stroke="url(#paint46_linear_517_46144)" stroke-width="2.5" stroke-linecap="round" stroke-linejoin="round" stroke-dasharray="2 8 8 8"/>
<path d="M1767.71 255.83C1627.6 255.83 1526.98 505.44 1300.25 505.44C1073.52 505.44 989.456 68.6232 750.629 68.6232C610.517 68.6232 509.891 318.233 283.164 318.233C56.4373 318.233 -27.6299 -118.584 -266.457 -118.584" stroke="url(#paint47_linear_517_46144)" stroke-width="2.5" stroke-linecap="round" stroke-linejoin="round" stroke-dasharray="2 8 8 8"/>
<path d="M1767.71 275.27C1627.6 275.27 1526.98 524.88 1300.25 524.88C1073.52 524.88 989.456 88.0632 750.629 88.0632C610.517 88.0632 509.891 337.673 283.164 337.673C56.4373 337.673 -27.6299 -99.144 -266.457 -99.144" stroke="url(#paint48_linear_517_46144)" stroke-width="2.5" stroke-linecap="round" stroke-linejoin="round" stroke-dasharray="2 8 8 8"/>
<path d="M1767.71 294.711C1627.6 294.711 1526.98 544.32 1300.25 544.32C1073.52 544.32 989.456 107.503 750.629 107.503C610.517 107.503 509.891 357.113 283.164 357.113C56.4373 357.113 -27.6299 -79.7039 -266.457 -79.7039" stroke="url(#paint49_linear_517_46144)" stroke-width="2.5" stroke-linecap="round" stroke-linejoin="round" stroke-dasharray="2 8 8 8"/>
<path d="M1763.83 314.151C1623.72 314.151 1523.09 563.76 1296.36 563.76C1069.64 563.76 985.57 126.943 746.743 126.943C606.631 126.943 506.005 376.553 279.278 376.553C52.5516 376.553 -31.5156 -60.2639 -270.343 -60.2639" stroke="url(#paint50_linear_517_46144)" stroke-width="2.5" stroke-linecap="round" stroke-linejoin="round" stroke-dasharray="2 8 8 8"/>
<path d="M1763.83 333.59C1623.72 333.59 1523.09 583.2 1296.36 583.2C1069.64 583.2 985.57 146.383 746.743 146.383C606.631 146.383 506.005 395.993 279.278 395.993C52.5516 395.993 -31.5156 -40.824 -270.343 -40.824" stroke="url(#paint51_linear_517_46144)" stroke-width="2.5" stroke-linecap="round" stroke-linejoin="round" stroke-dasharray="2 8 8 8"/>
<path d="M1759.94 353.031C1619.83 353.031 1519.2 602.64 1292.48 602.64C1065.75 602.64 981.684 165.823 742.857 165.823C602.745 165.823 502.119 415.433 275.393 415.433C48.6659 415.433 -35.4013 -21.3838 -274.229 -21.3838" stroke="url(#paint52_linear_517_46144)" stroke-width="2.5" stroke-linecap="round" stroke-linejoin="round" stroke-dasharray="2 8 8 8"/>
<path d="M1754.11 372.471C1614 372.471 1513.38 622.08 1286.65 622.08C1059.92 622.08 975.856 185.263 737.029 185.263C596.917 185.263 496.291 434.873 269.564 434.873C42.8373 434.873 -41.2299 -1.94385 -280.057 -1.94385" stroke="url(#paint53_linear_517_46144)" stroke-width="2.5" stroke-linecap="round" stroke-linejoin="round" stroke-dasharray="2 8 8 8"/>
<path d="M1754.11 391.91C1614 391.91 1513.38 641.52 1286.65 641.52C1059.92 641.52 975.856 204.703 737.029 204.703C596.917 204.703 496.291 454.313 269.564 454.313C42.8373 454.313 -41.2299 17.4961 -280.057 17.4961" stroke="url(#paint54_linear_517_46144)" stroke-width="2.5" stroke-linecap="round" stroke-linejoin="round" stroke-dasharray="2 8 8 8"/>
<path d="M1748.29 411.35C1608.17 411.35 1507.55 660.96 1280.82 660.96C1054.09 660.96 970.027 224.143 731.2 224.143C591.088 224.143 490.462 473.753 263.735 473.753C37.0088 473.753 -47.0585 36.936 -285.886 36.936" stroke="url(#paint55_linear_517_46144)" stroke-width="2.5" stroke-linecap="round" stroke-linejoin="round" stroke-dasharray="2 8 8 8"/>
<path d="M1742.46 430.79C1602.35 430.79 1501.72 680.4 1274.99 680.4C1048.27 680.4 964.199 243.583 725.372 243.583C585.26 243.583 484.634 493.193 257.907 493.193C31.1802 493.193 -52.887 56.376 -291.714 56.376" stroke="url(#paint56_linear_517_46144)" stroke-width="2.5" stroke-linecap="round" stroke-linejoin="round" stroke-dasharray="2 8 8 8"/>
<path d="M1740.51 450.23C1600.4 450.23 1499.78 699.84 1273.05 699.84C1046.32 699.84 962.256 263.023 723.429 263.023C583.317 263.023 482.691 512.633 255.964 512.633C29.2374 512.633 -54.8298 75.8159 -293.657 75.8159" stroke="url(#paint57_linear_517_46144)" stroke-width="2.5" stroke-linecap="round" stroke-linejoin="round" stroke-dasharray="2 8 8 8"/>
<path d="M1736.63 469.671C1596.52 469.671 1495.89 719.28 1269.16 719.28C1042.44 719.28 958.37 282.463 719.543 282.463C579.431 282.463 478.805 532.073 252.078 532.073C25.3516 532.073 -58.7156 95.2561 -297.543 95.2561" stroke="url(#paint58_linear_517_46144)" stroke-width="2.5" stroke-linecap="round" stroke-linejoin="round" stroke-dasharray="2 8 8 8"/>
<path d="M1728.86 489.11C1588.75 489.11 1488.12 738.72 1261.39 738.72C1034.67 738.72 950.599 301.903 711.771 301.903C571.659 301.903 471.034 551.513 244.307 551.513C17.5802 551.513 -66.487 114.696 -305.314 114.696" stroke="url(#paint59_linear_517_46144)" stroke-width="2.5" stroke-linecap="round" stroke-linejoin="round" stroke-dasharray="2 8 8 8"/>
<path d="M1723.03 508.55C1582.92 508.55 1482.29 758.16 1255.56 758.16C1028.84 758.16 944.77 321.343 705.943 321.343C565.831 321.343 465.205 570.953 238.478 570.953C11.7516 570.953 -72.3156 134.136 -311.143 134.136" stroke="url(#paint60_linear_517_46144)" stroke-width="2.5" stroke-linecap="round" stroke-linejoin="round" stroke-dasharray="2 8 8 8"/>
<path d="M1715.26 527.991C1575.15 527.991 1474.52 777.6 1247.79 777.6C1021.07 777.6 936.999 340.783 698.171 340.783C558.059 340.783 457.434 590.393 230.707 590.393C3.98016 590.393 -80.087 153.576 -318.914 153.576" stroke="url(#paint61_linear_517_46144)" stroke-width="2.5" stroke-linecap="round" stroke-linejoin="round" stroke-dasharray="2 8 8 8"/>
<path d="M1709.43 547.431C1569.32 547.431 1468.69 797.04 1241.96 797.04C1015.24 797.04 931.17 360.223 692.343 360.223C552.231 360.223 451.605 609.833 224.878 609.833C-1.8484 609.833 -85.9156 173.016 -324.743 173.016" stroke="url(#paint62_linear_517_46144)" stroke-width="2.5" stroke-linecap="round" stroke-linejoin="round" stroke-dasharray="2 8 8 8"/>
<path d="M1701.66 566.87C1561.55 566.87 1460.92 816.48 1234.19 816.48C1007.47 816.48 923.399 379.663 684.571 379.663C544.459 379.663 443.834 629.273 217.107 629.273C-9.61982 629.273 -93.687 192.456 -332.514 192.456" stroke="url(#paint63_linear_517_46144)" stroke-width="2.5" stroke-linecap="round" stroke-linejoin="round" stroke-dasharray="2 8 8 8"/>
<path d="M1693.89 586.31C1553.77 586.31 1453.15 835.92 1226.42 835.92C999.694 835.92 915.627 399.103 676.8 399.103C536.688 399.103 436.062 648.713 209.335 648.713C-17.3912 648.713 -101.458 211.896 -340.286 211.896" stroke="url(#paint64_linear_517_46144)" stroke-width="2.5" stroke-linecap="round" stroke-linejoin="round" stroke-dasharray="2 8 8 8"/>
<path d="M1688.06 605.75C1547.95 605.75 1447.32 855.36 1220.59 855.36C993.866 855.36 909.799 418.543 670.971 418.543C530.859 418.543 430.234 668.153 203.507 668.153C-23.2198 668.153 -107.287 231.336 -346.114 231.336" stroke="url(#paint65_linear_517_46144)" stroke-width="2.5" stroke-linecap="round" stroke-linejoin="round" stroke-dasharray="2 8 8 8"/>
<path d="M1678.34 625.191C1538.23 625.191 1437.6 874.8 1210.88 874.8C984.152 874.8 900.084 437.983 661.257 437.983C521.145 437.983 420.519 687.593 193.793 687.593C-32.9341 687.593 -117.001 250.776 -355.829 250.776" stroke="url(#paint66_linear_517_46144)" stroke-width="2.5" stroke-linecap="round" stroke-linejoin="round" stroke-dasharray="2 8 8 8"/>
<path d="M1670.57 644.63C1530.46 644.63 1429.83 894.24 1203.11 894.24C976.38 894.24 892.313 457.423 653.486 457.423C513.374 457.423 412.748 707.033 186.021 707.033C-40.7055 707.033 -124.773 270.216 -363.6 270.216" stroke="url(#paint67_linear_517_46144)" stroke-width="2.5" stroke-linecap="round" stroke-linejoin="round" stroke-dasharray="2 8 8 8"/>
<path d="M1662.8 664.071C1522.69 664.071 1422.06 913.68 1195.34 913.68C968.609 913.68 884.542 476.863 645.714 476.863C505.602 476.863 404.976 726.473 178.25 726.473C-48.4769 726.473 -132.544 289.656 -371.371 289.656" stroke="url(#paint68_linear_517_46144)" stroke-width="2.5" stroke-linecap="round" stroke-linejoin="round" stroke-dasharray="2 8 8 8"/>
<path d="M1656.97 683.511C1516.86 683.511 1416.23 933.12 1189.51 933.12C962.78 933.12 878.713 496.303 639.886 496.303C499.774 496.303 399.148 745.913 172.421 745.913C-54.3056 745.913 -138.373 309.096 -377.2 309.096" stroke="url(#paint69_linear_517_46144)" stroke-width="2.5" stroke-linecap="round" stroke-linejoin="round" stroke-dasharray="2 8 8 8"/>
<path d="M1651.14 702.951C1511.03 702.951 1410.4 952.56 1183.68 952.56C956.952 952.56 872.884 515.743 634.057 515.743C493.945 515.743 393.319 765.353 166.593 765.353C-60.1341 765.353 -144.201 328.536 -383.029 328.536" stroke="url(#paint70_linear_517_46144)" stroke-width="2.5" stroke-linecap="round" stroke-linejoin="round" stroke-dasharray="2 8 8 8"/>
<path d="M1641.43 722.391C1501.32 722.391 1400.69 972 1173.96 972C947.237 972 863.17 535.183 624.343 535.183C484.231 535.183 383.605 784.793 156.878 784.793C-69.8484 784.793 -153.916 347.976 -392.743 347.976" stroke="url(#paint71_linear_517_46144)" stroke-width="2.5" stroke-linecap="round" stroke-linejoin="round" stroke-dasharray="2 8 8 8"/>
<path d="M1635.6 741.83C1495.49 741.83 1394.86 991.44 1168.14 991.44C941.409 991.44 857.342 554.623 618.514 554.623C478.402 554.623 377.776 804.233 151.05 804.233C-75.6769 804.233 -159.744 367.416 -398.571 367.416" stroke="url(#paint72_linear_517_46144)" stroke-width="2.5" stroke-linecap="round" stroke-linejoin="round" stroke-dasharray="2 8 8 8"/>
<path d="M1629.77 761.271C1489.66 761.271 1389.03 1010.88 1162.31 1010.88C935.58 1010.88 851.513 574.063 612.686 574.063C472.574 574.063 371.948 823.673 145.221 823.673C-81.5056 823.673 -165.573 386.856 -404.4 386.856" stroke="url(#paint73_linear_517_46144)" stroke-width="2.5" stroke-linecap="round" stroke-linejoin="round" stroke-dasharray="2 8 8 8"/>
<path d="M1623.94 780.71C1483.83 780.71 1383.2 1030.32 1156.48 1030.32C929.752 1030.32 845.684 593.503 606.857 593.503C466.745 593.503 366.119 843.113 139.393 843.113C-87.3341 843.113 -171.401 406.296 -410.229 406.296" stroke="url(#paint74_linear_517_46144)" stroke-width="2.5" stroke-linecap="round" stroke-linejoin="round" stroke-dasharray="2 8 8 8"/>
<path d="M1620.06 800.15C1479.95 800.15 1379.32 1049.76 1152.59 1049.76C925.866 1049.76 841.799 612.943 602.971 612.943C462.859 612.943 362.234 862.553 135.507 862.553C-91.2198 862.553 -175.287 425.736 -414.114 425.736" stroke="url(#paint75_linear_517_46144)" stroke-width="2.5" stroke-linecap="round" stroke-linejoin="round" stroke-dasharray="2 8 8 8"/>
<path d="M1614.23 819.59C1474.12 819.59 1373.49 1069.2 1146.76 1069.2C920.037 1069.2 835.97 632.383 597.143 632.383C457.031 632.383 356.405 881.993 129.678 881.993C-97.0484 881.993 -181.116 445.176 -419.943 445.176" stroke="url(#paint76_linear_517_46144)" stroke-width="2.5" stroke-linecap="round" stroke-linejoin="round" stroke-dasharray="2 8 8 8"/>
<path d="M1610.34 839.031C1470.23 839.031 1369.6 1088.64 1142.88 1088.64C916.152 1088.64 832.084 651.823 593.257 651.823C453.145 651.823 352.519 901.433 125.793 901.433C-100.934 901.433 -185.001 464.616 -423.829 464.616" stroke="url(#paint77_linear_517_46144)" stroke-width="2.5" stroke-linecap="round" stroke-linejoin="round" stroke-dasharray="2 8 8 8"/>
<path d="M1606.46 858.471C1466.35 858.471 1365.72 1108.08 1138.99 1108.08C912.266 1108.08 828.199 671.263 589.371 671.263C449.259 671.263 348.633 920.873 121.907 920.873C-104.82 920.873 -188.887 484.056 -427.714 484.056" stroke="url(#paint78_linear_517_46144)" stroke-width="2.5" stroke-linecap="round" stroke-linejoin="round" stroke-dasharray="2 8 8 8"/>
<path d="M1606.46 877.911C1466.35 877.911 1365.72 1127.52 1138.99 1127.52C912.266 1127.52 828.199 690.703 589.371 690.703C449.259 690.703 348.633 940.313 121.907 940.313C-104.82 940.313 -188.887 503.496 -427.714 503.496" stroke="url(#paint79_linear_517_46144)" stroke-width="2.5" stroke-linecap="round" stroke-linejoin="round" stroke-dasharray="2 8 8 8"/>
<path d="M1602.57 897.35C1462.46 897.35 1361.83 1146.96 1135.11 1146.96C908.38 1146.96 824.313 710.143 585.486 710.143C445.374 710.143 344.748 959.753 118.021 959.753C-108.706 959.753 -192.773 522.936 -431.6 522.936" stroke="url(#paint80_linear_517_46144)" stroke-width="2.5" stroke-linecap="round" stroke-linejoin="round" stroke-dasharray="2 8 8 8"/>
<path d="M1602.57 916.79C1462.46 916.79 1361.83 1166.4 1135.11 1166.4C908.38 1166.4 824.313 729.583 585.486 729.583C445.374 729.583 344.748 979.193 118.021 979.193C-108.706 979.193 -192.773 542.376 -431.6 542.376" stroke="url(#paint81_linear_517_46144)" stroke-width="2.5" stroke-linecap="round" stroke-linejoin="round" stroke-dasharray="2 8 8 8"/>
</g>
</g>
<defs>
<linearGradient id="paint0_linear_517_46144" x1="-420.914" y1="586.116" x2="1602.7" y2="1077.4" gradientUnits="userSpaceOnUse">
<stop offset="0.0885417" stop-color="#2450DF"/>
<stop offset="0.515625" stop-color="#2D51C7"/>
<stop offset="0.90625" stop-color="#20DBFE"/>
</linearGradient>
<linearGradient id="paint1_linear_517_46144" x1="-418.972" y1="605.556" x2="1604.65" y2="1096.84" gradientUnits="userSpaceOnUse">
<stop offset="0.0885417" stop-color="#2450DF"/>
<stop offset="0.515625" stop-color="#2D51C7"/>
<stop offset="0.90625" stop-color="#20DBFE"/>
</linearGradient>
<linearGradient id="paint2_linear_517_46144" x1="-418.972" y1="624.996" x2="1604.65" y2="1116.28" gradientUnits="userSpaceOnUse">
<stop offset="0.0885417" stop-color="#2450DF"/>
<stop offset="0.515625" stop-color="#2D51C7"/>
<stop offset="0.90625" stop-color="#20DBFE"/>
</linearGradient>
<linearGradient id="paint3_linear_517_46144" x1="-417.029" y1="644.436" x2="1606.59" y2="1135.72" gradientUnits="userSpaceOnUse">
<stop offset="0.0885417" stop-color="#2450DF"/>
<stop offset="0.515625" stop-color="#2D51C7"/>
<stop offset="0.90625" stop-color="#20DBFE"/>
</linearGradient>
<linearGradient id="paint4_linear_517_46144" x1="-413.143" y1="663.876" x2="1610.48" y2="1155.16" gradientUnits="userSpaceOnUse">
<stop offset="0.0885417" stop-color="#2450DF"/>
<stop offset="0.515625" stop-color="#2D51C7"/>
<stop offset="0.90625" stop-color="#20DBFE"/>
</linearGradient>
<linearGradient id="paint5_linear_517_46144" x1="-411.2" y1="683.316" x2="1612.42" y2="1174.6" gradientUnits="userSpaceOnUse">
<stop offset="0.0885417" stop-color="#2450DF"/>
<stop offset="0.515625" stop-color="#2D51C7"/>
<stop offset="0.90625" stop-color="#20DBFE"/>
</linearGradient>
<linearGradient id="paint6_linear_517_46144" x1="-405.371" y1="702.756" x2="1618.25" y2="1194.04" gradientUnits="userSpaceOnUse">
<stop offset="0.0885417" stop-color="#2450DF"/>
<stop offset="0.515625" stop-color="#2D51C7"/>
<stop offset="0.90625" stop-color="#20DBFE"/>
</linearGradient>
<linearGradient id="paint7_linear_517_46144" x1="-401.486" y1="722.196" x2="1622.13" y2="1213.48" gradientUnits="userSpaceOnUse">
<stop offset="0.0885417" stop-color="#2450DF"/>
<stop offset="0.515625" stop-color="#2D51C7"/>
<stop offset="0.90625" stop-color="#20DBFE"/>
</linearGradient>
<linearGradient id="paint8_linear_517_46144" x1="-395.657" y1="741.636" x2="1627.96" y2="1232.92" gradientUnits="userSpaceOnUse">
<stop offset="0.0885417" stop-color="#2450DF"/>
<stop offset="0.515625" stop-color="#2D51C7"/>
<stop offset="0.90625" stop-color="#20DBFE"/>
</linearGradient>
<linearGradient id="paint9_linear_517_46144" x1="-389.829" y1="761.076" x2="1633.79" y2="1252.36" gradientUnits="userSpaceOnUse">
<stop offset="0.0885417" stop-color="#2450DF"/>
<stop offset="0.515625" stop-color="#2D51C7"/>
<stop offset="0.90625" stop-color="#20DBFE"/>
</linearGradient>
<linearGradient id="paint10_linear_517_46144" x1="-384" y1="780.516" x2="1639.62" y2="1271.8" gradientUnits="userSpaceOnUse">
<stop offset="0.0885417" stop-color="#2450DF"/>
<stop offset="0.515625" stop-color="#2D51C7"/>
<stop offset="0.90625" stop-color="#20DBFE"/>
</linearGradient>
<linearGradient id="paint11_linear_517_46144" x1="-376.229" y1="799.956" x2="1647.39" y2="1291.24" gradientUnits="userSpaceOnUse">
<stop offset="0.0885417" stop-color="#2450DF"/>
<stop offset="0.515625" stop-color="#2D51C7"/>
<stop offset="0.90625" stop-color="#20DBFE"/>
</linearGradient>
<linearGradient id="paint12_linear_517_46144" x1="-368.457" y1="819.396" x2="1655.16" y2="1310.68" gradientUnits="userSpaceOnUse">
<stop offset="0.0885417" stop-color="#2450DF"/>
<stop offset="0.515625" stop-color="#2D51C7"/>
<stop offset="0.90625" stop-color="#20DBFE"/>
</linearGradient>
<linearGradient id="paint13_linear_517_46144" x1="-360.686" y1="838.836" x2="1662.93" y2="1330.12" gradientUnits="userSpaceOnUse">
<stop offset="0.0885417" stop-color="#2450DF"/>
<stop offset="0.515625" stop-color="#2D51C7"/>
<stop offset="0.90625" stop-color="#20DBFE"/>
</linearGradient>
<linearGradient id="paint14_linear_517_46144" x1="-350.971" y1="858.276" x2="1672.65" y2="1349.56" gradientUnits="userSpaceOnUse">
<stop offset="0.0885417" stop-color="#2450DF"/>
<stop offset="0.515625" stop-color="#2D51C7"/>
<stop offset="0.90625" stop-color="#20DBFE"/>
</linearGradient>
<linearGradient id="paint15_linear_517_46144" x1="-341.257" y1="877.716" x2="1682.36" y2="1369" gradientUnits="userSpaceOnUse">
<stop offset="0.0885417" stop-color="#2450DF"/>
<stop offset="0.515625" stop-color="#2D51C7"/>
<stop offset="0.90625" stop-color="#20DBFE"/>
</linearGradient>
<linearGradient id="paint16_linear_517_46144" x1="-331.543" y1="897.156" x2="1692.08" y2="1388.44" gradientUnits="userSpaceOnUse">
<stop offset="0.0885417" stop-color="#2450DF"/>
<stop offset="0.515625" stop-color="#2D51C7"/>
<stop offset="0.90625" stop-color="#20DBFE"/>
</linearGradient>
<linearGradient id="paint17_linear_517_46144" x1="-319.886" y1="916.596" x2="1703.73" y2="1407.88" gradientUnits="userSpaceOnUse">
<stop offset="0.0885417" stop-color="#2450DF"/>
<stop offset="0.515625" stop-color="#2D51C7"/>
<stop offset="0.90625" stop-color="#20DBFE"/>
</linearGradient>
<linearGradient id="paint18_linear_517_46144" x1="-310.171" y1="936.036" x2="1713.45" y2="1427.32" gradientUnits="userSpaceOnUse">
<stop offset="0.0885417" stop-color="#2450DF"/>
<stop offset="0.515625" stop-color="#2D51C7"/>
<stop offset="0.90625" stop-color="#20DBFE"/>
</linearGradient>
<linearGradient id="paint19_linear_517_46144" x1="-296.571" y1="955.476" x2="1727.05" y2="1446.76" gradientUnits="userSpaceOnUse">
<stop offset="0.0885417" stop-color="#2450DF"/>
<stop offset="0.515625" stop-color="#2D51C7"/>
<stop offset="0.90625" stop-color="#20DBFE"/>
</linearGradient>
<linearGradient id="paint20_linear_517_46144" x1="-284.914" y1="974.916" x2="1738.7" y2="1466.2" gradientUnits="userSpaceOnUse">
<stop offset="0.0885417" stop-color="#2450DF"/>
<stop offset="0.515625" stop-color="#2D51C7"/>
<stop offset="0.90625" stop-color="#20DBFE"/>
</linearGradient>
<linearGradient id="paint21_linear_517_46144" x1="-420.914" y1="-599.724" x2="1602.7" y2="-108.438" gradientUnits="userSpaceOnUse">
<stop offset="0.0885417" stop-color="#2450DF"/>
<stop offset="0.515625" stop-color="#2D51C7"/>
<stop offset="0.90625" stop-color="#20DBFE"/>
</linearGradient>
<linearGradient id="paint22_linear_517_46144" x1="-409.257" y1="-580.284" x2="1614.36" y2="-88.9979" gradientUnits="userSpaceOnUse">
<stop offset="0.0885417" stop-color="#2450DF"/>
<stop offset="0.515625" stop-color="#2D51C7"/>
<stop offset="0.90625" stop-color="#20DBFE"/>
</linearGradient>
<linearGradient id="paint23_linear_517_46144" x1="-397.6" y1="-560.844" x2="1626.02" y2="-69.5578" gradientUnits="userSpaceOnUse">
<stop offset="0.0885417" stop-color="#2450DF"/>
<stop offset="0.515625" stop-color="#2D51C7"/>
<stop offset="0.90625" stop-color="#20DBFE"/>
</linearGradient>
<linearGradient id="paint24_linear_517_46144" x1="-385.943" y1="-541.404" x2="1637.68" y2="-50.1179" gradientUnits="userSpaceOnUse">
<stop offset="0.0885417" stop-color="#2450DF"/>
<stop offset="0.515625" stop-color="#2D51C7"/>
<stop offset="0.90625" stop-color="#20DBFE"/>
</linearGradient>
<linearGradient id="paint25_linear_517_46144" x1="-374.286" y1="-521.964" x2="1649.33" y2="-30.6777" gradientUnits="userSpaceOnUse">
<stop offset="0.0885417" stop-color="#2450DF"/>
<stop offset="0.515625" stop-color="#2D51C7"/>
<stop offset="0.90625" stop-color="#20DBFE"/>
</linearGradient>
<linearGradient id="paint26_linear_517_46144" x1="-364.571" y1="-502.524" x2="1659.05" y2="-11.2379" gradientUnits="userSpaceOnUse">
<stop offset="0.0885417" stop-color="#2450DF"/>
<stop offset="0.515625" stop-color="#2D51C7"/>
<stop offset="0.90625" stop-color="#20DBFE"/>
</linearGradient>
<linearGradient id="paint27_linear_517_46144" x1="-352.914" y1="-483.084" x2="1670.7" y2="8.20224" gradientUnits="userSpaceOnUse">
<stop offset="0.0885417" stop-color="#2450DF"/>
<stop offset="0.515625" stop-color="#2D51C7"/>
<stop offset="0.90625" stop-color="#20DBFE"/>
</linearGradient>
<linearGradient id="paint28_linear_517_46144" x1="-341.257" y1="-463.644" x2="1682.36" y2="27.6423" gradientUnits="userSpaceOnUse">
<stop offset="0.0885417" stop-color="#2450DF"/>
<stop offset="0.515625" stop-color="#2D51C7"/>
<stop offset="0.90625" stop-color="#20DBFE"/>
</linearGradient>
<linearGradient id="paint29_linear_517_46144" x1="-329.6" y1="-444.204" x2="1694.02" y2="47.0822" gradientUnits="userSpaceOnUse">
<stop offset="0.0885417" stop-color="#2450DF"/>
<stop offset="0.515625" stop-color="#2D51C7"/>
<stop offset="0.90625" stop-color="#20DBFE"/>
</linearGradient>
<linearGradient id="paint30_linear_517_46144" x1="-321.829" y1="-424.764" x2="1701.79" y2="66.5221" gradientUnits="userSpaceOnUse">
<stop offset="0.0885417" stop-color="#2450DF"/>
<stop offset="0.515625" stop-color="#2D51C7"/>
<stop offset="0.90625" stop-color="#20DBFE"/>
</linearGradient>
<linearGradient id="paint31_linear_517_46144" x1="-312.114" y1="-405.324" x2="1711.5" y2="85.9623" gradientUnits="userSpaceOnUse">
<stop offset="0.0885417" stop-color="#2450DF"/>
<stop offset="0.515625" stop-color="#2D51C7"/>
<stop offset="0.90625" stop-color="#20DBFE"/>
</linearGradient>
<linearGradient id="paint32_linear_517_46144" x1="-304.343" y1="-385.884" x2="1719.28" y2="105.402" gradientUnits="userSpaceOnUse">
<stop offset="0.0885417" stop-color="#2450DF"/>
<stop offset="0.515625" stop-color="#2D51C7"/>
<stop offset="0.90625" stop-color="#20DBFE"/>
</linearGradient>
<linearGradient id="paint33_linear_517_46144" x1="-294.629" y1="-366.444" x2="1728.99" y2="124.842" gradientUnits="userSpaceOnUse">
<stop offset="0.0885417" stop-color="#2450DF"/>
<stop offset="0.515625" stop-color="#2D51C7"/>
<stop offset="0.90625" stop-color="#20DBFE"/>
</linearGradient>
<linearGradient id="paint34_linear_517_46144" x1="-286.857" y1="-347.004" x2="1736.76" y2="144.282" gradientUnits="userSpaceOnUse">
<stop offset="0.0885417" stop-color="#2450DF"/>
<stop offset="0.515625" stop-color="#2D51C7"/>
<stop offset="0.90625" stop-color="#20DBFE"/>
</linearGradient>
<linearGradient id="paint35_linear_517_46144" x1="-281.029" y1="-327.564" x2="1742.59" y2="163.722" gradientUnits="userSpaceOnUse">
<stop offset="0.0885417" stop-color="#2450DF"/>
<stop offset="0.515625" stop-color="#2D51C7"/>
<stop offset="0.90625" stop-color="#20DBFE"/>
</linearGradient>
<linearGradient id="paint36_linear_517_46144" x1="-275.2" y1="-308.124" x2="1748.42" y2="183.162" gradientUnits="userSpaceOnUse">
<stop offset="0.0885417" stop-color="#2450DF"/>
<stop offset="0.515625" stop-color="#2D51C7"/>
<stop offset="0.90625" stop-color="#20DBFE"/>
</linearGradient>
<linearGradient id="paint37_linear_517_46144" x1="-269.371" y1="-288.684" x2="1754.25" y2="202.602" gradientUnits="userSpaceOnUse">
<stop offset="0.0885417" stop-color="#2450DF"/>
<stop offset="0.515625" stop-color="#2D51C7"/>
<stop offset="0.90625" stop-color="#20DBFE"/>
</linearGradient>
<linearGradient id="paint38_linear_517_46144" x1="-263.543" y1="-269.244" x2="1760.08" y2="222.042" gradientUnits="userSpaceOnUse">
<stop offset="0.0885417" stop-color="#2450DF"/>
<stop offset="0.515625" stop-color="#2D51C7"/>
<stop offset="0.90625" stop-color="#20DBFE"/>
</linearGradient>
<linearGradient id="paint39_linear_517_46144" x1="-259.657" y1="-249.804" x2="1763.96" y2="241.482" gradientUnits="userSpaceOnUse">
<stop offset="0.0885417" stop-color="#2450DF"/>
<stop offset="0.515625" stop-color="#2D51C7"/>
<stop offset="0.90625" stop-color="#20DBFE"/>
</linearGradient>
<linearGradient id="paint40_linear_517_46144" x1="-255.771" y1="-230.364" x2="1767.85" y2="260.922" gradientUnits="userSpaceOnUse">
<stop offset="0.0885417" stop-color="#2450DF"/>
<stop offset="0.515625" stop-color="#2D51C7"/>
<stop offset="0.90625" stop-color="#20DBFE"/>
</linearGradient>
<linearGradient id="paint41_linear_517_46144" x1="-255.771" y1="-210.924" x2="1767.85" y2="280.362" gradientUnits="userSpaceOnUse">
<stop offset="0.0885417" stop-color="#2450DF"/>
<stop offset="0.515625" stop-color="#2D51C7"/>
<stop offset="0.90625" stop-color="#20DBFE"/>
</linearGradient>
<linearGradient id="paint42_linear_517_46144" x1="-251.886" y1="-191.484" x2="1771.73" y2="299.802" gradientUnits="userSpaceOnUse">
<stop offset="0.0885417" stop-color="#2450DF"/>
<stop offset="0.515625" stop-color="#2D51C7"/>
<stop offset="0.90625" stop-color="#20DBFE"/>
</linearGradient>
<linearGradient id="paint43_linear_517_46144" x1="-251.886" y1="-172.044" x2="1771.73" y2="319.242" gradientUnits="userSpaceOnUse">
<stop offset="0.0885417" stop-color="#2450DF"/>
<stop offset="0.515625" stop-color="#2D51C7"/>
<stop offset="0.90625" stop-color="#20DBFE"/>
</linearGradient>
<linearGradient id="paint44_linear_517_46144" x1="-251.886" y1="-152.604" x2="1771.73" y2="338.682" gradientUnits="userSpaceOnUse">
<stop offset="0.0885417" stop-color="#2450DF"/>
<stop offset="0.515625" stop-color="#2D51C7"/>
<stop offset="0.90625" stop-color="#20DBFE"/>
</linearGradient>
<linearGradient id="paint45_linear_517_46144" x1="-251.886" y1="-133.164" x2="1771.73" y2="358.122" gradientUnits="userSpaceOnUse">
<stop offset="0.0885417" stop-color="#2450DF"/>
<stop offset="0.515625" stop-color="#2D51C7"/>
<stop offset="0.90625" stop-color="#20DBFE"/>
</linearGradient>
<linearGradient id="paint46_linear_517_46144" x1="-251.886" y1="-113.724" x2="1771.73" y2="377.562" gradientUnits="userSpaceOnUse">
<stop offset="0.0885417" stop-color="#2450DF"/>
<stop offset="0.515625" stop-color="#2D51C7"/>
<stop offset="0.90625" stop-color="#20DBFE"/>
</linearGradient>
<linearGradient id="paint47_linear_517_46144" x1="-255.771" y1="-94.2839" x2="1767.85" y2="397.002" gradientUnits="userSpaceOnUse">
<stop offset="0.0885417" stop-color="#2450DF"/>
<stop offset="0.515625" stop-color="#2D51C7"/>
<stop offset="0.90625" stop-color="#20DBFE"/>
</linearGradient>
<linearGradient id="paint48_linear_517_46144" x1="-255.771" y1="-74.844" x2="1767.85" y2="416.442" gradientUnits="userSpaceOnUse">
<stop offset="0.0885417" stop-color="#2450DF"/>
<stop offset="0.515625" stop-color="#2D51C7"/>
<stop offset="0.90625" stop-color="#20DBFE"/>
</linearGradient>
<linearGradient id="paint49_linear_517_46144" x1="-255.771" y1="-55.4038" x2="1767.85" y2="435.882" gradientUnits="userSpaceOnUse">
<stop offset="0.0885417" stop-color="#2450DF"/>
<stop offset="0.515625" stop-color="#2D51C7"/>
<stop offset="0.90625" stop-color="#20DBFE"/>
</linearGradient>
<linearGradient id="paint50_linear_517_46144" x1="-259.657" y1="-35.9639" x2="1763.96" y2="455.322" gradientUnits="userSpaceOnUse">
<stop offset="0.0885417" stop-color="#2450DF"/>
<stop offset="0.515625" stop-color="#2D51C7"/>
<stop offset="0.90625" stop-color="#20DBFE"/>
</linearGradient>
<linearGradient id="paint51_linear_517_46144" x1="-259.657" y1="-16.5239" x2="1763.96" y2="474.762" gradientUnits="userSpaceOnUse">
<stop offset="0.0885417" stop-color="#2450DF"/>
<stop offset="0.515625" stop-color="#2D51C7"/>
<stop offset="0.90625" stop-color="#20DBFE"/>
</linearGradient>
<linearGradient id="paint52_linear_517_46144" x1="-263.543" y1="2.91625" x2="1760.08" y2="494.202" gradientUnits="userSpaceOnUse">
<stop offset="0.0885417" stop-color="#2450DF"/>
<stop offset="0.515625" stop-color="#2D51C7"/>
<stop offset="0.90625" stop-color="#20DBFE"/>
</linearGradient>
<linearGradient id="paint53_linear_517_46144" x1="-269.371" y1="22.3562" x2="1754.25" y2="513.642" gradientUnits="userSpaceOnUse">
<stop offset="0.0885417" stop-color="#2450DF"/>
<stop offset="0.515625" stop-color="#2D51C7"/>
<stop offset="0.90625" stop-color="#20DBFE"/>
</linearGradient>
<linearGradient id="paint54_linear_517_46144" x1="-269.371" y1="41.7961" x2="1754.25" y2="533.082" gradientUnits="userSpaceOnUse">
<stop offset="0.0885417" stop-color="#2450DF"/>
<stop offset="0.515625" stop-color="#2D51C7"/>
<stop offset="0.90625" stop-color="#20DBFE"/>
</linearGradient>
<linearGradient id="paint55_linear_517_46144" x1="-275.2" y1="61.2361" x2="1748.42" y2="552.522" gradientUnits="userSpaceOnUse">
<stop offset="0.0885417" stop-color="#2450DF"/>
<stop offset="0.515625" stop-color="#2D51C7"/>
<stop offset="0.90625" stop-color="#20DBFE"/>
</linearGradient>
<linearGradient id="paint56_linear_517_46144" x1="-281.029" y1="80.676" x2="1742.59" y2="571.962" gradientUnits="userSpaceOnUse">
<stop offset="0.0885417" stop-color="#2450DF"/>
<stop offset="0.515625" stop-color="#2D51C7"/>
<stop offset="0.90625" stop-color="#20DBFE"/>
</linearGradient>
<linearGradient id="paint57_linear_517_46144" x1="-282.971" y1="100.116" x2="1740.65" y2="591.402" gradientUnits="userSpaceOnUse">
<stop offset="0.0885417" stop-color="#2450DF"/>
<stop offset="0.515625" stop-color="#2D51C7"/>
<stop offset="0.90625" stop-color="#20DBFE"/>
</linearGradient>
<linearGradient id="paint58_linear_517_46144" x1="-286.857" y1="119.556" x2="1736.76" y2="610.842" gradientUnits="userSpaceOnUse">
<stop offset="0.0885417" stop-color="#2450DF"/>
<stop offset="0.515625" stop-color="#2D51C7"/>
<stop offset="0.90625" stop-color="#20DBFE"/>
</linearGradient>
<linearGradient id="paint59_linear_517_46144" x1="-294.629" y1="138.996" x2="1728.99" y2="630.282" gradientUnits="userSpaceOnUse">
<stop offset="0.0885417" stop-color="#2450DF"/>
<stop offset="0.515625" stop-color="#2D51C7"/>
<stop offset="0.90625" stop-color="#20DBFE"/>
</linearGradient>
<linearGradient id="paint60_linear_517_46144" x1="-300.457" y1="158.436" x2="1723.16" y2="649.722" gradientUnits="userSpaceOnUse">
<stop offset="0.0885417" stop-color="#2450DF"/>
<stop offset="0.515625" stop-color="#2D51C7"/>
<stop offset="0.90625" stop-color="#20DBFE"/>
</linearGradient>
<linearGradient id="paint61_linear_517_46144" x1="-308.229" y1="177.876" x2="1715.39" y2="669.162" gradientUnits="userSpaceOnUse">
<stop offset="0.0885417" stop-color="#2450DF"/>
<stop offset="0.515625" stop-color="#2D51C7"/>
<stop offset="0.90625" stop-color="#20DBFE"/>
</linearGradient>
<linearGradient id="paint62_linear_517_46144" x1="-314.057" y1="197.316" x2="1709.56" y2="688.602" gradientUnits="userSpaceOnUse">
<stop offset="0.0885417" stop-color="#2450DF"/>
<stop offset="0.515625" stop-color="#2D51C7"/>
<stop offset="0.90625" stop-color="#20DBFE"/>
</linearGradient>
<linearGradient id="paint63_linear_517_46144" x1="-321.829" y1="216.756" x2="1701.79" y2="708.042" gradientUnits="userSpaceOnUse">
<stop offset="0.0885417" stop-color="#2450DF"/>
<stop offset="0.515625" stop-color="#2D51C7"/>
<stop offset="0.90625" stop-color="#20DBFE"/>
</linearGradient>
<linearGradient id="paint64_linear_517_46144" x1="-329.6" y1="236.196" x2="1694.02" y2="727.482" gradientUnits="userSpaceOnUse">
<stop offset="0.0885417" stop-color="#2450DF"/>
<stop offset="0.515625" stop-color="#2D51C7"/>
<stop offset="0.90625" stop-color="#20DBFE"/>
</linearGradient>
<linearGradient id="paint65_linear_517_46144" x1="-335.429" y1="255.636" x2="1688.19" y2="746.922" gradientUnits="userSpaceOnUse">
<stop offset="0.0885417" stop-color="#2450DF"/>
<stop offset="0.515625" stop-color="#2D51C7"/>
<stop offset="0.90625" stop-color="#20DBFE"/>
</linearGradient>
<linearGradient id="paint66_linear_517_46144" x1="-345.143" y1="275.076" x2="1678.48" y2="766.362" gradientUnits="userSpaceOnUse">
<stop offset="0.0885417" stop-color="#2450DF"/>
<stop offset="0.515625" stop-color="#2D51C7"/>
<stop offset="0.90625" stop-color="#20DBFE"/>
</linearGradient>
<linearGradient id="paint67_linear_517_46144" x1="-352.914" y1="294.516" x2="1670.7" y2="785.802" gradientUnits="userSpaceOnUse">
<stop offset="0.0885417" stop-color="#2450DF"/>
<stop offset="0.515625" stop-color="#2D51C7"/>
<stop offset="0.90625" stop-color="#20DBFE"/>
</linearGradient>
<linearGradient id="paint68_linear_517_46144" x1="-360.686" y1="313.956" x2="1662.93" y2="805.242" gradientUnits="userSpaceOnUse">
<stop offset="0.0885417" stop-color="#2450DF"/>
<stop offset="0.515625" stop-color="#2D51C7"/>
<stop offset="0.90625" stop-color="#20DBFE"/>
</linearGradient>
<linearGradient id="paint69_linear_517_46144" x1="-366.514" y1="333.396" x2="1657.1" y2="824.682" gradientUnits="userSpaceOnUse">
<stop offset="0.0885417" stop-color="#2450DF"/>
<stop offset="0.515625" stop-color="#2D51C7"/>
<stop offset="0.90625" stop-color="#20DBFE"/>
</linearGradient>
<linearGradient id="paint70_linear_517_46144" x1="-372.343" y1="352.836" x2="1651.28" y2="844.122" gradientUnits="userSpaceOnUse">
<stop offset="0.0885417" stop-color="#2450DF"/>
<stop offset="0.515625" stop-color="#2D51C7"/>
<stop offset="0.90625" stop-color="#20DBFE"/>
</linearGradient>
<linearGradient id="paint71_linear_517_46144" x1="-382.057" y1="372.276" x2="1641.56" y2="863.562" gradientUnits="userSpaceOnUse">
<stop offset="0.0885417" stop-color="#2450DF"/>
<stop offset="0.515625" stop-color="#2D51C7"/>
<stop offset="0.90625" stop-color="#20DBFE"/>
</linearGradient>
<linearGradient id="paint72_linear_517_46144" x1="-387.886" y1="391.716" x2="1635.73" y2="883.002" gradientUnits="userSpaceOnUse">
<stop offset="0.0885417" stop-color="#2450DF"/>
<stop offset="0.515625" stop-color="#2D51C7"/>
<stop offset="0.90625" stop-color="#20DBFE"/>
</linearGradient>
<linearGradient id="paint73_linear_517_46144" x1="-393.714" y1="411.156" x2="1629.9" y2="902.442" gradientUnits="userSpaceOnUse">
<stop offset="0.0885417" stop-color="#2450DF"/>
<stop offset="0.515625" stop-color="#2D51C7"/>
<stop offset="0.90625" stop-color="#20DBFE"/>
</linearGradient>
<linearGradient id="paint74_linear_517_46144" x1="-399.543" y1="430.596" x2="1624.08" y2="921.882" gradientUnits="userSpaceOnUse">
<stop offset="0.0885417" stop-color="#2450DF"/>
<stop offset="0.515625" stop-color="#2D51C7"/>
<stop offset="0.90625" stop-color="#20DBFE"/>
</linearGradient>
<linearGradient id="paint75_linear_517_46144" x1="-403.429" y1="450.036" x2="1620.19" y2="941.322" gradientUnits="userSpaceOnUse">
<stop offset="0.0885417" stop-color="#2450DF"/>
<stop offset="0.515625" stop-color="#2D51C7"/>
<stop offset="0.90625" stop-color="#20DBFE"/>
</linearGradient>
<linearGradient id="paint76_linear_517_46144" x1="-409.257" y1="469.476" x2="1614.36" y2="960.762" gradientUnits="userSpaceOnUse">
<stop offset="0.0885417" stop-color="#2450DF"/>
<stop offset="0.515625" stop-color="#2D51C7"/>
<stop offset="0.90625" stop-color="#20DBFE"/>
</linearGradient>
<linearGradient id="paint77_linear_517_46144" x1="-413.143" y1="488.916" x2="1610.48" y2="980.202" gradientUnits="userSpaceOnUse">
<stop offset="0.0885417" stop-color="#2450DF"/>
<stop offset="0.515625" stop-color="#2D51C7"/>
<stop offset="0.90625" stop-color="#20DBFE"/>
</linearGradient>
<linearGradient id="paint78_linear_517_46144" x1="-417.029" y1="508.356" x2="1606.59" y2="999.642" gradientUnits="userSpaceOnUse">
<stop offset="0.0885417" stop-color="#2450DF"/>
<stop offset="0.515625" stop-color="#2D51C7"/>
<stop offset="0.90625" stop-color="#20DBFE"/>
</linearGradient>
<linearGradient id="paint79_linear_517_46144" x1="-417.029" y1="527.796" x2="1606.59" y2="1019.08" gradientUnits="userSpaceOnUse">
<stop offset="0.0885417" stop-color="#2450DF"/>
<stop offset="0.515625" stop-color="#2D51C7"/>
<stop offset="0.90625" stop-color="#20DBFE"/>
</linearGradient>
<linearGradient id="paint80_linear_517_46144" x1="-420.914" y1="547.236" x2="1602.7" y2="1038.52" gradientUnits="userSpaceOnUse">
<stop offset="0.0885417" stop-color="#2450DF"/>
<stop offset="0.515625" stop-color="#2D51C7"/>
<stop offset="0.90625" stop-color="#20DBFE"/>
</linearGradient>
<linearGradient id="paint81_linear_517_46144" x1="-420.914" y1="566.676" x2="1602.7" y2="1057.96" gradientUnits="userSpaceOnUse">
<stop offset="0.0885417" stop-color="#2450DF"/>
<stop offset="0.515625" stop-color="#2D51C7"/>
<stop offset="0.90625" stop-color="#20DBFE"/>
</linearGradient>
<clipPath id="clip0_517_46144">
<rect width="708" height="964" fill="white"/>
</clipPath>
<clipPath id="clip1_517_46144">
<rect width="1360" height="972" fill="white" transform="translate(-146)"/>
</clipPath>
</defs>
</svg>
