<svg width="371" height="96" viewBox="0 0 371 96" fill="none" xmlns="http://www.w3.org/2000/svg">
<path fill-rule="evenodd" clip-rule="evenodd" d="M42.9015 0C38.9937 0 35.1044 2.30018 27.3258 6.90053L27.3256 6.90065C25.5866 7.9291 23.6532 9.0725 21.4818 10.3309C19.3383 11.5745 17.4073 12.6728 15.6678 13.6622C7.78472 18.1457 3.83587 20.3917 1.87694 23.786C-0.0892883 27.193 -0.0507485 31.757 0.0264746 40.902C0.0433737 42.9032 0.0621253 45.1238 0.0621253 47.5997C0.0621253 50.0756 0.0433737 52.2962 0.0264746 54.2974C-0.0507485 63.4424 -0.0892882 68.0064 1.87694 71.4134C3.83587 74.8077 7.78473 77.0537 15.6678 81.5372C17.4073 82.5266 19.3383 83.6249 21.4818 84.8685C23.6154 86.1064 25.5198 87.2331 27.2361 88.2485C35.0688 92.8824 38.9852 95.1994 42.9015 95.1994C46.8179 95.1994 50.7343 92.8824 58.567 88.2485C60.2833 87.2331 62.1876 86.1064 64.3212 84.8685C66.4647 83.6249 68.3958 82.5266 70.1353 81.5373C78.0183 77.0537 81.9672 74.8077 83.9261 71.4134C85.8923 68.0064 85.8538 63.4424 85.7766 54.2974C85.7597 52.2962 85.7409 50.0756 85.7409 47.5997C85.7409 45.1238 85.7597 42.9032 85.7766 40.9019C85.7944 38.7897 85.8102 36.9218 85.7997 35.2561C83.4526 38.0186 79.9615 39.77 76.0632 39.77C75.0513 39.77 74.0667 39.652 73.1225 39.4289C73.1255 40.4968 73.1156 41.6787 73.1045 42.9949C73.0927 44.4043 73.0796 45.9678 73.0796 47.7105C73.0821 49.4533 73.0974 51.0168 73.1113 52.4263C73.1748 58.8863 73.2064 62.1092 71.82 64.5148C70.4397 66.9097 67.6537 68.4945 62.0942 71.6572C60.8661 72.3558 59.5026 73.1314 57.9891 74.0098C56.4782 74.8866 55.1304 75.6843 53.9163 76.4029C48.4005 79.6675 45.6426 81.2997 42.8847 81.2997C40.1268 81.2997 37.369 79.6675 31.8532 76.4029C30.639 75.6843 29.2912 74.8866 27.7804 74.0098C26.2657 73.1308 24.9014 72.3547 23.6725 71.6556C18.1144 68.4938 15.3286 66.9091 13.9458 64.5143C12.5563 62.108 12.5833 58.8838 12.6374 52.4198C12.6491 51.012 12.6622 49.4506 12.6622 47.7105C12.6622 45.9705 12.6491 44.4091 12.6374 43.0013C12.5833 36.5373 12.5563 33.3131 13.9458 30.9068C15.3286 28.512 18.1144 26.9273 23.6725 23.7655C24.9014 23.0664 26.2657 22.2903 27.7804 21.4113C29.2469 20.5602 30.5601 19.7841 31.7466 19.0827C37.3358 15.7792 40.1172 14.1353 42.8985 14.1353C45.6645 14.1353 48.4119 15.7611 53.9326 19.028C55.1419 19.7436 56.4843 20.538 57.9891 21.4113C59.5001 22.2896 60.8613 23.0653 62.0874 23.7639C62.5726 24.0404 63.0367 24.3048 63.4805 24.5588C64.3308 19.9392 67.6388 16.1857 71.9909 14.7188C71.3979 14.3803 70.7798 14.0287 70.1353 13.6622C68.3958 12.6728 66.4647 11.5745 64.3212 10.3309C62.2114 9.10533 60.3256 7.98885 58.624 6.98139C50.7628 2.32713 46.8321 0 42.9015 0Z" fill="white"/>
<path d="M76.0627 36.5488C81.3594 36.5488 85.6532 32.2343 85.6532 26.9122C85.6532 21.5901 81.3594 17.2756 76.0627 17.2756C70.766 17.2756 66.4722 21.5901 66.4722 26.9122C66.4722 32.2343 70.766 36.5488 76.0627 36.5488Z" fill="white"/>
<path d="M137.732 58.3472C142.154 57.5974 145.747 55.3202 148.207 51.46C148.234 51.4044 148.317 51.3767 148.4 51.2933C148.428 51.46 148.483 51.5433 148.483 51.6266C148.677 53.5428 148.898 55.4312 149.091 57.3475C149.146 57.8473 149.257 58.0695 149.81 58.0417C151.302 57.9862 152.822 58.014 154.315 58.014C154.895 58.014 155.476 58.014 156.084 58.014C156.084 49.0994 156.084 40.2404 156.084 31.3814C149.506 31.3814 142.955 31.3814 136.433 31.3814C136.433 33.7698 136.433 36.1025 136.433 38.5186C140.164 38.5186 143.84 38.5186 147.543 38.5186C147.543 38.6853 147.543 38.7686 147.543 38.8797C146.88 42.9065 145.028 46.239 141.601 48.544C138.561 50.5713 135.189 51.0989 131.624 50.6824C126.815 50.0992 123.139 47.7664 121.038 43.3508C118.247 37.4633 118.109 31.3537 120.126 25.2163C121.37 21.4394 123.747 18.5234 127.478 16.8849C130.242 15.663 133.144 15.4408 136.101 15.8296C140.44 16.385 143.812 18.4956 146.023 22.3003C146.576 23.2445 146.991 24.2998 147.488 25.3273C150.031 24.272 152.601 23.189 155.254 22.0781C154.923 21.3838 154.619 20.7451 154.287 20.1064C151.689 15.2187 147.958 11.5806 142.79 9.52557C138.312 7.77599 133.697 7.49828 129.026 8.27587C121.397 9.52557 115.815 13.6079 112.664 20.6896C109.541 27.6879 109.292 34.9639 111.31 42.2955C112.636 47.1832 115.207 51.3211 119.325 54.3482C124.852 58.375 131.126 59.4303 137.732 58.3472Z" fill="white"/>
<path d="M266.227 49.9583C267.498 48.2921 268.493 46.5147 269.322 44.5152C266.586 43.4043 263.905 42.2935 261.169 41.1827C260.837 41.9047 260.533 42.5712 260.202 43.2099C258.571 46.3759 256.166 48.6809 252.712 49.7084C250.39 50.3749 248.013 50.486 245.636 50.2083C240.578 49.6528 236.737 47.2368 234.664 42.5157C232.176 36.7948 232.066 30.8796 234.194 25.0476C235.659 20.993 238.561 18.2715 242.707 17.0218C245.553 16.1886 248.455 16.1331 251.357 16.6608C256.139 17.5217 259.372 20.2155 260.893 24.9088C260.948 25.0476 261.003 25.1865 261.058 25.3253C263.822 24.2145 266.531 23.1592 269.239 22.0483C269.156 21.8817 269.129 21.7706 269.101 21.6873C268.852 21.1874 268.631 20.6876 268.383 20.2155C265.619 14.9112 261.528 11.1065 255.862 9.16255C251.661 7.71845 247.322 7.52405 242.955 8.2461C235.438 9.4958 229.855 13.4948 226.704 20.4654C223.083 28.519 223.028 36.7948 226.206 44.9873C228.418 50.6804 232.425 54.7627 238.146 56.9844C242.264 58.5951 246.548 58.9839 250.943 58.4841C257.217 57.8175 262.357 55.0127 266.227 49.9583Z" fill="white"/>
<path d="M303.701 34.1015C302.955 29.3249 300.467 25.8535 295.99 23.9095C293.171 22.6876 290.186 22.4099 287.145 22.6043C283.276 22.882 279.849 24.2428 277.002 26.9366C276.007 27.8808 275.123 28.9639 274.183 29.9914C276.449 31.6299 278.578 33.1851 280.706 34.7125C280.761 34.657 280.816 34.657 280.816 34.6292C280.871 34.5736 280.899 34.4903 280.954 34.4348C282.944 31.4355 285.653 29.9081 289.301 29.9914C292.977 30.0747 295.492 32.4075 295.741 36.1011C295.769 36.4621 295.796 36.8231 295.824 37.2119C295.492 37.2119 295.271 37.2119 295.078 37.2119C292.176 37.2119 289.301 37.2119 286.399 37.2119C283.718 37.2397 281.065 37.5174 278.522 38.5171C275.15 39.8502 272.939 42.2107 272.58 45.932C272.138 50.4587 273.658 54.1523 277.583 56.6239C279.711 57.9569 282.06 58.5401 284.52 58.679C289.218 58.9845 293.115 57.4571 295.962 53.5691C296.045 53.4302 296.183 53.3192 296.349 53.097C296.542 54.791 296.736 56.374 296.902 57.9569C299.251 57.9569 301.545 57.9569 303.922 57.9569C303.922 57.707 303.922 57.4571 303.922 57.2349C303.922 50.6809 303.922 44.1269 303.922 37.5729C303.922 36.4621 303.867 35.2679 303.701 34.1015ZM294.055 48.0149C291.761 50.9864 287.532 52.2916 284.105 51.1252C282.779 50.6531 281.701 49.8755 281.314 48.4314C280.927 47.0151 281.507 45.571 282.861 44.599L295.492 43.3493C295.575 43.3493 295.63 43.3771 295.796 43.3771C295.741 45.1822 295.078 46.6819 294.055 48.0149Z" fill="white"/>
<path d="M338.085 48.0136C339.909 53.0124 343.474 56.2894 348.615 57.7057C352.844 58.8721 357.073 58.7333 361.246 57.3725C364.148 56.4283 366.525 54.7064 368.625 52.457C366.663 50.7352 364.728 49.0411 362.794 47.3193C361.605 48.5135 360.306 49.4577 358.758 49.9576C357.073 50.513 355.304 50.5963 353.535 50.5408C349.61 50.4297 346.902 48.2635 345.962 44.57C345.879 44.209 345.824 43.8202 345.741 43.3758C353.756 43.3758 361.66 43.3758 369.731 43.3758C369.786 42.1817 369.869 41.0431 369.869 39.9044C369.869 37.655 369.565 35.4611 368.902 33.2949C367.465 28.6294 364.645 25.2413 359.919 23.6583C357.017 22.6863 354.032 22.5197 350.992 22.8807C345.851 23.5195 341.844 26.0467 339.329 30.6011C336.288 36.1553 335.902 42.0706 338.085 48.0136ZM353.452 29.8513C358.289 29.8235 361.688 32.9061 361.522 37.1829C356.299 37.1829 351.075 37.1829 345.851 37.1829C345.686 33.406 349.334 29.8791 353.452 29.8513Z" fill="white"/>
<path d="M207.463 23.9934C207.463 29.4643 207.491 34.9352 207.436 40.4061C207.436 41.628 207.325 42.8222 207.132 44.0163C206.828 45.877 206.164 47.6266 204.727 48.9318C202.931 50.5703 200.72 50.8758 198.426 50.6814C195.524 50.4315 193.921 49.0151 193.395 46.1547C193.174 45.0161 193.119 43.8219 193.119 42.6555C193.091 36.407 193.119 30.1863 193.091 23.9378C193.091 23.6879 193.064 23.4379 193.064 23.188C190.189 23.188 187.398 23.188 184.524 23.188C184.524 23.4379 184.524 23.6879 184.524 23.91C184.524 30.464 184.496 37.018 184.551 43.572C184.551 45.0994 184.745 46.6824 185.021 48.182C185.601 51.1535 186.845 53.8195 189.111 55.8746C191.682 58.2352 194.805 59.0405 198.204 58.8183C201.742 58.5962 204.727 57.1799 207.049 54.4583C207.132 54.3472 207.242 54.2639 207.463 54.0695C207.463 55.4858 207.463 56.7355 207.463 58.013C210.365 58.013 213.184 58.013 216.031 58.013C216.031 46.3769 216.031 34.7963 216.031 23.188C213.184 23.188 210.365 23.188 207.463 23.188C207.463 23.4657 207.463 23.7434 207.463 23.9934Z" fill="white"/>
<path d="M178.967 50.9286C178.248 50.9842 177.613 51.0953 176.949 51.0953C174.655 51.0953 173.881 50.2899 173.881 48.1238C173.909 35.2102 173.909 22.2966 173.909 9.41083C173.909 8.85541 173.743 8.71655 173.218 8.71655C171.173 8.74432 169.155 8.71655 167.11 8.71655C166.557 8.71655 166.032 8.71655 165.396 8.71655C165.396 9.07758 165.396 9.32752 165.396 9.57746C165.396 23.4075 165.396 37.2375 165.396 51.0675C165.396 51.9284 165.479 52.7893 165.618 53.6502C166.087 56.4551 167.773 58.0658 170.565 58.5657C172.472 58.899 174.379 58.7323 176.286 58.4824C177.198 58.3713 178.082 58.2047 178.967 58.0658C178.967 55.622 178.967 53.2892 178.967 50.9286Z" fill="white"/>
<path d="M321.167 57.2605C321.167 52.0673 321.167 46.9018 321.167 41.7086C321.167 40.0146 321.443 38.3483 321.996 36.7376C322.548 35.1269 323.433 33.7106 324.677 32.5164C326.611 30.6557 330.508 29.9337 333.106 31.8777C334.378 29.5727 335.649 27.2677 336.948 24.9349C336.699 24.7683 336.533 24.6294 336.34 24.4905C334.737 23.463 332.94 22.9631 331.061 22.7132C327.192 22.1855 323.654 24.0184 321.885 27.5454C321.692 27.9064 321.526 28.2952 321.332 28.6562C321.277 28.6562 321.249 28.6284 321.194 28.6284C321.194 26.8233 321.194 25.0182 321.194 23.1853C318.43 23.1853 315.722 23.1853 313.013 23.1853C313.013 34.8214 313.013 46.402 313.013 58.0103C315.749 58.0103 318.403 58.0103 321.167 58.0103C321.167 57.7048 321.167 57.4826 321.167 57.2605Z" fill="white"/>
<path d="M222.969 67.9819C221.117 67.7042 219.238 67.8431 217.358 67.7597C216.806 67.732 216.667 67.8986 216.667 68.454C216.695 72.9807 216.667 77.5074 216.667 82.0341C216.667 82.2285 216.667 82.4229 216.667 82.7561C218.796 82.7006 220.841 82.7561 222.831 82.534C225.346 82.2563 227.253 80.951 228.193 78.4794C228.69 77.1742 228.773 75.8134 228.663 74.4248C228.497 70.8146 226.507 68.4818 222.969 67.9819ZM225.899 76.7298C225.678 78.4516 224.6 79.5902 222.914 79.9513C221.781 80.2012 220.592 80.2012 219.376 80.3123C219.376 76.8409 219.376 73.5917 219.376 70.2591C221.034 70.2314 222.72 70.0648 224.24 70.9257C225.208 71.4533 225.76 72.3698 225.899 73.4251C226.009 74.5081 226.065 75.6467 225.899 76.7298Z" fill="white"/>
<path d="M157.993 72.8395C157.523 72.2563 157.08 71.7564 156.638 71.2288C156.168 71.6453 155.754 72.0341 155.312 72.3396C155.146 72.4507 154.842 72.5062 154.676 72.4507C153.681 72.0341 152.658 71.923 151.58 72.1174C149.231 72.534 147.794 74.5891 148.402 76.783C148.54 77.3106 148.817 77.7827 149.038 78.2826C147.794 79.7545 147.822 80.9487 149.093 82.5594C148.9 82.726 148.706 82.9482 148.485 83.087C148.043 83.3925 147.96 83.8369 148.043 84.3367C148.209 85.4753 148.734 86.4196 149.756 86.9194C150.585 87.3082 151.525 87.5582 152.437 87.6693C153.847 87.8081 155.256 87.6415 156.445 86.6973C157.412 85.9197 157.716 84.8921 157.55 83.698C157.412 82.5316 156.666 81.8651 155.588 81.5318C155.146 81.393 154.676 81.2819 154.234 81.1986C153.239 81.032 152.216 80.9209 151.221 80.7265C150.945 80.6709 150.641 80.4765 150.447 80.2544C150.337 80.1433 150.364 79.81 150.447 79.6156C150.503 79.5323 150.807 79.5046 150.972 79.5323C151.47 79.5879 151.967 79.7545 152.465 79.7823C155.781 79.8933 157.689 77.1162 156.583 74.3947C156.528 74.2558 156.611 73.9781 156.749 73.867C157.163 73.506 157.578 73.1727 157.993 72.8395ZM150.585 83.3925C150.668 83.2537 150.889 83.1426 151.055 83.1703C152.106 83.3092 153.156 83.4481 154.178 83.6147C154.648 83.698 155.146 83.8368 155.173 84.42C155.201 85.031 154.759 85.3087 154.234 85.4753C153.819 85.5864 153.405 85.6142 152.962 85.6975C152.161 85.6697 151.442 85.5309 150.807 85.0588C150.199 84.5589 150.116 84.0312 150.585 83.3925ZM152.686 77.6439C151.636 77.6439 150.945 76.9496 150.917 75.8665C150.917 74.7557 151.636 74.0059 152.658 74.0059C153.681 74.0059 154.372 74.7557 154.372 75.8388C154.4 76.9218 153.736 77.6439 152.686 77.6439Z" fill="white"/>
<path d="M316.301 78.2547C315.417 79.921 313.952 80.4487 312.183 80.3376C310.58 80.2265 309.336 79.5322 308.645 78.0326C308.092 76.894 307.982 75.6998 308.065 74.4779C308.314 71.2287 310.773 69.4513 313.924 70.2289C315.278 70.5622 316.19 71.4231 316.605 72.8116C317.462 72.4784 318.236 72.1729 319.065 71.8396C317.987 69.2847 316.08 67.8406 313.178 67.5906C309.972 67.3129 307.07 68.7015 305.909 72.1451C305.633 72.9505 305.494 73.8114 305.439 74.6723C305.301 76.7273 305.688 78.6713 306.959 80.3376C308.839 82.7259 311.409 83.2535 314.228 82.7259C316.577 82.2816 318.125 80.8097 319.092 78.6158C318.263 78.2825 317.462 77.9493 316.66 77.616C316.522 77.8382 316.412 78.0326 316.301 78.2547Z" fill="white"/>
<path d="M253.123 71.9532C252.156 72.0087 251.327 72.3975 250.553 73.1751C250.553 71.3145 250.553 69.6204 250.553 67.8708C249.669 67.8708 248.84 67.8708 247.955 67.8708C247.955 72.8419 247.955 77.7574 247.955 82.6728C248.84 82.6728 249.669 82.6728 250.525 82.6728C250.553 82.3674 250.581 82.0896 250.608 81.7842C252.736 83.7281 256.689 83.3393 257.767 79.5347C258.209 77.9518 258.181 76.3966 257.601 74.8692C256.827 72.8419 255.224 71.8143 253.123 71.9532ZM255.141 79.0904C254.726 80.0624 253.953 80.5345 252.93 80.5345C251.907 80.5345 251.078 80.1457 250.691 79.1737C250.47 78.6183 250.387 78.0073 250.249 77.5352C250.36 76.9798 250.387 76.5632 250.498 76.1466C250.857 74.9247 251.769 74.2304 252.93 74.2582C254.118 74.286 254.948 74.9525 255.279 76.1744C255.583 77.1464 255.556 78.1184 255.141 79.0904Z" fill="white"/>
<path d="M204.81 73.0941C202.157 71.039 199.006 71.8166 197.818 74.7603C197.127 76.5099 197.127 78.315 197.818 80.0924C198.674 82.2308 200.637 83.2861 202.875 82.7584C203.594 82.5918 204.257 82.1197 204.921 81.7864C204.948 82.0086 205.004 82.3141 205.059 82.6196C205.86 82.6196 206.607 82.6196 207.325 82.6196C207.325 77.6485 207.325 72.7331 207.325 67.7898C206.468 67.7898 205.639 67.7898 204.782 67.7898C204.81 69.5671 204.81 71.2612 204.81 73.0941ZM204.921 78.3706C204.727 79.7869 203.76 80.5645 202.433 80.5367C201.079 80.509 200.167 79.6203 199.973 78.1762C199.946 77.9262 199.946 77.6763 199.918 77.4264C199.89 77.4264 199.89 77.4264 199.863 77.4264C199.946 76.9543 200.001 76.4544 200.139 75.9823C200.471 74.8992 201.355 74.2605 202.461 74.2605C203.566 74.2605 204.478 74.8437 204.755 75.9823C204.976 76.7321 205.031 77.593 204.921 78.3706Z" fill="white"/>
<path d="M241.428 72.0353C240.958 71.9798 240.488 71.952 240.019 72.0076C238.416 72.1464 237.144 72.8962 236.204 74.257C236.868 74.7291 237.503 75.2012 238.112 75.6456C239.272 74.3403 240.433 73.9238 241.566 74.3959C242.313 74.7291 242.727 75.4512 242.644 76.4232C241.76 76.4232 240.848 76.3954 239.963 76.4232C239.245 76.4509 238.498 76.5065 237.835 76.7009C235.9 77.2285 235.127 79.0614 235.956 80.8665C236.951 83.0605 240.516 83.6159 242.285 81.8663C242.451 81.6997 242.617 81.5053 242.838 81.2276C242.921 81.8108 242.976 82.2273 243.031 82.6439C243.75 82.6439 244.413 82.6439 245.132 82.6439C245.132 80.5333 245.132 78.4505 245.132 76.3676C245.132 73.9238 243.833 72.3686 241.428 72.0353ZM239.272 80.6444C238.72 80.4777 238.277 80.1723 238.277 79.5613C238.277 78.9781 238.637 78.6171 239.162 78.4505C239.493 78.3394 239.853 78.2838 240.184 78.2561C240.986 78.2283 241.815 78.2561 242.672 78.2561C242.478 79.9779 240.82 81.0887 239.272 80.6444Z" fill="white"/>
<path d="M173.024 72.0936C172.416 71.9825 171.78 71.9269 171.172 71.9825C169.569 72.1213 168.297 72.8712 167.385 74.2319C168.049 74.704 168.657 75.1484 169.292 75.6205C170.453 74.2875 171.697 73.8709 172.83 74.4263C173.549 74.7874 173.936 75.565 173.77 76.3981C172.885 76.3981 172.001 76.3703 171.089 76.3981C170.398 76.4259 169.679 76.5092 169.016 76.6758C167.938 76.9535 167.137 77.5645 166.916 78.7309C166.667 79.9806 166.971 81.0636 167.911 81.9245C169.182 83.0909 172.222 83.4797 173.742 81.5635C173.825 81.4802 173.936 81.3969 174.046 81.3136C174.129 81.7857 174.184 82.2022 174.24 82.6188C174.958 82.6188 175.594 82.6188 176.285 82.6188C176.313 82.5077 176.313 82.4244 176.313 82.3689C176.313 80.2027 176.34 78.0644 176.313 75.8982C176.257 73.982 174.931 72.4546 173.024 72.0936ZM172.471 80.3694C171.669 80.8137 170.84 80.897 170.011 80.4249C169.265 80.0083 169.237 79.1197 169.928 78.6475C170.177 78.4809 170.481 78.3143 170.785 78.3143C171.78 78.2865 172.775 78.2865 173.853 78.2865C173.77 79.2863 173.245 79.925 172.471 80.3694Z" fill="white"/>
<path d="M194.036 72.7845C191.3 70.9516 187.403 72.2291 186.408 75.3672C186.132 76.2281 186.049 77.1723 186.076 78.0888C186.159 80.3105 187.569 82.0323 189.642 82.5877C190.968 82.9487 192.267 82.8932 193.566 82.4211C194.395 82.1434 195.086 81.6435 195.667 80.977C195.086 80.4493 194.506 79.9772 193.926 79.4773C192.599 80.4493 191.134 80.6993 190.029 80.1716C189.255 79.8106 188.868 79.1718 188.757 78.2276C191.189 78.2276 193.566 78.2276 195.999 78.2276C195.999 77.5333 196.054 76.9502 195.999 76.367C195.805 74.9229 195.308 73.6454 194.036 72.7845ZM188.84 76.367C188.813 75.145 189.78 74.173 191.079 74.173C192.516 74.1453 193.428 74.9784 193.456 76.367C191.908 76.367 190.388 76.367 188.84 76.367Z" fill="white"/>
<path d="M327.222 72.3445C325.205 71.7058 323.27 71.8446 321.667 73.4276C319.787 75.2882 319.622 78.8985 321.28 80.9535C322.662 82.6753 324.541 82.9808 326.559 82.7309C327.83 82.5643 328.88 81.9811 329.793 81.0091C329.212 80.4814 328.632 79.9815 328.051 79.4817C326.863 80.5092 325.536 80.7314 324.154 80.1482C323.38 79.8427 323.021 79.1762 322.911 78.232C323.215 78.232 323.408 78.232 323.629 78.232C325.232 78.232 326.835 78.232 328.438 78.232C330.318 78.232 330.345 78.232 330.124 76.3158C329.875 74.4551 329.102 72.9555 327.222 72.3445ZM322.938 76.3713C323.132 74.9272 324.016 74.1496 325.343 74.1774C326.725 74.2329 327.526 74.9827 327.609 76.3713C326.061 76.3713 324.514 76.3713 322.938 76.3713Z" fill="white"/>
<path d="M143.622 72.3445C141.604 71.7058 139.669 71.8446 138.066 73.4276C136.187 75.2882 136.021 78.8985 137.679 80.9535C139.061 82.6753 140.941 82.9808 142.958 82.7309C144.23 82.5643 145.28 81.9811 146.192 81.0091C145.584 80.4814 145.031 79.9815 144.451 79.4817C143.262 80.5092 141.936 80.7314 140.526 80.1482C139.752 79.8427 139.393 79.1762 139.282 78.232C139.586 78.232 139.78 78.232 140.001 78.232C141.604 78.232 143.207 78.232 144.81 78.232C146.689 78.232 146.717 78.232 146.496 76.3158C146.275 74.4551 145.501 72.9555 143.622 72.3445ZM139.365 76.3713C139.365 75.1216 140.277 74.2052 141.549 74.1774C143.014 74.1496 143.926 74.9272 143.981 76.3713C142.433 76.3713 140.885 76.3713 139.365 76.3713Z" fill="white"/>
<path d="M280.485 72.9514C278.163 74.701 277.721 78.8111 279.683 81.0884C281.037 82.6991 282.862 82.9768 284.796 82.7269C286.095 82.5602 287.201 81.977 288.085 80.9773C287.477 80.4496 286.924 79.9498 286.344 79.4776C285.183 80.5052 283.884 80.6996 282.53 80.1997C281.728 79.8942 281.314 79.1999 281.203 78.2557C281.452 78.2557 281.673 78.2557 281.867 78.2557C283.884 78.2557 285.902 78.2557 287.892 78.2557C288.141 78.2557 288.445 78.339 288.445 77.9225C288.527 76.2562 288.334 74.6455 287.146 73.368C285.598 71.7017 282.392 71.5351 280.485 72.9514ZM281.231 76.3395C281.452 74.8399 282.336 74.09 283.801 74.1734C285.073 74.2567 285.874 75.0343 285.902 76.3395C284.326 76.3395 282.806 76.3395 281.231 76.3395Z" fill="white"/>
<path d="M358.806 72.3961C357.673 71.9517 356.485 71.8962 355.296 72.1739C351.206 73.1181 350.57 78.8112 352.947 81.2828C354.495 82.8936 357.369 83.3379 359.525 82.2548C360.133 81.9493 360.658 81.505 361.266 81.0607C360.575 80.4497 360.022 79.9776 359.47 79.4777C358.226 80.5052 356.899 80.7274 355.462 80.0887C354.743 79.7554 354.412 79.0889 354.301 78.228C355.545 78.228 356.706 78.228 357.866 78.228C359.055 78.228 360.243 78.228 361.515 78.228C361.515 77.5337 361.57 76.9228 361.515 76.3118C361.294 74.5622 360.575 73.0903 358.806 72.3961ZM354.356 76.3673C354.522 74.951 355.434 74.1456 356.761 74.1734C358.143 74.2012 358.917 74.951 359.027 76.3673C357.48 76.3673 355.932 76.3673 354.356 76.3673Z" fill="white"/>
<path d="M269.21 76.1181C268.934 74.3129 268.132 72.8688 266.28 72.3134C264.29 71.7025 262.383 71.8691 260.836 73.3965C258.928 75.2572 258.763 79.0063 260.476 81.0335C262.052 82.922 264.152 83.0886 266.363 82.5887C267.386 82.3666 268.215 81.8111 268.934 81.0058C268.325 80.4781 267.773 79.9782 267.192 79.4784C265.949 80.5059 264.622 80.7281 263.185 80.0893C262.439 79.7561 262.135 79.0896 262.024 78.2287C262.3 78.2287 262.494 78.2287 262.715 78.2287C264.705 78.2287 266.695 78.2287 268.685 78.2287C269.155 78.2287 269.348 78.062 269.293 77.6177C269.293 77.1456 269.293 76.6179 269.21 76.1181ZM262.107 76.368C262.162 75.035 263.102 74.1463 264.429 74.1741C265.838 74.2019 266.722 75.0072 266.722 76.368C265.175 76.368 263.627 76.368 262.107 76.368Z" fill="white"/>
<path d="M124.55 72.2874C123.002 71.6764 121.51 71.8986 120.239 73.0372C120.156 73.0927 120.073 73.1483 119.935 73.2316C119.907 72.8428 119.879 72.5651 119.879 72.2318C119.023 72.2318 118.193 72.2318 117.364 72.2318C117.364 75.7587 117.364 79.2301 117.364 82.6738C118.221 82.6738 119.023 82.6738 119.907 82.6738C119.907 82.4238 119.907 82.2294 119.907 82.0072C119.907 80.3965 119.907 78.7858 119.907 77.1751C119.907 76.1475 120.322 75.3422 121.178 74.8145C121.869 74.3702 122.643 74.2036 123.389 74.5924C124.108 74.9812 124.219 75.7032 124.219 76.4253C124.246 78.2026 124.219 79.9522 124.219 81.7295C124.219 82.035 124.219 82.3405 124.219 82.6738C125.103 82.6738 125.932 82.6738 126.789 82.6738C126.789 80.3132 126.844 78.0082 126.761 75.7032C126.706 74.148 126.015 72.8705 124.55 72.2874Z" fill="white"/>
<path d="M341.785 75.6483C341.702 74.1487 341.038 72.8434 339.546 72.2603C337.998 71.6493 336.506 71.8715 335.234 73.0101C335.151 73.0656 335.068 73.1212 334.93 73.2045C334.903 72.8434 334.903 72.538 334.875 72.2047C334.018 72.2047 333.217 72.2047 332.36 72.2047C332.36 75.7316 332.36 79.1753 332.36 82.6466C333.217 82.6466 334.018 82.6466 334.903 82.6466C334.903 82.3967 334.903 82.2023 334.903 81.9801C334.903 80.3694 334.903 78.7587 334.903 77.148C334.903 76.3704 335.151 75.6761 335.732 75.1484C336.45 74.4819 337.279 74.1209 338.247 74.5097C339.159 74.8707 339.242 75.7594 339.242 76.5925C339.269 78.3977 339.242 80.2028 339.242 82.0079C339.242 82.2301 339.242 82.4245 339.242 82.6466C340.154 82.6466 340.955 82.6466 341.84 82.6466C341.84 82.3967 341.84 82.1745 341.84 81.9524C341.84 79.8418 341.895 77.7589 341.785 75.6483Z" fill="white"/>
<path d="M294.115 74.035C294.142 74.035 294.142 74.035 294.17 74.035C295.054 74.0627 295.635 74.5904 296.105 75.2847C296.768 74.8959 297.404 74.5626 298.012 74.2294C297.956 74.0905 297.956 74.035 297.929 74.0072C296.602 71.8966 293.203 71.2856 291.268 72.8963C290.798 73.2851 290.439 73.8961 290.273 74.5071C289.858 76.1456 290.522 77.2842 292.125 77.8674C292.899 78.1451 293.728 78.3395 294.529 78.6172C294.999 78.7838 295.469 78.9782 295.441 79.617C295.414 80.2279 294.971 80.5334 294.446 80.7C293.368 81.0333 292.318 80.5889 291.765 79.5892C291.682 79.4226 291.572 79.2559 291.489 79.0893C290.853 79.367 290.273 79.6447 289.692 79.8947C289.637 79.9224 289.61 79.9502 289.499 80.0335C289.61 80.2835 289.72 80.5612 289.886 80.8111C291.102 82.8106 294.032 83.5327 296.215 82.3941C297.459 81.7276 298.039 80.6723 298.012 79.2837C297.984 77.9507 297.265 77.0898 296.077 76.6177C295.331 76.3122 294.529 76.09 293.755 75.8401C292.926 75.5624 292.622 75.2291 292.705 74.7848C292.76 74.2571 293.368 73.9516 294.115 74.035Z" fill="white"/>
<path d="M276.147 80.5609C274.931 80.7831 274.378 80.3387 274.378 79.089C274.378 78.0893 274.378 77.0895 274.378 76.0898C274.378 75.5066 274.378 74.9234 274.378 74.2846C275.318 74.2846 276.203 74.2846 277.059 74.2846C277.059 73.5626 277.059 72.8961 277.059 72.1463C276.147 72.1463 275.29 72.1463 274.378 72.1463C274.378 70.6466 274.378 69.2303 274.378 67.7029C273.798 68.1472 273.328 68.5638 272.803 68.8693C272.14 69.2581 271.863 69.7579 271.974 70.5355C272.029 71.0354 271.974 71.5631 271.974 72.174C271.338 72.174 270.813 72.174 270.26 72.174C270.26 72.9238 270.26 73.5904 270.26 74.3124C270.841 74.3124 271.338 74.3124 271.946 74.3124C271.946 74.5623 271.946 74.7845 271.946 75.0067C271.946 76.6452 271.946 78.2559 271.946 79.8944C271.974 81.3663 272.748 82.3938 274.102 82.7548C274.986 82.977 275.898 82.9214 276.755 82.6715C276.893 82.6437 277.087 82.4493 277.087 82.3105C277.115 81.6717 277.115 81.033 277.115 80.311C276.7 80.422 276.424 80.5054 276.147 80.5609Z" fill="white"/>
<path d="M349.529 80.506C348.147 80.8948 347.484 80.3949 347.484 78.9508C347.484 77.6178 347.484 76.2848 347.484 74.9518C347.484 74.7574 347.512 74.5352 347.512 74.2853C348.451 74.2853 349.336 74.2853 350.22 74.2853C350.22 73.5632 350.22 72.8967 350.22 72.1747C349.474 72.1747 348.783 72.1469 348.064 72.1747C347.595 72.2025 347.456 72.0358 347.456 71.5637C347.484 70.314 347.456 69.0643 347.456 67.6758C346.655 68.2867 345.992 68.7866 345.328 69.3143C345.19 69.4254 345.079 69.7031 345.079 69.8975C345.052 70.5084 345.052 71.1194 345.079 71.7304C345.079 72.0358 344.969 72.1469 344.665 72.1469C344.25 72.1469 343.808 72.1469 343.394 72.1469C343.394 72.8967 343.394 73.591 343.394 74.3131C343.946 74.3131 344.471 74.3131 344.997 74.3131C344.997 74.5908 344.997 74.8129 344.997 75.0351C344.997 76.5903 344.969 78.1455 344.997 79.6729C345.024 81.2836 345.715 82.3111 347.097 82.6999C348.037 82.9776 348.949 82.8943 349.861 82.6444C349.999 82.6166 350.193 82.45 350.193 82.3389C350.22 81.6724 350.22 81.0059 350.22 80.2561C349.944 80.3949 349.75 80.4505 349.529 80.506Z" fill="white"/>
<path d="M133.915 80.6164C133.058 80.7275 132.505 80.3387 132.478 79.4778C132.422 77.7838 132.478 76.1175 132.478 74.4235C132.478 74.3957 132.533 74.3679 132.616 74.2846C133.417 74.2846 134.302 74.2846 135.159 74.2846C135.159 73.5626 135.159 72.8961 135.159 72.174C134.44 72.174 133.749 72.1463 133.086 72.174C132.616 72.2018 132.422 72.0629 132.45 71.5631C132.478 70.8966 132.45 70.2301 132.45 69.5635C132.45 68.9804 132.45 68.4249 132.45 67.7029C131.704 68.2861 131.04 68.7304 130.432 69.2581C130.239 69.4247 130.101 69.7302 130.101 69.9801C130.046 70.6744 130.073 71.3964 130.073 72.174C129.465 72.174 128.912 72.174 128.387 72.174C128.387 72.9516 128.387 73.6181 128.387 74.3402C128.94 74.3402 129.437 74.3402 130.018 74.3402C130.018 74.5901 130.018 74.8123 130.018 75.0067C130.018 76.5619 130.018 78.117 130.018 79.6445C130.018 81.1996 130.654 82.2272 131.897 82.6715C132.892 83.0325 133.887 82.9492 134.882 82.6715C135.02 82.6437 135.186 82.4493 135.186 82.3383C135.214 81.6717 135.214 81.033 135.214 80.3387C134.716 80.4498 134.329 80.5609 133.915 80.6164Z" fill="white"/>
<path d="M183.312 80.6164C182.511 80.6998 181.958 80.2554 181.93 79.4501C181.902 77.756 181.93 76.0898 181.93 74.2846C182.87 74.2846 183.727 74.2846 184.583 74.2846C184.583 73.5348 184.583 72.8683 184.583 72.1463C183.671 72.1463 182.815 72.1463 181.902 72.1463C181.902 70.6744 181.902 69.2581 181.902 67.7029C181.184 68.2305 180.576 68.7304 179.94 69.1748C179.609 69.3969 179.443 69.6746 179.47 70.0912C179.498 70.7577 179.47 71.4242 179.47 72.174C178.89 72.174 178.337 72.174 177.812 72.174C177.812 72.9239 177.812 73.6181 177.812 74.3402C178.392 74.3402 178.89 74.3402 179.443 74.3402C179.443 76.2286 179.443 78.0337 179.443 79.8666C179.443 81.283 180.189 82.3105 181.46 82.6993C182.4 83.0048 183.34 82.9214 184.279 82.6715C184.418 82.6437 184.583 82.4493 184.583 82.3383C184.611 81.6717 184.611 81.033 184.611 80.3387C184.169 80.4498 183.754 80.5609 183.312 80.6164Z" fill="white"/>
<path d="M111.232 82.6744C112.116 82.6744 112.946 82.6744 113.83 82.6744C113.83 77.6756 113.83 72.7601 113.83 67.8169C112.946 67.8169 112.089 67.8169 111.232 67.8169C111.232 72.7879 111.232 77.7034 111.232 82.6744Z" fill="white"/>
<path d="M164.375 72.0106C163.436 72.1494 162.8 72.7604 162.275 73.6768C162.247 73.0659 162.219 72.6215 162.219 72.1772C161.39 72.1772 160.616 72.1772 159.815 72.1772C159.815 75.7041 159.815 79.1755 159.815 82.6191C160.644 82.6191 161.418 82.6191 162.247 82.6191C162.247 81.0362 162.219 79.5088 162.247 77.9536C162.247 77.4537 162.33 76.9261 162.441 76.4539C162.634 75.6764 163.049 75.0098 163.795 74.6211C164.486 74.26 165.177 74.3433 165.868 74.7321C166.255 74.0101 166.642 73.3436 167.001 72.6493C166.144 72.1217 165.287 71.8995 164.375 72.0106Z" fill="white"/>
<path d="M368.374 72.0087C367.407 72.1476 366.799 72.7863 366.246 73.5361C366.246 73.0918 366.246 72.6475 366.246 72.1753C365.417 72.1753 364.643 72.1753 363.842 72.1753C363.842 75.7023 363.842 79.1459 363.842 82.6173C364.671 82.6173 365.417 82.6173 366.246 82.6173C366.246 82.3673 366.246 82.1452 366.246 81.9508C366.246 80.4789 366.219 79.007 366.246 77.5352C366.274 76.4799 366.578 75.4801 367.49 74.8136C368.236 74.2582 369.038 74.286 369.867 74.7303C370.254 74.0082 370.613 73.3417 371 72.6475C370.143 72.1476 369.287 71.8976 368.374 72.0087Z" fill="white"/>
<path d="M231.146 82.6468C231.975 82.6468 232.776 82.6468 233.605 82.6468C233.605 79.1198 233.605 75.6485 233.605 72.2048C232.749 72.2048 231.975 72.2048 231.146 72.2048C231.146 75.704 231.146 79.1754 231.146 82.6468Z" fill="white"/>
<path d="M231.124 70.1219C232.036 70.1219 232.893 70.1219 233.722 70.1219C233.722 69.3165 233.722 68.5667 233.722 67.8169C232.838 67.8169 231.981 67.8169 231.124 67.8169C231.124 68.5945 231.124 69.3443 231.124 70.1219Z" fill="white"/>
</svg>
