<svg width="22" height="22" viewBox="0 0 22 22" fill="none" xmlns="http://www.w3.org/2000/svg">
<path fill-rule="evenodd" clip-rule="evenodd" d="M1.52484 14.8184C0.587586 13.8811 0.587586 12.3615 1.52484 11.4243L3.64616 9.30295C4.58342 8.36569 6.10302 8.36569 7.04028 9.30295L8.17165 10.4343L10.4344 8.17158L9.30302 7.04021C8.36576 6.10295 8.36576 4.58335 9.30302 3.64609L11.4243 1.52477C12.3616 0.587515 13.8812 0.587515 14.8185 1.52477L15.9733 2.67961C16.9106 2.01164 18.2202 2.0981 19.0611 2.93899C19.902 3.77988 19.9884 5.08951 19.3205 6.02679L20.4753 7.18163C21.4126 8.11889 21.4126 9.63848 20.4753 10.5757L18.354 12.6971C17.4167 13.6343 15.8971 13.6343 14.9599 12.6971L13.8285 11.5657L11.5658 13.8284L12.6971 14.9598C13.6344 15.8971 13.6344 17.4167 12.6971 18.3539L10.5758 20.4752C9.63855 21.4125 8.11896 21.4125 7.1817 20.4752L6.02686 19.3204C5.08958 19.9884 3.77995 19.9019 2.93906 19.061C2.09817 18.2201 2.01171 16.9105 2.67968 15.9732L1.52484 14.8184ZM13.8285 9.58579L15.9498 11.7071C16.3403 12.0976 16.9735 12.0976 17.364 11.7071L19.4854 9.58579C19.8759 9.19527 19.8759 8.5621 19.4854 8.17158L17.364 6.05026L18.0711 5.34315C18.4617 4.95263 18.4617 4.31946 18.0711 3.92894C17.6806 3.53841 17.0475 3.53841 16.6569 3.92894L15.9498 4.63604L13.8285 2.51472C13.438 2.1242 12.8048 2.1242 12.4143 2.51472L10.293 4.63604C9.90244 5.02657 9.90244 5.65973 10.293 6.05026L12.4143 8.17158L8.17165 12.4142L6.05033 10.2929C5.6598 9.90237 5.02664 9.90237 4.63611 10.2929L2.51479 12.4142C2.12427 12.8047 2.12427 13.4379 2.51479 13.8284L4.63611 15.9498L3.92901 16.6569C3.53848 17.0474 3.53848 17.6805 3.92901 18.0711C4.31953 18.4616 4.9527 18.4616 5.34322 18.0711L6.05033 17.364L8.17165 19.4853C8.56217 19.8758 9.19534 19.8758 9.58586 19.4853L11.7072 17.364C12.0977 16.9734 12.0977 16.3403 11.7072 15.9498L9.58586 13.8284L13.8285 9.58579Z" fill="#A5ADC0"/>
</svg>
