<svg width="16" height="15" viewBox="0 0 16 15" fill="none" xmlns="http://www.w3.org/2000/svg">
<path fill-rule="evenodd" clip-rule="evenodd" d="M3.00001 0.208333C2.39222 0.208333 1.80933 0.449776 1.37956 0.879547C0.949786 1.30932 0.708344 1.89221 0.708344 2.5V12.5C0.708344 13.1078 0.949786 13.6907 1.37956 14.1205C1.80933 14.5502 2.39222 14.7917 3.00001 14.7917H8.83334C8.99329 14.7917 9.15325 14.7306 9.27528 14.6086L15.1086 8.77527C15.1685 8.71535 15.2138 8.64629 15.2443 8.57257C15.2709 8.50826 15.2872 8.43853 15.2909 8.3655C15.2914 8.35484 15.2917 8.34412 15.2917 8.33333V2.5C15.2917 1.89221 15.0502 1.30932 14.6205 0.879547C14.1907 0.449776 13.6078 0.208333 13 0.208333H3.00001ZM13.1578 8.95833H9.66668C9.61142 8.95833 9.55843 8.98028 9.51936 9.01935C9.48029 9.05842 9.45834 9.11141 9.45834 9.16667V12.6578L13.1578 8.95833ZM2.26344 1.76343C2.45879 1.56808 2.72374 1.45833 3.00001 1.45833H13C13.2763 1.45833 13.5412 1.56808 13.7366 1.76343C13.9319 1.95878 14.0417 2.22373 14.0417 2.5V7.70833H9.66668C9.2799 7.70833 8.90897 7.86198 8.63548 8.13547C8.36199 8.40896 8.20834 8.77989 8.20834 9.16667V13.5417H3.00001C2.72374 13.5417 2.45879 13.4319 2.26344 13.2366C2.06809 13.0412 1.95834 12.7763 1.95834 12.5V2.5C1.95834 2.22373 2.06809 1.95878 2.26344 1.76343Z" fill="#A5ADC0"/>
</svg>
