<svg width="24" height="24" viewBox="0 0 24 24" fill="none" xmlns="http://www.w3.org/2000/svg">
<path fill-rule="evenodd" clip-rule="evenodd" d="M7.25 21C7.25 20.5858 7.58579 20.25 8 20.25H16C16.4142 20.25 16.75 20.5858 16.75 21C16.75 21.4142 16.4142 21.75 16 21.75H8C7.58579 21.75 7.25 21.4142 7.25 21Z" fill="#A5ADC0"/>
<path fill-rule="evenodd" clip-rule="evenodd" d="M12 14.25C12.4142 14.25 12.75 14.5858 12.75 15V21C12.75 21.4142 12.4142 21.75 12 21.75C11.5858 21.75 11.25 21.4142 11.25 21V15C11.25 14.5858 11.5858 14.25 12 14.25Z" fill="#A5ADC0"/>
<path fill-rule="evenodd" clip-rule="evenodd" d="M6.25754 2.89393C6.31032 2.52445 6.62676 2.25 7 2.25H17C17.3732 2.25 17.6897 2.52445 17.7425 2.89393L18.7425 9.89393C18.7475 9.92907 18.75 9.96451 18.75 10C18.75 13.5703 15.5677 15.75 12 15.75C8.43233 15.75 5.25 13.5703 5.25 10C5.25 9.96451 5.25252 9.92907 5.25754 9.89393L6.25754 2.89393ZM7.65047 3.75L6.75032 10.0511C6.78049 12.4786 8.96095 14.25 12 14.25C15.0391 14.25 17.2195 12.4786 17.2497 10.0511L16.3495 3.75H7.65047Z" fill="#A5ADC0"/>
</svg>
