<svg width="16" height="17" viewBox="0 0 16 17" fill="none" xmlns="http://www.w3.org/2000/svg">
<path fill-rule="evenodd" clip-rule="evenodd" d="M6.18603 1.68602C6.2251 1.64695 6.27809 1.625 6.33334 1.625H9.66668C9.72193 1.625 9.77492 1.64695 9.81399 1.68602C9.85306 1.72509 9.87501 1.77808 9.87501 1.83333V3.70833H6.12501V1.83333C6.12501 1.77808 6.14696 1.72509 6.18603 1.68602ZM4.87501 3.70833V1.83333C4.87501 1.44656 5.02866 1.07563 5.30215 0.802136C5.57564 0.528645 5.94657 0.375 6.33334 0.375H9.66668C10.0534 0.375 10.4244 0.528645 10.6979 0.802136C10.9714 1.07563 11.125 1.44656 11.125 1.83333V3.70833H13.826H13.8393H14.6667C15.0119 3.70833 15.2917 3.98816 15.2917 4.33333C15.2917 4.67851 15.0119 4.95833 14.6667 4.95833H14.4084L13.6248 14.3614C13.6175 14.959 13.377 15.5306 12.9538 15.9538C12.524 16.3836 11.9411 16.625 11.3333 16.625H4.66668C4.05889 16.625 3.47599 16.3836 3.04622 15.9538C2.62307 15.5306 2.38249 14.959 2.37518 14.3614L1.59159 4.95833H1.33334C0.988165 4.95833 0.708344 4.67851 0.708344 4.33333C0.708344 3.98816 0.988165 3.70833 1.33334 3.70833H2.16076H2.17399H4.87501ZM10.5 4.95833H5.50001H2.84593L3.62285 14.2814C3.62429 14.2987 3.62501 14.316 3.62501 14.3333C3.62501 14.6096 3.73476 14.8746 3.93011 15.0699C4.12546 15.2653 4.39041 15.375 4.66668 15.375H11.3333C11.6096 15.375 11.8746 15.2653 12.0699 15.0699C12.2653 14.8746 12.375 14.6096 12.375 14.3333C12.375 14.316 12.3757 14.2987 12.3772 14.2814L13.1541 4.95833H10.5ZM6.33334 7.04167C6.67852 7.04167 6.95834 7.32149 6.95834 7.66667V12.6667C6.95834 13.0118 6.67852 13.2917 6.33334 13.2917C5.98816 13.2917 5.70834 13.0118 5.70834 12.6667V7.66667C5.70834 7.32149 5.98816 7.04167 6.33334 7.04167ZM10.2917 7.66667C10.2917 7.32149 10.0119 7.04167 9.66668 7.04167C9.3215 7.04167 9.04168 7.32149 9.04168 7.66667V12.6667C9.04168 13.0118 9.3215 13.2917 9.66668 13.2917C10.0119 13.2917 10.2917 13.0118 10.2917 12.6667V7.66667Z" fill="#FE5500"/>
</svg>
