<svg width="119" height="86" viewBox="0 0 119 86" fill="none" xmlns="http://www.w3.org/2000/svg">
<path d="M107.584 19.2337H21.3589V76.0564H107.584V19.2337Z" fill="#8CDBE8"/>
<mask id="mask0_352_14880" style="mask-type:alpha" maskUnits="userSpaceOnUse" x="21" y="19" width="87" height="58">
<path d="M107.584 19.2337H21.3589V76.0564H107.584V19.2337Z" fill="#9BDEFF"/>
</mask>
<g mask="url(#mask0_352_14880)">
<path fill-rule="evenodd" clip-rule="evenodd" d="M21.9923 56.1179C22.0934 56.016 22.2578 56.0154 22.3596 56.1165L58.4072 91.9179C58.509 92.019 58.5096 92.1836 58.4086 92.2855C58.3076 92.3874 58.1431 92.388 58.0413 92.2869L21.9938 56.4855C21.892 56.3844 21.8913 56.2198 21.9923 56.1179Z" fill="white"/>
<path fill-rule="evenodd" clip-rule="evenodd" d="M24.0971 5.88853C24.2262 5.8259 24.3815 5.87984 24.4441 6.00901L69.5055 99.0307C69.568 99.1599 69.5142 99.3154 69.3851 99.3781C69.2561 99.4407 69.1007 99.3867 69.0381 99.2576L23.9768 6.23584C23.9142 6.10666 23.9681 5.95117 24.0971 5.88853Z" fill="white"/>
<path fill-rule="evenodd" clip-rule="evenodd" d="M73.4952 -9.64143C73.6106 -9.55617 73.6351 -9.39343 73.5499 -9.27793L15.1171 69.954C15.0319 70.0695 14.8693 70.094 14.7539 70.0088C14.6385 69.9235 14.614 69.7608 14.6992 69.6453L73.132 -9.58668C73.2172 -9.70218 73.3798 -9.7267 73.4952 -9.64143Z" fill="white"/>
<path fill-rule="evenodd" clip-rule="evenodd" d="M112.747 28.5106C112.86 28.5984 112.881 28.7616 112.794 28.8752L58.43 99.3031C58.3424 99.4167 58.1793 99.4376 58.0658 99.3498C57.9523 99.2621 57.9314 99.0988 58.019 98.9852L112.383 28.5574C112.47 28.4438 112.633 28.4228 112.747 28.5106Z" fill="white"/>
<path fill-rule="evenodd" clip-rule="evenodd" d="M108.732 16.538C108.814 16.6558 108.785 16.8178 108.667 16.8998L15.0564 82.0457C14.9386 82.1276 14.7768 82.0985 14.6949 81.9806C14.6131 81.8627 14.6421 81.7008 14.7599 81.6188L108.37 16.4729C108.488 16.391 108.65 16.4201 108.732 16.538Z" fill="white"/>
<path fill-rule="evenodd" clip-rule="evenodd" d="M37.6846 -6.087C37.7822 -6.1922 37.9465 -6.19831 38.0516 -6.10063L129.626 79.0007C129.731 79.0984 129.737 79.2629 129.64 79.3681C129.542 79.4733 129.378 79.4794 129.273 79.3817L37.6982 -5.71964C37.5931 -5.81732 37.587 -5.98179 37.6846 -6.087Z" fill="white"/>
<path fill-rule="evenodd" clip-rule="evenodd" d="M25.8225 -12.2965C25.9457 -12.3701 26.1051 -12.3298 26.1786 -12.2065L92.4618 99.011C92.5353 99.1342 92.495 99.2938 92.3718 99.3674C92.2486 99.4409 92.0892 99.4006 92.0157 99.2773L25.7325 -11.9401C25.659 -12.0634 25.6993 -12.223 25.8225 -12.2965Z" fill="white"/>
<path fill-rule="evenodd" clip-rule="evenodd" d="M61.5421 -14.0294C61.6505 -14.1235 61.8145 -14.1119 61.9085 -14.0034L112.784 44.6856C112.878 44.794 112.867 44.9582 112.758 45.0522C112.65 45.1463 112.486 45.1347 112.392 45.0263L61.5162 -13.6627C61.4222 -13.7711 61.4338 -13.9353 61.5421 -14.0294Z" fill="white"/>
<path fill-rule="evenodd" clip-rule="evenodd" d="M20.1947 39.1738C20.2534 39.0428 20.4071 38.9843 20.538 39.0431L131.592 88.9305C131.723 88.9893 131.781 89.1432 131.722 89.2741C131.664 89.4051 131.51 89.4636 131.379 89.4049L20.3253 39.5174C20.1945 39.4586 20.136 39.3048 20.1947 39.1738Z" fill="white"/>
<path fill-rule="evenodd" clip-rule="evenodd" d="M85.3416 -7.91695C85.4779 -7.87228 85.5522 -7.72546 85.5076 -7.58903L44.2273 118.593C44.1826 118.73 44.0359 118.804 43.8996 118.759C43.7633 118.715 43.689 118.568 43.7337 118.431L85.014 -7.75082C85.0586 -7.88725 85.2053 -7.96163 85.3416 -7.91695Z" fill="white"/>
</g>
<path fill-rule="evenodd" clip-rule="evenodd" d="M18.7178 16.8917C18.7178 16.7482 18.834 16.6318 18.9775 16.6318H20.2412C20.3846 16.6318 20.5008 16.7482 20.5008 16.8917C20.5008 17.0353 20.3846 17.1517 20.2412 17.1517H19.2372V18.1772C19.2372 18.3208 19.1209 18.4372 18.9775 18.4372C18.834 18.4372 18.7178 18.3208 18.7178 18.1772V16.8917ZM22.5089 16.8917C22.5089 16.7482 22.6252 16.6318 22.7686 16.6318H25.296C25.4394 16.6318 25.5557 16.7482 25.5557 16.8917C25.5557 17.0353 25.4394 17.1517 25.296 17.1517H22.7686C22.6252 17.1517 22.5089 17.0353 22.5089 16.8917ZM27.5638 16.8917C27.5638 16.7482 27.68 16.6318 27.8235 16.6318H30.3509C30.4943 16.6318 30.6106 16.7482 30.6106 16.8917C30.6106 17.0353 30.4943 17.1517 30.3509 17.1517H27.8235C27.68 17.1517 27.5638 17.0353 27.5638 16.8917ZM32.6186 16.8917C32.6186 16.7482 32.7349 16.6318 32.8783 16.6318H35.4058C35.5492 16.6318 35.6655 16.7482 35.6655 16.8917C35.6655 17.0353 35.5492 17.1517 35.4058 17.1517H32.8783C32.7349 17.1517 32.6186 17.0353 32.6186 16.8917ZM37.6735 16.8917C37.6735 16.7482 37.7898 16.6318 37.9332 16.6318H40.4606C40.6041 16.6318 40.7203 16.7482 40.7203 16.8917C40.7203 17.0353 40.6041 17.1517 40.4606 17.1517H37.9332C37.7898 17.1517 37.6735 17.0353 37.6735 16.8917ZM42.7284 16.8917C42.7284 16.7482 42.8447 16.6318 42.9881 16.6318H45.5155C45.6589 16.6318 45.7752 16.7482 45.7752 16.8917C45.7752 17.0353 45.6589 17.1517 45.5155 17.1517H42.9881C42.8447 17.1517 42.7284 17.0353 42.7284 16.8917ZM47.7833 16.8917C47.7833 16.7482 47.8995 16.6318 48.0429 16.6318H50.5704C50.7138 16.6318 50.8301 16.7482 50.8301 16.8917C50.8301 17.0353 50.7138 17.1517 50.5704 17.1517H48.0429C47.8995 17.1517 47.7833 17.0353 47.7833 16.8917ZM52.8381 16.8917C52.8381 16.7482 52.9544 16.6318 53.0978 16.6318H55.6252C55.7687 16.6318 55.8849 16.7482 55.8849 16.8917C55.8849 17.0353 55.7687 17.1517 55.6252 17.1517H53.0978C52.9544 17.1517 52.8381 17.0353 52.8381 16.8917ZM57.893 16.8917C57.893 16.7482 58.0092 16.6318 58.1527 16.6318H60.6801C60.8235 16.6318 60.9398 16.7482 60.9398 16.8917C60.9398 17.0353 60.8235 17.1517 60.6801 17.1517H58.1527C58.0092 17.1517 57.893 17.0353 57.893 16.8917ZM62.9478 16.8917C62.9478 16.7482 63.0641 16.6318 63.2075 16.6318H65.735C65.8784 16.6318 65.9947 16.7482 65.9947 16.8917C65.9947 17.0353 65.8784 17.1517 65.735 17.1517H63.2075C63.0641 17.1517 62.9478 17.0353 62.9478 16.8917ZM68.0027 16.8917C68.0027 16.7482 68.119 16.6318 68.2624 16.6318H70.7898C70.9333 16.6318 71.0495 16.7482 71.0495 16.8917C71.0495 17.0353 70.9333 17.1517 70.7898 17.1517H68.2624C68.119 17.1517 68.0027 17.0353 68.0027 16.8917ZM73.0576 16.8917C73.0576 16.7482 73.1738 16.6318 73.3173 16.6318H75.8447C75.9881 16.6318 76.1044 16.7482 76.1044 16.8917C76.1044 17.0353 75.9881 17.1517 75.8447 17.1517H73.3173C73.1738 17.1517 73.0576 17.0353 73.0576 16.8917ZM78.1124 16.8917C78.1124 16.7482 78.2287 16.6318 78.3721 16.6318H80.8996C81.043 16.6318 81.1592 16.7482 81.1592 16.8917C81.1592 17.0353 81.043 17.1517 80.8996 17.1517H78.3721C78.2287 17.1517 78.1124 17.0353 78.1124 16.8917ZM83.1673 16.8917C83.1673 16.7482 83.2836 16.6318 83.427 16.6318H85.9544C86.0978 16.6318 86.2141 16.7482 86.2141 16.8917C86.2141 17.0353 86.0978 17.1517 85.9544 17.1517H83.427C83.2836 17.1517 83.1673 17.0353 83.1673 16.8917ZM88.2222 16.8917C88.2222 16.7482 88.3384 16.6318 88.4819 16.6318H91.0093C91.1527 16.6318 91.269 16.7482 91.269 16.8917C91.269 17.0353 91.1527 17.1517 91.0093 17.1517H88.4819C88.3384 17.1517 88.2222 17.0353 88.2222 16.8917ZM93.277 16.8917C93.277 16.7482 93.3933 16.6318 93.5367 16.6318H96.0641C96.2076 16.6318 96.3238 16.7482 96.3238 16.8917C96.3238 17.0353 96.2076 17.1517 96.0641 17.1517H93.5367C93.3933 17.1517 93.277 17.0353 93.277 16.8917ZM98.3319 16.8917C98.3319 16.7482 98.4482 16.6318 98.5916 16.6318H101.119C101.262 16.6318 101.379 16.7482 101.379 16.8917C101.379 17.0353 101.262 17.1517 101.119 17.1517H98.5916C98.4482 17.1517 98.3319 17.0353 98.3319 16.8917ZM103.387 16.8917C103.387 16.7482 103.503 16.6318 103.646 16.6318H106.174C106.317 16.6318 106.434 16.7482 106.434 16.8917C106.434 17.0353 106.317 17.1517 106.174 17.1517H103.646C103.503 17.1517 103.387 17.0353 103.387 16.8917ZM108.442 16.8917C108.442 16.7482 108.558 16.6318 108.701 16.6318H109.965C110.108 16.6318 110.225 16.7482 110.225 16.8917V18.1772C110.225 18.3208 110.108 18.4371 109.965 18.4371C109.822 18.4371 109.705 18.3208 109.705 18.1772V17.1517H108.701C108.558 17.1517 108.442 17.0353 108.442 16.8917ZM109.965 20.4883C110.108 20.4883 110.225 20.6047 110.225 20.7482V23.3192C110.225 23.4628 110.108 23.5792 109.965 23.5792C109.822 23.5792 109.705 23.4628 109.705 23.3192V20.7482C109.705 20.6047 109.822 20.4883 109.965 20.4883ZM18.9775 20.4883C19.1209 20.4883 19.2372 20.6047 19.2372 20.7482V23.3192C19.2372 23.4628 19.1209 23.5792 18.9775 23.5792C18.834 23.5792 18.7178 23.4628 18.7178 23.3192V20.7482C18.7178 20.6047 18.834 20.4883 18.9775 20.4883ZM109.965 25.6303C110.108 25.6303 110.225 25.7467 110.225 25.8902V28.4613C110.225 28.6048 110.108 28.7212 109.965 28.7212C109.822 28.7212 109.705 28.6048 109.705 28.4613V25.8902C109.705 25.7467 109.822 25.6303 109.965 25.6303ZM18.9775 25.6303C19.1209 25.6303 19.2372 25.7467 19.2372 25.8903V28.4613C19.2372 28.6048 19.1209 28.7212 18.9775 28.7212C18.834 28.7212 18.7178 28.6048 18.7178 28.4613V25.8903C18.7178 25.7467 18.834 25.6303 18.9775 25.6303ZM109.965 30.7723C110.108 30.7723 110.225 30.8887 110.225 31.0323V33.6033C110.225 33.7468 110.108 33.8632 109.965 33.8632C109.822 33.8632 109.705 33.7468 109.705 33.6033V31.0323C109.705 30.8887 109.822 30.7723 109.965 30.7723ZM18.9775 30.7723C19.1209 30.7723 19.2372 30.8887 19.2372 31.0323V33.6033C19.2372 33.7468 19.1209 33.8632 18.9775 33.8632C18.834 33.8632 18.7178 33.7468 18.7178 33.6033V31.0323C18.7178 30.8887 18.834 30.7723 18.9775 30.7723ZM18.9775 35.9144C19.1209 35.9144 19.2372 36.0307 19.2372 36.1743V38.7453C19.2372 38.8889 19.1209 39.0052 18.9775 39.0052C18.834 39.0052 18.7178 38.8889 18.7178 38.7453V36.1743C18.7178 36.0307 18.834 35.9144 18.9775 35.9144ZM109.965 35.9144C110.108 35.9144 110.225 36.0307 110.225 36.1743V38.7453C110.225 38.8889 110.108 39.0053 109.965 39.0053C109.822 39.0053 109.705 38.8889 109.705 38.7453V36.1743C109.705 36.0307 109.822 35.9144 109.965 35.9144ZM18.9775 41.0564C19.1209 41.0564 19.2372 41.1728 19.2372 41.3163V43.8873C19.2372 44.0309 19.1209 44.1473 18.9775 44.1473C18.834 44.1473 18.7178 44.0309 18.7178 43.8873V41.3163C18.7178 41.1728 18.834 41.0564 18.9775 41.0564ZM109.965 41.0564C110.108 41.0564 110.225 41.1728 110.225 41.3163V43.8873C110.225 44.0309 110.108 44.1473 109.965 44.1473C109.822 44.1473 109.705 44.0309 109.705 43.8873V41.3163C109.705 41.1728 109.822 41.0564 109.965 41.0564ZM18.9775 46.1984C19.1209 46.1984 19.2372 46.3148 19.2372 46.4583V49.0294C19.2372 49.1729 19.1209 49.2893 18.9775 49.2893C18.834 49.2893 18.7178 49.1729 18.7178 49.0294V46.4583C18.7178 46.3148 18.834 46.1984 18.9775 46.1984ZM109.965 46.1984C110.108 46.1984 110.225 46.3148 110.225 46.4584V49.0294C110.225 49.1729 110.108 49.2893 109.965 49.2893C109.822 49.2893 109.705 49.1729 109.705 49.0294V46.4584C109.705 46.3148 109.822 46.1984 109.965 46.1984ZM18.9775 51.3404C19.1209 51.3404 19.2372 51.4568 19.2372 51.6004V54.1714C19.2372 54.3149 19.1209 54.4313 18.9775 54.4313C18.834 54.4313 18.7178 54.3149 18.7178 54.1714V51.6004C18.7178 51.4568 18.834 51.3404 18.9775 51.3404ZM109.965 51.3404C110.108 51.3404 110.225 51.4568 110.225 51.6004V54.1714C110.225 54.3149 110.108 54.4313 109.965 54.4313C109.822 54.4313 109.705 54.3149 109.705 54.1714V51.6004C109.705 51.4568 109.822 51.3404 109.965 51.3404ZM18.9775 56.4825C19.1209 56.4825 19.2372 56.5988 19.2372 56.7424V59.3134C19.2372 59.457 19.1209 59.5733 18.9775 59.5733C18.834 59.5733 18.7178 59.457 18.7178 59.3134V56.7424C18.7178 56.5988 18.834 56.4825 18.9775 56.4825ZM109.965 56.4825C110.108 56.4825 110.225 56.5988 110.225 56.7424V59.3134C110.225 59.457 110.108 59.5733 109.965 59.5733C109.822 59.5733 109.705 59.457 109.705 59.3134V56.7424C109.705 56.5988 109.822 56.4825 109.965 56.4825ZM18.9775 61.6245C19.1209 61.6245 19.2372 61.7409 19.2372 61.8844V64.4554C19.2372 64.599 19.1209 64.7154 18.9775 64.7154C18.834 64.7154 18.7178 64.599 18.7178 64.4554V61.8844C18.7178 61.7409 18.834 61.6245 18.9775 61.6245ZM109.965 61.6245C110.108 61.6245 110.225 61.7409 110.225 61.8844V64.4554C110.225 64.599 110.108 64.7154 109.965 64.7154C109.822 64.7154 109.705 64.599 109.705 64.4554V61.8844C109.705 61.7409 109.822 61.6245 109.965 61.6245ZM109.965 66.7665C110.108 66.7665 110.225 66.8829 110.225 67.0264V69.5975C110.225 69.741 110.108 69.8574 109.965 69.8574C109.822 69.8574 109.705 69.741 109.705 69.5975V67.0264C109.705 66.8829 109.822 66.7665 109.965 66.7665ZM18.9775 66.7665C19.1209 66.7665 19.2372 66.8829 19.2372 67.0264V69.5975C19.2372 69.741 19.1209 69.8574 18.9775 69.8574C18.834 69.8574 18.7178 69.741 18.7178 69.5975V67.0264C18.7178 66.8829 18.834 66.7665 18.9775 66.7665ZM109.965 71.9085C110.108 71.9085 110.225 72.0249 110.225 72.1685V74.7395C110.225 74.883 110.108 74.9994 109.965 74.9994C109.822 74.9994 109.705 74.883 109.705 74.7395V72.1685C109.705 72.0249 109.822 71.9085 109.965 71.9085ZM18.9775 71.9085C19.1209 71.9085 19.2372 72.0249 19.2372 72.1685V74.7395C19.2372 74.883 19.1209 74.9994 18.9775 74.9994C18.834 74.9994 18.7178 74.883 18.7178 74.7395V72.1685C18.7178 72.0249 18.834 71.9085 18.9775 71.9085ZM109.965 77.0505C110.108 77.0505 110.225 77.1669 110.225 77.3105V78.596C110.225 78.7396 110.108 78.8559 109.965 78.8559H108.701C108.558 78.8559 108.442 78.7396 108.442 78.596C108.442 78.4524 108.558 78.3361 108.701 78.3361H109.705V77.3105C109.705 77.1669 109.822 77.0505 109.965 77.0505ZM18.9775 77.0506C19.1209 77.0506 19.2372 77.1669 19.2372 77.3105V78.3361H20.2412C20.3846 78.3361 20.5009 78.4524 20.5009 78.596C20.5009 78.7396 20.3846 78.8559 20.2412 78.8559H18.9775C18.834 78.8559 18.7178 78.7396 18.7178 78.596V77.3105C18.7178 77.1669 18.834 77.0506 18.9775 77.0506ZM22.5089 78.596C22.5089 78.4524 22.6252 78.3361 22.7686 78.3361H25.296C25.4395 78.3361 25.5557 78.4524 25.5557 78.596C25.5557 78.7396 25.4395 78.8559 25.296 78.8559H22.7686C22.6252 78.8559 22.5089 78.7396 22.5089 78.596ZM27.5638 78.596C27.5638 78.4524 27.6801 78.3361 27.8235 78.3361H30.3509C30.4943 78.3361 30.6106 78.4524 30.6106 78.596C30.6106 78.7396 30.4943 78.8559 30.3509 78.8559H27.8235C27.6801 78.8559 27.5638 78.7396 27.5638 78.596ZM32.6187 78.596C32.6187 78.4524 32.7349 78.3361 32.8783 78.3361H35.4058C35.5492 78.3361 35.6655 78.4524 35.6655 78.596C35.6655 78.7396 35.5492 78.8559 35.4058 78.8559H32.8783C32.7349 78.8559 32.6187 78.7396 32.6187 78.596ZM37.6735 78.596C37.6735 78.4524 37.7898 78.3361 37.9332 78.3361H40.4606C40.6041 78.3361 40.7203 78.4524 40.7203 78.596C40.7203 78.7396 40.6041 78.8559 40.4606 78.8559H37.9332C37.7898 78.8559 37.6735 78.7396 37.6735 78.596ZM42.7284 78.596C42.7284 78.4524 42.8446 78.3361 42.9881 78.3361H45.5155C45.6589 78.3361 45.7752 78.4524 45.7752 78.596C45.7752 78.7396 45.6589 78.8559 45.5155 78.8559H42.9881C42.8446 78.8559 42.7284 78.7396 42.7284 78.596ZM47.7832 78.596C47.7832 78.4524 47.8995 78.3361 48.0429 78.3361H50.5704C50.7138 78.3361 50.8301 78.4524 50.8301 78.596C50.8301 78.7396 50.7138 78.8559 50.5704 78.8559H48.0429C47.8995 78.8559 47.7832 78.7396 47.7832 78.596ZM52.8381 78.596C52.8381 78.4524 52.9544 78.3361 53.0978 78.3361H55.6252C55.7687 78.3361 55.8849 78.4524 55.8849 78.596C55.8849 78.7396 55.7687 78.8559 55.6252 78.8559H53.0978C52.9544 78.8559 52.8381 78.7396 52.8381 78.596ZM57.893 78.596C57.893 78.4524 58.0092 78.3361 58.1527 78.3361H60.6801C60.8235 78.3361 60.9398 78.4524 60.9398 78.596C60.9398 78.7396 60.8235 78.8559 60.6801 78.8559H58.1527C58.0092 78.8559 57.893 78.7396 57.893 78.596ZM62.9478 78.596C62.9478 78.4524 63.0641 78.3361 63.2075 78.3361H65.735C65.8784 78.3361 65.9946 78.4524 65.9946 78.596C65.9946 78.7396 65.8784 78.8559 65.735 78.8559H63.2075C63.0641 78.8559 62.9478 78.7396 62.9478 78.596ZM68.0027 78.596C68.0027 78.4524 68.119 78.3361 68.2624 78.3361H70.7898C70.9332 78.3361 71.0495 78.4524 71.0495 78.596C71.0495 78.7396 70.9332 78.8559 70.7898 78.8559H68.2624C68.119 78.8559 68.0027 78.7396 68.0027 78.596ZM73.0576 78.596C73.0576 78.4524 73.1738 78.3361 73.3172 78.3361H75.8447C75.9881 78.3361 76.1044 78.4524 76.1044 78.596C76.1044 78.7396 75.9881 78.8559 75.8447 78.8559H73.3172C73.1738 78.8559 73.0576 78.7396 73.0576 78.596ZM78.1124 78.596C78.1124 78.4524 78.2287 78.3361 78.3721 78.3361H80.8995C81.043 78.3361 81.1592 78.4524 81.1592 78.596C81.1592 78.7396 81.043 78.8559 80.8995 78.8559H78.3721C78.2287 78.8559 78.1124 78.7396 78.1124 78.596ZM83.1673 78.596C83.1673 78.4524 83.2836 78.3361 83.427 78.3361H85.9544C86.0978 78.3361 86.2141 78.4524 86.2141 78.596C86.2141 78.7396 86.0978 78.8559 85.9544 78.8559H83.427C83.2836 78.8559 83.1673 78.7396 83.1673 78.596ZM88.2222 78.596C88.2222 78.4524 88.3384 78.3361 88.4818 78.3361H91.0093C91.1527 78.3361 91.269 78.4524 91.269 78.596C91.269 78.7396 91.1527 78.8559 91.0093 78.8559H88.4818C88.3384 78.8559 88.2222 78.7396 88.2222 78.596ZM93.277 78.596C93.277 78.4524 93.3933 78.3361 93.5367 78.3361H96.0642C96.2076 78.3361 96.3238 78.4524 96.3238 78.596C96.3238 78.7396 96.2076 78.8559 96.0642 78.8559H93.5367C93.3933 78.8559 93.277 78.7396 93.277 78.596ZM98.3319 78.596C98.3319 78.4524 98.4482 78.3361 98.5916 78.3361H101.119C101.262 78.3361 101.379 78.4524 101.379 78.596C101.379 78.7396 101.262 78.8559 101.119 78.8559H98.5916C98.4482 78.8559 98.3319 78.7396 98.3319 78.596ZM103.387 78.596C103.387 78.4524 103.503 78.3361 103.646 78.3361H106.174C106.317 78.3361 106.434 78.4524 106.434 78.596C106.434 78.7396 106.317 78.8559 106.174 78.8559H103.646C103.503 78.8559 103.387 78.7396 103.387 78.596Z" fill="#102360"/>
<path d="M93.7422 7.06082H35.2029C33.3313 7.06082 31.814 8.57956 31.814 10.453V53.7874C31.814 55.6609 33.3313 57.1796 35.2029 57.1796H93.7422C95.6139 57.1796 97.1312 55.6609 97.1312 53.7874V10.453C97.1312 8.57956 95.6139 7.06082 93.7422 7.06082Z" fill="white"/>
<path d="M93.7425 7.32075C94.569 7.32075 95.3616 7.64939 95.946 8.23437C96.5305 8.81934 96.8588 9.61274 96.8588 10.44V53.7874C96.8605 54.1981 96.7811 54.6052 96.6253 54.9851C96.4695 55.365 96.2402 55.7104 95.9506 56.0015C95.6611 56.2925 95.317 56.5234 94.9381 56.681C94.5591 56.8386 94.1528 56.9197 93.7425 56.9197H35.2006C34.7903 56.9197 34.384 56.8386 34.005 56.681C33.6261 56.5234 33.282 56.2925 32.9925 56.0015C32.7029 55.7104 32.4736 55.365 32.3178 54.9851C32.162 54.6052 32.0826 54.1981 32.0843 53.7874V10.453C32.0843 9.62574 32.4126 8.83234 32.9971 8.24736C33.5815 7.66239 34.3741 7.33375 35.2006 7.33375H93.7425V7.32075ZM93.7425 6.81387H35.2006C34.2376 6.81798 33.3153 7.2027 32.6343 7.88429C31.9534 8.56587 31.569 9.48912 31.5649 10.453V53.7874C31.5656 54.7536 31.9485 55.6801 32.6298 56.3645C33.3111 57.0489 34.2354 57.4354 35.2006 57.4396H93.7425C94.7077 57.4354 95.632 57.0489 96.3133 56.3645C96.9946 55.6801 97.3775 54.7536 97.3782 53.7874V10.453C97.3741 9.48912 96.9897 8.56587 96.3088 7.88429C95.6278 7.2027 94.7055 6.81798 93.7425 6.81387Z" fill="#102360"/>
<path d="M83.8898 25.948L39.8101 56.9197H94.1943C94.9106 56.9197 95.5976 56.6349 96.1041 56.1279C96.6105 55.6209 96.8951 54.9333 96.8951 54.2163V33.6318L83.8898 25.948Z" fill="#8CDBE8"/>
<path d="M96.869 54.2163V52.0614L52.9243 35.5995C52.9243 35.5995 32.0738 46.3714 32.0738 46.7587V54.2163C32.0685 54.3081 32.0685 54.4001 32.0738 54.4918C32.1369 55.1101 32.411 55.6876 32.8501 56.127C33.2891 56.5665 33.866 56.8409 34.4837 56.9041C34.5759 56.9145 34.6687 56.9197 34.7615 56.9197H94.1812C94.8952 56.9162 95.5789 56.6299 96.0825 56.1233C96.5862 55.6167 96.869 54.931 96.869 54.2163Z" fill="#8CDBE8"/>
<path d="M47.1776 25.202C49.7162 25.202 51.7741 23.1421 51.7741 20.601C51.7741 18.06 49.7162 16.0001 47.1776 16.0001C44.639 16.0001 42.5811 18.06 42.5811 20.601C42.5811 23.1421 44.639 25.202 47.1776 25.202Z" fill="#8CDBE8"/>
<path fill-rule="evenodd" clip-rule="evenodd" d="M39.6411 4.98131C39.6411 4.83775 39.7574 4.72137 39.9008 4.72137H65.6335C65.7769 4.72137 65.8932 4.83775 65.8932 4.98131C65.8932 5.12487 65.7769 5.24125 65.6335 5.24125H39.9008C39.7574 5.24125 39.6411 5.12487 39.6411 4.98131Z" fill="#102360"/>
<path fill-rule="evenodd" clip-rule="evenodd" d="M13.572 9.69184C13.6764 9.59346 13.8408 9.59848 13.9391 9.70304L17.2423 13.2174C17.3406 13.322 17.3356 13.4865 17.2311 13.5848C17.1267 13.6832 16.9623 13.6782 16.864 13.5736L13.5608 10.0593C13.4625 9.95471 13.4675 9.79021 13.572 9.69184Z" fill="#102360"/>
<path fill-rule="evenodd" clip-rule="evenodd" d="M12.6241 13.4779C12.6877 13.3492 12.8434 13.2965 12.972 13.3601L15.9299 14.8235C16.0584 14.8871 16.1111 15.043 16.0476 15.1717C15.984 15.3004 15.8283 15.3532 15.6997 15.2896L12.7418 13.8261C12.6133 13.7625 12.5606 13.6066 12.6241 13.4779Z" fill="#102360"/>
<path fill-rule="evenodd" clip-rule="evenodd" d="M99.1338 0.659461C99.2653 0.716922 99.3253 0.870153 99.2679 1.00171L97.9045 4.12618C97.8471 4.25774 97.694 4.31781 97.5626 4.26034C97.4311 4.20288 97.3711 4.04965 97.4285 3.91809L98.7919 0.793627C98.8493 0.662068 99.0024 0.602 99.1338 0.659461Z" fill="#102360"/>
<path fill-rule="evenodd" clip-rule="evenodd" d="M103.116 0.908806C103.218 1.01032 103.218 1.1749 103.116 1.27642L99.2133 5.1833C99.1119 5.28481 98.9475 5.28481 98.8461 5.1833C98.7447 5.08178 98.7447 4.9172 98.8461 4.81569L102.749 0.908806C102.851 0.807294 103.015 0.807294 103.116 0.908806Z" fill="#102360"/>
<path fill-rule="evenodd" clip-rule="evenodd" d="M103.174 5.29283C103.227 5.42611 103.162 5.5774 103.029 5.63073L100.102 6.80306C99.9692 6.8564 99.818 6.79159 99.7648 6.6583C99.7115 6.52502 99.7762 6.37373 99.9094 6.32039L102.836 5.14807C102.969 5.09473 103.12 5.15954 103.174 5.29283Z" fill="#102360"/>
<path d="M101.754 49.6284C101.088 50.0308 100.558 50.6226 100.23 51.3284C99.7671 50.9488 99.2242 50.6799 98.6421 50.5421C98.0601 50.4044 97.4543 50.4015 96.871 50.5336C96.2876 50.6657 95.7421 50.9294 95.276 51.3045C94.8099 51.6797 94.4355 52.1564 94.1814 52.6983C93.7359 52.3305 93.2148 52.0656 92.6553 51.9225C92.0958 51.7793 91.5117 51.7615 90.9445 51.8702C90.3773 51.9789 89.8411 52.2116 89.374 52.5515C88.9069 52.8914 88.5205 53.3303 88.2423 53.8368L84.9105 48.3391C84.3715 47.447 83.5006 46.8058 82.4893 46.5564C81.4781 46.3071 80.4092 46.4701 79.518 47.0095C78.6268 47.549 77.9861 48.4207 77.737 49.433C77.4879 50.4452 77.6508 51.5151 78.1897 52.4071L90.0679 72.0715L84.0535 72.5524C83.1425 72.6265 82.2613 72.9122 81.48 73.3868C80.845 73.7716 80.3381 74.336 80.0232 75.0089C79.7083 75.6817 79.5996 76.4328 79.7107 77.1674C79.8218 77.9021 80.1478 78.5873 80.6476 79.1367C81.1473 79.6861 81.7984 80.075 82.5187 80.2544L99.9543 84.5538C101.892 85.037 103.906 85.1307 105.881 84.8295C107.855 84.5283 109.75 83.8383 111.456 82.7992C114.35 81.0432 116.429 78.2101 117.239 74.9213C118.048 71.6325 117.522 68.1566 115.775 65.2559L107.14 50.9593C106.6 50.0703 105.73 49.4313 104.721 49.1819C103.712 48.9325 102.645 49.0931 101.754 49.6284Z" fill="white"/>
<path fill-rule="evenodd" clip-rule="evenodd" d="M79.3836 46.7871C80.3337 46.2119 81.4732 46.0382 82.5514 46.304C83.6295 46.5699 84.558 47.2535 85.1326 48.2046L88.2448 53.3399C88.5115 52.9555 88.8414 52.6177 89.2212 52.3412C89.7192 51.9788 90.2909 51.7308 90.8956 51.6149C91.5002 51.499 92.123 51.518 92.7195 51.6706C93.2127 51.7968 93.6779 52.0117 94.0928 52.304C94.3534 51.8431 94.6994 51.435 95.1132 51.1019C95.6101 50.702 96.1917 50.4209 96.8136 50.2801C97.4355 50.1392 98.0813 50.1423 98.7018 50.2892C99.2185 50.4114 99.7063 50.6307 100.14 50.9343C100.492 50.307 101.001 49.7797 101.62 49.4059L101.62 49.4055C102.57 48.8348 103.708 48.6637 104.783 48.9295C105.859 49.1954 106.786 49.8765 107.362 50.8242L107.362 50.8248L115.997 65.1214L115.997 65.1217C117.78 68.0813 118.317 71.6279 117.491 74.9835C116.665 78.3389 114.543 81.2295 111.591 83.0212C109.855 84.0782 107.928 84.7801 105.92 85.0865C103.912 85.3928 101.863 85.2975 99.8918 84.8061C99.8917 84.806 99.8916 84.806 99.8914 84.806L82.4565 80.5068L82.4559 80.5066C81.6858 80.3148 80.9897 79.899 80.4555 79.3116C79.9212 78.7243 79.5727 77.9917 79.4539 77.2063C79.3351 76.4209 79.4513 75.6179 79.788 74.8986C80.1246 74.1793 80.6665 73.5759 81.3453 73.1645C82.1612 72.669 83.0812 72.3707 84.0324 72.2933L84.0327 72.2933L89.6281 71.8459L77.9674 52.5416C77.9674 52.5416 77.9674 52.5416 77.9674 52.5416C77.3928 51.5906 77.2192 50.45 77.4848 49.3708C77.7504 48.2916 78.4334 47.3622 79.3836 46.7871ZM82.4271 46.8088C81.4827 46.576 80.4846 46.7282 79.6523 47.2319C78.82 47.7357 78.2217 48.5498 77.9891 49.4951C77.7565 50.4404 77.9085 51.4395 78.4118 52.2726L90.2901 71.937C90.3366 72.0141 90.34 72.1099 90.2989 72.1901C90.2579 72.2703 90.1782 72.3234 90.0885 72.3306L84.0745 72.8115C84.0743 72.8115 84.0742 72.8115 84.0741 72.8115C83.2035 72.8824 82.3614 73.1555 81.6146 73.609C81.0235 73.9672 80.5514 74.4928 80.2583 75.1191C79.9652 75.7454 79.864 76.4446 79.9674 77.1285C80.0709 77.8124 80.3743 78.4502 80.8395 78.9616C81.3046 79.4729 81.9105 79.8349 82.5808 80.002C82.581 80.002 82.5812 80.0021 82.5814 80.0021L100.016 84.3014L100.017 84.3015C101.921 84.7764 103.901 84.8685 105.841 84.5725C107.782 84.2765 109.644 83.5983 111.321 82.5771L111.321 82.5769C114.156 80.8566 116.193 78.081 116.987 74.8591C117.78 71.6372 117.264 68.2321 115.552 65.3904M115.552 65.3901L106.918 51.0943C106.918 51.0941 106.918 51.0939 106.918 51.0938C106.413 50.2637 105.601 49.6671 104.659 49.4343C103.716 49.2014 102.72 49.3512 101.888 49.8511C101.266 50.2267 100.771 50.7792 100.465 51.438C100.431 51.5109 100.365 51.5639 100.287 51.5818C100.209 51.5997 100.127 51.5803 100.065 51.5294C99.6329 51.1749 99.1259 50.9237 98.5823 50.7951C98.0387 50.6664 97.473 50.6637 96.9282 50.7871C96.3834 50.9105 95.874 51.1568 95.4387 51.5071C95.0034 51.8574 94.6537 52.3026 94.4164 52.8087C94.3823 52.8814 94.3165 52.9343 94.2383 52.9519C94.16 52.9695 94.078 52.9499 94.0161 52.8988C93.6 52.5553 93.1134 52.308 92.5909 52.1743C92.0684 52.0406 91.5229 52.024 90.9933 52.1255C90.4636 52.227 89.9628 52.4443 89.5266 52.7617C89.0905 53.0792 88.7296 53.489 88.4698 53.962C88.4251 54.0434 88.3405 54.0947 88.2477 54.0967C88.155 54.0987 88.0683 54.051 88.0202 53.9716L84.6882 48.4736C84.1849 47.6405 83.3716 47.0417 82.4271 46.8088" fill="#102360"/>
<path fill-rule="evenodd" clip-rule="evenodd" d="M88.0724 53.4787C88.1954 53.4049 88.3549 53.4448 88.4287 53.5679L94.9677 64.4749C95.0415 64.598 95.0016 64.7577 94.8786 64.8316C94.7557 64.9054 94.5961 64.8655 94.5223 64.7424L87.9833 53.8354C87.9095 53.7123 87.9494 53.5526 88.0724 53.4787Z" fill="#102360"/>
<path fill-rule="evenodd" clip-rule="evenodd" d="M93.9597 52.3852C94.0837 52.313 94.2427 52.3551 94.3148 52.4792L99.7657 61.8604C99.8378 61.9845 99.7957 62.1436 99.6718 62.2158C99.5478 62.288 99.3888 62.2459 99.3167 62.1218L93.8658 52.7406C93.7937 52.6165 93.8358 52.4574 93.9597 52.3852Z" fill="#102360"/>
<path fill-rule="evenodd" clip-rule="evenodd" d="M100.066 51.0748C100.19 51.0029 100.349 51.0454 100.421 51.1696L105.214 59.4617C105.286 59.5859 105.244 59.7449 105.12 59.8168C104.996 59.8887 104.837 59.8463 104.765 59.722L99.971 51.43C99.8992 51.3057 99.9416 51.1467 100.066 51.0748Z" fill="#102360"/>
<path fill-rule="evenodd" clip-rule="evenodd" d="M82.9567 44.5401C82.1779 44.3529 81.3693 44.325 80.5794 44.4581C79.7895 44.5911 79.0346 44.8824 78.3598 45.3145C77.6851 45.7465 77.1044 46.3104 76.6525 46.9724C76.2007 47.6345 75.887 48.381 75.7302 49.1672C75.5734 49.9535 75.5768 50.7633 75.7402 51.5482C75.9035 52.3331 76.2234 53.077 76.6808 53.7352C76.7627 53.853 76.7336 54.015 76.6159 54.097C76.4982 54.179 76.3363 54.1499 76.2544 54.032C75.7572 53.3164 75.4093 52.5077 75.2317 51.6542C75.0541 50.8008 75.0504 49.9203 75.2209 49.0655C75.3913 48.2106 75.7324 47.399 76.2237 46.6792C76.7149 45.9594 77.3463 45.3463 78.0799 44.8765C78.8136 44.4068 79.6344 44.0901 80.4932 43.9454C81.352 43.8007 82.2311 43.8311 83.078 44.0346C83.9248 44.2381 84.7219 44.6106 85.4214 45.1298C86.121 45.649 86.7087 46.3041 87.1493 47.0561C87.2219 47.1799 87.1804 47.3392 87.0567 47.4118C86.933 47.4844 86.7739 47.4429 86.7013 47.3191C86.2961 46.6275 85.7555 46.0249 85.1121 45.5474C84.4687 45.0699 83.7356 44.7273 82.9567 44.5401Z" fill="white"/>
<path fill-rule="evenodd" clip-rule="evenodd" d="M1.61213 33.8597C1.74021 33.7951 1.89636 33.8467 1.9609 33.9749L24.4864 78.7233C24.5509 78.8516 24.4994 79.0079 24.3713 79.0724C24.2433 79.137 24.0871 79.0855 24.0226 78.9573L1.49707 34.2088C1.43253 34.0806 1.48405 33.9243 1.61213 33.8597Z" fill="white"/>
</svg>
