<svg width="15" height="18" viewBox="0 0 15 18" fill="none" xmlns="http://www.w3.org/2000/svg">
<path fill-rule="evenodd" clip-rule="evenodd" d="M5.68594 2.18602C5.72501 2.14695 5.778 2.125 5.83325 2.125H9.16658C9.22184 2.125 9.27483 2.14695 9.3139 2.18602C9.35297 2.22509 9.37492 2.27808 9.37492 2.33333V4.20833H5.62492V2.33333C5.62492 2.27808 5.64687 2.22509 5.68594 2.18602ZM4.37492 4.20833V2.33333C4.37492 1.94656 4.52856 1.57563 4.80205 1.30214C5.07554 1.02865 5.44648 0.875 5.83325 0.875H9.16658C9.55336 0.875 9.92429 1.02865 10.1978 1.30214C10.4713 1.57563 10.6249 1.94656 10.6249 2.33333V4.20833H13.3259H13.3392H14.1666C14.5118 4.20833 14.7916 4.48816 14.7916 4.83333C14.7916 5.17851 14.5118 5.45833 14.1666 5.45833H13.9083L13.1247 14.8614C13.1174 15.459 12.8769 16.0306 12.4537 16.4538C12.0239 16.8836 11.441 17.125 10.8333 17.125H4.16658C3.5588 17.125 2.9759 16.8836 2.54613 16.4538C2.12298 16.0306 1.8824 15.459 1.87509 14.8614L1.0915 5.45833H0.833252C0.488074 5.45833 0.208252 5.17851 0.208252 4.83333C0.208252 4.48816 0.488074 4.20833 0.833252 4.20833H1.66067H1.67389H4.37492ZM9.99992 5.45833H4.99992H2.34583L3.12276 14.7814C3.1242 14.7987 3.12492 14.816 3.12492 14.8333C3.12492 15.1096 3.23466 15.3746 3.43002 15.5699C3.62537 15.7653 3.89032 15.875 4.16658 15.875H10.8333C11.1095 15.875 11.3745 15.7653 11.5698 15.5699C11.7652 15.3746 11.8749 15.1096 11.8749 14.8333C11.8749 14.816 11.8756 14.7987 11.8771 14.7814L12.654 5.45833H9.99992ZM5.83325 7.54167C6.17843 7.54167 6.45825 7.82149 6.45825 8.16667V13.1667C6.45825 13.5118 6.17843 13.7917 5.83325 13.7917C5.48807 13.7917 5.20825 13.5118 5.20825 13.1667V8.16667C5.20825 7.82149 5.48807 7.54167 5.83325 7.54167ZM9.79158 8.16667C9.79158 7.82149 9.51176 7.54167 9.16658 7.54167C8.82141 7.54167 8.54158 7.82149 8.54158 8.16667V13.1667C8.54158 13.5118 8.82141 13.7917 9.16658 13.7917C9.51176 13.7917 9.79158 13.5118 9.79158 13.1667V8.16667Z" fill="#FE5500"/>
</svg>
