<svg width="14" height="20" viewBox="0 0 14 20" fill="none" xmlns="http://www.w3.org/2000/svg">
<path fill-rule="evenodd" clip-rule="evenodd" d="M4 0.25C3.58579 0.25 3.25 0.585786 3.25 1V3.32501C1.53832 3.67247 0.25 5.18578 0.25 7V13C0.25 14.8142 1.53832 16.3275 3.25 16.675V19C3.25 19.4142 3.58579 19.75 4 19.75H10C10.4142 19.75 10.75 19.4142 10.75 19V16.675C12.4617 16.3275 13.75 14.8142 13.75 13V7C13.75 5.18578 12.4617 3.67247 10.75 3.32501V1C10.75 0.585786 10.4142 0.25 10 0.25H4ZM9.25 3.25V1.75H4.75V3.25H9.25ZM4 4.75C2.75736 4.75 1.75 5.75736 1.75 7V13C1.75 14.2426 2.75736 15.25 4 15.25H10C11.2426 15.25 12.25 14.2426 12.25 13V7C12.25 5.75736 11.2426 4.75 10 4.75H4ZM9.25 18.25V16.75H4.75V18.25H9.25Z" fill="#A5ADC0"/>
</svg>
