<svg width="9" height="15" viewBox="0 0 9 15" fill="none" xmlns="http://www.w3.org/2000/svg">
<path fill-rule="evenodd" clip-rule="evenodd" d="M1.5 1.28571C1.38165 1.28571 1.28571 1.38165 1.28571 1.5C1.28571 1.61835 1.38165 1.71429 1.5 1.71429C1.61835 1.71429 1.71429 1.61835 1.71429 1.5C1.71429 1.38165 1.61835 1.28571 1.5 1.28571ZM0 1.5C0 0.671573 0.671573 0 1.5 0C2.32843 0 3 0.671573 3 1.5C3 2.32843 2.32843 3 1.5 3C0.671573 3 0 2.32843 0 1.5ZM1.28571 7.5C1.28571 7.38165 1.38165 7.28571 1.5 7.28571C1.61835 7.28571 1.71429 7.38165 1.71429 7.5C1.71429 7.61835 1.61835 7.71429 1.5 7.71429C1.38165 7.71429 1.28571 7.61835 1.28571 7.5ZM1.5 6C0.671573 6 0 6.67157 0 7.5C0 8.32843 0.671573 9 1.5 9C2.32843 9 3 8.32843 3 7.5C3 6.67157 2.32843 6 1.5 6ZM1.28571 13.5C1.28571 13.3817 1.38165 13.2857 1.5 13.2857C1.61835 13.2857 1.71429 13.3817 1.71429 13.5C1.71429 13.6183 1.61835 13.7143 1.5 13.7143C1.38165 13.7143 1.28571 13.6183 1.28571 13.5ZM1.5 12C0.671573 12 0 12.6716 0 13.5C0 14.3284 0.671573 15 1.5 15C2.32843 15 3 14.3284 3 13.5C3 12.6716 2.32843 12 1.5 12ZM7.5 1.28571C7.38165 1.28571 7.28571 1.38165 7.28571 1.5C7.28571 1.61835 7.38165 1.71429 7.5 1.71429C7.61835 1.71429 7.71429 1.61835 7.71429 1.5C7.71429 1.38165 7.61835 1.28571 7.5 1.28571ZM6 1.5C6 0.671573 6.67157 0 7.5 0C8.32843 0 9 0.671573 9 1.5C9 2.32843 8.32843 3 7.5 3C6.67157 3 6 2.32843 6 1.5ZM7.28571 7.5C7.28571 7.38165 7.38165 7.28571 7.5 7.28571C7.61835 7.28571 7.71429 7.38165 7.71429 7.5C7.71429 7.61835 7.61835 7.71429 7.5 7.71429C7.38165 7.71429 7.28571 7.61835 7.28571 7.5ZM7.5 6C6.67157 6 6 6.67157 6 7.5C6 8.32843 6.67157 9 7.5 9C8.32843 9 9 8.32843 9 7.5C9 6.67157 8.32843 6 7.5 6ZM7.28571 13.5C7.28571 13.3817 7.38165 13.2857 7.5 13.2857C7.61835 13.2857 7.71429 13.3817 7.71429 13.5C7.71429 13.6183 7.61835 13.7143 7.5 13.7143C7.38165 13.7143 7.28571 13.6183 7.28571 13.5ZM7.5 12C6.67157 12 6 12.6716 6 13.5C6 14.3284 6.67157 15 7.5 15C8.32843 15 9 14.3284 9 13.5C9 12.6716 8.32843 12 7.5 12Z" fill="#A5ADC0"/>
</svg>
