<svg width="15" height="15" viewBox="0 0 15 15" fill="none" xmlns="http://www.w3.org/2000/svg">
<path fill-rule="evenodd" clip-rule="evenodd" d="M11.75 0.768005C10.9591 0.768005 10.2006 1.08218 9.64139 1.64142L8.81276 2.47005C8.81118 2.47159 8.80961 2.47314 8.80805 2.4747C8.80649 2.47627 8.80494 2.47783 8.8034 2.47941L0.891387 10.3914C0.774176 10.5086 0.708328 10.6676 0.708328 10.8334V14.1667C0.708328 14.5119 0.98815 14.7917 1.33333 14.7917H4.66666C4.83242 14.7917 4.99139 14.7258 5.1086 14.6086L13.8586 5.85864C14.4178 5.2994 14.732 4.54091 14.732 3.75003C14.732 2.95915 14.4178 2.20066 13.8586 1.64142C13.2994 1.08218 12.5409 0.768005 11.75 0.768005ZM9.25002 3.80055L1.95833 11.0922V13.5417H4.40778L11.6995 6.25L9.25002 3.80055ZM12.5834 5.36612L12.9747 4.97475C13.2995 4.64994 13.482 4.20939 13.482 3.75003C13.482 3.29067 13.2995 2.85012 12.9747 2.5253C12.6499 2.20049 12.2094 2.01801 11.75 2.01801C11.2906 2.01801 10.8501 2.20049 10.5253 2.5253L10.1339 2.91667L12.5834 5.36612Z" fill="#A5ADC0"/>
</svg>
