<svg width="28" height="28" viewBox="0 0 28 28" fill="none" xmlns="http://www.w3.org/2000/svg">
<path fill-rule="evenodd" clip-rule="evenodd" d="M1.36613 19.0912C0.116456 17.8416 0.116455 15.8154 1.36613 14.5658L4.19456 11.7373C5.44424 10.4876 7.47037 10.4876 8.72004 11.7373L10.2285 13.2458L13.2455 10.2288L11.737 8.72033C10.4874 7.47066 10.4874 5.44453 11.737 4.19485L14.5655 1.36642C15.8151 0.116746 17.8413 0.116746 19.0909 1.36642L20.6307 2.9062C21.8804 2.01558 23.6266 2.13085 24.7478 3.25204C25.869 4.37323 25.9843 6.11941 25.0936 7.36912L26.6334 8.9089C27.8831 10.1586 27.8831 12.1847 26.6334 13.4344L23.805 16.2628C22.5553 17.5125 20.5292 17.5125 19.2795 16.2628L17.771 14.7543L14.754 17.7713L16.2625 19.2798C17.5122 20.5295 17.5122 22.5556 16.2625 23.8053L13.4341 26.6337C12.1844 27.8834 10.1583 27.8834 8.90861 26.6337L7.36883 25.0939C6.11912 25.9846 4.37294 25.8693 3.25175 24.7481C2.13056 23.6269 2.01528 21.8807 2.90591 20.631L1.36613 19.0912ZM17.771 12.1144L20.5994 14.9429C21.1201 15.4636 21.9644 15.4636 22.4851 14.9429L25.3135 12.1144C25.8342 11.5937 25.8342 10.7495 25.3135 10.2288L22.4851 7.4004L23.4279 6.45759C23.9486 5.93689 23.9486 5.09267 23.4279 4.57198C22.9072 4.05128 22.0629 4.05128 21.5422 4.57197L20.5994 5.51478L17.771 2.68636C17.2503 2.16566 16.4061 2.16566 15.8854 2.68636L13.057 5.51478C12.5363 6.03548 12.5363 6.8797 13.057 7.4004L15.8854 10.2288L10.2285 15.8857L7.40011 13.0573C6.87941 12.5366 6.03519 12.5366 5.51449 13.0573L2.68607 15.8857C2.16537 16.4064 2.16537 17.2506 2.68607 17.7713L5.51449 20.5997L4.57168 21.5425C4.05099 22.0632 4.05099 22.9075 4.57168 23.4282C5.09238 23.9489 5.9366 23.9489 6.4573 23.4282L7.40011 22.4853L10.2285 25.3138C10.7492 25.8345 11.5935 25.8345 12.1142 25.3138L14.9426 22.4853C15.4633 21.9646 15.4633 21.1204 14.9426 20.5997L12.1142 17.7713L17.771 12.1144Z" fill="#1CAEC9"/>
</svg>
