<svg width="14" height="14" viewBox="0 0 14 14" fill="none" xmlns="http://www.w3.org/2000/svg">
<path fill-rule="evenodd" clip-rule="evenodd" d="M1.37646 0.576906C1.44293 0.553595 1.51286 0.541687 1.5833 0.541687H12.4166C12.4871 0.541687 12.557 0.553595 12.6235 0.576906C12.8335 0.650565 13.0239 0.771318 13.18 0.929916C13.3362 1.08852 13.454 1.28075 13.5243 1.4919C13.5947 1.70304 13.6158 1.92749 13.5861 2.14806C13.5563 2.36863 13.4765 2.57946 13.3526 2.76441C13.3355 2.79001 13.3165 2.81431 13.2958 2.83711L9.29163 7.24165V12.8334C9.29163 13.0701 9.15788 13.2865 8.94614 13.3924C8.7344 13.4982 8.48102 13.4754 8.29163 13.3334L4.9583 10.8334C4.80092 10.7153 4.7083 10.5301 4.7083 10.3334V7.24165L0.704171 2.83711C0.683445 2.81431 0.664434 2.79001 0.647292 2.76441C0.523466 2.57946 0.443614 2.36863 0.413854 2.14806C0.384093 1.9275 0.405211 1.70304 0.475594 1.4919C0.545976 1.28075 0.663753 1.08851 0.819903 0.929916C0.976053 0.771318 1.16643 0.650564 1.37646 0.576906ZM1.72733 1.79169C1.72151 1.79644 1.71593 1.80152 1.71063 1.8069C1.68833 1.82955 1.6715 1.85702 1.66145 1.88718C1.65139 1.91734 1.64838 1.94941 1.65263 1.98092C1.65549 2.00217 1.66161 2.02278 1.67072 2.04205L5.79576 6.5796C5.90035 6.69464 5.9583 6.84454 5.9583 7.00002V10.0209L8.04163 11.5834V7.00002C8.04163 6.84454 8.09958 6.69464 8.20417 6.5796L12.3292 2.04205C12.3383 2.02278 12.3444 2.00216 12.3473 1.98092C12.3516 1.94941 12.3485 1.91735 12.3385 1.88718C12.3284 1.85702 12.3116 1.82955 12.2893 1.8069C12.284 1.80152 12.2784 1.79644 12.2726 1.79169H1.72733Z" fill="#18338C"/>
</svg>
