<svg width="16" height="20" viewBox="0 0 16 20" fill="none" xmlns="http://www.w3.org/2000/svg">
<path fill-rule="evenodd" clip-rule="evenodd" d="M10 1.75C9.66848 1.75 9.35054 1.8817 9.11612 2.11612C8.8817 2.35054 8.75 2.66848 8.75 3V3.25H10C10.3315 3.25 10.6495 3.1183 10.8839 2.88388C11.1183 2.64946 11.25 2.33152 11.25 2V1.75H10ZM7.25 8.16403V5.79454C4.15183 6.16505 1.75 8.80204 1.75 12C1.75 15.4518 4.54822 18.25 8 18.25C11.4518 18.25 14.25 15.4518 14.25 12C14.25 8.80204 11.8482 6.16505 8.75 5.79454V8.164C9.05303 8.09447 9.35731 7.98289 9.66431 7.82928C10.0347 7.64392 10.4853 7.79396 10.6706 8.16438C10.856 8.53481 10.706 8.98536 10.3355 9.17072C8.79128 9.94342 7.20856 9.94342 5.66431 9.17072C5.29388 8.98536 5.14385 8.53481 5.3292 8.16438C5.51455 7.79396 5.9651 7.64392 6.33553 7.82928C6.64259 7.98292 6.94691 8.09451 7.25 8.16403ZM11.9445 3.94454C11.5671 4.32204 11.0911 4.57845 10.5771 4.68878C13.5904 5.75092 15.75 8.62326 15.75 12C15.75 16.2802 12.2802 19.75 8 19.75C3.71979 19.75 0.25 16.2802 0.25 12C0.25 7.97281 3.3217 4.66305 7.25 4.28582V3C7.25 2.27065 7.53973 1.57118 8.05546 1.05546C8.57118 0.539731 9.27065 0.25 10 0.25H12C12.4142 0.25 12.75 0.585786 12.75 1V2C12.75 2.72935 12.4603 3.42882 11.9445 3.94454Z" fill="#A5ADC0"/>
</svg>
