<svg width="21" height="22" viewBox="0 0 21 22" fill="none" xmlns="http://www.w3.org/2000/svg">
<path fill-rule="evenodd" clip-rule="evenodd" d="M17.189 2.21368C17.135 2.1451 17.049 2.10969 16.9624 2.12028L13.104 2.59132C13.0144 2.60225 12.9377 2.66061 12.9032 2.74401L11.3996 6.38323L13.8972 9.4754L17.7669 8.85412C17.8577 8.83954 17.9332 8.77625 17.9634 8.68935L19.2434 5.00661C19.2714 4.92605 19.2564 4.83677 19.2036 4.76978L17.189 2.21368ZM12.7403 10.4303L10.2106 7.29839L5.23478 7.84332L3.52794 12.1104C3.49434 12.1944 3.50875 12.29 3.5656 12.3604L6.46706 15.9515L10.9141 15.2182C11.0041 15.2034 11.0788 15.1407 11.1092 15.0547L12.7403 10.4303ZM5.32972 16.9306L2.39883 13.3031C2.00085 12.8105 1.90004 12.1413 2.13523 11.5533L3.84392 7.28159L1.07727 3.93529C0.813333 3.61606 0.85816 3.1433 1.17739 2.87937C1.49663 2.61543 1.96938 2.66026 2.23332 2.97949L5.02596 6.35722L10.0131 5.81106L11.5169 2.17124C11.7581 1.58743 12.2952 1.17892 12.9222 1.10237L16.7806 0.63133C17.3873 0.557259 17.9887 0.805122 18.3671 1.28518L20.3817 3.84128C20.7512 4.31018 20.8562 4.93512 20.6602 5.49905L19.3803 9.1818C19.1689 9.79006 18.6405 10.2331 18.0047 10.3352L14.1459 10.9547L12.5237 15.5537C12.3114 16.1557 11.788 16.5944 11.1581 16.6983L6.74829 17.4254L5.80421 20.7169C5.69001 21.1151 5.27466 21.3453 4.8765 21.2311C4.47834 21.1169 4.24815 20.7015 4.36235 20.3034L5.32972 16.9306Z" fill="#A5ADC0"/>
</svg>
