<svg width="21" height="15" viewBox="0 0 21 15" fill="none" xmlns="http://www.w3.org/2000/svg">
<path fill-rule="evenodd" clip-rule="evenodd" d="M15.6775 0.23013C15.5051 0.0720993 15.2675 -0.0111552 15.0241 0.00120384C14.7806 0.0135629 14.5544 0.120366 14.4021 0.294882L10.2636 5.03694L6.31196 3.22578C5.92532 3.04858 5.45524 3.16301 5.21546 3.49271L0.644047 9.77837C0.381461 10.1394 0.487895 10.6273 0.881775 10.868C1.27565 11.1087 1.80783 11.0111 2.07041 10.65L6.2221 4.94149L10.1167 6.72652C10.4782 6.89221 10.9169 6.8039 11.1694 6.51459L15.1425 1.96202L19.0368 5.53173C19.3715 5.83857 19.9142 5.83857 20.2489 5.53173C20.5837 5.22489 20.5837 4.72741 20.2489 4.42057L15.6775 0.23013ZM1.35714 13C0.883756 13 0.5 13.3358 0.5 13.75C0.5 14.1642 0.883756 14.5 1.35714 14.5H19.6429C20.1162 14.5 20.5 14.1642 20.5 13.75C20.5 13.3358 20.1162 13 19.6429 13H1.35714Z" fill="#A5ADC0"/>
</svg>
