<svg width="27" height="24" viewBox="0 0 27 24" fill="none" xmlns="http://www.w3.org/2000/svg">
<path fill-rule="evenodd" clip-rule="evenodd" d="M9.25066 2.68334C8.47278 2.60036 7.68615 2.67934 6.94029 2.91531C6.19444 3.15128 5.50552 3.53912 4.91692 4.05442C4.32833 4.56972 3.8528 5.2013 3.52028 5.90941C3.18777 6.61752 3.00547 7.3868 2.98488 8.16882C2.96428 8.95084 3.10582 9.72865 3.40059 10.4533C3.69537 11.1779 4.13699 11.8337 4.69764 12.3792L4.70395 12.3854L4.70393 12.3854L14.0002 21.5925L23.2966 12.3854C23.3211 12.3611 23.3466 12.3383 23.3729 12.3171C23.8944 11.7857 24.3064 11.1565 24.5849 10.4652C24.8763 9.74188 25.0152 8.96616 24.9931 8.18662C24.9709 7.40709 24.788 6.64052 24.456 5.9349C24.1239 5.22928 23.6498 4.59979 23.0633 4.08583C22.4767 3.57188 21.7904 3.18452 21.0473 2.948C20.3042 2.71148 19.5203 2.63089 18.7446 2.71128C17.9689 2.79166 17.2181 3.03129 16.5393 3.41517C15.8605 3.79905 15.2682 4.31891 14.7995 4.94222C14.61 5.19423 14.3128 5.34212 13.9975 5.34124C13.6821 5.34036 13.3857 5.19083 13.1976 4.93776C12.731 4.3099 12.1394 3.78545 11.4601 3.39746C10.7808 3.00946 10.0285 2.76632 9.25066 2.68334ZM24.6238 13.8858L14.7039 23.7104C14.3142 24.0964 13.6863 24.0964 13.2966 23.7104L3.29952 13.8094C2.54256 13.0719 1.94624 12.1859 1.54801 11.2069C1.1492 10.2265 0.957699 9.17418 0.985569 8.11616C1.01344 7.05813 1.26007 6.01733 1.70995 5.05931C2.15982 4.10128 2.80318 3.24678 3.59952 2.54961C4.39586 1.85245 5.32792 1.32771 6.33702 1.00846C7.34611 0.68921 8.41038 0.582354 9.4628 0.69462C10.5152 0.806887 11.533 1.13585 12.452 1.66078C13.0185 1.98434 13.5399 2.37803 14.0044 2.8314C14.4691 2.38289 14.9898 1.99376 15.5548 1.67426C16.4732 1.1549 17.4889 0.830689 18.5384 0.721931C19.5879 0.613172 20.6485 0.722204 21.6539 1.0422C22.6593 1.3622 23.5878 1.88627 24.3814 2.58162C25.1749 3.27698 25.8164 4.12864 26.2656 5.0833C26.7149 6.03797 26.9622 7.07509 26.9922 8.12975C27.0223 9.18442 26.8342 10.2339 26.44 11.2126C26.0457 12.1912 25.4537 13.078 24.701 13.8173C24.6761 13.8417 24.6504 13.8645 24.6238 13.8858Z" fill="#1CAEC9"/>
</svg>
