<svg width="20" height="18" viewBox="0 0 20 18" fill="none" xmlns="http://www.w3.org/2000/svg">
<path fill-rule="evenodd" clip-rule="evenodd" d="M4.63574 1.95884C5.48571 1.67386 6.40403 1.66494 7.25937 1.93336C8.11472 2.20179 8.86327 2.73381 9.398 3.45335C9.53906 3.64316 9.76138 3.75533 9.99786 3.75599C10.2344 3.75666 10.4573 3.64575 10.5994 3.45673C10.9509 2.98925 11.3951 2.59935 11.9043 2.31144C12.4134 2.02353 12.9764 1.84381 13.5582 1.78352C14.14 1.72323 14.7279 1.78367 15.2853 1.96106C15.8426 2.13845 16.3573 2.42897 16.7972 2.81444C17.2371 3.1999 17.5927 3.67202 17.8418 4.20124C18.0908 4.73046 18.228 5.30538 18.2446 5.89003C18.2612 6.47468 18.157 7.05647 17.9384 7.59899C17.7296 8.11742 17.4206 8.58933 17.0295 8.98786C17.0097 9.00379 16.9906 9.02088 16.9722 9.03911L9.99995 15.9444L7.63172 13.5991C7.33741 13.3076 6.86254 13.3099 6.57107 13.6042C6.27961 13.8986 6.28191 14.3734 6.57623 14.6649L9.47223 17.5329C9.76452 17.8224 10.2354 17.8224 10.5277 17.5329L17.9676 10.1644C17.9876 10.1485 18.0069 10.1314 18.0255 10.1131C18.5901 9.55856 19.0341 8.8935 19.3298 8.1595C19.6255 7.42551 19.7665 6.63838 19.744 5.84738C19.7215 5.05638 19.5359 4.27854 19.199 3.56254C18.8621 2.84654 18.381 2.2078 17.7858 1.68628C17.1907 1.16477 16.4943 0.771712 15.7402 0.531714C14.9862 0.291717 14.1907 0.209943 13.4036 0.291512C12.6165 0.373081 11.8547 0.616236 11.1659 1.00576C10.7422 1.24538 10.3517 1.53721 10.0032 1.87358C9.35966 1.24548 8.57454 0.773965 7.70851 0.502184C6.55128 0.139018 5.30885 0.151085 4.15889 0.536658C3.00893 0.922231 2.01035 1.66156 1.30594 2.64892C0.601536 3.63628 0.227385 4.8211 0.236997 6.03394C0.24028 6.44814 0.578716 6.78126 0.992917 6.77797C1.40712 6.77469 1.74023 6.43625 1.73695 6.02205C1.72985 5.12561 2.00639 4.24987 2.52704 3.52008C3.04769 2.7903 3.78577 2.24383 4.63574 1.95884ZM7.71151 5.76283C7.60943 5.45657 7.32282 5.25 7 5.25C6.67718 5.25 6.39057 5.45657 6.28849 5.76283L4.77342 10.308L3.62404 8.58397C3.48494 8.37533 3.25076 8.25 3 8.25H1C0.585786 8.25 0.25 8.58579 0.25 9C0.25 9.41421 0.585786 9.75 1 9.75H2.59861L4.37596 12.416C4.53486 12.6544 4.81563 12.7814 5.09955 12.7434C5.38347 12.7053 5.62093 12.5089 5.71151 12.2372L7 8.37171L7.28849 9.23717C7.39057 9.54343 7.67718 9.75 8 9.75H11C11.4142 9.75 11.75 9.41421 11.75 9C11.75 8.58579 11.4142 8.25 11 8.25H8.54057L7.71151 5.76283Z" fill="#A5ADC0"/>
</svg>
