<svg width="14" height="19" viewBox="0 0 14 19" fill="none" xmlns="http://www.w3.org/2000/svg">
<path fill-rule="evenodd" clip-rule="evenodd" d="M6.99915 0.25C7.25304 0.250033 7.48968 0.378514 7.62799 0.591425L12.825 8.59142C12.8322 8.60256 12.8392 8.61389 12.8458 8.6254C13.4374 9.65159 13.7486 10.8154 13.748 11.9999C13.7475 13.1844 13.4353 14.348 12.8427 15.3736C12.2501 16.3992 11.3981 17.2509 10.3721 17.843C9.34623 18.4351 8.18257 18.7468 6.99805 18.7468C5.81353 18.7468 4.64986 18.4351 3.62395 17.843C2.59803 17.2509 1.74599 16.3992 1.15342 15.3736C0.56084 14.348 0.248595 13.1844 0.248048 11.9999C0.247506 10.8284 0.551869 9.67717 1.1309 8.65928C1.14273 8.63609 1.15584 8.61338 1.17021 8.59126L6.37021 0.591259C6.50858 0.378385 6.74525 0.249967 6.99915 0.25ZM2.44766 9.37831C1.98889 10.1755 1.74762 11.0794 1.74805 11.9992C1.74847 12.9205 1.99133 13.8255 2.45222 14.6232C2.91312 15.4209 3.57581 16.0833 4.37375 16.5438C5.17168 17.0044 6.07675 17.2468 6.99805 17.2468C7.91934 17.2468 8.82441 17.0044 9.62235 16.5438C10.4203 16.0833 11.083 15.4209 11.5439 14.6232C12.0048 13.8255 12.2476 12.9205 12.248 11.9992C12.2485 11.0844 12.0098 10.1854 11.5559 9.39131L6.99887 2.37646L2.44766 9.37831Z" fill="#A5ADC0"/>
</svg>
