<svg width="12" height="14" viewBox="0 0 12 14" fill="none" xmlns="http://www.w3.org/2000/svg">
<path fill-rule="evenodd" clip-rule="evenodd" d="M5.83398 4.3335C5.00558 4.3335 4.33398 5.00507 4.33398 5.83347C4.33398 6.66197 5.00558 7.33347 5.83398 7.33347C6.66238 7.33347 7.33398 6.66197 7.33398 5.83347C7.33398 5.00507 6.66238 4.3335 5.83398 4.3335ZM3.33398 5.83347C3.33398 4.45279 4.45328 3.3335 5.83398 3.3335C7.21468 3.3335 8.33398 4.45279 8.33398 5.83347C8.33398 7.21417 7.21468 8.33347 5.83398 8.33347C4.45328 8.33347 3.33398 7.21417 3.33398 5.83347Z" fill="#A5ADC0"/>
<path fill-rule="evenodd" clip-rule="evenodd" d="M5.83335 1C4.87745 1 3.94295 1.28346 3.1481 1.81454C2.35327 2.34563 1.73377 3.10048 1.36794 3.98364C1.00211 4.8668 0.906382 5.8386 1.09285 6.7762C1.27932 7.7137 1.73961 8.5749 2.41551 9.2509L5.83335 1ZM2.41556 9.2509L5.24475 12.0794L5.24485 12.0795C5.40105 12.2356 5.61285 12.3232 5.83365 12.3232C6.05455 12.3232 6.26635 12.2355 6.42265 12.0794L9.25115 9.2509C9.92705 8.575 10.3874 7.7137 10.5739 6.7762C10.7603 5.8386 10.6646 4.8668 10.2988 3.98364C9.93285 3.10048 9.31335 2.34563 8.51855 1.81454C7.72375 1.28346 6.78925 1 5.83335 1L2.41556 9.2509ZM9.60465 9.6045L9.95825 9.958C10.7741 9.1422 11.3296 8.1028 11.5547 6.9712C11.7797 5.8397 11.6642 4.6668 11.2227 3.60094C10.7811 2.53506 10.0335 1.62403 9.07415 0.98307C8.11485 0.34211 6.98705 0 5.83335 0C4.67965 0 3.55182 0.34211 2.59254 0.98307C1.63326 1.62403 0.885591 2.53506 0.444071 3.60094C0.00255129 4.6668 -0.112989 5.8397 0.112062 6.9712C0.337122 8.1028 0.892661 9.1422 1.70844 9.958L1.70849 9.9581L4.53785 12.7867L4.53795 12.7869C4.88175 13.1303 5.34775 13.3232 5.83365 13.3232C6.31955 13.3232 6.78565 13.1303 7.12935 12.7869L7.12955 12.7867L9.95825 9.958L9.60465 9.6045Z" fill="#A5ADC0"/>
</svg>
