<svg width="18" height="16" viewBox="0 0 18 16" fill="none" xmlns="http://www.w3.org/2000/svg">
<path fill-rule="evenodd" clip-rule="evenodd" d="M3.16667 0.708344C2.55888 0.708344 1.97598 0.949786 1.54621 1.37956C1.11644 1.80933 0.875 2.39222 0.875 3.00001V13C0.875 13.6078 1.11644 14.1907 1.54621 14.6205C1.97598 15.0502 2.55888 15.2917 3.16667 15.2917H9C9.60779 15.2917 10.1907 15.0502 10.6205 14.6205C11.0502 14.1907 11.2917 13.6078 11.2917 13V11.3333C11.2917 10.9882 11.0118 10.7083 10.6667 10.7083C10.3215 10.7083 10.0417 10.9882 10.0417 11.3333V13C10.0417 13.2763 9.93192 13.5412 9.73657 13.7366C9.54122 13.9319 9.27627 14.0417 9 14.0417H3.16667C2.8904 14.0417 2.62545 13.9319 2.4301 13.7366C2.23475 13.5412 2.125 13.2763 2.125 13V3.00001C2.125 2.72374 2.23475 2.45879 2.4301 2.26344C2.62545 2.06809 2.8904 1.95834 3.16667 1.95834H9C9.27627 1.95834 9.54122 2.06809 9.73657 2.26344C9.93192 2.45879 10.0417 2.72374 10.0417 3.00001V4.66668C10.0417 5.01185 10.3215 5.29168 10.6667 5.29168C11.0118 5.29168 11.2917 5.01185 11.2917 4.66668V3.00001C11.2917 2.39222 11.0502 1.80933 10.6205 1.37956C10.1907 0.949786 9.60779 0.708344 9 0.708344H3.16667ZM14.4419 5.05807C14.1979 4.81399 13.8021 4.81399 13.5581 5.05807C13.314 5.30215 13.314 5.69787 13.5581 5.94195L14.9911 7.37501H4.83333C4.48816 7.37501 4.20833 7.65483 4.20833 8.00001C4.20833 8.34519 4.48816 8.62501 4.83333 8.62501H14.9911L13.5581 10.0581C13.314 10.3021 13.314 10.6979 13.5581 10.942C13.8021 11.186 14.1979 11.186 14.4419 10.942L16.9419 8.44195C17.186 8.19787 17.186 7.80215 16.9419 7.55807L14.4419 5.05807Z" fill="#A5ADC0"/>
</svg>
