<svg width="20" height="20" viewBox="0 0 20 20" fill="none" xmlns="http://www.w3.org/2000/svg">
<path fill-rule="evenodd" clip-rule="evenodd" d="M14.4697 0.46967C14.7626 0.176777 15.2374 0.176777 15.5303 0.46967L17.5301 2.46947L17.5303 2.46967L17.5305 2.46987L19.5303 4.46967C19.8232 4.76256 19.8232 5.23744 19.5303 5.53033C19.2374 5.82322 18.7626 5.82322 18.4697 5.53033L17 4.06066L13.5607 7.5L15.0303 8.96967L16.0303 9.96967C16.3232 10.2626 16.3232 10.7374 16.0303 11.0303C15.7374 11.3232 15.2626 11.3232 14.9697 11.0303L14.5 10.5607L8.53033 16.5303C8.38968 16.671 8.19891 16.75 8 16.75H4.31066L1.53033 19.5303C1.23744 19.8232 0.762563 19.8232 0.46967 19.5303C0.176777 19.2374 0.176777 18.7626 0.46967 18.4697L3.25 15.6893V12C3.25 11.8011 3.32902 11.6103 3.46967 11.4697L4.96941 9.96993L4.96967 9.96967L4.96992 9.96942L7.96895 6.97039L7.96967 6.96967L7.97039 6.96895L9.43934 5.5L8.96967 5.03033C8.67678 4.73744 8.67678 4.26256 8.96967 3.96967C9.26256 3.67678 9.73744 3.67678 10.0303 3.96967L11.0295 4.96884L11.0303 4.96967L11.0312 4.97051L12.5 6.43934L15.9393 3L14.4697 1.53033C14.1768 1.23744 14.1768 0.762563 14.4697 0.46967ZM6.56066 10.5L8.5 8.56066L9.46967 9.53033C9.76256 9.82322 10.2374 9.82322 10.5303 9.53033C10.8232 9.23744 10.8232 8.76256 10.5303 8.46967L9.56066 7.5L10.5 6.56066L11.9697 8.03033L13.4393 9.5L7.68934 15.25H4.75V12.3107L5.5 11.5607L6.46967 12.5303C6.76256 12.8232 7.23744 12.8232 7.53033 12.5303C7.82322 12.2374 7.82322 11.7626 7.53033 11.4697L6.56066 10.5Z" fill="#A5ADC0"/>
</svg>
