<svg width="40" height="40" viewBox="0 0 40 40" fill="none" xmlns="http://www.w3.org/2000/svg">
<rect width="40" height="40" rx="20" fill="#F0FBFD"/>
<path fill-rule="evenodd" clip-rule="evenodd" d="M19.75 11C19.75 10.5858 19.4142 10.25 19 10.25C18.5858 10.25 18.25 10.5858 18.25 11V12V13C18.25 13.4142 18.5858 13.75 19 13.75C19.4142 13.75 19.75 13.4142 19.75 13V12.75H20C20.3315 12.75 20.6495 12.8817 20.8839 13.1161C21.1183 13.3505 21.25 13.6685 21.25 14V17.5C21.25 18.7598 20.7496 19.968 19.8588 20.8588C18.968 21.7496 17.7598 22.25 16.5 22.25C15.2402 22.25 14.032 21.7496 13.1412 20.8588C12.2504 19.968 11.75 18.7598 11.75 17.5V14C11.75 13.6685 11.8817 13.3505 12.1161 13.1161C12.3505 12.8817 12.6685 12.75 13 12.75H13.25V13C13.25 13.4142 13.5858 13.75 14 13.75C14.4142 13.75 14.75 13.4142 14.75 13V12V11C14.75 10.5858 14.4142 10.25 14 10.25C13.5858 10.25 13.25 10.5858 13.25 11V11.25H13C12.2707 11.25 11.5712 11.5397 11.0555 12.0555C10.5397 12.5712 10.25 13.2707 10.25 14V17.5C10.25 19.1576 10.9085 20.7473 12.0806 21.9194C12.9607 22.7996 14.0764 23.3901 15.2794 23.6297C15.3423 24.3002 15.5052 24.9587 15.7638 25.5831C16.103 26.4021 16.6002 27.1462 17.227 27.773C17.8538 28.3998 18.5979 28.897 19.4169 29.2362C20.2358 29.5754 21.1136 29.75 22 29.75C22.8864 29.75 23.7642 29.5754 24.5831 29.2362C25.4021 28.897 26.1462 28.3998 26.773 27.773C27.3998 27.1462 27.897 26.4021 28.2362 25.5831C28.5754 24.7642 28.75 23.8864 28.75 23V20.6465C29.9043 20.32 30.75 19.2588 30.75 18C30.75 16.4812 29.5188 15.25 28 15.25C26.4812 15.25 25.25 16.4812 25.25 18C25.25 19.2588 26.0957 20.32 27.25 20.6465V23C27.25 23.6894 27.1142 24.3721 26.8504 25.0091C26.5865 25.646 26.1998 26.2248 25.7123 26.7123C25.2248 27.1998 24.646 27.5865 24.0091 27.8504C23.3721 28.1142 22.6894 28.25 22 28.25C21.3106 28.25 20.6279 28.1142 19.9909 27.8504C19.354 27.5865 18.7752 27.1998 18.2877 26.7123C17.8002 26.2248 17.4135 25.646 17.1496 25.0091C16.9811 24.6022 16.8648 24.1767 16.8028 23.7427C18.3502 23.6677 19.8189 23.02 20.9194 21.9194C22.0915 20.7473 22.75 19.1576 22.75 17.5V14C22.75 13.2707 22.4603 12.5712 21.9445 12.0555C21.4288 11.5397 20.7293 11.25 20 11.25H19.75V11ZM28 19.25C28.6904 19.25 29.25 18.6904 29.25 18C29.25 17.3096 28.6904 16.75 28 16.75C27.3096 16.75 26.75 17.3096 26.75 18C26.75 18.6904 27.3096 19.25 28 19.25Z" fill="#1CAEC9"/>
</svg>
