<svg width="22" height="28" viewBox="0 0 22 28" fill="none" xmlns="http://www.w3.org/2000/svg">
<path d="M21.0656 12.6626C20.459 11.2971 19.577 10.0716 18.475 9.0626L17.5656 8.22823C17.5347 8.20067 17.4976 8.18112 17.4574 8.17128C17.4172 8.16144 17.3752 8.16163 17.3351 8.17181C17.295 8.18199 17.258 8.20186 17.2273 8.22968C17.1967 8.25749 17.1734 8.29241 17.1594 8.33135L16.7531 9.49697C16.5 10.2282 16.0344 10.9751 15.375 11.7095C15.3313 11.7563 15.2813 11.7688 15.2469 11.772C15.2125 11.7751 15.1594 11.7688 15.1125 11.7251C15.0687 11.6876 15.0469 11.6313 15.05 11.5751C15.1656 9.69385 14.6031 7.57198 13.3719 5.2626C12.3531 3.34386 10.9375 1.84698 9.16875 0.803233L7.87813 0.0438594C7.70938 -0.0561405 7.49375 0.0751092 7.50313 0.271984L7.57187 1.77198C7.61875 2.79698 7.5 3.70323 7.21875 4.45635C6.875 5.37823 6.38125 6.23448 5.75 7.00323C5.3107 7.53749 4.81278 8.02072 4.26562 8.44385C2.94783 9.45687 1.87629 10.7549 1.13125 12.2407C0.388043 13.7395 0.000906753 15.3897 0 17.0626C0 18.5376 0.290625 19.9657 0.865625 21.3126C1.42083 22.6094 2.22206 23.7863 3.225 24.7782C4.2375 25.7782 5.4125 26.5657 6.72188 27.1126C8.07812 27.6813 9.51562 27.9688 11 27.9688C12.4844 27.9688 13.9219 27.6813 15.2781 27.1157C16.5843 26.572 17.772 25.7791 18.775 24.7813C19.7875 23.7813 20.5812 22.6126 21.1344 21.3157C21.7085 19.9725 22.003 18.5265 22 17.0657C22 15.5407 21.6875 14.0595 21.0656 12.6626ZM17.2812 23.2657C15.6031 24.9282 13.375 25.8407 11 25.8407C8.625 25.8407 6.39687 24.9282 4.71875 23.2657C3.04688 21.6063 2.125 19.4063 2.125 17.0657C2.125 15.7063 2.43125 14.4032 3.03438 13.1907C3.62188 12.0063 4.49687 10.947 5.55937 10.1313C6.23699 9.6132 6.8516 9.01748 7.39062 8.35635C8.17188 7.40323 8.78438 6.34073 9.20938 5.2001C9.38371 4.7296 9.51038 4.24278 9.5875 3.74698C10.3406 4.44073 10.9719 5.27823 11.5 6.25948C12.5437 8.21572 13.025 9.95635 12.9312 11.4376C12.9089 11.7865 12.9658 12.1359 13.0979 12.4595C13.23 12.7832 13.4337 13.0727 13.6938 13.3063C13.9191 13.5099 14.1827 13.6667 14.4692 13.7676C14.7556 13.8684 15.0593 13.9113 15.3625 13.8938C15.9781 13.8626 16.5437 13.5907 16.9562 13.1313C17.3719 12.6657 17.7313 12.1907 18.0312 11.7063C18.4688 12.2657 18.8344 12.8751 19.125 13.5313C19.6219 14.6501 19.875 15.8407 19.875 17.0657C19.875 19.4063 18.9531 21.6095 17.2812 23.2657Z" fill="#1CAEC9"/>
</svg>
