<svg width="20" height="20" viewBox="0 0 20 20" fill="none" xmlns="http://www.w3.org/2000/svg">
<path fill-rule="evenodd" clip-rule="evenodd" d="M9.75 1.5C5.19365 1.5 1.5 5.19365 1.5 9.75C1.5 14.3063 5.19365 18 9.75 18C14.3063 18 18 14.3063 18 9.75C18 5.19365 14.3063 1.5 9.75 1.5ZM0 9.75C0 4.36522 4.36522 0 9.75 0C15.1348 0 19.5 4.36522 19.5 9.75C19.5 15.1348 15.1348 19.5 9.75 19.5C4.36522 19.5 0 15.1348 0 9.75Z" fill="#18338C"/>
<path fill-rule="evenodd" clip-rule="evenodd" d="M6 7.75C6 7.33579 6.33579 7 6.75 7H6.76C7.17421 7 7.51 7.33579 7.51 7.75C7.51 8.1642 7.17421 8.5 6.76 8.5H6.75C6.33579 8.5 6 8.1642 6 7.75Z" fill="#18338C"/>
<path fill-rule="evenodd" clip-rule="evenodd" d="M12 7.75C12 7.33579 12.3358 7 12.75 7H12.76C13.1742 7 13.51 7.33579 13.51 7.75C13.51 8.1642 13.1742 8.5 12.76 8.5H12.75C12.3358 8.5 12 8.1642 12 7.75Z" fill="#18338C"/>
<path fill-rule="evenodd" clip-rule="evenodd" d="M12.7749 14.3362C12.479 14.6261 12.0042 14.6213 11.7143 14.3254C11.4582 14.0641 11.1526 13.8565 10.8153 13.7147C10.478 13.573 10.1159 13.5 9.75 13.5C9.3841 13.5 9.022 13.573 8.6847 13.7147C8.3474 13.8565 8.0418 14.0641 7.7857 14.3254C7.49583 14.6213 7.02098 14.6261 6.72511 14.3362C6.42924 14.0463 6.4244 13.5715 6.71429 13.2756C7.11 12.8717 7.58232 12.5509 8.1036 12.3319C8.6248 12.1128 9.1846 12 9.75 12C10.3154 12 10.8752 12.1128 11.3964 12.3319C11.9177 12.5509 12.39 12.8717 12.7857 13.2756C13.0756 13.5715 13.0708 14.0463 12.7749 14.3362Z" fill="#18338C"/>
</svg>
