<svg width="18" height="20" viewBox="0 0 18 20" fill="none" xmlns="http://www.w3.org/2000/svg">
<path fill-rule="evenodd" clip-rule="evenodd" d="M8.11612 2.11612C8.35054 1.8817 8.66849 1.75 9.00001 1.75C9.33153 1.75 9.64947 1.8817 9.88389 2.11612C10.1183 2.35054 10.25 2.66848 10.25 3C10.25 3.29002 10.4172 3.55405 10.6794 3.67802C11.7048 4.16287 12.5789 4.9176 13.208 5.86132C13.834 6.80031 14.194 7.89117 14.25 9.01809V12C14.25 12.0301 14.2518 12.0602 14.2554 12.0901C14.3448 12.8284 14.6063 13.5354 15.0188 14.1542C15.0403 14.1864 15.0621 14.2183 15.0844 14.25H12H6.00001H2.91563C2.93787 14.2183 2.95974 14.1864 2.98123 14.1542C3.39374 13.5354 3.65521 12.8284 3.74457 12.0901C3.74819 12.0602 3.75001 12.0301 3.75001 12V9.01809C3.80599 7.89117 4.16601 6.80031 4.792 5.86132C5.41823 4.92198 6.28714 4.16987 7.30635 3.68479C7.34223 3.66871 7.37661 3.6499 7.40923 3.62862C7.50169 3.5686 7.57735 3.49051 7.6337 3.40135C7.71157 3.27814 7.75257 3.13381 7.75008 2.98684C7.75351 2.66008 7.88481 2.34743 8.11612 2.11612ZM5.25001 15.75H1.00001C0.659389 15.75 0.361544 15.5205 0.274759 15.1911C0.187975 14.8617 0.334047 14.5152 0.630443 14.3474C1.07321 14.0966 1.45091 13.7455 1.73316 13.3221C2.00747 12.9106 2.18416 12.4422 2.25001 11.9524V9C2.25001 8.98827 2.25028 8.97655 2.25083 8.96484C2.31677 7.55995 2.76377 6.19949 3.54392 5.02927C4.24369 3.97962 5.18783 3.11852 6.2925 2.51836C6.39043 1.96791 6.65472 1.45621 7.05546 1.05546C7.57119 0.539731 8.27066 0.25 9.00001 0.25C9.72935 0.25 10.4288 0.539731 10.9446 1.05546C11.3453 1.45621 11.6096 1.96791 11.7075 2.51836C12.8122 3.11853 13.7563 3.97962 14.4561 5.02927C15.2362 6.19949 15.6832 7.55995 15.7492 8.96484C15.7497 8.97655 15.75 8.98827 15.75 9V11.9524C15.8159 12.4422 15.9925 12.9106 16.2669 13.3221C16.5491 13.7455 16.9268 14.0966 17.3696 14.3474C17.666 14.5152 17.812 14.8617 17.7253 15.1911C17.6385 15.5205 17.3406 15.75 17 15.75H12.75V16C12.75 16.9946 12.3549 17.9484 11.6517 18.6517C10.9484 19.3549 9.99457 19.75 9.00001 19.75C8.00545 19.75 7.05162 19.3549 6.34836 18.6517C5.6451 17.9484 5.25001 16.9946 5.25001 16V15.75ZM11.25 15.75V16C11.25 16.5967 11.013 17.169 10.591 17.591C10.169 18.0129 9.59674 18.25 9.00001 18.25C8.40327 18.25 7.83097 18.0129 7.40902 17.591C6.98706 17.169 6.75001 16.5967 6.75001 16V15.75H11.25Z" fill="white"/>
</svg>
