<svg width="18" height="20" viewBox="0 0 18 20" fill="none" xmlns="http://www.w3.org/2000/svg">
<path fill-rule="evenodd" clip-rule="evenodd" d="M8.11606 2.11612C8.35048 1.8817 8.66843 1.75 8.99995 1.75C9.33147 1.75 9.64941 1.8817 9.88383 2.11612C10.1183 2.35054 10.2499 2.66848 10.2499 3C10.2499 3.29002 10.4172 3.55405 10.6793 3.67802C11.7047 4.16287 12.5788 4.9176 13.208 5.86132C13.8339 6.80031 14.194 7.89117 14.2499 9.01809V12C14.2499 12.0301 14.2518 12.0602 14.2554 12.0901C14.3447 12.8284 14.6062 13.5354 15.0187 14.1542C15.0402 14.1864 15.0621 14.2183 15.0843 14.25H11.9999H5.99995H2.91557C2.93781 14.2183 2.95968 14.1864 2.98117 14.1542C3.39368 13.5354 3.65515 12.8284 3.74451 12.0901C3.74813 12.0602 3.74995 12.0301 3.74995 12V9.01809C3.80593 7.89117 4.16595 6.80031 4.79193 5.86132C5.41817 4.92198 6.28708 4.16987 7.30629 3.68479C7.34217 3.66871 7.37655 3.6499 7.40917 3.62862C7.50163 3.5686 7.57729 3.49051 7.63364 3.40135C7.71151 3.27814 7.75251 3.13381 7.75002 2.98684C7.75345 2.66008 7.88475 2.34743 8.11606 2.11612ZM5.24995 15.75H0.999947C0.659328 15.75 0.361483 15.5205 0.274698 15.1911C0.187914 14.8617 0.333986 14.5152 0.630382 14.3474C1.07314 14.0966 1.45085 13.7455 1.7331 13.3221C2.00741 12.9106 2.1841 12.4422 2.24995 11.9524V9C2.24995 8.98827 2.25022 8.97655 2.25077 8.96484C2.31671 7.55995 2.76371 6.19949 3.54386 5.02927C4.24363 3.97962 5.18776 3.11852 6.29244 2.51836C6.39036 1.96791 6.65465 1.45621 7.0554 1.05546C7.57113 0.539731 8.2706 0.25 8.99995 0.25C9.72929 0.25 10.4288 0.539731 10.9445 1.05546C11.3452 1.45621 11.6095 1.96791 11.7075 2.51836C12.8121 3.11853 13.7563 3.97962 14.456 5.02927C15.2362 6.19949 15.6832 7.55995 15.7491 8.96484C15.7497 8.97655 15.7499 8.98827 15.7499 9V11.9524C15.8158 12.4422 15.9925 12.9106 16.2668 13.3221C16.549 13.7455 16.9268 14.0966 17.3695 14.3474C17.6659 14.5152 17.812 14.8617 17.7252 15.1911C17.6384 15.5205 17.3406 15.75 16.9999 15.75H12.7499V16C12.7499 16.9946 12.3549 17.9484 11.6516 18.6517C10.9483 19.3549 9.99451 19.75 8.99995 19.75C8.00539 19.75 7.05156 19.3549 6.3483 18.6517C5.64503 17.9484 5.24995 16.9946 5.24995 16V15.75ZM11.2499 15.75V16C11.2499 16.5967 11.0129 17.169 10.5909 17.591C10.169 18.0129 9.59668 18.25 8.99995 18.25C8.40321 18.25 7.83091 18.0129 7.40896 17.591C6.987 17.169 6.74995 16.5967 6.74995 16V15.75H11.2499Z" fill="#18338C"/>
</svg>
