<svg width="4" height="18" viewBox="0 0 4 18" fill="none" xmlns="http://www.w3.org/2000/svg">
<path fill-rule="evenodd" clip-rule="evenodd" d="M1.75 2C1.75 1.86193 1.86193 1.75 2 1.75C2.13807 1.75 2.25 1.86193 2.25 2C2.25 2.13807 2.13807 2.25 2 2.25C1.86193 2.25 1.75 2.13807 1.75 2ZM2 0.25C1.0335 0.25 0.25 1.0335 0.25 2C0.25 2.9665 1.0335 3.75 2 3.75C2.9665 3.75 3.75 2.9665 3.75 2C3.75 1.0335 2.9665 0.25 2 0.25ZM2 8.75C1.86193 8.75 1.75 8.86193 1.75 9C1.75 9.13807 1.86193 9.25 2 9.25C2.13807 9.25 2.25 9.13807 2.25 9C2.25 8.86193 2.13807 8.75 2 8.75ZM0.25 9C0.25 8.0335 1.0335 7.25 2 7.25C2.9665 7.25 3.75 8.0335 3.75 9C3.75 9.9665 2.9665 10.75 2 10.75C1.0335 10.75 0.25 9.9665 0.25 9ZM2 15.75C1.86193 15.75 1.75 15.8619 1.75 16C1.75 16.1381 1.86193 16.25 2 16.25C2.13807 16.25 2.25 16.1381 2.25 16C2.25 15.8619 2.13807 15.75 2 15.75ZM0.25 16C0.25 15.0335 1.0335 14.25 2 14.25C2.9665 14.25 3.75 15.0335 3.75 16C3.75 16.9665 2.9665 17.75 2 17.75C1.0335 17.75 0.25 16.9665 0.25 16Z" fill="#A5ADC0"/>
</svg>
