<svg width="18" height="4" viewBox="0 0 18 4" fill="none" xmlns="http://www.w3.org/2000/svg">
<path fill-rule="evenodd" clip-rule="evenodd" d="M16 1.75C16.1381 1.75 16.25 1.86193 16.25 2C16.25 2.13807 16.1381 2.25 16 2.25C15.8619 2.25 15.75 2.13807 15.75 2C15.75 1.86193 15.8619 1.75 16 1.75ZM17.75 2C17.75 1.0335 16.9665 0.25 16 0.25C15.0335 0.25 14.25 1.0335 14.25 2C14.25 2.9665 15.0335 3.75 16 3.75C16.9665 3.75 17.75 2.9665 17.75 2ZM9.25 2C9.25 1.86193 9.13807 1.75 9 1.75C8.86193 1.75 8.75 1.86193 8.75 2C8.75 2.13807 8.86193 2.25 9 2.25C9.13807 2.25 9.25 2.13807 9.25 2ZM9 0.25C9.9665 0.25 10.75 1.0335 10.75 2C10.75 2.9665 9.9665 3.75 9 3.75C8.0335 3.75 7.25 2.9665 7.25 2C7.25 1.0335 8.0335 0.25 9 0.25ZM2.25 2C2.25 1.86193 2.13807 1.75 2 1.75C1.86193 1.75 1.75 1.86193 1.75 2C1.75 2.13807 1.86193 2.25 2 2.25C2.13807 2.25 2.25 2.13807 2.25 2ZM2 0.249999C2.9665 0.249999 3.75 1.0335 3.75 2C3.75 2.9665 2.9665 3.75 2 3.75C1.0335 3.75 0.25 2.9665 0.25 2C0.25 1.0335 1.0335 0.249999 2 0.249999Z" fill="#A5ADC0"/>
</svg>
