<svg width="30" height="30" viewBox="0 0 30 30" fill="none" xmlns="http://www.w3.org/2000/svg">
<path fill-rule="evenodd" clip-rule="evenodd" d="M27.18 1.96288C27.0236 1.96288 26.6545 2.05414 26.0018 2.39392C25.34 2.73808 24.693 3.10997 24.0625 3.50859C23.3479 3.95999 22.5201 4.36577 21.5855 4.72918C20.6191 5.10399 19.6951 5.30607 18.8216 5.30607C18.4631 5.30607 18.235 5.34273 18.1046 5.3851C18.0907 5.38961 18.0771 5.39505 18.0639 5.4014C18.0269 5.4696 18.0002 5.54292 17.9848 5.61896C17.9685 5.79991 17.9617 5.98159 17.9645 6.16325C17.9645 7.26244 18.1339 8.31029 18.4705 9.31251C18.8159 10.3416 19.2282 11.1483 19.6911 11.7553C20.1873 12.4064 20.6778 12.8985 21.1577 13.2513C21.6523 13.6139 21.9782 13.7076 22.1648 13.7076C22.2545 13.7076 22.5258 13.6424 23.0326 13.2913C23.4962 12.9702 24.0242 12.4764 24.615 11.7855C25.2349 11.0529 25.7882 10.2665 26.2682 9.43555C26.7669 8.58162 27.1914 7.5631 27.5336 6.37021C27.8702 5.19688 28.0372 4.01377 28.0372 2.82007C28.0372 2.46399 27.9394 2.28555 27.827 2.17636C27.7031 2.05577 27.5157 1.96288 27.18 1.96288ZM25.2505 0.947622C25.9382 0.589919 26.6056 0.333252 27.18 0.333252C27.8547 0.333252 28.478 0.536956 28.9628 1.00792C29.4599 1.4911 29.6668 2.13155 29.6668 2.82007C29.6668 4.16859 29.477 5.50244 29.0997 6.81918C28.7282 8.11636 28.2548 9.26525 27.6746 10.2577C27.1457 11.1725 26.5363 12.0383 25.8535 12.8447C25.2082 13.5993 24.5783 14.2022 23.9615 14.63C23.3887 15.0276 22.7719 15.3373 22.1648 15.3373C21.4804 15.3373 20.8147 15.0211 20.193 14.5648C19.5599 14.0995 18.9618 13.4868 18.3955 12.7437C17.7966 11.9582 17.3118 10.9796 16.9256 9.83155C16.5302 8.64911 16.3307 7.41003 16.3348 6.16325C16.3348 5.87562 16.343 5.62384 16.3666 5.42829C16.4045 5.15618 16.4892 4.89265 16.6168 4.64933C16.8286 4.22399 17.1969 3.96488 17.6051 3.8337C17.962 3.71962 18.3784 3.67644 18.8216 3.67644C19.445 3.67644 20.1661 3.5314 20.9948 3.20955C21.8536 2.87547 22.5836 2.51533 23.1923 2.13073C23.8615 1.70764 24.5482 1.31292 25.2505 0.947622ZM10.3435 7.93384C8.79779 7.93384 7.38898 8.27851 6.10157 8.96133C4.80846 9.64822 3.80135 10.5681 3.06231 11.7235C2.33688 12.8408 1.95474 14.1461 1.96313 15.4782C1.96313 16.6483 2.17905 17.873 2.62313 19.1563C3.07209 20.4527 3.64653 21.6105 4.34238 22.6347C5.02601 23.6473 5.786 24.6061 6.61572 25.5029C7.41016 26.3544 8.15735 26.9915 8.85646 27.4315C9.28424 27.7004 9.62564 27.8618 9.88883 27.949L9.91327 27.8658C10.0762 27.3101 10.3549 26.5972 10.7346 25.7408C11.1154 24.866 11.6173 24.0492 12.2257 23.3143L12.2339 23.3061C12.8075 22.638 13.5319 21.9348 14.3972 21.1941C15.1319 20.56 15.8856 19.9483 16.6575 19.36C17.2196 18.9415 17.7422 18.4723 18.2187 17.9585C18.5487 17.5984 18.6668 17.3637 18.7051 17.2398C18.6604 17.1878 18.6128 17.1383 18.5625 17.0915C18.3042 16.8495 17.9596 16.5538 17.5253 16.205C17.0641 15.8343 16.686 15.4904 16.4147 15.1759L16.4131 15.1751C15.6111 14.2524 14.9514 13.2151 14.4559 12.0975C13.9653 10.9845 13.7079 9.87962 13.7079 8.79103C13.7124 8.6971 13.6901 8.60383 13.6435 8.52214C13.6182 8.4814 13.5628 8.41621 13.4235 8.3494C13.2288 8.25377 13.0273 8.17288 12.8205 8.1074C12.6804 8.06422 12.4425 8.02184 12.0782 7.99821C11.7848 7.97774 11.4912 7.96062 11.1974 7.94688C10.9129 7.93732 10.6282 7.93325 10.3435 7.93466V7.93384ZM5.33727 7.52236C6.87157 6.70755 8.54438 6.30421 10.3435 6.30421C10.7297 6.30421 11.0393 6.30829 11.2651 6.31807C11.4851 6.32622 11.7931 6.34496 12.1866 6.37103C12.6062 6.39873 12.9859 6.45251 13.2996 6.54866C13.5718 6.63259 13.8496 6.74422 14.1324 6.8811C14.4982 7.05792 14.8168 7.31622 15.036 7.67473C15.2438 8.01696 15.3375 8.39747 15.3375 8.79103C15.3375 9.61725 15.5331 10.4981 15.947 11.4392C16.3774 12.4087 16.9503 13.3084 17.6467 14.1085C17.8276 14.3171 18.1193 14.5909 18.5462 14.9339C18.9993 15.2981 19.3773 15.6216 19.6772 15.9019C19.8452 16.0545 19.9938 16.2272 20.1196 16.4161C20.2353 16.597 20.3527 16.8479 20.3527 17.1494C20.3527 17.8501 19.9322 18.4995 19.4197 19.0585C18.8759 19.6458 18.2794 20.182 17.6377 20.6604C16.8932 21.2284 16.166 21.8189 15.4573 22.431C14.6359 23.1334 13.9768 23.7779 13.4716 24.3638C12.9627 24.9811 12.5431 25.6668 12.2249 26.4008C11.855 27.2319 11.6105 27.8691 11.4777 28.3238C11.4132 28.5569 11.332 28.7851 11.2349 29.0066C11.1942 29.0938 11.1339 29.2103 11.0475 29.3178C10.9905 29.3863 10.7566 29.6666 10.3435 29.6666C9.60446 29.6666 8.8035 29.3219 7.98868 28.8102C7.13883 28.2749 6.28409 27.5358 5.42364 26.6118C4.53744 25.6545 3.7257 24.6308 2.9955 23.5498C2.21164 22.3968 1.57527 21.1086 1.08394 19.6884C0.586089 18.2551 0.333496 16.8504 0.333496 15.4774C0.333496 13.807 0.787348 12.2564 1.68935 10.846C2.58727 9.44207 3.8095 8.3331 5.33727 7.52155V7.52236Z" fill="#1CAEC9"/>
</svg>
