<svg width="16" height="20" viewBox="0 0 16 20" fill="none" xmlns="http://www.w3.org/2000/svg">
<path fill-rule="evenodd" clip-rule="evenodd" d="M9 7H14.5L9 1.5V7ZM2 0H10L16 6V18C16 19.1046 15.1046 20 14 20H2C0.89543 20 0 19.1046 0 18V2C0 0.89543 0.89543 0 2 0ZM6.1 9.4C6.08 9.44 5.81 11.16 4 14.09C4 14.09 0.5 15.91 1.33 17.27C2 18.35 3.65 17.23 5.07 14.59C5.07 14.59 6.89 13.95 9.31 13.77C9.31 13.77 13.17 15.5 13.7 13.66C14.22 11.8 10.64 12.22 10 12.41C10 12.41 8 11.06 7.5 9.2C7.5 9.2 8.64 5.25 6.89 5.3C5.14 5.35 5.8 8.43 6.1 9.4ZM6.91 10.44C6.94 10.45 7.38 11.65 8.8 12.9C8.8 12.9 6.47 13.36 5.41 13.8C5.41 13.8 6.41 12.07 6.91 10.44ZM10.84 13.16C11.42 13 13.17 13.31 13.1 13.64C13.04 13.97 10.84 13.16 10.84 13.16ZM3.77 15C3.24 16.24 2.33 17 2.1 17C1.87 17 2.8 15.4 3.77 15ZM6.91 8.07C6.91 8 6.55 5.87 6.91 5.92C7.45 6 6.91 8 6.91 8.07Z" fill="#DA4A24"/>
</svg>
