<svg width="118" height="86" viewBox="0 0 118 86" fill="none" xmlns="http://www.w3.org/2000/svg">
<path d="M107.084 19.2336H20.8589V76.0563H107.084V19.2336Z" fill="#8CDBE8"/>
<mask id="mask0_744_31638" style="mask-type:alpha" maskUnits="userSpaceOnUse" x="20" y="19" width="88" height="58">
<path d="M107.084 19.2336H20.8589V76.0563H107.084V19.2336Z" fill="#9BDEFF"/>
</mask>
<g mask="url(#mask0_744_31638)">
<path fill-rule="evenodd" clip-rule="evenodd" d="M21.4923 56.1179C21.5934 56.016 21.7578 56.0153 21.8596 56.1164L57.9072 91.9178C58.009 92.0189 58.0096 92.1835 57.9086 92.2854C57.8076 92.3873 57.6431 92.388 57.5413 92.2868L21.4938 56.4855C21.392 56.3844 21.3913 56.2198 21.4923 56.1179Z" fill="white"/>
<path fill-rule="evenodd" clip-rule="evenodd" d="M23.5971 5.88841C23.7262 5.82577 23.8815 5.87972 23.9441 6.00889L69.0055 99.0306C69.068 99.1598 69.0142 99.3153 68.8851 99.3779C68.7561 99.4406 68.6007 99.3866 68.5381 99.2575L23.4768 6.23571C23.4142 6.10654 23.4681 5.95104 23.5971 5.88841Z" fill="white"/>
<path fill-rule="evenodd" clip-rule="evenodd" d="M72.9952 -9.64156C73.1106 -9.5563 73.1351 -9.39355 73.0499 -9.27805L14.6171 69.9539C14.5319 70.0694 14.3693 70.0939 14.2539 70.0087C14.1385 69.9234 14.114 69.7607 14.1992 69.6451L72.632 -9.58681C72.7172 -9.70231 72.8798 -9.72682 72.9952 -9.64156Z" fill="white"/>
<path fill-rule="evenodd" clip-rule="evenodd" d="M112.247 28.5106C112.36 28.5983 112.381 28.7616 112.294 28.8752L57.93 99.303C57.8424 99.4166 57.6793 99.4376 57.5658 99.3498C57.4523 99.262 57.4314 99.0988 57.519 98.9852L111.883 28.5573C111.97 28.4437 112.133 28.4228 112.247 28.5106Z" fill="white"/>
<path fill-rule="evenodd" clip-rule="evenodd" d="M108.232 16.5378C108.314 16.6557 108.285 16.8177 108.167 16.8997L14.5564 82.0455C14.4386 82.1275 14.2768 82.0984 14.1949 81.9805C14.1131 81.8626 14.1421 81.7006 14.2599 81.6187L107.87 16.4728C107.988 16.3909 108.15 16.42 108.232 16.5378Z" fill="white"/>
<path fill-rule="evenodd" clip-rule="evenodd" d="M37.1846 -6.08709C37.2822 -6.19229 37.4465 -6.1984 37.5516 -6.10072L129.126 79.0007C129.231 79.0983 129.237 79.2628 129.14 79.368C129.042 79.4732 128.878 79.4793 128.773 79.3817L37.1982 -5.71973C37.0931 -5.81741 37.087 -5.98188 37.1846 -6.08709Z" fill="white"/>
<path fill-rule="evenodd" clip-rule="evenodd" d="M25.3225 -12.2965C25.4457 -12.3701 25.6051 -12.3297 25.6786 -12.2064L91.9618 99.011C92.0353 99.1343 91.995 99.2939 91.8718 99.3674C91.7486 99.4409 91.5892 99.4006 91.5157 99.2773L25.2325 -11.9401C25.159 -12.0634 25.1993 -12.223 25.3225 -12.2965Z" fill="white"/>
<path fill-rule="evenodd" clip-rule="evenodd" d="M61.0421 -14.0294C61.1505 -14.1235 61.3145 -14.1119 61.4085 -14.0034L112.284 44.6856C112.378 44.794 112.367 44.9582 112.258 45.0522C112.15 45.1463 111.986 45.1347 111.892 45.0263L61.0162 -13.6627C60.9222 -13.7711 60.9338 -13.9353 61.0421 -14.0294Z" fill="white"/>
<path fill-rule="evenodd" clip-rule="evenodd" d="M19.6947 39.1738C19.7534 39.0429 19.9071 38.9843 20.038 39.0431L131.092 88.9306C131.223 88.9894 131.281 89.1432 131.222 89.2742C131.164 89.4051 131.01 89.4637 130.879 89.4049L19.8253 39.5174C19.6945 39.4586 19.636 39.3048 19.6947 39.1738Z" fill="white"/>
<path fill-rule="evenodd" clip-rule="evenodd" d="M84.8416 -7.91695C84.9779 -7.87228 85.0522 -7.72546 85.0076 -7.58903L43.7273 118.593C43.6826 118.73 43.5359 118.804 43.3996 118.759C43.2633 118.715 43.189 118.568 43.2337 118.431L84.514 -7.75082C84.5586 -7.88725 84.7053 -7.96163 84.8416 -7.91695Z" fill="white"/>
</g>
<path fill-rule="evenodd" clip-rule="evenodd" d="M18.2178 16.8918C18.2178 16.7482 18.334 16.6318 18.4775 16.6318H19.7412C19.8846 16.6318 20.0008 16.7482 20.0008 16.8918C20.0008 17.0353 19.8846 17.1517 19.7412 17.1517H18.7372V18.1773C18.7372 18.3208 18.6209 18.4372 18.4775 18.4372C18.334 18.4372 18.2178 18.3208 18.2178 18.1773V16.8918ZM22.0089 16.8918C22.0089 16.7482 22.1252 16.6318 22.2686 16.6318H24.796C24.9394 16.6318 25.0557 16.7482 25.0557 16.8918C25.0557 17.0353 24.9394 17.1517 24.796 17.1517H22.2686C22.1252 17.1517 22.0089 17.0353 22.0089 16.8918ZM27.0638 16.8918C27.0638 16.7482 27.18 16.6318 27.3235 16.6318H29.8509C29.9943 16.6318 30.1106 16.7482 30.1106 16.8918C30.1106 17.0353 29.9943 17.1517 29.8509 17.1517H27.3235C27.18 17.1517 27.0638 17.0353 27.0638 16.8918ZM32.1186 16.8918C32.1186 16.7482 32.2349 16.6318 32.3783 16.6318H34.9058C35.0492 16.6318 35.1655 16.7482 35.1655 16.8918C35.1655 17.0353 35.0492 17.1517 34.9058 17.1517H32.3783C32.2349 17.1517 32.1186 17.0353 32.1186 16.8918ZM37.1735 16.8918C37.1735 16.7482 37.2898 16.6318 37.4332 16.6318H39.9606C40.1041 16.6318 40.2203 16.7482 40.2203 16.8918C40.2203 17.0353 40.1041 17.1517 39.9606 17.1517H37.4332C37.2898 17.1517 37.1735 17.0353 37.1735 16.8918ZM42.2284 16.8918C42.2284 16.7482 42.3447 16.6318 42.4881 16.6318H45.0155C45.1589 16.6318 45.2752 16.7482 45.2752 16.8918C45.2752 17.0353 45.1589 17.1517 45.0155 17.1517H42.4881C42.3447 17.1517 42.2284 17.0353 42.2284 16.8918ZM47.2833 16.8918C47.2833 16.7482 47.3995 16.6318 47.5429 16.6318H50.0704C50.2138 16.6318 50.3301 16.7482 50.3301 16.8918C50.3301 17.0353 50.2138 17.1517 50.0704 17.1517H47.5429C47.3995 17.1517 47.2833 17.0353 47.2833 16.8918ZM52.3381 16.8918C52.3381 16.7482 52.4544 16.6318 52.5978 16.6318H55.1252C55.2687 16.6318 55.3849 16.7482 55.3849 16.8918C55.3849 17.0353 55.2687 17.1517 55.1252 17.1517H52.5978C52.4544 17.1517 52.3381 17.0353 52.3381 16.8918ZM57.393 16.8918C57.393 16.7482 57.5092 16.6318 57.6527 16.6318H60.1801C60.3235 16.6318 60.4398 16.7482 60.4398 16.8918C60.4398 17.0353 60.3235 17.1517 60.1801 17.1517H57.6527C57.5092 17.1517 57.393 17.0353 57.393 16.8918ZM62.4478 16.8918C62.4478 16.7482 62.5641 16.6318 62.7075 16.6318H65.235C65.3784 16.6318 65.4947 16.7482 65.4947 16.8918C65.4947 17.0353 65.3784 17.1517 65.235 17.1517H62.7075C62.5641 17.1517 62.4478 17.0353 62.4478 16.8918ZM67.5027 16.8918C67.5027 16.7482 67.619 16.6318 67.7624 16.6318H70.2898C70.4333 16.6318 70.5495 16.7482 70.5495 16.8918C70.5495 17.0353 70.4333 17.1517 70.2898 17.1517H67.7624C67.619 17.1517 67.5027 17.0353 67.5027 16.8918ZM72.5576 16.8918C72.5576 16.7482 72.6738 16.6318 72.8173 16.6318H75.3447C75.4881 16.6318 75.6044 16.7482 75.6044 16.8918C75.6044 17.0353 75.4881 17.1517 75.3447 17.1517H72.8173C72.6738 17.1517 72.5576 17.0353 72.5576 16.8918ZM77.6124 16.8918C77.6124 16.7482 77.7287 16.6318 77.8721 16.6318H80.3996C80.543 16.6318 80.6592 16.7482 80.6592 16.8918C80.6592 17.0353 80.543 17.1517 80.3996 17.1517H77.8721C77.7287 17.1517 77.6124 17.0353 77.6124 16.8918ZM82.6673 16.8918C82.6673 16.7482 82.7836 16.6318 82.927 16.6318H85.4544C85.5978 16.6318 85.7141 16.7482 85.7141 16.8918C85.7141 17.0353 85.5978 17.1517 85.4544 17.1517H82.927C82.7836 17.1517 82.6673 17.0353 82.6673 16.8918ZM87.7222 16.8918C87.7222 16.7482 87.8384 16.6318 87.9819 16.6318H90.5093C90.6527 16.6318 90.769 16.7482 90.769 16.8918C90.769 17.0353 90.6527 17.1517 90.5093 17.1517H87.9819C87.8384 17.1517 87.7222 17.0353 87.7222 16.8918ZM92.777 16.8918C92.777 16.7482 92.8933 16.6318 93.0367 16.6318H95.5641C95.7076 16.6318 95.8238 16.7482 95.8238 16.8918C95.8238 17.0353 95.7076 17.1517 95.5641 17.1517H93.0367C92.8933 17.1517 92.777 17.0353 92.777 16.8918ZM97.8319 16.8918C97.8319 16.7482 97.9482 16.6318 98.0916 16.6318H100.619C100.762 16.6318 100.879 16.7482 100.879 16.8918C100.879 17.0353 100.762 17.1517 100.619 17.1517H98.0916C97.9482 17.1517 97.8319 17.0353 97.8319 16.8918ZM102.887 16.8918C102.887 16.7482 103.003 16.6318 103.146 16.6318H105.674C105.817 16.6318 105.934 16.7482 105.934 16.8918C105.934 17.0353 105.817 17.1517 105.674 17.1517H103.146C103.003 17.1517 102.887 17.0353 102.887 16.8918ZM107.942 16.8918C107.942 16.7482 108.058 16.6318 108.201 16.6318H109.465C109.608 16.6318 109.725 16.7482 109.725 16.8918V18.1773C109.725 18.3208 109.608 18.4372 109.465 18.4372C109.322 18.4372 109.205 18.3208 109.205 18.1773V17.1517H108.201C108.058 17.1517 107.942 17.0353 107.942 16.8918ZM109.465 20.4883C109.608 20.4883 109.725 20.6047 109.725 20.7483V23.3193C109.725 23.4629 109.608 23.5792 109.465 23.5792C109.322 23.5792 109.205 23.4629 109.205 23.3193V20.7483C109.205 20.6047 109.322 20.4883 109.465 20.4883ZM18.4775 20.4884C18.6209 20.4884 18.7372 20.6047 18.7372 20.7483V23.3193C18.7372 23.4629 18.6209 23.5792 18.4775 23.5792C18.334 23.5792 18.2178 23.4629 18.2178 23.3193V20.7483C18.2178 20.6047 18.334 20.4884 18.4775 20.4884ZM109.465 25.6304C109.608 25.6304 109.725 25.7468 109.725 25.8903V28.4613C109.725 28.6049 109.608 28.7213 109.465 28.7213C109.322 28.7213 109.205 28.6049 109.205 28.4613V25.8903C109.205 25.7468 109.322 25.6304 109.465 25.6304ZM18.4775 25.6304C18.6209 25.6304 18.7372 25.7468 18.7372 25.8903V28.4613C18.7372 28.6049 18.6209 28.7213 18.4775 28.7213C18.334 28.7213 18.2178 28.6049 18.2178 28.4613V25.8903C18.2178 25.7468 18.334 25.6304 18.4775 25.6304ZM109.465 30.7724C109.608 30.7724 109.725 30.8888 109.725 31.0323V33.6033C109.725 33.7469 109.608 33.8633 109.465 33.8633C109.322 33.8633 109.205 33.7469 109.205 33.6033V31.0323C109.205 30.8888 109.322 30.7724 109.465 30.7724ZM18.4775 30.7724C18.6209 30.7724 18.7372 30.8888 18.7372 31.0323V33.6033C18.7372 33.7469 18.6209 33.8633 18.4775 33.8633C18.334 33.8633 18.2178 33.7469 18.2178 33.6033V31.0323C18.2178 30.8888 18.334 30.7724 18.4775 30.7724ZM18.4775 35.9144C18.6209 35.9144 18.7372 36.0308 18.7372 36.1744V38.7454C18.7372 38.8889 18.6209 39.0053 18.4775 39.0053C18.334 39.0053 18.2178 38.8889 18.2178 38.7454V36.1744C18.2178 36.0308 18.334 35.9144 18.4775 35.9144ZM109.465 35.9144C109.608 35.9144 109.725 36.0308 109.725 36.1744V38.7454C109.725 38.8889 109.608 39.0053 109.465 39.0053C109.322 39.0053 109.205 38.8889 109.205 38.7454V36.1744C109.205 36.0308 109.322 35.9144 109.465 35.9144ZM18.4775 41.0564C18.6209 41.0564 18.7372 41.1728 18.7372 41.3164V43.8874C18.7372 44.031 18.6209 44.1473 18.4775 44.1473C18.334 44.1473 18.2178 44.031 18.2178 43.8874V41.3164C18.2178 41.1728 18.334 41.0564 18.4775 41.0564ZM109.465 41.0564C109.608 41.0564 109.725 41.1728 109.725 41.3164V43.8874C109.725 44.031 109.608 44.1473 109.465 44.1473C109.322 44.1473 109.205 44.031 109.205 43.8874V41.3164C109.205 41.1728 109.322 41.0564 109.465 41.0564ZM18.4775 46.1985C18.6209 46.1985 18.7372 46.3148 18.7372 46.4584V49.0294C18.7372 49.173 18.6209 49.2894 18.4775 49.2894C18.334 49.2894 18.2178 49.173 18.2178 49.0294V46.4584C18.2178 46.3148 18.334 46.1985 18.4775 46.1985ZM109.465 46.1985C109.608 46.1985 109.725 46.3149 109.725 46.4584V49.0294C109.725 49.173 109.608 49.2894 109.465 49.2894C109.322 49.2894 109.205 49.173 109.205 49.0294V46.4584C109.205 46.3149 109.322 46.1985 109.465 46.1985ZM18.4775 51.3405C18.6209 51.3405 18.7372 51.4569 18.7372 51.6004V54.1714C18.7372 54.315 18.6209 54.4314 18.4775 54.4314C18.334 54.4314 18.2178 54.315 18.2178 54.1714V51.6004C18.2178 51.4569 18.334 51.3405 18.4775 51.3405ZM109.465 51.3405C109.608 51.3405 109.725 51.4569 109.725 51.6004V54.1714C109.725 54.315 109.608 54.4314 109.465 54.4314C109.322 54.4314 109.205 54.315 109.205 54.1714V51.6004C109.205 51.4569 109.322 51.3405 109.465 51.3405ZM18.4775 56.4825C18.6209 56.4825 18.7372 56.5989 18.7372 56.7425V59.3135C18.7372 59.457 18.6209 59.5734 18.4775 59.5734C18.334 59.5734 18.2178 59.457 18.2178 59.3135V56.7425C18.2178 56.5989 18.334 56.4825 18.4775 56.4825ZM109.465 56.4825C109.608 56.4825 109.725 56.5989 109.725 56.7425V59.3135C109.725 59.457 109.608 59.5734 109.465 59.5734C109.322 59.5734 109.205 59.457 109.205 59.3135V56.7425C109.205 56.5989 109.322 56.4825 109.465 56.4825ZM18.4775 61.6245C18.6209 61.6245 18.7372 61.7409 18.7372 61.8845V64.4555C18.7372 64.5991 18.6209 64.7154 18.4775 64.7154C18.334 64.7154 18.2178 64.5991 18.2178 64.4555V61.8845C18.2178 61.7409 18.334 61.6245 18.4775 61.6245ZM109.465 61.6245C109.608 61.6245 109.725 61.7409 109.725 61.8845V64.4555C109.725 64.5991 109.608 64.7154 109.465 64.7154C109.322 64.7154 109.205 64.5991 109.205 64.4555V61.8845C109.205 61.7409 109.322 61.6245 109.465 61.6245ZM109.465 66.7666C109.608 66.7666 109.725 66.8829 109.725 67.0265V69.5975C109.725 69.7411 109.608 69.8574 109.465 69.8574C109.322 69.8574 109.205 69.7411 109.205 69.5975V67.0265C109.205 66.8829 109.322 66.7666 109.465 66.7666ZM18.4775 66.7666C18.6209 66.7666 18.7372 66.8829 18.7372 67.0265V69.5975C18.7372 69.7411 18.6209 69.8575 18.4775 69.8575C18.334 69.8575 18.2178 69.7411 18.2178 69.5975V67.0265C18.2178 66.8829 18.334 66.7666 18.4775 66.7666ZM109.465 71.9086C109.608 71.9086 109.725 72.025 109.725 72.1685V74.7395C109.725 74.8831 109.608 74.9995 109.465 74.9995C109.322 74.9995 109.205 74.8831 109.205 74.7395V72.1685C109.205 72.025 109.322 71.9086 109.465 71.9086ZM18.4775 71.9086C18.6209 71.9086 18.7372 72.025 18.7372 72.1685V74.7395C18.7372 74.8831 18.6209 74.9995 18.4775 74.9995C18.334 74.9995 18.2178 74.8831 18.2178 74.7395V72.1685C18.2178 72.025 18.334 71.9086 18.4775 71.9086ZM109.465 77.0506C109.608 77.0506 109.725 77.167 109.725 77.3105V78.5961C109.725 78.7396 109.608 78.856 109.465 78.856H108.201C108.058 78.856 107.942 78.7396 107.942 78.5961C107.942 78.4525 108.058 78.3361 108.201 78.3361H109.205V77.3105C109.205 77.167 109.322 77.0506 109.465 77.0506ZM18.4775 77.0506C18.6209 77.0506 18.7372 77.167 18.7372 77.3106V78.3361H19.7412C19.8846 78.3361 20.0009 78.4525 20.0009 78.5961C20.0009 78.7396 19.8846 78.856 19.7412 78.856H18.4775C18.334 78.856 18.2178 78.7396 18.2178 78.5961V77.3106C18.2178 77.167 18.334 77.0506 18.4775 77.0506ZM22.0089 78.5961C22.0089 78.4525 22.1252 78.3361 22.2686 78.3361H24.796C24.9395 78.3361 25.0557 78.4525 25.0557 78.5961C25.0557 78.7396 24.9395 78.856 24.796 78.856H22.2686C22.1252 78.856 22.0089 78.7396 22.0089 78.5961ZM27.0638 78.5961C27.0638 78.4525 27.1801 78.3361 27.3235 78.3361H29.8509C29.9943 78.3361 30.1106 78.4525 30.1106 78.5961C30.1106 78.7396 29.9943 78.856 29.8509 78.856H27.3235C27.1801 78.856 27.0638 78.7396 27.0638 78.5961ZM32.1187 78.5961C32.1187 78.4525 32.2349 78.3361 32.3783 78.3361H34.9058C35.0492 78.3361 35.1655 78.4525 35.1655 78.5961C35.1655 78.7396 35.0492 78.856 34.9058 78.856H32.3783C32.2349 78.856 32.1187 78.7396 32.1187 78.5961ZM37.1735 78.5961C37.1735 78.4525 37.2898 78.3361 37.4332 78.3361H39.9606C40.1041 78.3361 40.2203 78.4525 40.2203 78.5961C40.2203 78.7396 40.1041 78.856 39.9606 78.856H37.4332C37.2898 78.856 37.1735 78.7396 37.1735 78.5961ZM42.2284 78.5961C42.2284 78.4525 42.3446 78.3361 42.4881 78.3361H45.0155C45.1589 78.3361 45.2752 78.4525 45.2752 78.5961C45.2752 78.7396 45.1589 78.856 45.0155 78.856H42.4881C42.3446 78.856 42.2284 78.7396 42.2284 78.5961ZM47.2832 78.5961C47.2832 78.4525 47.3995 78.3361 47.5429 78.3361H50.0704C50.2138 78.3361 50.3301 78.4525 50.3301 78.5961C50.3301 78.7396 50.2138 78.856 50.0704 78.856H47.5429C47.3995 78.856 47.2832 78.7396 47.2832 78.5961ZM52.3381 78.5961C52.3381 78.4525 52.4544 78.3361 52.5978 78.3361H55.1252C55.2687 78.3361 55.3849 78.4525 55.3849 78.5961C55.3849 78.7396 55.2687 78.856 55.1252 78.856H52.5978C52.4544 78.856 52.3381 78.7396 52.3381 78.5961ZM57.393 78.5961C57.393 78.4525 57.5092 78.3361 57.6527 78.3361H60.1801C60.3235 78.3361 60.4398 78.4525 60.4398 78.5961C60.4398 78.7396 60.3235 78.856 60.1801 78.856H57.6527C57.5092 78.856 57.393 78.7396 57.393 78.5961ZM62.4478 78.5961C62.4478 78.4525 62.5641 78.3361 62.7075 78.3361H65.235C65.3784 78.3361 65.4946 78.4525 65.4946 78.5961C65.4946 78.7396 65.3784 78.856 65.235 78.856H62.7075C62.5641 78.856 62.4478 78.7396 62.4478 78.5961ZM67.5027 78.5961C67.5027 78.4525 67.619 78.3361 67.7624 78.3361H70.2898C70.4332 78.3361 70.5495 78.4525 70.5495 78.5961C70.5495 78.7396 70.4332 78.856 70.2898 78.856H67.7624C67.619 78.856 67.5027 78.7396 67.5027 78.5961ZM72.5576 78.5961C72.5576 78.4525 72.6738 78.3361 72.8172 78.3361H75.3447C75.4881 78.3361 75.6044 78.4525 75.6044 78.5961C75.6044 78.7396 75.4881 78.856 75.3447 78.856H72.8172C72.6738 78.856 72.5576 78.7396 72.5576 78.5961ZM77.6124 78.5961C77.6124 78.4525 77.7287 78.3361 77.8721 78.3361H80.3995C80.543 78.3361 80.6592 78.4525 80.6592 78.5961C80.6592 78.7396 80.543 78.856 80.3995 78.856H77.8721C77.7287 78.856 77.6124 78.7396 77.6124 78.5961ZM82.6673 78.5961C82.6673 78.4525 82.7836 78.3361 82.927 78.3361H85.4544C85.5978 78.3361 85.7141 78.4525 85.7141 78.5961C85.7141 78.7396 85.5978 78.856 85.4544 78.856H82.927C82.7836 78.856 82.6673 78.7396 82.6673 78.5961ZM87.7222 78.5961C87.7222 78.4525 87.8384 78.3361 87.9818 78.3361H90.5093C90.6527 78.3361 90.769 78.4525 90.769 78.5961C90.769 78.7396 90.6527 78.856 90.5093 78.856H87.9818C87.8384 78.856 87.7222 78.7396 87.7222 78.5961ZM92.777 78.5961C92.777 78.4525 92.8933 78.3361 93.0367 78.3361H95.5642C95.7076 78.3361 95.8238 78.4525 95.8238 78.5961C95.8238 78.7396 95.7076 78.856 95.5642 78.856H93.0367C92.8933 78.856 92.777 78.7396 92.777 78.5961ZM97.8319 78.5961C97.8319 78.4525 97.9482 78.3361 98.0916 78.3361H100.619C100.762 78.3361 100.879 78.4525 100.879 78.5961C100.879 78.7396 100.762 78.856 100.619 78.856H98.0916C97.9482 78.856 97.8319 78.7396 97.8319 78.5961ZM102.887 78.5961C102.887 78.4525 103.003 78.3361 103.146 78.3361H105.674C105.817 78.3361 105.934 78.4525 105.934 78.5961C105.934 78.7396 105.817 78.856 105.674 78.856H103.146C103.003 78.856 102.887 78.7396 102.887 78.5961Z" fill="#102360"/>
<path d="M93.2422 7.06079H34.7029C32.8313 7.06079 31.314 8.57953 31.314 10.453V53.7874C31.314 55.6609 32.8313 57.1796 34.7029 57.1796H93.2422C95.1139 57.1796 96.6312 55.6609 96.6312 53.7874V10.453C96.6312 8.57953 95.1139 7.06079 93.2422 7.06079Z" fill="white"/>
<path d="M93.2425 7.32085C94.069 7.32085 94.8616 7.64948 95.446 8.23446C96.0305 8.81943 96.3588 9.61283 96.3588 10.4401V53.7875C96.3605 54.1982 96.2811 54.6052 96.1253 54.9852C95.9695 55.3651 95.7402 55.7105 95.4506 56.0016C95.1611 56.2926 94.817 56.5235 94.4381 56.6811C94.0591 56.8387 93.6528 56.9198 93.2425 56.9198H34.7006C34.2903 56.9198 33.884 56.8387 33.505 56.6811C33.1261 56.5235 32.782 56.2926 32.4925 56.0016C32.2029 55.7105 31.9736 55.3651 31.8178 54.9852C31.662 54.6052 31.5826 54.1982 31.5843 53.7875V10.4531C31.5843 9.62583 31.9126 8.83243 32.4971 8.24745C33.0815 7.66248 33.8741 7.33384 34.7006 7.33384H93.2425V7.32085ZM93.2425 6.81396H34.7006C33.7376 6.81807 32.8153 7.2028 32.1343 7.88438C31.4534 8.56596 31.069 9.48921 31.0649 10.4531V53.7875C31.0656 54.7537 31.4485 55.6802 32.1298 56.3646C32.8111 57.049 33.7354 57.4355 34.7006 57.4396H93.2425C94.2077 57.4355 95.132 57.049 95.8133 56.3646C96.4946 55.6802 96.8775 54.7537 96.8782 53.7875V10.4531C96.8741 9.48921 96.4897 8.56596 95.8088 7.88438C95.1278 7.2028 94.2055 6.81807 93.2425 6.81396Z" fill="#102360"/>
<path fill-rule="evenodd" clip-rule="evenodd" d="M39.1411 4.98137C39.1411 4.83781 39.2574 4.72144 39.4008 4.72144H65.1335C65.2769 4.72144 65.3932 4.83781 65.3932 4.98137C65.3932 5.12493 65.2769 5.24131 65.1335 5.24131H39.4008C39.2574 5.24131 39.1411 5.12493 39.1411 4.98137Z" fill="#102360"/>
<path fill-rule="evenodd" clip-rule="evenodd" d="M13.072 9.69196C13.1764 9.59359 13.3408 9.5986 13.4391 9.70316L16.7423 13.2175C16.8406 13.3221 16.8356 13.4866 16.7311 13.585C16.6267 13.6833 16.4623 13.6783 16.364 13.5738L13.0608 10.0594C12.9625 9.95484 12.9675 9.79033 13.072 9.69196Z" fill="#102360"/>
<path fill-rule="evenodd" clip-rule="evenodd" d="M12.1241 13.4778C12.1877 13.3491 12.3434 13.2964 12.472 13.36L15.4299 14.8234C15.5584 14.887 15.6111 15.0429 15.5476 15.1716C15.484 15.3003 15.3283 15.3531 15.1997 15.2895L12.2418 13.826C12.1133 13.7624 12.0606 13.6065 12.1241 13.4778Z" fill="#102360"/>
<path fill-rule="evenodd" clip-rule="evenodd" d="M98.6338 0.659491C98.7653 0.716953 98.8253 0.870184 98.7679 1.00174L97.4045 4.12621C97.3471 4.25777 97.194 4.31784 97.0626 4.26038C96.9311 4.20291 96.8711 4.04968 96.9285 3.91812L98.2919 0.793657C98.3493 0.662098 98.5024 0.60203 98.6338 0.659491Z" fill="#102360"/>
<path fill-rule="evenodd" clip-rule="evenodd" d="M102.616 0.908898C102.718 1.01041 102.718 1.17499 102.616 1.27651L98.7133 5.18339C98.6119 5.2849 98.4475 5.2849 98.3461 5.18339C98.2447 5.08188 98.2447 4.91729 98.3461 4.81578L102.249 0.908898C102.351 0.807386 102.515 0.807386 102.616 0.908898Z" fill="#102360"/>
<path fill-rule="evenodd" clip-rule="evenodd" d="M102.674 5.29283C102.727 5.42611 102.662 5.5774 102.529 5.63073L99.6023 6.80306C99.4692 6.8564 99.318 6.79159 99.2648 6.6583C99.2115 6.52502 99.2762 6.37373 99.4094 6.32039L102.336 5.14807C102.469 5.09473 102.62 5.15954 102.674 5.29283Z" fill="#102360"/>
<path d="M101.254 49.6285C100.588 50.0308 100.058 50.6227 99.7296 51.3285C99.2671 50.9488 98.7242 50.6799 98.1421 50.5422C97.5601 50.4045 96.9543 50.4015 96.371 50.5337C95.7876 50.6658 95.2421 50.9295 94.776 51.3046C94.3099 51.6797 93.9355 52.1564 93.6814 52.6983C93.2359 52.3305 92.7148 52.0656 92.1553 51.9225C91.5958 51.7794 91.0117 51.7616 90.4445 51.8703C89.8773 51.979 89.3411 52.2116 88.874 52.5516C88.4069 52.8915 88.0205 53.3303 87.7423 53.8369L84.4105 48.3392C83.8715 47.4471 83.0006 46.8058 81.9893 46.5565C80.9781 46.3071 79.9092 46.4701 79.018 47.0096C78.1268 47.549 77.4861 48.4208 77.237 49.433C76.9879 50.4453 77.1508 51.5151 77.6897 52.4072L89.5679 72.0716L83.5535 72.5525C82.6425 72.6266 81.7613 72.9123 80.98 73.3869C80.345 73.7717 79.8381 74.3361 79.5232 75.0089C79.2083 75.6818 79.0996 76.4329 79.2107 77.1675C79.3218 77.9021 79.6478 78.5873 80.1476 79.1367C80.6473 79.6861 81.2984 80.0751 82.0187 80.2545L99.4543 84.5538C101.392 85.037 103.406 85.1308 105.381 84.8296C107.355 84.5284 109.25 83.8383 110.956 82.7993C113.85 81.0432 115.929 78.2101 116.739 74.9214C117.548 71.6326 117.022 68.1567 115.275 65.256L106.64 50.9593C106.1 50.0703 105.23 49.4313 104.221 49.182C103.212 48.9326 102.145 49.0931 101.254 49.6285Z" fill="white"/>
<path fill-rule="evenodd" clip-rule="evenodd" d="M78.8836 46.7871C79.8337 46.2119 80.9732 46.0382 82.0514 46.304C83.1295 46.5699 84.058 47.2535 84.6326 48.2046L87.7448 53.3399C88.0115 52.9555 88.3414 52.6177 88.7212 52.3412C89.2192 51.9788 89.7909 51.7308 90.3956 51.6149C91.0002 51.499 91.623 51.518 92.2195 51.6706C92.7127 51.7968 93.1779 52.0117 93.5928 52.304C93.8534 51.8431 94.1994 51.435 94.6132 51.1019C95.1101 50.702 95.6917 50.4209 96.3136 50.2801C96.9355 50.1392 97.5813 50.1423 98.2018 50.2892C98.7185 50.4114 99.2063 50.6307 99.6397 50.9343C99.9919 50.307 100.501 49.7797 101.12 49.4059L101.12 49.4055C102.07 48.8348 103.208 48.6637 104.283 48.9295C105.359 49.1954 106.286 49.8765 106.862 50.8242L106.862 50.8248L115.497 65.1214L115.497 65.1217C117.28 68.0813 117.817 71.6279 116.991 74.9835C116.165 78.3389 114.043 81.2295 111.091 83.0212C109.355 84.0782 107.428 84.7801 105.42 85.0865C103.412 85.3928 101.363 85.2975 99.3918 84.8061C99.3917 84.806 99.3916 84.806 99.3914 84.806L81.9565 80.5068L81.9559 80.5066C81.1858 80.3148 80.4897 79.899 79.9555 79.3116C79.4212 78.7243 79.0727 77.9917 78.9539 77.2063C78.8351 76.4209 78.9513 75.6179 79.288 74.8986C79.6246 74.1793 80.1665 73.5759 80.8453 73.1645C81.6612 72.669 82.5812 72.3707 83.5324 72.2933L83.5327 72.2933L89.1281 71.8459L77.4674 52.5416C77.4674 52.5416 77.4674 52.5416 77.4674 52.5416C76.8928 51.5906 76.7192 50.45 76.9848 49.3708C77.2504 48.2916 77.9334 47.3622 78.8836 46.7871ZM81.9271 46.8088C80.9827 46.576 79.9846 46.7282 79.1523 47.2319C78.32 47.7357 77.7217 48.5498 77.4891 49.4951C77.2565 50.4404 77.4085 51.4395 77.9118 52.2726L89.7901 71.937C89.8366 72.0141 89.84 72.1099 89.7989 72.1901C89.7579 72.2703 89.6782 72.3234 89.5885 72.3306L83.5745 72.8115C83.5743 72.8115 83.5742 72.8115 83.5741 72.8115C82.7035 72.8824 81.8614 73.1555 81.1146 73.609C80.5235 73.9672 80.0514 74.4928 79.7583 75.1191C79.4652 75.7454 79.364 76.4446 79.4674 77.1285C79.5709 77.8124 79.8743 78.4502 80.3395 78.9616C80.8046 79.4729 81.4105 79.8349 82.0808 80.002C82.081 80.002 82.0812 80.0021 82.0814 80.0021L99.5163 84.3014L99.517 84.3015C101.421 84.7764 103.401 84.8685 105.341 84.5725C107.282 84.2765 109.144 83.5983 110.821 82.5771L110.821 82.5769C113.656 80.8566 115.693 78.081 116.487 74.8591C117.28 71.6372 116.764 68.2321 115.052 65.3904M115.052 65.3901L106.418 51.0943C106.418 51.0941 106.418 51.0939 106.418 51.0938C105.913 50.2637 105.101 49.6671 104.159 49.4343C103.216 49.2014 102.22 49.3512 101.388 49.8511C100.766 50.2267 100.271 50.7792 99.9649 51.438C99.9311 51.5109 99.8655 51.5639 99.7872 51.5818C99.709 51.5997 99.6269 51.5803 99.5648 51.5294C99.1329 51.1749 98.6259 50.9237 98.0823 50.7951C97.5387 50.6664 96.973 50.6637 96.4282 50.7871C95.8834 50.9105 95.374 51.1568 94.9387 51.5071C94.5034 51.8574 94.1537 52.3026 93.9164 52.8087C93.8823 52.8814 93.8165 52.9343 93.7383 52.9519C93.66 52.9695 93.578 52.9499 93.5161 52.8988C93.1 52.5553 92.6134 52.308 92.0909 52.1743C91.5684 52.0406 91.0229 52.024 90.4933 52.1255C89.9636 52.227 89.4628 52.4443 89.0266 52.7617C88.5905 53.0792 88.2296 53.489 87.9698 53.962C87.9251 54.0434 87.8405 54.0947 87.7477 54.0967C87.655 54.0987 87.5683 54.051 87.5202 53.9716L84.1882 48.4736C83.6849 47.6405 82.8716 47.0417 81.9271 46.8088" fill="#102360"/>
<path fill-rule="evenodd" clip-rule="evenodd" d="M87.5724 53.4787C87.6954 53.4049 87.8549 53.4448 87.9287 53.5679L94.4677 64.4749C94.5415 64.598 94.5016 64.7577 94.3786 64.8316C94.2557 64.9054 94.0961 64.8655 94.0223 64.7424L87.4833 53.8354C87.4095 53.7123 87.4494 53.5526 87.5724 53.4787Z" fill="#102360"/>
<path fill-rule="evenodd" clip-rule="evenodd" d="M93.4597 52.3851C93.5837 52.313 93.7427 52.3551 93.8148 52.4791L99.2657 61.8604C99.3378 61.9845 99.2957 62.1436 99.1718 62.2157C99.0478 62.2879 98.8888 62.2458 98.8167 62.1217L93.3658 52.7405C93.2937 52.6164 93.3358 52.4573 93.4597 52.3851Z" fill="#102360"/>
<path fill-rule="evenodd" clip-rule="evenodd" d="M99.5657 51.0748C99.6898 51.0029 99.8487 51.0453 99.9205 51.1696L104.714 59.4616C104.786 59.5859 104.744 59.7449 104.62 59.8168C104.496 59.8887 104.337 59.8463 104.265 59.722L99.471 51.43C99.3992 51.3057 99.4416 51.1467 99.5657 51.0748Z" fill="#102360"/>
<path fill-rule="evenodd" clip-rule="evenodd" d="M82.4567 44.54C81.6779 44.3528 80.8693 44.3249 80.0794 44.458C79.2895 44.591 78.5346 44.8823 77.8598 45.3143C77.1851 45.7464 76.6044 46.3103 76.1525 46.9723C75.7007 47.6343 75.387 48.3808 75.2302 49.1671C75.0734 49.9533 75.0768 50.7632 75.2402 51.5481C75.4035 52.333 75.7234 53.0769 76.1808 53.7351C76.2627 53.8529 76.2336 54.0149 76.1159 54.0969C75.9982 54.1789 75.8363 54.1498 75.7544 54.0319C75.2572 53.3163 74.9093 52.5075 74.7317 51.6541C74.5541 50.8007 74.5504 49.9202 74.7209 49.0653C74.8913 48.2105 75.2324 47.3988 75.7237 46.6791C76.2149 45.9593 76.8463 45.3461 77.5799 44.8764C78.3136 44.4067 79.1344 44.09 79.9932 43.9453C80.852 43.8006 81.7311 43.831 82.578 44.0345C83.4248 44.238 84.2219 44.6105 84.9214 45.1297C85.621 45.6488 86.2087 46.304 86.6493 47.056C86.7219 47.1798 86.6804 47.3391 86.5567 47.4117C86.433 47.4843 86.2739 47.4428 86.2013 47.319C85.7961 46.6274 85.2555 46.0248 84.6121 45.5473C83.9687 45.0698 83.2356 44.7271 82.4567 44.54Z" fill="white"/>
<path fill-rule="evenodd" clip-rule="evenodd" d="M1.11213 33.8596C1.24021 33.795 1.39636 33.8466 1.4609 33.9748L23.9864 78.7233C24.0509 78.8515 23.9994 79.0078 23.8713 79.0724C23.7433 79.137 23.5871 79.0854 23.5226 78.9572L0.99707 34.2087C0.932534 34.0805 0.984049 33.9242 1.11213 33.8596Z" fill="white"/>
<rect x="35" y="17" width="34" height="4" fill="#1CAEC9"/>
<rect x="35" y="26" width="34" height="4" fill="#1CAEC9"/>
<rect x="35" y="35" width="34" height="4" fill="#1CAEC9"/>
<mask id="path-32-inside-1_744_31638" fill="white">
<path d="M93 28C93 26.0119 92.4612 24.061 91.4409 22.3548C90.4207 20.6485 88.957 19.2506 87.2057 18.3098C85.4543 17.3689 83.4807 16.9203 81.4948 17.0116C79.5088 17.1029 77.5847 17.7307 75.9271 18.8283L78.4146 22.585C79.3932 21.937 80.5292 21.5664 81.7017 21.5125C82.8742 21.4586 84.0394 21.7234 85.0734 22.2789C86.1074 22.8344 86.9715 23.6597 87.5739 24.6671C88.1763 25.6744 88.4944 26.8263 88.4944 28H93Z"/>
</mask>
<path d="M93 28C93 26.0119 92.4612 24.061 91.4409 22.3548C90.4207 20.6485 88.957 19.2506 87.2057 18.3098C85.4543 17.3689 83.4807 16.9203 81.4948 17.0116C79.5088 17.1029 77.5847 17.7307 75.9271 18.8283L78.4146 22.585C79.3932 21.937 80.5292 21.5664 81.7017 21.5125C82.8742 21.4586 84.0394 21.7234 85.0734 22.2789C86.1074 22.8344 86.9715 23.6597 87.5739 24.6671C88.1763 25.6744 88.4944 26.8263 88.4944 28H93Z" stroke="#1CAEC9" stroke-width="8" mask="url(#path-32-inside-1_744_31638)"/>
<mask id="path-33-inside-2_744_31638" fill="white">
<path d="M76.5 18.4738C74.824 19.4415 73.4329 20.8342 72.4672 22.5113C71.5016 24.1884 70.9955 26.0907 71 28.0259C71.0046 29.9612 71.5196 31.8611 72.4931 33.5336C73.4667 35.2062 74.8643 36.5924 76.5448 37.5521C78.2253 38.5119 80.1293 39.0113 82.0646 38.9999C83.9998 38.9885 85.8978 38.4668 87.567 37.4874C89.2361 36.5079 90.6173 35.1055 91.5712 33.4216C92.525 31.7377 93.0177 29.8319 92.9995 27.8967L88.5371 27.9387C88.5479 29.0888 88.2551 30.2214 87.6882 31.2221C87.1214 32.2229 86.3005 33.0564 85.3085 33.6385C84.3165 34.2206 83.1885 34.5307 82.0384 34.5374C80.8882 34.5442 79.7567 34.2474 78.7579 33.677C77.7591 33.1066 76.9285 32.2828 76.3499 31.2887C75.7714 30.2947 75.4653 29.1656 75.4626 28.0155C75.4599 26.8653 75.7606 25.7348 76.3346 24.738C76.9085 23.7413 77.7352 22.9136 78.7313 22.3385L76.5 18.4738Z"/>
</mask>
<path d="M76.5 18.4738C74.824 19.4415 73.4329 20.8342 72.4672 22.5113C71.5016 24.1884 70.9955 26.0907 71 28.0259C71.0046 29.9612 71.5196 31.8611 72.4931 33.5336C73.4667 35.2062 74.8643 36.5924 76.5448 37.5521C78.2253 38.5119 80.1293 39.0113 82.0646 38.9999C83.9998 38.9885 85.8978 38.4668 87.567 37.4874C89.2361 36.5079 90.6173 35.1055 91.5712 33.4216C92.525 31.7377 93.0177 29.8319 92.9995 27.8967L88.5371 27.9387C88.5479 29.0888 88.2551 30.2214 87.6882 31.2221C87.1214 32.2229 86.3005 33.0564 85.3085 33.6385C84.3165 34.2206 83.1885 34.5307 82.0384 34.5374C80.8882 34.5442 79.7567 34.2474 78.7579 33.677C77.7591 33.1066 76.9285 32.2828 76.3499 31.2887C75.7714 30.2947 75.4653 29.1656 75.4626 28.0155C75.4599 26.8653 75.7606 25.7348 76.3346 24.738C76.9085 23.7413 77.7352 22.9136 78.7313 22.3385L76.5 18.4738Z" stroke="#8CDBE8" stroke-width="8" mask="url(#path-33-inside-2_744_31638)"/>
</svg>
