<svg width="24" height="24" viewBox="0 0 24 24" fill="none" xmlns="http://www.w3.org/2000/svg">
<path fill-rule="evenodd" clip-rule="evenodd" d="M16 3.80029C14.8862 3.80029 13.818 4.24276 13.0304 5.03037L5.03037 13.0304C4.24276 13.818 3.80029 14.8862 3.80029 16C3.80029 17.1139 4.24276 18.1821 5.03037 18.9697C5.81798 19.7573 6.8862 20.1998 8.00004 20.1998C9.11388 20.1998 10.1821 19.7573 10.9697 18.9697L18.9697 10.9697C19.7573 10.1821 20.1998 9.11388 20.1998 8.00004C20.1998 6.8862 19.7573 5.81798 18.9697 5.03037C18.1821 4.24276 17.1139 3.80029 16 3.80029ZM3.96971 11.9697C2.9008 13.0386 2.30029 14.4884 2.30029 16C2.30029 17.5117 2.9008 18.9615 3.96971 20.0304C5.03862 21.0993 6.48837 21.6998 8.00004 21.6998C9.51171 21.6998 10.9615 21.0993 12.0304 20.0304L20.0304 12.0304C21.0993 10.9615 21.6998 9.51171 21.6998 8.00004C21.6998 6.48837 21.0993 5.03862 20.0304 3.96971C18.9615 2.9008 17.5117 2.30029 16 2.30029C14.4884 2.30029 13.0386 2.9008 11.9697 3.96971L3.96971 11.9697Z" fill="#1CAEC9"/>
<path fill-rule="evenodd" clip-rule="evenodd" d="M7.96967 7.96967C8.26256 7.67678 8.73744 7.67678 9.03033 7.96967L16.0303 14.9697C16.3232 15.2626 16.3232 15.7374 16.0303 16.0303C15.7374 16.3232 15.2626 16.3232 14.9697 16.0303L7.96967 9.03033C7.67678 8.73744 7.67678 8.26256 7.96967 7.96967Z" fill="#1CAEC9"/>
</svg>
