<svg width="14" height="14" viewBox="0 0 14 14" fill="none" xmlns="http://www.w3.org/2000/svg">
<path fill-rule="evenodd" clip-rule="evenodd" d="M7.62508 1.16669C7.62508 0.821509 7.34526 0.541687 7.00008 0.541687C6.6549 0.541687 6.37508 0.821509 6.37508 1.16669V6.37502H1.16675C0.82157 6.37502 0.541748 6.65484 0.541748 7.00002C0.541748 7.3452 0.82157 7.62502 1.16675 7.62502H6.37508V12.8334C6.37508 13.1785 6.6549 13.4584 7.00008 13.4584C7.34526 13.4584 7.62508 13.1785 7.62508 12.8334V7.62502H12.8334C13.1786 7.62502 13.4584 7.3452 13.4584 7.00002C13.4584 6.65484 13.1786 6.37502 12.8334 6.37502H7.62508V1.16669Z" fill="white"/>
</svg>
