<svg width="18" height="18" viewBox="0 0 18 18" fill="none" xmlns="http://www.w3.org/2000/svg">
<path fill-rule="evenodd" clip-rule="evenodd" d="M4.87955 1.54621C5.30932 1.11644 5.89221 0.875 6.5 0.875H11.5C12.1078 0.875 12.6907 1.11644 13.1205 1.54621C13.5502 1.97598 13.7917 2.55888 13.7917 3.16667V5.875H14.8333C15.4411 5.875 16.024 6.11644 16.4538 6.54621C16.8836 6.97598 17.125 7.55888 17.125 8.16667V11.5C17.125 12.1078 16.8836 12.6907 16.4538 13.1205C16.024 13.5502 15.4411 13.7917 14.8333 13.7917H13.7917V14.8333C13.7917 16.099 12.7657 17.125 11.5 17.125H6.5C5.23435 17.125 4.20833 16.099 4.20833 14.8333V13.7917H3.16667C2.55888 13.7917 1.97598 13.5502 1.54621 13.1205C1.11644 12.6907 0.875 12.1078 0.875 11.5V8.16667C0.875 7.55888 1.11644 6.97598 1.54621 6.54621C1.97598 6.11644 2.55888 5.875 3.16667 5.875H4.20833V3.16667C4.20833 2.55888 4.44978 1.97598 4.87955 1.54621ZM5.45833 13.1667V14.8333C5.45833 15.4086 5.9247 15.875 6.5 15.875H11.5C12.0753 15.875 12.5417 15.4086 12.5417 14.8333V13.1667V11.5C12.5417 10.9247 12.0753 10.4583 11.5 10.4583H6.5C5.9247 10.4583 5.45833 10.9247 5.45833 11.5V13.1667ZM13.7917 12.5417V11.5C13.7917 10.2343 12.7657 9.20833 11.5 9.20833H6.5C5.23435 9.20833 4.20833 10.2343 4.20833 11.5V12.5417H3.16667C2.8904 12.5417 2.62545 12.4319 2.4301 12.2366C2.23475 12.0412 2.125 11.7763 2.125 11.5V8.16667C2.125 7.8904 2.23475 7.62545 2.4301 7.4301C2.62545 7.23475 2.8904 7.125 3.16667 7.125H4.83333H13.1667H14.8333C15.1096 7.125 15.3746 7.23475 15.5699 7.4301C15.7653 7.62545 15.875 7.8904 15.875 8.16667V11.5C15.875 11.7763 15.7653 12.0412 15.5699 12.2366C15.3746 12.4319 15.1096 12.5417 14.8333 12.5417H13.7917ZM12.5417 3.16667V5.875H5.45833V3.16667C5.45833 2.8904 5.56808 2.62545 5.76343 2.4301C5.95878 2.23475 6.22373 2.125 6.5 2.125H11.5C11.7763 2.125 12.0412 2.23475 12.2366 2.4301C12.4319 2.62545 12.5417 2.8904 12.5417 3.16667Z" fill="#18338C"/>
</svg>
