<svg width="16" height="20" viewBox="0 0 16 20" fill="none" xmlns="http://www.w3.org/2000/svg">
<path fill-rule="evenodd" clip-rule="evenodd" d="M5.7019 2.7019C6.3114 2.09241 7.13805 1.75 8 1.75C8.86195 1.75 9.6886 2.09241 10.2981 2.7019C10.9076 3.3114 11.25 4.13805 11.25 5V8.25H4.75V5C4.75 4.13805 5.09241 3.3114 5.7019 2.7019ZM3.25 8.25V5C3.25 3.74022 3.75044 2.53204 4.64124 1.64124C5.53204 0.750445 6.74022 0.25 8 0.25C9.25978 0.25 10.468 0.750445 11.3588 1.64124C12.2496 2.53204 12.75 3.74022 12.75 5V8.25H13C14.5188 8.25 15.75 9.48122 15.75 11V17C15.75 18.5188 14.5188 19.75 13 19.75H3C1.48122 19.75 0.25 18.5188 0.25 17V11C0.25 9.48122 1.48122 8.25 3 8.25H3.25ZM12 9.75H13C13.6904 9.75 14.25 10.3096 14.25 11V17C14.25 17.6904 13.6904 18.25 13 18.25H3C2.30964 18.25 1.75 17.6904 1.75 17V11C1.75 10.3096 2.30964 9.75 3 9.75H4H12ZM8 13.75C7.86193 13.75 7.75 13.8619 7.75 14C7.75 14.1381 7.86193 14.25 8 14.25C8.13807 14.25 8.25 14.1381 8.25 14C8.25 13.8619 8.13807 13.75 8 13.75ZM6.25 14C6.25 13.0335 7.0335 12.25 8 12.25C8.9665 12.25 9.75 13.0335 9.75 14C9.75 14.9665 8.9665 15.75 8 15.75C7.0335 15.75 6.25 14.9665 6.25 14Z" fill="#18338C"/>
</svg>
