<svg width="101" height="100" viewBox="0 0 101 100" fill="none" xmlns="http://www.w3.org/2000/svg">
<rect x="0.9" y="0.4" width="99.2" height="99.2" rx="49.6" fill="#E1F8FB"/>
<path d="M69.6663 71V66.3333C69.6663 63.858 68.683 61.484 66.9327 59.7337C65.1823 57.9833 62.8084 57 60.333 57H41.6663C39.191 57 36.817 57.9833 35.0667 59.7337C33.3163 61.484 32.333 63.858 32.333 66.3333V71" stroke="#41C3D8" stroke-width="2" stroke-linecap="round" stroke-linejoin="round"/>
<path d="M51.0003 47.6667C56.155 47.6667 60.3337 43.488 60.3337 38.3333C60.3337 33.1787 56.155 29 51.0003 29C45.8457 29 41.667 33.1787 41.667 38.3333C41.667 43.488 45.8457 47.6667 51.0003 47.6667Z" stroke="#41C3D8" stroke-width="2" stroke-linecap="round" stroke-linejoin="round"/>
<rect x="0.9" y="0.4" width="99.2" height="99.2" rx="49.6" stroke="#41C3D8" stroke-width="0.8"/>
</svg>
