<svg width="20" height="20" viewBox="0 0 20 20" fill="none" xmlns="http://www.w3.org/2000/svg">
<path fill-rule="evenodd" clip-rule="evenodd" d="M9.90955 1.66259C11.9365 1.63944 13.901 2.36332 15.4282 3.69613C16.9555 5.02893 17.9386 6.87737 18.1901 8.88876C18.4415 10.9002 17.9436 12.9337 16.7914 14.6015C15.6392 16.2692 13.9133 17.4544 11.9431 17.9309C9.97284 18.4074 7.89612 18.1418 6.10916 17.1849C4.64797 16.4024 3.46415 15.2025 2.70084 13.75H6.05011C6.46432 13.75 6.80011 13.4142 6.80011 13C6.80011 12.5858 6.46432 12.25 6.05011 12.25H1.56748C1.55588 12.2497 1.54426 12.2497 1.53261 12.25H1.05011C0.635893 12.25 0.300107 12.5858 0.300107 13V18C0.300107 18.4142 0.635893 18.75 1.05011 18.75C1.46432 18.75 1.80011 18.4142 1.80011 18V15.1811C2.69129 16.5686 3.9267 17.7177 5.40105 18.5072C7.51291 19.6381 9.96721 19.952 12.2957 19.3888C14.6242 18.8257 16.6638 17.425 18.0255 15.4541C19.3872 13.4831 19.9756 11.0798 19.6785 8.70271C19.3813 6.32561 18.2195 4.14109 16.4145 2.56596C14.6095 0.990822 12.2879 0.135324 9.89242 0.162685C7.49697 0.190045 5.19544 1.09835 3.42693 2.7143C1.65842 4.33025 0.546733 6.54073 0.303968 8.924C0.261992 9.33609 0.562022 9.70417 0.974103 9.74615C1.38618 9.78812 1.75427 9.48809 1.79625 9.07601C2.00166 7.0594 2.94232 5.18899 4.43875 3.82165C5.93518 2.4543 7.88263 1.68574 9.90955 1.66259ZM10.7501 6C10.7501 5.58579 10.4143 5.25 10.0001 5.25C9.58584 5.25 9.25006 5.58579 9.25006 6V10C9.25006 10.1989 9.32908 10.3897 9.46973 10.5303L11.4697 12.5303C11.7626 12.8232 12.2375 12.8232 12.5304 12.5303C12.8233 12.2374 12.8233 11.7626 12.5304 11.4697L10.7501 9.68934V6Z" fill="#A5ADC0"/>
</svg>
