<svg width="18" height="16" viewBox="0 0 18 16" fill="none" xmlns="http://www.w3.org/2000/svg">
<path fill-rule="evenodd" clip-rule="evenodd" d="M4.69476 3.28166C5.99747 2.35746 7.64408 1.87892 9.32807 1.9472C11.012 2.01548 12.5999 2.62505 13.7988 3.64767C14.9961 4.66891 15.7206 6.02788 15.8614 7.4651C16.002 8.90132 15.5531 10.3437 14.5793 11.5251C13.6036 12.7088 12.165 13.5508 10.5217 13.8764C8.87827 14.202 7.15975 13.9848 5.68961 13.2711C5.56447 13.2104 5.42265 13.1931 5.28659 13.222L2.43834 13.828L3.17625 11.6143C3.23769 11.43 3.20991 11.2276 3.10108 11.0666C2.2555 9.81601 1.95527 8.34616 2.24275 6.92593C2.5306 5.50378 3.39338 4.20492 4.69476 3.28166ZM1.64039 15.2758C1.58359 15.2889 1.52457 15.2942 1.46496 15.2909C1.38825 15.2866 1.31413 15.2682 1.24583 15.2377C1.16291 15.2009 1.0914 15.1477 1.0339 15.0832C0.976281 15.0189 0.931379 14.9419 0.9041 14.8554C0.881465 14.7841 0.871461 14.7084 0.875812 14.6317C0.879121 14.572 0.89098 14.514 0.910404 14.459L1.89566 11.5032C0.997782 10.0408 0.68174 8.33719 1.01759 6.67794C1.37344 4.9199 2.43169 3.35456 3.97149 2.26216C5.50996 1.1707 7.43132 0.619269 9.37871 0.698228C11.3261 0.777187 13.186 1.48203 14.61 2.69663C16.0356 3.91259 16.9309 5.56139 17.1054 7.34324C17.28 9.12609 16.7185 10.8951 15.5438 12.3202C14.3711 13.7429 12.6694 14.7252 10.7646 15.1026C8.9324 15.4655 7.01567 15.2488 5.34125 14.4884L1.64039 15.2758ZM9.62499 8C9.62499 7.65482 9.34516 7.375 8.99999 7.375C8.65481 7.375 8.37499 7.65482 8.37499 8V8.00833C8.37499 8.35351 8.65481 8.63333 8.99999 8.63333C9.34516 8.63333 9.62499 8.35351 9.62499 8.00833V8ZM5.66665 7.375C6.01183 7.375 6.29165 7.65482 6.29165 8V8.00833C6.29165 8.35351 6.01183 8.63333 5.66665 8.63333C5.32148 8.63333 5.04165 8.35351 5.04165 8.00833V8C5.04165 7.65482 5.32148 7.375 5.66665 7.375ZM12.9583 8C12.9583 7.65482 12.6785 7.375 12.3333 7.375C11.9881 7.375 11.7083 7.65482 11.7083 8V8.00833C11.7083 8.35351 11.9881 8.63333 12.3333 8.63333C12.6785 8.63333 12.9583 8.35351 12.9583 8.00833V8Z" fill="#A5ADC0"/>
</svg>
