<svg width="18" height="18" viewBox="0 0 18 18" fill="none" xmlns="http://www.w3.org/2000/svg">
<path fill-rule="evenodd" clip-rule="evenodd" d="M8.21155 2.74485C8.41205 1.91838 9.58795 1.91838 9.78845 2.74485C9.8649 3.06025 10.0147 3.35315 10.2257 3.59972C10.4368 3.84633 10.7031 4.03962 11.003 4.16386C11.3029 4.2881 11.6278 4.33978 11.9515 4.31469C12.275 4.2896 12.5881 4.18849 12.8652 4.01959C13.5914 3.57713 14.4238 4.40854 13.9812 5.13571C13.8125 5.41274 13.7115 5.72567 13.6865 6.04908C13.6614 6.37248 13.7131 6.69723 13.8372 6.99692C13.9612 7.29662 14.1543 7.5628 14.4006 7.77384C14.647 7.98488 14.9396 8.13482 15.2548 8.21147L15.2552 8.21155C16.0816 8.41205 16.0816 9.58795 15.2552 9.78845C14.9398 9.8649 14.6468 10.0147 14.4003 10.2257C14.1537 10.4368 13.9604 10.7031 13.8361 11.003C13.7119 11.3029 13.6602 11.6278 13.6853 11.9515C13.7104 12.275 13.8115 12.5881 13.9804 12.8652C14.4229 13.5914 13.5915 14.4238 12.8643 13.9812C12.5873 13.8125 12.2743 13.7115 11.9509 13.6865C11.6275 13.6614 11.3028 13.7131 11.0031 13.8372C10.7034 13.9612 10.4372 14.1543 10.2262 14.4006C10.0151 14.647 9.86518 14.9396 9.78853 15.2548L9.78845 15.2552C9.58795 16.0816 8.41205 16.0816 8.21155 15.2552C8.1351 14.9398 7.98527 14.6468 7.77425 14.4003C7.56319 14.1537 7.29689 13.9604 6.99701 13.8361C6.69713 13.7119 6.37216 13.6602 6.04853 13.6853C5.72498 13.7104 5.41193 13.8115 5.13484 13.9804C4.40855 14.4229 3.57621 13.5915 4.01878 12.8643C4.18752 12.5873 4.28851 12.2743 4.31354 11.9509C4.33857 11.6275 4.28694 11.3028 4.16285 11.0031C4.03875 10.7034 3.84569 10.4372 3.59936 10.2262C3.35302 10.0151 3.06037 9.86518 2.74519 9.78853L2.74485 9.78845C1.91838 9.58795 1.91838 8.41205 2.74485 8.21155C3.06025 8.1351 3.35315 7.98527 3.59972 7.77425C3.84633 7.56319 4.03962 7.29689 4.16386 6.99701C4.2881 6.69713 4.33978 6.37216 4.31469 6.04853C4.2896 5.72498 4.18849 5.41193 4.01959 5.13484C3.57711 4.40852 4.40863 3.57613 5.13582 4.01885L5.13614 4.01904C6.33071 4.74534 7.8815 4.1021 8.21147 2.74518L8.21155 2.74485ZM11.0032 2.45015C10.4937 0.35006 7.5066 0.34995 6.99686 2.44982L6.99678 2.45015C6.86658 2.98467 6.25752 3.23793 5.78553 2.95096C3.93946 1.82745 1.82795 3.93992 2.95208 5.78516L2.9522 5.78536C3.01873 5.89447 3.05855 6.01775 3.06843 6.14516C3.07831 6.27257 3.05796 6.40051 3.00905 6.51857C2.96014 6.63663 2.88404 6.74147 2.78695 6.82456C2.68986 6.90766 2.57452 6.96665 2.45032 6.99674L2.45015 6.99678C0.34995 7.50629 0.34995 10.4937 2.45015 11.0032C2.57411 11.0334 2.68921 11.0924 2.7861 11.1754C2.88308 11.2585 2.95908 11.3633 3.00794 11.4813C3.0568 11.5993 3.07712 11.7271 3.06727 11.8545C3.05741 11.9818 3.01765 12.105 2.95122 12.214L2.95115 12.2142C1.82721 14.0603 3.93982 16.1721 5.78516 15.0479L5.78536 15.0478C5.89447 14.9813 6.01775 14.9414 6.14516 14.9316C6.27257 14.9217 6.40051 14.942 6.51857 14.991C6.63663 15.0399 6.74147 15.116 6.82456 15.2131C6.90766 15.3101 6.96665 15.4255 6.99674 15.5497L6.99678 15.5498C7.50629 17.65 10.4937 17.65 11.0032 15.5498C11.0334 15.4259 11.0924 15.3108 11.1754 15.2139C11.2585 15.1169 11.3633 15.0409 11.4813 14.9921C11.5993 14.9432 11.7271 14.9229 11.8545 14.9327C11.9818 14.9426 12.105 14.9823 12.214 15.0488L12.2142 15.0488C14.0603 16.1728 16.1721 14.0602 15.0479 12.2148L15.0478 12.2146C14.9813 12.1055 14.9414 11.9822 14.9316 11.8548C14.9217 11.7274 14.942 11.5995 14.991 11.4814C15.0399 11.3634 15.116 11.2585 15.2131 11.1754C15.3101 11.0923 15.4255 11.0334 15.5497 11.0033L15.5498 11.0032C17.65 10.4937 17.65 7.50629 15.5498 6.99678C15.4259 6.96658 15.3108 6.90759 15.2139 6.82458C15.1169 6.74149 15.0409 6.6367 14.9921 6.51871C14.9432 6.40072 14.9229 6.27287 14.9327 6.14554C14.9426 6.01822 14.9823 5.89502 15.0488 5.78596L15.0488 5.78584C16.1728 3.9397 14.0602 1.82789 12.2148 2.95208L12.2146 2.9522C12.1055 3.01873 11.9822 3.05855 11.8548 3.06843C11.7274 3.07831 11.5995 3.05796 11.4814 3.00905C11.3634 2.96014 11.2585 2.88404 11.1754 2.78695C11.0923 2.68986 11.0334 2.57452 11.0033 2.45032L11.0032 2.45015ZM7.125 9C7.125 7.96447 7.96447 7.125 9 7.125C10.0355 7.125 10.875 7.96447 10.875 9C10.875 10.0355 10.0355 10.875 9 10.875C7.96447 10.875 7.125 10.0355 7.125 9ZM9 5.875C7.27411 5.875 5.875 7.27411 5.875 9C5.875 10.7259 7.27411 12.125 9 12.125C10.7259 12.125 12.125 10.7259 12.125 9C12.125 7.27411 10.7259 5.875 9 5.875Z" fill="#5369B9"/>
</svg>
