<svg width="18" height="18" viewBox="0 0 18 18" fill="none" xmlns="http://www.w3.org/2000/svg">
<path fill-rule="evenodd" clip-rule="evenodd" d="M14 2.125C12.9645 2.125 12.125 2.96447 12.125 4C12.125 4.27193 12.1829 4.53034 12.287 4.76358C12.2935 4.7745 12.2997 4.78569 12.3056 4.79713C12.3167 4.81864 12.3264 4.8405 12.3348 4.86261C12.647 5.46409 13.2755 5.875 14 5.875C15.0355 5.875 15.875 5.03553 15.875 4C15.875 2.96447 15.0355 2.125 14 2.125ZM10.875 4C10.875 4.26947 10.9091 4.53098 10.9732 4.78044L6.47822 7.09605C5.9069 6.35351 5.00933 5.875 4 5.875C2.27411 5.875 0.875 7.27411 0.875 9C0.875 10.7259 2.27411 12.125 4 12.125C5.00932 12.125 5.90688 11.6465 6.4782 10.904L10.9732 13.2196C10.9091 13.469 10.875 13.7305 10.875 14C10.875 15.7259 12.2741 17.125 14 17.125C15.7259 17.125 17.125 15.7259 17.125 14C17.125 12.2741 15.7259 10.875 14 10.875C12.9907 10.875 12.0931 11.3535 11.5218 12.0961L7.02676 9.78045C7.09089 9.53099 7.125 9.26948 7.125 9C7.125 8.73054 7.09089 8.46904 7.02676 8.21958L11.5218 5.90397C12.0931 6.6465 12.9907 7.125 14 7.125C15.7259 7.125 17.125 5.72589 17.125 4C17.125 2.27411 15.7259 0.875 14 0.875C12.2741 0.875 10.875 2.27411 10.875 4ZM5.71305 9.76343C5.81714 9.53023 5.875 9.27187 5.875 9C5.875 8.72819 5.81716 8.46988 5.71312 8.23672C5.70657 8.22572 5.70032 8.21444 5.69438 8.20291C5.68325 8.1813 5.67349 8.15934 5.66509 8.13713C5.35284 7.53579 4.72439 7.125 4 7.125C2.96447 7.125 2.125 7.96447 2.125 9C2.125 10.0355 2.96447 10.875 4 10.875C4.72443 10.875 5.35291 10.4642 5.66515 9.86277C5.67354 9.84061 5.68327 9.8187 5.69438 9.79713C5.7003 9.78563 5.70653 9.7744 5.71305 9.76343ZM12.2869 13.2366C12.2935 13.2256 12.2997 13.2144 12.3056 13.2029C12.3167 13.1813 12.3264 13.1594 12.3348 13.1373C12.6471 12.5359 13.2755 12.125 14 12.125C15.0355 12.125 15.875 12.9645 15.875 14C15.875 15.0355 15.0355 15.875 14 15.875C12.9645 15.875 12.125 15.0355 12.125 14C12.125 13.7281 12.1829 13.4698 12.2869 13.2366Z" fill="#18338C"/>
</svg>
