<svg width="89" height="28" viewBox="0 0 89 28" fill="none" xmlns="http://www.w3.org/2000/svg">
<path d="M10.2967 17.6126C11.7831 17.3606 12.9909 16.5951 13.8177 15.2975C13.827 15.2789 13.8549 15.2695 13.8827 15.2415C13.892 15.2975 13.9106 15.3256 13.9106 15.3536C13.9756 15.9977 14.05 16.6324 14.115 17.2765C14.1336 17.4446 14.1707 17.5193 14.3565 17.5099C14.8582 17.4912 15.3692 17.5006 15.8708 17.5006C16.0659 17.5006 16.261 17.5006 16.4654 17.5006C16.4654 14.5041 16.4654 11.5262 16.4654 8.54842C14.2543 8.54842 12.0526 8.54842 9.86005 8.54842C9.86005 9.35122 9.86005 10.1354 9.86005 10.9475C11.1142 10.9475 12.3498 10.9475 13.5947 10.9475C13.5947 11.0035 13.5947 11.0315 13.5947 11.0688C13.3718 12.4224 12.7493 13.5426 11.5973 14.3174C10.5754 14.9988 9.44199 15.1762 8.24355 15.0362C6.62705 14.8401 5.39144 14.056 4.68538 12.5718C3.74707 10.5928 3.70062 8.53908 4.3788 6.47607C4.79687 5.20653 5.59583 4.22636 6.85001 3.6756C7.77904 3.26487 8.75451 3.19019 9.74857 3.32088C11.2071 3.50758 12.3406 4.21703 13.0838 5.49591C13.2696 5.8133 13.4089 6.16802 13.5762 6.51341C14.4309 6.15869 15.2949 5.79463 16.1867 5.42123C16.0752 5.18786 15.973 4.97316 15.8616 4.75845C14.9883 3.11551 13.7341 1.89264 11.9968 1.20186C10.4918 0.61376 8.94032 0.520411 7.37027 0.781788C4.80616 1.20186 2.92953 2.57409 1.87044 4.95449C0.820638 7.30688 0.737028 9.75262 1.41522 12.217C1.86115 13.86 2.72514 15.2509 4.10939 16.2684C5.96744 17.6219 8.07632 17.9767 10.2967 17.6126Z" fill="#41C3D8"/>
<path d="M53.4885 14.7928C53.9159 14.2327 54.2503 13.6353 54.5291 12.9632C53.6093 12.5898 52.7082 12.2164 51.7884 11.843C51.6769 12.0857 51.5747 12.3097 51.4633 12.5244C50.9151 13.5886 50.1069 14.3634 48.9456 14.7088C48.1652 14.9328 47.3663 14.9702 46.5673 14.8768C44.8672 14.6901 43.5758 13.878 42.8791 12.2911C42.0429 10.3681 42.0058 8.37973 42.7211 6.41941C43.2135 5.05651 44.189 4.14169 45.5825 3.72162C46.5394 3.44158 47.5149 3.42291 48.4904 3.60027C50.0976 3.88965 51.1846 4.79514 51.6955 6.37273C51.7141 6.41941 51.7327 6.46608 51.7513 6.51275C52.6803 6.13936 53.5907 5.78463 54.5012 5.41124C54.4733 5.35523 54.464 5.31789 54.4547 5.28988C54.3711 5.12186 54.2968 4.95383 54.2132 4.79514C53.2842 3.01217 51.9092 1.73329 50.0047 1.07985C48.5926 0.594434 47.134 0.52909 45.6661 0.771797C43.1392 1.19187 41.2626 2.53609 40.2035 4.87915C38.9865 7.58627 38.9679 10.3681 40.0363 13.1219C40.7795 15.0355 42.1266 16.4077 44.0496 17.1545C45.4339 17.696 46.8739 17.8266 48.351 17.6586C50.4599 17.4346 52.1879 16.4918 53.4885 14.7928Z" fill="#41C3D8"/>
<path d="M66.085 9.46278C65.8341 7.85718 64.998 6.69032 63.493 6.03688C62.5454 5.62614 61.542 5.53279 60.5201 5.59814C59.2195 5.69148 58.0675 6.14889 57.1106 7.05438C56.7761 7.37176 56.4788 7.73583 56.163 8.08122C56.9248 8.63197 57.6401 9.15473 58.3555 9.66815C58.3741 9.64948 58.3926 9.64948 58.3926 9.64014C58.4112 9.62147 58.4205 9.59347 58.4391 9.5748C59.108 8.56663 60.0184 8.05321 61.2447 8.08122C62.4804 8.10922 63.3258 8.89335 63.4094 10.1349C63.4187 10.2562 63.428 10.3776 63.4373 10.5083C63.3258 10.5083 63.2514 10.5083 63.1864 10.5083C62.2109 10.5083 61.2447 10.5083 60.2693 10.5083C59.3681 10.5176 58.4763 10.611 57.6215 10.947C56.4881 11.3951 55.7449 12.1886 55.6241 13.4394C55.4755 14.961 55.9865 16.2026 57.3057 17.0334C58.021 17.4815 58.8107 17.6775 59.6375 17.7242C61.2169 17.8268 62.5268 17.3134 63.4837 16.0065C63.5116 15.9599 63.558 15.9225 63.6138 15.8478C63.6788 16.4173 63.7438 16.9494 63.7996 17.4815C64.5892 17.4815 65.3603 17.4815 66.1593 17.4815C66.1593 17.3974 66.1593 17.3134 66.1593 17.2387C66.1593 15.0357 66.1593 12.8327 66.1593 10.6296C66.1593 10.2562 66.1407 9.85485 66.085 9.46278ZM62.8427 14.1396C62.0716 15.1384 60.6502 15.5771 59.4982 15.1851C59.0522 15.0264 58.6899 14.765 58.5599 14.2796C58.4298 13.8035 58.6249 13.3181 59.0801 12.9914L63.3258 12.5713C63.3536 12.5713 63.3722 12.5806 63.428 12.5806C63.4094 13.1874 63.1864 13.6915 62.8427 14.1396Z" fill="#41C3D8"/>
<path d="M77.6427 14.1391C78.2559 15.8193 79.4543 16.9209 81.1823 17.3969C82.6037 17.789 84.0252 17.7423 85.428 17.2849C86.4035 16.9675 87.2024 16.3888 87.9085 15.6326C87.2489 15.0539 86.5986 14.4845 85.9482 13.9057C85.5488 14.3071 85.1121 14.6245 84.5919 14.7925C84.0252 14.9792 83.4306 15.0072 82.836 14.9885C81.5168 14.9512 80.6063 14.2231 80.2905 12.9815C80.2626 12.8602 80.244 12.7295 80.2161 12.5801C82.9103 12.5801 85.5673 12.5801 88.2801 12.5801C88.2987 12.1787 88.3266 11.796 88.3266 11.4133C88.3266 10.6571 88.2244 9.91969 88.0014 9.19157C87.5183 7.62331 86.5707 6.48445 84.9821 5.95236C84.0066 5.62564 83.0032 5.56963 81.9813 5.69098C80.2533 5.90569 78.9062 6.75516 78.0608 8.28608C77.0389 10.1531 76.9088 12.1414 77.6427 14.1391ZM82.8081 8.03404C84.4339 8.02471 85.5766 9.06088 85.5209 10.4985C83.765 10.4985 82.0092 10.4985 80.2533 10.4985C80.1976 9.22891 81.4239 8.04338 82.8081 8.03404Z" fill="#41C3D8"/>
<path d="M33.736 6.06502C33.736 7.904 33.7453 9.74297 33.7267 11.5819C33.7267 11.9927 33.6895 12.3941 33.6245 12.7955C33.5223 13.4209 33.2993 14.009 32.8162 14.4478C32.2124 14.9985 31.4691 15.1012 30.6981 15.0359C29.7226 14.9518 29.1837 14.4758 29.0072 13.5143C28.9329 13.1315 28.9143 12.7301 28.9143 12.3381C28.905 10.2377 28.9143 8.1467 28.905 6.04635C28.905 5.96234 28.8957 5.87833 28.8957 5.79431C27.9296 5.79431 26.9912 5.79431 26.0251 5.79431C26.0251 5.87833 26.0251 5.96234 26.0251 6.03702C26.0251 8.24005 26.0158 10.4431 26.0343 12.6461C26.0343 13.1595 26.0994 13.6916 26.1923 14.1957C26.3874 15.1945 26.8054 16.0907 27.5672 16.7815C28.4312 17.5749 29.481 17.8457 30.6237 17.771C31.8129 17.6963 32.8162 17.2202 33.5966 16.3054C33.6245 16.2681 33.6616 16.2401 33.736 16.1747C33.736 16.6508 33.736 17.0709 33.736 17.5003C34.7114 17.5003 35.6591 17.5003 36.6159 17.5003C36.6159 13.5889 36.6159 9.6963 36.6159 5.79431C35.6591 5.79431 34.7114 5.79431 33.736 5.79431C33.736 5.88766 33.736 5.98101 33.736 6.06502Z" fill="#41C3D8"/>
<path d="M24.1574 15.119C23.9159 15.1376 23.7022 15.175 23.4792 15.175C22.7081 15.175 22.448 14.9043 22.448 14.1761C22.4573 9.83541 22.4573 5.49469 22.4573 1.1633C22.4573 0.976606 22.4016 0.929932 22.225 0.929932C21.5376 0.939267 20.8594 0.929932 20.1719 0.929932C19.9861 0.929932 19.8096 0.929932 19.5959 0.929932C19.5959 1.05129 19.5959 1.1353 19.5959 1.21931C19.5959 5.86809 19.5959 10.5169 19.5959 15.1656C19.5959 15.455 19.6238 15.7444 19.6702 16.0338C19.8282 16.9766 20.3949 17.518 21.3332 17.6861C21.9742 17.7981 22.6152 17.7421 23.2563 17.6581C23.5628 17.6207 23.8601 17.5647 24.1574 17.518C24.1574 16.6966 24.1574 15.9124 24.1574 15.119Z" fill="#41C3D8"/>
<path d="M71.9559 17.2473C71.9559 15.5016 71.9559 13.7654 71.9559 12.0197C71.9559 11.4503 72.0488 10.8902 72.2346 10.3488C72.4204 9.80736 72.7177 9.33129 73.1357 8.92989C73.786 8.30445 75.096 8.06174 75.9693 8.71518C76.3966 7.94039 76.824 7.16559 77.2606 6.38146C77.177 6.32545 77.1212 6.27878 77.0562 6.2321C76.5174 5.88671 75.9135 5.71868 75.2818 5.63467C73.9811 5.45731 72.792 6.07341 72.1974 7.25894C72.1324 7.38029 72.0766 7.51098 72.0116 7.63234C71.993 7.63234 71.9837 7.623 71.9652 7.623C71.9652 7.01623 71.9652 6.40947 71.9652 5.79336C71.0361 5.79336 70.1257 5.79336 69.2152 5.79336C69.2152 9.70468 69.2152 13.5973 69.2152 17.4993C70.135 17.4993 71.0268 17.4993 71.9559 17.4993C71.9559 17.3966 71.9559 17.322 71.9559 17.2473Z" fill="#41C3D8"/>
<path d="M38.9481 20.8512C38.3257 20.7579 37.6939 20.8046 37.0622 20.7766C36.8764 20.7672 36.83 20.8232 36.83 21.0099C36.8392 22.5315 36.83 24.0531 36.83 25.5747C36.83 25.64 36.83 25.7054 36.83 25.8174C37.5453 25.7987 38.2328 25.8174 38.9017 25.7427C39.7471 25.6494 40.3881 25.2106 40.704 24.3798C40.8712 23.9411 40.8991 23.4837 40.8619 23.0169C40.8062 21.8034 40.1373 21.0193 38.9481 20.8512ZM39.9329 23.7917C39.8586 24.3705 39.4963 24.7532 38.9295 24.8746C38.5486 24.9586 38.1492 24.9586 37.7404 24.9959C37.7404 23.8291 37.7404 22.7369 37.7404 21.6167C38.2978 21.6074 38.8645 21.5513 39.3755 21.8407C39.7006 22.0181 39.8864 22.3261 39.9329 22.6809C39.9701 23.0449 39.9886 23.4277 39.9329 23.7917Z" fill="#41C3D8"/>
<path d="M17.1072 22.484C16.9492 22.288 16.8006 22.1199 16.652 21.9426C16.494 22.0826 16.3547 22.2133 16.206 22.316C16.1503 22.3533 16.0481 22.372 15.9924 22.3533C15.6579 22.2133 15.3142 22.1759 14.9518 22.2413C14.1622 22.3813 13.6791 23.0721 13.8835 23.8095C13.9299 23.9869 14.0228 24.1456 14.0971 24.3136C13.6791 24.8084 13.6884 25.2098 14.1157 25.7512C14.0507 25.8072 13.9857 25.8819 13.9113 25.9286C13.7627 26.0312 13.7348 26.1806 13.7627 26.3486C13.8184 26.7314 13.9949 27.0488 14.3387 27.2168C14.6174 27.3475 14.9333 27.4315 15.2398 27.4688C15.7136 27.5155 16.1874 27.4595 16.5869 27.1421C16.9121 26.8807 17.0143 26.5353 16.9585 26.1339C16.9121 25.7419 16.6612 25.5178 16.2989 25.4058C16.1503 25.3591 15.9924 25.3218 15.8437 25.2938C15.5093 25.2378 15.1655 25.2004 14.8311 25.1351C14.7382 25.1164 14.636 25.0511 14.5709 24.9764C14.5338 24.9391 14.5431 24.827 14.5709 24.7617C14.5895 24.7337 14.6917 24.7244 14.7475 24.7337C14.9147 24.7524 15.0819 24.8084 15.2491 24.8177C16.364 24.8551 17.005 23.9216 16.6334 23.0067C16.6148 22.9601 16.6427 22.8667 16.6891 22.8294C16.8285 22.708 16.9678 22.596 17.1072 22.484ZM14.6174 26.0312C14.6453 25.9846 14.7196 25.9472 14.7753 25.9566C15.1284 26.0032 15.4814 26.0499 15.8251 26.1059C15.9831 26.1339 16.1503 26.1806 16.1596 26.3766C16.1689 26.582 16.0202 26.6754 15.8437 26.7314C15.7044 26.7687 15.565 26.778 15.4164 26.806C15.1469 26.7967 14.9054 26.75 14.6917 26.5913C14.4873 26.4233 14.4595 26.246 14.6174 26.0312ZM15.3235 24.0989C14.9704 24.0989 14.7382 23.8656 14.7289 23.5015C14.7289 23.1281 14.9704 22.8761 15.3142 22.8761C15.6579 22.8761 15.8902 23.1281 15.8902 23.4922C15.8994 23.8562 15.6765 24.0989 15.3235 24.0989Z" fill="#41C3D8"/>
<path d="M70.3204 24.3043C70.0231 24.8644 69.5307 25.0417 68.9361 25.0044C68.3973 24.967 67.9792 24.7337 67.747 24.2296C67.5612 23.8468 67.524 23.4454 67.5519 23.0347C67.6355 21.9425 68.4623 21.3451 69.5214 21.6065C69.9766 21.7185 70.2832 22.0079 70.4226 22.4746C70.7106 22.3626 70.9707 22.2599 71.2494 22.1479C70.8871 21.2891 70.2461 20.8037 69.2706 20.7197C68.1929 20.6263 67.2174 21.0931 66.8272 22.2506C66.7343 22.5213 66.6879 22.8107 66.6693 23.1001C66.6228 23.7908 66.7529 24.4443 67.1803 25.0044C67.812 25.8072 68.676 25.9845 69.6236 25.8072C70.4133 25.6578 70.9335 25.1631 71.2587 24.4256C70.98 24.3136 70.7106 24.2016 70.4411 24.0896C70.3947 24.1642 70.3575 24.2296 70.3204 24.3043Z" fill="#41C3D8"/>
<path d="M49.0841 22.1861C48.7589 22.2048 48.4802 22.3355 48.2201 22.5969C48.2201 21.9714 48.2201 21.402 48.2201 20.8139C47.9228 20.8139 47.6441 20.8139 47.3468 20.8139C47.3468 22.4848 47.3468 24.1371 47.3468 25.7894C47.6441 25.7894 47.9228 25.7894 48.2108 25.7894C48.2201 25.6867 48.2294 25.5934 48.2387 25.4907C48.954 26.1441 50.2825 26.0134 50.6448 24.7346C50.7935 24.2025 50.7842 23.6797 50.5891 23.1663C50.329 22.4848 49.7901 22.1395 49.0841 22.1861ZM49.7623 24.5852C49.6229 24.9119 49.3628 25.0706 49.019 25.0706C48.6753 25.0706 48.3966 24.9399 48.2665 24.6132C48.1922 24.4265 48.1643 24.2211 48.1179 24.0624C48.155 23.8757 48.1643 23.7357 48.2015 23.5957C48.3223 23.185 48.6288 22.9516 49.019 22.9609C49.4185 22.9703 49.6972 23.1943 49.8087 23.605C49.9109 23.9318 49.9016 24.2585 49.7623 24.5852Z" fill="#41C3D8"/>
<path d="M32.8442 22.5696C31.9523 21.8788 30.8932 22.1402 30.4938 23.1297C30.2615 23.7178 30.2615 24.3245 30.4938 24.922C30.7818 25.6408 31.4414 25.9955 32.1939 25.8181C32.4354 25.7621 32.6584 25.6034 32.8814 25.4914C32.8906 25.5661 32.9092 25.6688 32.9278 25.7714C33.1972 25.7714 33.4481 25.7714 33.6896 25.7714C33.6896 24.1005 33.6896 22.4482 33.6896 20.7866C33.4016 20.7866 33.1229 20.7866 32.8349 20.7866C32.8442 21.3841 32.8442 21.9535 32.8442 22.5696ZM32.8814 24.3432C32.8163 24.8193 32.4912 25.0807 32.0452 25.0713C31.59 25.062 31.2834 24.7633 31.2184 24.2779C31.2091 24.1939 31.2091 24.1098 31.1998 24.0258C31.1905 24.0258 31.1905 24.0258 31.1812 24.0258C31.2091 23.8671 31.2277 23.6991 31.2741 23.5404C31.3856 23.1764 31.6829 22.9616 32.0545 22.9616C32.4261 22.9616 32.7327 23.1577 32.8256 23.5404C32.8999 23.7925 32.9185 24.0818 32.8814 24.3432Z" fill="#41C3D8"/>
<path d="M45.1528 22.2137C44.9949 22.1951 44.8369 22.1857 44.679 22.2044C44.1401 22.2511 43.7128 22.5031 43.3969 22.9605C43.6199 23.1192 43.8336 23.2779 44.0379 23.4273C44.4281 22.9885 44.8183 22.8485 45.1992 23.0072C45.4501 23.1192 45.5894 23.3619 45.5616 23.6886C45.2643 23.6886 44.9577 23.6793 44.6604 23.6886C44.4188 23.698 44.168 23.7166 43.945 23.782C43.2947 23.9593 43.0346 24.5754 43.3133 25.1822C43.6478 25.9197 44.8462 26.1064 45.4408 25.5183C45.4965 25.4623 45.5523 25.3969 45.6266 25.3036C45.6545 25.4996 45.673 25.6396 45.6916 25.7796C45.9332 25.7796 46.1561 25.7796 46.3977 25.7796C46.3977 25.0702 46.3977 24.3701 46.3977 23.67C46.3977 22.8485 45.961 22.3257 45.1528 22.2137ZM44.4281 25.1075C44.2423 25.0515 44.0937 24.9488 44.0937 24.7435C44.0937 24.5474 44.2145 24.4261 44.391 24.3701C44.5025 24.3327 44.6232 24.3141 44.7347 24.3047C45.0041 24.2954 45.2828 24.3047 45.5708 24.3047C45.5058 24.8835 44.9484 25.2569 44.4281 25.1075Z" fill="#41C3D8"/>
<path d="M22.1596 22.2333C21.9552 22.1959 21.7415 22.1773 21.5372 22.1959C20.9983 22.2426 20.571 22.4946 20.2644 22.952C20.4874 23.1107 20.6917 23.2601 20.9054 23.4188C21.2956 22.9707 21.7137 22.8307 22.0946 23.0174C22.3361 23.1387 22.4662 23.4001 22.4104 23.6802C22.1132 23.6802 21.8159 23.6708 21.5093 23.6802C21.277 23.6895 21.0355 23.7175 20.8125 23.7735C20.4502 23.8669 20.1808 24.0722 20.1065 24.4643C20.0229 24.8844 20.125 25.2484 20.4409 25.5378C20.8683 25.9299 21.8902 26.0606 22.4012 25.4165C22.429 25.3885 22.4662 25.3604 22.5033 25.3324C22.5312 25.4911 22.5498 25.6312 22.5684 25.7712C22.8099 25.7712 23.0236 25.7712 23.2559 25.7712C23.2651 25.7338 23.2652 25.7058 23.2652 25.6872C23.2652 24.959 23.2744 24.2403 23.2652 23.5121C23.2466 22.868 22.8006 22.3546 22.1596 22.2333ZM21.9738 25.0151C21.7044 25.1644 21.4257 25.1924 21.147 25.0337C20.8961 24.8937 20.8868 24.595 21.1191 24.4363C21.2027 24.3803 21.3049 24.3243 21.4071 24.3243C21.7415 24.3149 22.076 24.3149 22.4383 24.3149C22.4104 24.651 22.2339 24.8657 21.9738 25.0151Z" fill="#41C3D8"/>
<path d="M29.2227 22.4655C28.3029 21.8494 26.993 22.2788 26.6586 23.3336C26.5657 23.623 26.5378 23.9404 26.5471 24.2484C26.5749 24.9952 27.0488 25.574 27.7455 25.7607C28.1915 25.882 28.6281 25.8634 29.0647 25.7047C29.3435 25.6113 29.5757 25.4433 29.7708 25.2193C29.5757 25.0419 29.3806 24.8832 29.1855 24.7152C28.7396 25.0419 28.2472 25.1259 27.8756 24.9485C27.6155 24.8272 27.4854 24.6125 27.4482 24.2951C28.2658 24.2951 29.0647 24.2951 29.8823 24.2951C29.8823 24.0617 29.9009 23.8657 29.8823 23.6697C29.8173 23.1842 29.65 22.7548 29.2227 22.4655ZM27.4761 23.6697C27.4668 23.2589 27.792 22.9322 28.2286 22.9322C28.7117 22.9229 29.0183 23.2029 29.0276 23.6697C28.5073 23.6697 27.9964 23.6697 27.4761 23.6697Z" fill="#41C3D8"/>
<path d="M73.9914 22.3176C73.3132 22.1029 72.6629 22.1496 72.1241 22.6817C71.4923 23.3071 71.4366 24.5207 71.994 25.2114C72.4585 25.7902 73.0903 25.8929 73.7685 25.8089C74.1958 25.7529 74.5488 25.5568 74.8554 25.2301C74.6603 25.0528 74.4652 24.8847 74.2701 24.7167C73.8706 25.0621 73.4247 25.1368 72.9602 24.9407C72.7001 24.8381 72.5793 24.614 72.5421 24.2966C72.6443 24.2966 72.7094 24.2966 72.7837 24.2966C73.3225 24.2966 73.8614 24.2966 74.4002 24.2966C75.0319 24.2966 75.0412 24.2966 74.9669 23.6525C74.8833 23.0271 74.6232 22.523 73.9914 22.3176ZM72.5514 23.6712C72.6165 23.1858 72.9138 22.9244 73.3597 22.9337C73.8242 22.9524 74.0936 23.2044 74.1215 23.6712C73.6012 23.6712 73.081 23.6712 72.5514 23.6712Z" fill="#41C3D8"/>
<path d="M12.2766 22.3176C11.5984 22.1029 10.9481 22.1496 10.4092 22.6817C9.7775 23.3071 9.72175 24.5207 10.2792 25.2114C10.7437 25.7902 11.3754 25.8929 12.0536 25.8089C12.481 25.7529 12.834 25.5568 13.1406 25.2301C12.9362 25.0528 12.7504 24.8847 12.5553 24.7167C12.1558 25.0621 11.7099 25.1368 11.2361 24.9407C10.9759 24.8381 10.8552 24.614 10.818 24.2966C10.9202 24.2966 10.9852 24.2966 11.0595 24.2966C11.5984 24.2966 12.1372 24.2966 12.6761 24.2966C13.3078 24.2966 13.3171 24.2966 13.2428 23.6525C13.1684 23.0271 12.9083 22.523 12.2766 22.3176ZM10.8459 23.6712C10.8459 23.2511 11.1525 22.9431 11.5798 22.9337C12.0722 22.9244 12.3788 23.1858 12.3973 23.6712C11.8771 23.6712 11.3568 23.6712 10.8459 23.6712Z" fill="#41C3D8"/>
<path d="M58.2812 22.5216C57.5008 23.1097 57.3522 24.4913 58.0118 25.2567C58.467 25.7982 59.0802 25.8915 59.7305 25.8075C60.1671 25.7515 60.5387 25.5554 60.836 25.2194C60.6317 25.042 60.4458 24.874 60.2508 24.7153C59.8606 25.0607 59.4239 25.126 58.9687 24.958C58.6993 24.8553 58.5599 24.622 58.5228 24.3046C58.6064 24.3046 58.6807 24.3046 58.7457 24.3046C59.4239 24.3046 60.1021 24.3046 60.771 24.3046C60.8546 24.3046 60.9568 24.3326 60.9568 24.1926C60.9847 23.6325 60.9196 23.091 60.5202 22.6616C59.9999 22.1015 58.9222 22.0455 58.2812 22.5216ZM58.5321 23.6605C58.6064 23.1564 58.9037 22.9043 59.396 22.9323C59.8234 22.9604 60.0928 23.2217 60.1021 23.6605C59.5726 23.6605 59.0616 23.6605 58.5321 23.6605Z" fill="#41C3D8"/>
<path d="M84.6079 22.3349C84.227 22.1856 83.8275 22.1669 83.4281 22.2602C82.0531 22.5776 81.8394 24.4913 82.6384 25.3221C83.1587 25.8635 84.1248 26.0129 84.8495 25.6488C85.0539 25.5461 85.2304 25.3968 85.4348 25.2474C85.2025 25.042 85.0167 24.8834 84.8309 24.7153C84.4128 25.0607 83.9669 25.1354 83.4838 24.9207C83.2423 24.8087 83.1308 24.5846 83.0936 24.2953C83.5117 24.2953 83.9019 24.2953 84.2921 24.2953C84.6915 24.2953 85.091 24.2953 85.5184 24.2953C85.5184 24.0619 85.537 23.8565 85.5184 23.6511C85.4441 23.063 85.2025 22.5683 84.6079 22.3349ZM83.1122 23.6698C83.1679 23.1937 83.4745 22.923 83.9204 22.9324C84.385 22.9417 84.6451 23.1937 84.6823 23.6698C84.162 23.6698 83.6417 23.6698 83.1122 23.6698Z" fill="#41C3D8"/>
<path d="M54.4914 23.586C54.3985 22.9793 54.1291 22.4939 53.5067 22.3072C52.8378 22.1018 52.1967 22.1578 51.6765 22.6712C51.0355 23.2967 50.9797 24.5569 51.5557 25.2383C52.0853 25.8731 52.7913 25.9291 53.5345 25.7611C53.8783 25.6864 54.157 25.4997 54.3985 25.229C54.1941 25.0516 54.0083 24.8836 53.8132 24.7156C53.3952 25.061 52.9492 25.1356 52.4662 24.9209C52.2153 24.8089 52.1131 24.5849 52.076 24.2955C52.1689 24.2955 52.2339 24.2955 52.3082 24.2955C52.9771 24.2955 53.646 24.2955 54.3149 24.2955C54.4728 24.2955 54.5379 24.2395 54.5193 24.0901C54.5193 23.9314 54.5193 23.7541 54.4914 23.586ZM52.1038 23.6701C52.1224 23.222 52.4383 22.9233 52.8842 22.9326C53.358 22.9419 53.6553 23.2126 53.6553 23.6701C53.135 23.6701 52.6148 23.6701 52.1038 23.6701Z" fill="#41C3D8"/>
<path d="M5.86584 22.2984C5.34559 22.0931 4.84392 22.1677 4.41657 22.5505C4.3887 22.5691 4.36083 22.5878 4.31438 22.6158C4.30509 22.4851 4.29579 22.3918 4.29579 22.2798C4.0078 22.2798 3.72909 22.2798 3.45038 22.2798C3.45038 23.4653 3.45038 24.6322 3.45038 25.7897C3.73838 25.7897 4.0078 25.7897 4.30509 25.7897C4.30509 25.7057 4.30509 25.6403 4.30509 25.5656C4.30509 25.0242 4.30509 24.4828 4.30509 23.9414C4.30509 23.596 4.44444 23.3253 4.73244 23.1479C4.96469 22.9986 5.22482 22.9425 5.47566 23.0732C5.7172 23.2039 5.75436 23.4466 5.75436 23.6893C5.76365 24.2868 5.75436 24.8749 5.75436 25.4723C5.75436 25.575 5.75436 25.6777 5.75436 25.7897C6.05165 25.7897 6.33036 25.7897 6.61836 25.7897C6.61836 24.9962 6.63694 24.2214 6.60907 23.4466C6.59049 22.9239 6.35823 22.4945 5.86584 22.2984Z" fill="#41C3D8"/>
<path d="M78.8863 23.4281C78.8585 22.9241 78.6355 22.4853 78.1338 22.2893C77.6136 22.0839 77.1119 22.1586 76.6846 22.5413C76.6567 22.56 76.6288 22.5787 76.5824 22.6067C76.5731 22.4853 76.5731 22.3826 76.5638 22.2706C76.2758 22.2706 76.0064 22.2706 75.7184 22.2706C75.7184 23.4561 75.7184 24.6137 75.7184 25.7805C76.0064 25.7805 76.2758 25.7805 76.5731 25.7805C76.5731 25.6965 76.5731 25.6312 76.5731 25.5565C76.5731 25.0151 76.5731 24.4736 76.5731 23.9322C76.5731 23.6708 76.6567 23.4375 76.8518 23.2601C77.0933 23.0361 77.372 22.9147 77.6972 23.0454C78.0038 23.1668 78.0316 23.4655 78.0316 23.7455C78.0409 24.3523 78.0316 24.9591 78.0316 25.5658C78.0316 25.6405 78.0316 25.7058 78.0316 25.7805C78.3382 25.7805 78.6076 25.7805 78.9049 25.7805C78.9049 25.6965 78.9049 25.6218 78.9049 25.5472C78.9049 24.8377 78.9235 24.1376 78.8863 23.4281Z" fill="#41C3D8"/>
<path d="M62.8626 22.8858C62.8719 22.8858 62.8719 22.8858 62.8812 22.8858C63.1785 22.8952 63.3736 23.0725 63.5315 23.3059C63.7545 23.1752 63.9682 23.0632 64.1726 22.9512C64.154 22.9045 64.154 22.8858 64.1447 22.8765C63.6988 22.167 62.5561 21.9617 61.9057 22.5031C61.7478 22.6338 61.627 22.8392 61.5713 23.0445C61.4319 23.5953 61.6549 23.978 62.1937 24.1741C62.4539 24.2674 62.7326 24.3327 63.002 24.4261C63.1599 24.4821 63.3179 24.5474 63.3086 24.7621C63.2993 24.9675 63.1506 25.0702 62.9741 25.1262C62.6118 25.2382 62.2588 25.0889 62.073 24.7528C62.0451 24.6968 62.0079 24.6408 61.9801 24.5848C61.7664 24.6781 61.5713 24.7715 61.3762 24.8555C61.3576 24.8648 61.3483 24.8742 61.3112 24.9022C61.3483 24.9862 61.3855 25.0795 61.4412 25.1635C61.85 25.8357 62.8348 26.0784 63.5687 25.6956C63.9868 25.4716 64.1818 25.1169 64.1726 24.6501C64.1633 24.2021 63.9217 23.9127 63.5222 23.754C63.2714 23.6513 63.002 23.5766 62.7419 23.4926C62.4632 23.3993 62.361 23.2872 62.3888 23.1379C62.4074 22.9605 62.6118 22.8578 62.8626 22.8858Z" fill="#41C3D8"/>
<path d="M56.8232 25.0795C56.4145 25.1542 56.2286 25.0048 56.2286 24.5847C56.2286 24.2487 56.2286 23.9126 56.2286 23.5766C56.2286 23.3805 56.2286 23.1845 56.2286 22.9698C56.5445 22.9698 56.8418 22.9698 57.1298 22.9698C57.1298 22.7271 57.1298 22.5031 57.1298 22.251C56.8232 22.251 56.5352 22.251 56.2286 22.251C56.2286 21.7469 56.2286 21.2709 56.2286 20.7574C56.0336 20.9068 55.8756 21.0468 55.6991 21.1495C55.4761 21.2802 55.3832 21.4482 55.4204 21.7096C55.439 21.8776 55.4204 22.055 55.4204 22.2604C55.2067 22.2604 55.0302 22.2604 54.8444 22.2604C54.8444 22.5124 54.8444 22.7364 54.8444 22.9791C55.0395 22.9791 55.2067 22.9791 55.4111 22.9791C55.4111 23.0632 55.4111 23.1378 55.4111 23.2125C55.4111 23.7633 55.4111 24.3047 55.4111 24.8555C55.4204 25.3502 55.6805 25.6956 56.1357 25.817C56.433 25.8916 56.7396 25.873 57.0276 25.7889C57.0741 25.7796 57.1391 25.7143 57.1391 25.6676C57.1484 25.4529 57.1484 25.2382 57.1484 24.9955C57.009 25.0328 56.9161 25.0608 56.8232 25.0795Z" fill="#41C3D8"/>
<path d="M81.4896 25.061C81.0251 25.1917 80.8022 25.0237 80.8022 24.5383C80.8022 24.0902 80.8022 23.6421 80.8022 23.194C80.8022 23.1287 80.8115 23.054 80.8115 22.97C81.1273 22.97 81.4246 22.97 81.7219 22.97C81.7219 22.7273 81.7219 22.5032 81.7219 22.2605C81.4711 22.2605 81.2388 22.2512 80.9973 22.2605C80.8393 22.2699 80.7929 22.2139 80.7929 22.0552C80.8022 21.6351 80.7929 21.215 80.7929 20.7483C80.5235 20.9537 80.3005 21.1217 80.0775 21.299C80.0311 21.3364 79.9939 21.4297 79.9939 21.4951C79.9846 21.7004 79.9846 21.9058 79.9939 22.1112C79.9939 22.2139 79.9567 22.2512 79.8546 22.2512C79.7152 22.2512 79.5666 22.2512 79.4272 22.2512C79.4272 22.5032 79.4272 22.7366 79.4272 22.9793C79.613 22.9793 79.7895 22.9793 79.966 22.9793C79.966 23.0727 79.966 23.1474 79.966 23.222C79.966 23.7448 79.9567 24.2675 79.966 24.781C79.9753 25.3224 80.2076 25.6678 80.6721 25.7985C80.988 25.8918 81.2945 25.8638 81.6011 25.7798C81.6476 25.7705 81.7126 25.7144 81.7126 25.6771C81.7219 25.4531 81.7219 25.229 81.7219 24.977C81.629 25.0237 81.564 25.0423 81.4896 25.061Z" fill="#41C3D8"/>
<path d="M9.01366 25.0982C8.72566 25.1355 8.53986 25.0048 8.53057 24.7154C8.51199 24.146 8.53057 23.5859 8.53057 23.0165C8.53057 23.0072 8.54915 22.9978 8.57702 22.9698C8.84643 22.9698 9.14372 22.9698 9.43172 22.9698C9.43172 22.7271 9.43172 22.5031 9.43172 22.2604C9.19017 22.2604 8.95792 22.251 8.73495 22.2604C8.57702 22.2697 8.51198 22.223 8.52127 22.055C8.53056 21.831 8.52127 21.6069 8.52127 21.3829C8.52127 21.1869 8.52127 21.0002 8.52127 20.7574C8.27044 20.9535 8.04747 21.1028 7.84309 21.2802C7.77805 21.3362 7.7316 21.4389 7.7316 21.5229C7.71302 21.7563 7.72231 21.999 7.72231 22.2604C7.51793 22.2604 7.33212 22.2604 7.15561 22.2604C7.15561 22.5217 7.15561 22.7458 7.15561 22.9885C7.34141 22.9885 7.50864 22.9885 7.70373 22.9885C7.70373 23.0725 7.70373 23.1472 7.70373 23.2125C7.70373 23.7353 7.70373 24.258 7.70373 24.7714C7.70373 25.2942 7.91741 25.6396 8.33547 25.7889C8.66992 25.9103 9.00437 25.8823 9.33882 25.7889C9.38527 25.7796 9.44101 25.7143 9.44101 25.6769C9.4503 25.4529 9.4503 25.2382 9.4503 25.0048C9.28308 25.0422 9.15301 25.0795 9.01366 25.0982Z" fill="#41C3D8"/>
<path d="M25.6179 25.0982C25.3485 25.1262 25.1627 24.9768 25.1534 24.7061C25.1441 24.1367 25.1534 23.5766 25.1534 22.9698C25.4693 22.9698 25.7573 22.9698 26.0453 22.9698C26.0453 22.7178 26.0453 22.4937 26.0453 22.251C25.7387 22.251 25.4507 22.251 25.1441 22.251C25.1441 21.7563 25.1441 21.2802 25.1441 20.7574C24.9026 20.9348 24.6982 21.1028 24.4845 21.2522C24.3731 21.3269 24.3173 21.4202 24.3266 21.5602C24.3359 21.7843 24.3266 22.0083 24.3266 22.2604C24.1315 22.2604 23.9457 22.2604 23.7692 22.2604C23.7692 22.5124 23.7692 22.7458 23.7692 22.9885C23.9643 22.9885 24.1315 22.9885 24.3173 22.9885C24.3173 23.6233 24.3173 24.23 24.3173 24.8461C24.3173 25.3222 24.5681 25.6676 24.9955 25.7983C25.3114 25.901 25.6272 25.873 25.9431 25.789C25.9896 25.7796 26.0453 25.7143 26.0453 25.6769C26.0546 25.4529 26.0546 25.2382 26.0546 25.0048C25.9059 25.0422 25.7666 25.0795 25.6179 25.0982Z" fill="#41C3D8"/>
<path d="M1.38921 25.7899C1.6865 25.7899 1.96521 25.7899 2.2625 25.7899C2.2625 24.1096 2.2625 22.4573 2.2625 20.7957C1.96521 20.7957 1.67721 20.7957 1.38921 20.7957C1.38921 22.4667 1.38921 24.1189 1.38921 25.7899Z" fill="#41C3D8"/>
<path d="M19.2526 22.2054C18.9367 22.252 18.723 22.4574 18.5465 22.7655C18.5372 22.5601 18.5279 22.4107 18.5279 22.2614C18.2492 22.2614 17.9891 22.2614 17.7197 22.2614C17.7197 23.4469 17.7197 24.6138 17.7197 25.7713C17.9984 25.7713 18.2585 25.7713 18.5372 25.7713C18.5372 25.2392 18.5279 24.7258 18.5372 24.203C18.5372 24.035 18.5651 23.8576 18.6023 23.6989C18.6673 23.4376 18.8066 23.2135 19.0575 23.0828C19.2897 22.9615 19.522 22.9895 19.7542 23.1202C19.8843 22.8775 20.0144 22.6534 20.1351 22.4201C19.8471 22.2427 19.5591 22.168 19.2526 22.2054Z" fill="#41C3D8"/>
<path d="M87.8241 22.2047C87.4989 22.2514 87.2946 22.4661 87.1088 22.7182C87.1088 22.5688 87.1088 22.4194 87.1088 22.2608C86.8301 22.2608 86.5699 22.2608 86.3005 22.2608C86.3005 23.4463 86.3005 24.6038 86.3005 25.7707C86.5792 25.7707 86.8301 25.7707 87.1088 25.7707C87.1088 25.6867 87.1088 25.612 87.1088 25.5466C87.1088 25.0519 87.0995 24.5571 87.1088 24.0624C87.1181 23.7077 87.2202 23.3716 87.5268 23.1476C87.7777 22.9609 88.0471 22.9702 88.3258 23.1196C88.4559 22.8769 88.5766 22.6528 88.7067 22.4194C88.4187 22.2514 88.1307 22.1674 87.8241 22.2047Z" fill="#41C3D8"/>
<path d="M41.6964 25.7806C41.9751 25.7806 42.2445 25.7806 42.5233 25.7806C42.5233 24.5951 42.5233 23.4282 42.5233 22.2707C42.2353 22.2707 41.9751 22.2707 41.6964 22.2707C41.6964 23.4469 41.6964 24.6137 41.6964 25.7806Z" fill="#41C3D8"/>
<path d="M41.6892 21.5705C41.9958 21.5705 42.2838 21.5705 42.5625 21.5705C42.5625 21.2998 42.5625 21.0478 42.5625 20.7957C42.2652 20.7957 41.9772 20.7957 41.6892 20.7957C41.6892 21.0571 41.6892 21.3091 41.6892 21.5705Z" fill="#41C3D8"/>
</svg>
