<svg width="32" height="32" viewBox="0 0 32 32" fill="none" xmlns="http://www.w3.org/2000/svg">
<path fill-rule="evenodd" clip-rule="evenodd" d="M16.0226 0C14.706 0 13.3957 0.772948 10.7749 2.31884L10.7749 2.31888C10.189 2.66448 9.53763 3.04871 8.80606 3.47157C8.08389 3.88948 7.4333 4.25855 6.84724 4.59101C4.18928 6.09884 2.85887 6.85357 2.19942 7.9957C1.53854 9.1403 1.55153 10.674 1.57752 13.7446C1.58322 14.4171 1.58953 15.1633 1.58953 15.9953C1.58953 16.8273 1.58322 17.5735 1.57752 18.246C1.55153 21.3167 1.53854 22.8504 2.19942 23.995C2.85887 25.1371 4.18928 25.8918 6.84725 27.3997C7.4333 27.7321 8.08389 28.1012 8.80606 28.5191C9.52489 28.9351 10.1665 29.3137 10.7447 29.6549C13.3837 31.2121 14.7031 31.9907 16.0226 31.9907C17.3421 31.9907 18.6615 31.2121 21.3005 29.6549C21.8787 29.3137 22.5203 28.9351 23.2391 28.5191C23.9613 28.1012 24.6119 27.7321 25.1979 27.3997C27.8559 25.8918 29.1863 25.1371 29.8458 23.995C30.5066 22.8504 30.4936 21.3167 30.4676 18.246C30.462 17.5735 30.4556 16.8273 30.4556 15.9953C30.4556 15.1633 30.462 14.4171 30.4676 13.7446C30.4737 13.0347 30.479 12.407 30.4754 11.8472C29.6847 12.7756 28.5084 13.3642 27.1951 13.3642C26.8541 13.3642 26.5225 13.3245 26.2044 13.2495C26.2054 13.6084 26.202 14.0056 26.1983 14.448C26.1943 14.9216 26.1899 15.447 26.1899 16.0326C26.1907 16.6182 26.1959 17.1436 26.2006 17.6172C26.222 19.7864 26.2326 20.8694 25.7666 21.6776C25.302 22.4834 24.3633 23.016 22.4888 24.0796C22.075 24.3144 21.6157 24.575 21.1058 24.8702C20.5967 25.1648 20.1426 25.4329 19.7336 25.6743C17.8753 26.7713 16.9461 27.3198 16.0169 27.3198C15.0878 27.3198 14.1586 26.7713 12.3003 25.6743C11.8912 25.4328 11.4371 25.1648 10.9281 24.8702C10.4178 24.5748 9.95815 24.314 9.54414 24.0791C7.67008 23.0157 6.73152 22.4832 6.26601 21.6774C5.79898 20.869 5.80807 19.7855 5.82628 17.6151C5.83025 17.142 5.83465 16.6173 5.83465 16.0326C5.83465 15.4479 5.83025 14.9232 5.82628 14.4501C5.80807 12.2796 5.79898 11.1962 6.26601 10.3878C6.73152 9.58196 7.67008 9.04944 9.54414 7.98612C9.95815 7.75122 10.4178 7.49041 10.9281 7.19503C11.4222 6.90903 11.8646 6.64822 12.2644 6.41255C14.1474 5.30244 15.0845 4.75 16.0216 4.75C16.9535 4.75 17.8791 5.29633 19.7391 6.39415C20.1465 6.63463 20.5988 6.90157 21.1058 7.19503C21.6148 7.49019 22.0734 7.75083 22.4865 7.9856C22.65 8.0785 22.8063 8.16734 22.9558 8.25267C23.2422 6.70029 24.3567 5.43896 25.8229 4.94599C25.6232 4.83227 25.415 4.71415 25.1979 4.59101C24.6119 4.25855 23.9613 3.88948 23.2391 3.47157C22.5283 3.05976 21.893 2.68459 21.3197 2.34605L21.3197 2.34602C18.6711 0.782007 17.3469 0 16.0226 0Z" fill="#1CAEC9"/>
<path d="M27.195 12.2818C28.9795 12.2818 30.4262 10.832 30.4262 9.04353C30.4262 7.25509 28.9795 5.80527 27.195 5.80527C25.4105 5.80527 23.9639 7.25509 23.9639 9.04353C23.9639 10.832 25.4105 12.2818 27.195 12.2818Z" fill="#1CAEC9"/>
</svg>
