<svg width="20" height="18" viewBox="0 0 20 18" fill="none" xmlns="http://www.w3.org/2000/svg">
<path fill-rule="evenodd" clip-rule="evenodd" d="M4.83375 3.33799C6.397 2.22895 8.37294 1.6547 10.3937 1.73664C12.4145 1.81857 14.3199 2.55006 15.7586 3.7772C17.1954 5.00269 18.0647 6.63345 18.2337 8.35812C18.4025 10.0816 17.8637 11.8124 16.6952 13.2301C15.5243 14.6506 13.798 15.661 11.8261 16.0517C9.85396 16.4424 7.79173 16.1818 6.02757 15.3253C5.87741 15.2524 5.70721 15.2317 5.54394 15.2664L2.12605 15.9936L3.01153 13.3372C3.08527 13.116 3.05193 12.8731 2.92133 12.6799C1.90664 11.1792 1.54636 9.41539 1.89133 7.71111C2.23676 6.00454 3.2721 4.4459 4.83375 3.33799ZM1.16851 17.731C1.10035 17.7467 1.02953 17.7531 0.95799 17.749C0.865939 17.7439 0.776994 17.7218 0.695028 17.6853C0.595531 17.6411 0.509714 17.5772 0.440716 17.4999C0.371574 17.4227 0.317692 17.3302 0.284957 17.2264C0.257794 17.1409 0.24579 17.05 0.251011 16.958C0.254982 16.8864 0.269213 16.8168 0.292521 16.7508L1.47483 13.2039C0.397375 11.449 0.0181242 9.40462 0.421146 7.41353C0.848165 5.30387 2.11807 3.42547 3.96582 2.11459C5.81199 0.804835 8.11762 0.14312 10.4545 0.237871C12.7914 0.332622 15.0232 1.17844 16.732 2.63595C18.4428 4.09511 19.5171 6.07366 19.7265 8.21188C19.9361 10.3513 19.2622 12.4741 17.8526 14.1842C16.4453 15.8915 14.4034 17.0702 12.1176 17.5231C9.91891 17.9586 7.61885 17.6985 5.60954 16.7861L1.16851 17.731ZM10.75 9C10.75 8.58578 10.4142 8.25 10 8.25C9.58581 8.25 9.25002 8.58578 9.25002 9V9.01C9.25002 9.42421 9.58581 9.76 10 9.76C10.4142 9.76 10.75 9.42421 10.75 9.01V9ZM6.00002 8.25C6.41423 8.25 6.75002 8.58578 6.75002 9V9.01C6.75002 9.42421 6.41423 9.76 6.00002 9.76C5.58581 9.76 5.25002 9.42421 5.25002 9.01V9C5.25002 8.58578 5.58581 8.25 6.00002 8.25ZM14.75 9C14.75 8.58578 14.4142 8.25 14 8.25C13.5858 8.25 13.25 8.58578 13.25 9V9.01C13.25 9.42421 13.5858 9.76 14 9.76C14.4142 9.76 14.75 9.42421 14.75 9.01V9Z" fill="white"/>
</svg>
