<svg width="20" height="20" viewBox="0 0 16 20" fill="none" xmlns="http://www.w3.org/2000/svg">
<path fill-rule="evenodd" clip-rule="evenodd" d="M5.75 3C5.75 2.30964 6.30964 1.75 7 1.75H9C9.69036 1.75 10.25 2.30964 10.25 3C10.25 3.69036 9.69036 4.25 9 4.25H7C6.30964 4.25 5.75 3.69036 5.75 3ZM4.35352 2.25C4.67998 1.09575 5.74122 0.25 7 0.25H9C10.2588 0.25 11.32 1.09575 11.6465 2.25H13C13.7293 2.25 14.4288 2.53973 14.9445 3.05546C15.4603 3.57118 15.75 4.27065 15.75 5V17C15.75 17.7293 15.4603 18.4288 14.9445 18.9445C14.4288 19.4603 13.7293 19.75 13 19.75H3C2.27065 19.75 1.57118 19.4603 1.05546 18.9445C0.539731 18.4288 0.25 17.7293 0.25 17V5C0.25 4.27065 0.539731 3.57118 1.05546 3.05546C1.57118 2.53973 2.27065 2.25 3 2.25H4.35352ZM11.6465 3.75H13C13.3315 3.75 13.6495 3.8817 13.8839 4.11612C14.1183 4.35054 14.25 4.66848 14.25 5V17C14.25 17.3315 14.1183 17.6495 13.8839 17.8839C13.6495 18.1183 13.3315 18.25 13 18.25H3C2.66848 18.25 2.35054 18.1183 2.11612 17.8839C1.8817 17.6495 1.75 17.3315 1.75 17V5C1.75 4.66848 1.8817 4.35054 2.11612 4.11612C2.35054 3.8817 2.66848 3.75 3 3.75H4.35352C4.67998 4.90425 5.74122 5.75 7 5.75H9C10.2588 5.75 11.32 4.90425 11.6465 3.75ZM5.25 12C5.25 11.5858 5.58579 11.25 6 11.25H7.25V10C7.25 9.58579 7.58579 9.25 8 9.25C8.41421 9.25 8.75 9.58579 8.75 10V11.25H10C10.4142 11.25 10.75 11.5858 10.75 12C10.75 12.4142 10.4142 12.75 10 12.75H8.75V14C8.75 14.4142 8.41421 14.75 8 14.75C7.58579 14.75 7.25 14.4142 7.25 14V12.75H6C5.58579 12.75 5.25 12.4142 5.25 12Z" fill="white"/>
</svg>
