<svg width="20" height="20" viewBox="0 0 20 20" fill="none" xmlns="http://www.w3.org/2000/svg">
<path fill-rule="evenodd" clip-rule="evenodd" d="M3.75 5C3.75 3.20507 5.20507 1.75 7 1.75C8.79493 1.75 10.25 3.20507 10.25 5C10.25 6.79493 8.79493 8.25 7 8.25C5.20507 8.25 3.75 6.79493 3.75 5ZM7 0.25C4.37665 0.25 2.25 2.37665 2.25 5C2.25 7.62335 4.37665 9.75 7 9.75C9.62335 9.75 11.75 7.62335 11.75 5C11.75 2.37665 9.62335 0.25 7 0.25ZM2.7019 14.7019C3.3114 14.0924 4.13805 13.75 5 13.75H9C9.86195 13.75 10.6886 14.0924 11.2981 14.7019C11.9076 15.3114 12.25 16.138 12.25 17V19C12.25 19.4142 12.5858 19.75 13 19.75C13.4142 19.75 13.75 19.4142 13.75 19V17C13.75 15.7402 13.2496 14.532 12.3588 13.6412C11.468 12.7504 10.2598 12.25 9 12.25H5C3.74022 12.25 2.53204 12.7504 1.64124 13.6412C0.750445 14.532 0.25 15.7402 0.25 17V19C0.25 19.4142 0.585786 19.75 1 19.75C1.41421 19.75 1.75 19.4142 1.75 19V17C1.75 16.138 2.09241 15.3114 2.7019 14.7019ZM13.2734 0.943853C13.3762 0.542584 13.7848 0.300579 14.186 0.40332C15.2078 0.664928 16.1134 1.25915 16.7601 2.09231C17.4068 2.92547 17.7578 3.95018 17.7578 5.00488C17.7578 6.05959 17.4068 7.08429 16.7601 7.91745C16.1134 8.75061 15.2078 9.34484 14.186 9.60645C13.7848 9.70919 13.3762 9.46718 13.2734 9.06591C13.1707 8.66464 13.4127 8.25606 13.814 8.15332C14.5131 7.97433 15.1327 7.56775 15.5752 6.99769C16.0177 6.42763 16.2578 5.72652 16.2578 5.00488C16.2578 4.28325 16.0177 3.58213 15.5752 3.01207C15.1327 2.44201 14.5131 2.03544 13.814 1.85645C13.4127 1.7537 13.1707 1.34512 13.2734 0.943853ZM16.1875 12.4238C15.7864 12.3203 15.3774 12.5615 15.2738 12.9625C15.1703 13.3636 15.4115 13.7727 15.8125 13.8762C16.5071 14.0555 17.1228 14.4596 17.5637 15.0254C18.0041 15.5907 18.2454 16.2857 18.25 17.0023V19C18.25 19.4142 18.5858 19.75 19 19.75C19.4142 19.75 19.75 19.4142 19.75 19L19.75 17L19.75 16.9957C19.744 15.9473 19.3913 14.9304 18.7469 14.1034C18.1025 13.2765 17.2026 12.6859 16.1875 12.4238Z" fill="white"/>
</svg>
