<svg width="20" height="20" viewBox="0 0 18 20" fill="none" xmlns="http://www.w3.org/2000/svg">
<path fill-rule="evenodd" clip-rule="evenodd" d="M13.75 1C13.75 0.585786 13.4142 0.25 13 0.25C12.5858 0.25 12.25 0.585786 12.25 1V2.25H5.75V1C5.75 0.585786 5.41421 0.25 5 0.25C4.58579 0.25 4.25 0.585786 4.25 1V2.25H3C1.48122 2.25 0.25 3.48122 0.25 5V9V17C0.25 18.5188 1.48122 19.75 3 19.75H15C16.5188 19.75 17.75 18.5188 17.75 17V9V5C17.75 3.48122 16.5188 2.25 15 2.25H13.75V1ZM16.25 8.25V5C16.25 4.30964 15.6904 3.75 15 3.75H13.75V5C13.75 5.41421 13.4142 5.75 13 5.75C12.5858 5.75 12.25 5.41421 12.25 5V3.75H5.75V5C5.75 5.41421 5.41421 5.75 5 5.75C4.58579 5.75 4.25 5.41421 4.25 5V3.75H3C2.30964 3.75 1.75 4.30964 1.75 5V8.25H16.25ZM1.75 9.75H16.25V17C16.25 17.6904 15.6904 18.25 15 18.25H3C2.30964 18.25 1.75 17.6904 1.75 17V9.75Z" fill="white"/>
</svg>
