<svg width="26" height="27" viewBox="0 0 26 27" fill="none" xmlns="http://www.w3.org/2000/svg">
<path fill-rule="evenodd" clip-rule="evenodd" d="M11.2408 3.13131C9.86972 3.35383 8.54772 3.83494 7.34721 4.5546C5.63927 5.57844 4.24129 7.04671 3.3024 8.80277C2.3635 10.5588 1.9189 12.5368 2.01602 14.5258C2.11315 16.5147 2.74835 18.44 3.85388 20.0962C4.95941 21.7524 6.4938 23.0775 8.29336 23.9301C10.0929 24.7826 12.0902 25.1307 14.0721 24.9372C16.0539 24.7436 17.9461 24.0157 19.5467 22.8311C20.5422 22.0944 21.4017 21.1982 22.0931 20.1835C20.3933 20.4593 18.6406 20.3341 16.9788 19.8023C14.5291 19.0185 12.4315 17.401 11.0507 15.2311C9.66985 13.0612 9.09305 10.476 9.42056 7.92488C9.6427 6.19453 10.2714 4.55407 11.2408 3.13131ZM13.1457 0.999924C13.0977 0.992851 13.0489 0.989246 12.9998 0.989258C10.6464 0.989826 8.33737 1.62921 6.3189 2.83921C4.30043 4.0492 2.64827 5.78442 1.53866 7.85978C0.429056 9.93513 -0.0963791 12.2728 0.0184049 14.6233C0.133189 16.9739 0.883886 19.2492 2.19042 21.2066C3.49696 23.1639 5.31032 24.7299 7.43708 25.7375C9.56384 26.7451 11.9242 27.1564 14.2664 26.9277C16.6087 26.699 18.8449 25.8387 20.7365 24.4387C22.6282 23.0388 24.1043 21.1515 25.0075 18.9784C25.1622 18.606 25.0782 18.1772 24.7944 17.8907C24.5106 17.6043 24.0825 17.5164 23.7087 17.6677C21.7582 18.4575 19.5925 18.5388 17.5883 17.8975C15.584 17.2561 13.8678 15.9328 12.738 14.1574C11.6082 12.382 11.1363 10.2668 11.4043 8.17955C11.6722 6.0923 12.6631 4.16494 14.2047 2.73249C14.5059 2.45262 14.6051 2.01692 14.4548 1.63425C14.3044 1.25158 13.9352 0.999924 13.524 0.999924H13.1457Z" fill="#1CAEC9"/>
</svg>
