<svg width="32" height="32" viewBox="0 0 32 32" fill="none" xmlns="http://www.w3.org/2000/svg">
<path fill-rule="evenodd" clip-rule="evenodd" d="M16 5C9.92487 5 5 9.92487 5 16C5 22.0751 9.92487 27 16 27C22.0751 27 27 22.0751 27 16C27 9.92487 22.0751 5 16 5ZM3 16C3 8.8203 8.8203 3 16 3C23.1797 3 29 8.8203 29 16C29 23.1797 23.1797 29 16 29C8.8203 29 3 23.1797 3 16Z" fill="#1CAEC9"/>
<path fill-rule="evenodd" clip-rule="evenodd" d="M11 13.3333C11 12.781 11.4477 12.3333 12 12.3333H12.0133C12.5656 12.3333 13.0133 12.781 13.0133 13.3333C13.0133 13.8855 12.5656 14.3333 12.0133 14.3333H12C11.4477 14.3333 11 13.8855 11 13.3333Z" fill="#1CAEC9"/>
<path fill-rule="evenodd" clip-rule="evenodd" d="M19 13.3333C19 12.781 19.4477 12.3333 20 12.3333H20.0133C20.5656 12.3333 21.0133 12.781 21.0133 13.3333C21.0133 13.8855 20.5656 14.3333 20.0133 14.3333H20C19.4477 14.3333 19 13.8855 19 13.3333Z" fill="#1CAEC9"/>
<path fill-rule="evenodd" clip-rule="evenodd" d="M11.9666 19.2857C12.3611 18.8992 12.9943 18.9057 13.3808 19.3001C13.7222 19.6486 14.1297 19.9254 14.5794 20.1144C15.0291 20.3033 15.512 20.4007 15.9998 20.4007C16.4876 20.4007 16.9706 20.3033 17.4203 20.1144C17.87 19.9254 18.2775 19.6486 18.6189 19.3001C19.0054 18.9057 19.6385 18.8992 20.033 19.2857C20.4275 19.6722 20.434 20.3054 20.0475 20.6999C19.5198 21.2383 18.8901 21.6661 18.1951 21.9582C17.5 22.2502 16.7537 22.4007 15.9998 22.4007C15.2459 22.4007 14.4996 22.2502 13.8046 21.9582C13.1096 21.6661 12.4798 21.2383 11.9522 20.6999C11.5657 20.3054 11.5722 19.6722 11.9666 19.2857Z" fill="#1CAEC9"/>
</svg>
