<svg width="24" height="24" viewBox="0 0 24 24" fill="none" xmlns="http://www.w3.org/2000/svg">
<path fill-rule="evenodd" clip-rule="evenodd" d="M4 13.75C3.86193 13.75 3.75 13.8619 3.75 14V16C3.75 16.1381 3.86193 16.25 4 16.25H20C20.1381 16.25 20.25 16.1381 20.25 16V14C20.25 13.8619 20.1381 13.75 20 13.75H4ZM2.25 14C2.25 13.0335 3.0335 12.25 4 12.25H20C20.9665 12.25 21.75 13.0335 21.75 14V16C21.75 16.9665 20.9665 17.75 20 17.75H4C3.0335 17.75 2.25 16.9665 2.25 16V14Z" fill="#A5ADC0"/>
<path fill-rule="evenodd" clip-rule="evenodd" d="M8 12.25C8.41421 12.25 8.75 12.5858 8.75 13V17C8.75 17.4142 8.41421 17.75 8 17.75C7.58579 17.75 7.25 17.4142 7.25 17V13C7.25 12.5858 7.58579 12.25 8 12.25Z" fill="#A5ADC0"/>
<path fill-rule="evenodd" clip-rule="evenodd" d="M16 4.25C16.4142 4.25 16.75 4.58579 16.75 5V5.5C16.75 5.83152 16.8817 6.14946 17.1161 6.38388C17.3505 6.6183 17.6685 6.75 18 6.75C18.7293 6.75 19.4288 7.03973 19.9445 7.55546C20.4603 8.07118 20.75 8.77065 20.75 9.5V10C20.75 10.4142 20.4142 10.75 20 10.75C19.5858 10.75 19.25 10.4142 19.25 10V9.5C19.25 9.16848 19.1183 8.85054 18.8839 8.61612C18.6495 8.3817 18.3315 8.25 18 8.25C17.2707 8.25 16.5712 7.96027 16.0555 7.44454C15.5397 6.92882 15.25 6.22935 15.25 5.5V5C15.25 4.58579 15.5858 4.25 16 4.25Z" fill="#A5ADC0"/>
</svg>
