<svg width="20" height="24" viewBox="0 0 20 24" fill="none" xmlns="http://www.w3.org/2000/svg">
<path d="M7.37494 11.5706C7.78791 14.3184 7.03134 15.8208 4.89478 16.1367C2.52056 16.4878 1.54228 14.8973 1.12931 12.1495C0.573846 8.45202 1.87931 6.15234 3.74072 6.00421C5.43478 5.86968 6.9615 8.82327 7.37494 11.5706ZM8.48353 19.1967C8.63025 20.7567 7.78697 22.2126 6.51478 22.462C5.23041 22.7133 3.76275 21.6947 3.46369 20.1562C3.16463 18.6178 4.29572 18.5362 5.68181 18.2714C7.06791 18.0066 8.30634 17.3151 8.48353 19.1967ZM12.6249 7.07015C12.212 9.81796 12.9685 11.3203 15.1046 11.6362C17.4793 11.9873 18.4571 10.3969 18.8701 7.64905C19.426 3.95109 18.1201 1.63874 16.2592 1.50374C14.5529 1.37999 13.0384 4.32234 12.6249 7.07015ZM11.5163 14.6967C11.3696 16.2562 12.2129 17.7126 13.4851 17.962C14.7695 18.2133 16.2371 17.1947 16.5362 15.6562C16.8353 14.1178 15.7042 14.0362 14.3181 13.7709C12.932 13.5056 11.6935 12.8147 11.5163 14.6967V14.6967Z" stroke="#A5ADC0" stroke-width="1.5" stroke-miterlimit="10"/>
</svg>
