<svg width="20" height="20" viewBox="0 0 20 20" fill="none" xmlns="http://www.w3.org/2000/svg">
<path fill-rule="evenodd" clip-rule="evenodd" d="M10 0C4.48 0 0 4.48 0 10C0 15.52 4.48 20 10 20C15.52 20 20 15.52 20 10C20 4.48 15.52 0 10 0ZM8 15L3.70549 10.7055C3.31586 10.3159 3.31586 9.68414 3.70549 9.29451C4.09474 8.90526 4.7257 8.90482 5.11549 9.29352L8 12.17L14.8804 5.28961C15.2719 4.89811 15.9074 4.89963 16.2975 5.29251C16.6857 5.68343 16.6849 6.31506 16.2954 6.70461L8 15Z" fill="#21B089"/>
</svg>
