<svg width="18" height="18" viewBox="0 0 18 18" fill="none" xmlns="http://www.w3.org/2000/svg">
<path fill-rule="evenodd" clip-rule="evenodd" d="M3 1.75C2.30964 1.75 1.75 2.30964 1.75 3V15C1.75 15.6904 2.30964 16.25 3 16.25H15C15.6904 16.25 16.25 15.6904 16.25 15V3C16.25 2.30964 15.6904 1.75 15 1.75H3ZM0.25 3C0.25 1.48122 1.48122 0.25 3 0.25H15C16.5188 0.25 17.75 1.48122 17.75 3V15C17.75 16.5188 16.5188 17.75 15 17.75H3C1.48122 17.75 0.25 16.5188 0.25 15V3Z" fill="#18338C"/>
<path fill-rule="evenodd" clip-rule="evenodd" d="M0.25 7C0.25 6.58579 0.58579 6.25 1 6.25H17C17.4142 6.25 17.75 6.58579 17.75 7C17.75 7.4142 17.4142 7.75 17 7.75H1C0.58579 7.75 0.25 7.4142 0.25 7Z" fill="#18338C"/>
<path fill-rule="evenodd" clip-rule="evenodd" d="M7 0.25C7.4142 0.25 7.75 0.58579 7.75 1V17C7.75 17.4142 7.4142 17.75 7 17.75C6.58579 17.75 6.25 17.4142 6.25 17V1C6.25 0.58579 6.58579 0.25 7 0.25Z" fill="#18338C"/>
</svg>
