<svg width="8" height="6" viewBox="0 0 8 6" fill="none" xmlns="http://www.w3.org/2000/svg">
<path d="M3.78006 5.23097L0.0442734 0.357284C0.0177827 0.322662 0.00258635 0.282438 0.000301827 0.240898C-0.00198365 0.199358 0.00872945 0.158057 0.0312996 0.121393C0.0538688 0.0847295 0.0874491 0.0540768 0.128465 0.0326995C0.16948 0.0113222 0.216395 2.1143e-05 0.264213 -3.38142e-07L7.73579 -1.15491e-08C7.7836 2.14738e-05 7.83052 0.0113225 7.87153 0.0326998C7.91255 0.0540771 7.94613 0.0847298 7.9687 0.121393C7.99127 0.158057 8.00198 0.199358 7.9997 0.240899C7.99741 0.282439 7.98222 0.322662 7.95573 0.357284L4.21994 5.23097C4.1958 5.26246 4.16309 5.28828 4.12472 5.30613C4.08636 5.32399 4.04351 5.33333 4 5.33333C3.95648 5.33333 3.91364 5.32399 3.87527 5.30613C3.83691 5.28828 3.8042 5.26246 3.78006 5.23097Z" fill="#A5ADC0"/>
</svg>
