<svg width="18" height="17" viewBox="0 0 18 17" fill="none" xmlns="http://www.w3.org/2000/svg">
<path fill-rule="evenodd" clip-rule="evenodd" d="M3.79167 4.33333C3.79167 2.83756 5.00423 1.625 6.5 1.625C7.99577 1.625 9.20833 2.83756 9.20833 4.33333C9.20833 5.8291 7.99577 7.04167 6.5 7.04167C5.00423 7.04167 3.79167 5.8291 3.79167 4.33333ZM6.5 0.375C4.31387 0.375 2.54167 2.14721 2.54167 4.33333C2.54167 6.51946 4.31387 8.29167 6.5 8.29167C8.68613 8.29167 10.4583 6.51946 10.4583 4.33333C10.4583 2.14721 8.68613 0.375 6.5 0.375ZM2.91825 12.4183C3.42616 11.9103 4.11504 11.625 4.83333 11.625H8.16667C8.88496 11.625 9.57384 11.9103 10.0817 12.4183C10.5897 12.9262 10.875 13.615 10.875 14.3333V16C10.875 16.3452 11.1548 16.625 11.5 16.625C11.8452 16.625 12.125 16.3452 12.125 16V14.3333C12.125 13.2835 11.708 12.2767 10.9656 11.5344C10.2233 10.792 9.21648 10.375 8.16667 10.375H4.83333C3.78352 10.375 2.7767 10.792 2.03437 11.5344C1.29204 12.2767 0.875 13.2835 0.875 14.3333V16C0.875 16.3452 1.15482 16.625 1.5 16.625C1.84518 16.625 2.125 16.3452 2.125 16V14.3333C2.125 13.615 2.41034 12.9262 2.91825 12.4183ZM11.7279 0.953211C11.8135 0.61882 12.154 0.417149 12.4884 0.502767C13.3398 0.720773 14.0945 1.21596 14.6334 1.91026C15.1723 2.60456 15.4649 3.45848 15.4649 4.3374C15.4649 5.21632 15.1723 6.07024 14.6334 6.76454C14.0945 7.45884 13.3398 7.95403 12.4884 8.17204C12.154 8.25766 11.8135 8.05598 11.7279 7.72159C11.6422 7.3872 11.8439 7.04672 12.1783 6.9611C12.7609 6.81194 13.2772 6.47313 13.646 5.99808C14.0147 5.52303 14.2149 4.93877 14.2149 4.3374C14.2149 3.73604 14.0147 3.15178 13.646 2.67673C13.2772 2.20168 12.7609 1.86287 12.1783 1.7137C11.8439 1.62809 11.6422 1.2876 11.7279 0.953211ZM14.1562 10.5199C13.822 10.4336 13.4811 10.6346 13.3948 10.9688C13.3086 11.303 13.5095 11.6439 13.8438 11.7302C14.4225 11.8796 14.9356 12.2163 15.3031 12.6878C15.6701 13.1589 15.8712 13.7381 15.875 14.3352V16C15.875 16.3452 16.1548 16.625 16.5 16.625C16.8452 16.625 17.125 16.3452 17.125 16L17.125 14.3334L17.125 14.3298C17.12 13.4561 16.8261 12.6087 16.2891 11.9195C15.7521 11.2304 15.0022 10.7383 14.1562 10.5199Z" fill="#A5ADC0"/>
</svg>
