<svg width="20" height="20" viewBox="0 0 20 20" fill="none" xmlns="http://www.w3.org/2000/svg">
<path fill-rule="evenodd" clip-rule="evenodd" d="M1.75 5C1.75 3.20507 3.20507 1.75 5 1.75H15C16.7949 1.75 18.25 3.20507 18.25 5V15C18.25 16.7949 16.7949 18.25 15 18.25H5C3.20507 18.25 1.75 16.7949 1.75 15V5ZM5 0.25C2.37665 0.25 0.25 2.37665 0.25 5V15C0.25 17.6234 2.37665 19.75 5 19.75H15C17.6234 19.75 19.75 17.6234 19.75 15V5C19.75 2.37665 17.6234 0.25 15 0.25H5ZM7.5815 6.23471C8.34694 5.9136 9.16885 5.74872 9.99892 5.74976L9.99986 5.74976C11.4762 5.74976 12.8318 6.26079 13.9013 7.11671L11.973 9.01114C11.3843 8.64675 10.7017 8.44988 10 8.44976C9.29827 8.44963 8.6157 8.64624 8.02686 9.0104L6.09807 7.1162C6.54831 6.75573 7.0474 6.45877 7.5815 6.23471ZM7.00123 4.85149C7.95086 4.45312 8.97053 4.24854 10.0003 4.24976C12.1655 4.24989 14.1238 5.13866 15.5289 6.56921C15.8192 6.8647 15.8149 7.33951 15.5195 7.62978L12.5635 10.5338C12.2778 10.8144 11.822 10.8211 11.5282 10.549C11.1124 10.1639 10.5665 9.94986 9.99972 9.94976C9.43303 9.94966 8.88717 10.1634 8.47122 10.5483C8.17742 10.8201 7.72193 10.8133 7.43635 10.5329L4.48035 7.62987C4.18507 7.33988 4.18049 6.86553 4.47012 6.5699C5.1909 5.83417 6.05146 5.24993 7.00123 4.85149Z" fill="#A5ADC0"/>
</svg>
